<svg fill="none" stroke-linecap="square" stroke-miterlimit="10" width="669" height="665" xmlns="http://www.w3.org/2000/svg"><path fill="#242424" d="M0 0h669v665H0V0Z"/><path stroke="#3a3a3a" stroke-linecap="butt" d="M19.5.5v665m71-665v665m62-665v665m54-665v665m49-665v665m320-665v665m-575-45h669m-669-44h669m-669-89h669m-669-44h669m-669-89h669m-669-44h669m-669-89h669m-669-44h669m-669-89h669m-669-44h669"/><path stroke="#000" stroke-linecap="butt" d="M.5 665.5V.5"/><clipPath id="a"><path d="M0 0h669v665H0V0Z"/></clipPath><path stroke="#ed333b" stroke-width="2" stroke-linecap="butt" clip-path="url(#a)" d="M11.1 599.16s80.05-116.35 120.07-166.7c40.02-50.35 84.06-100.45 126.09-142.19 42.02-41.74 85.17-78.67 127-109.01 41.82-30.35 83.64-52.84 125.47-74.35 41.82-21.51 131.51-57.36 131.51-57.36"/><path stroke="#e5a50a" stroke-width="2" stroke-linecap="butt" clip-path="url(#a)" d="M28.78 580.09s76.6-113.22 114.9-160.5c38.3-47.26 84.18-95.37 126.27-135.28 42.09-39.92 86.28-76.3 129.41-106.77 43.14-30.47 89.29-55.76 132.2-77.66 42.9-21.9 128.7-55.8 128.7-55.8"/><path clip-path="url(#a)" d="M14.1 599.16a3 3 0 1 1-6 0 3 3 0 0 1 6 0Zm120.07-166.7a3 3 0 1 1-6 0 3 3 0 0 1 6 0Zm126.09-142.19a3 3 0 1 1-6 0 3 3 0 0 1 6 0Zm126.99-109.01a3 3 0 1 1-6 0 3 3 0 0 1 6 0Zm125.48-74.36a3 3 0 1 1-6 0 3 3 0 0 1 6 0Zm131.51-57.35a3 3 0 1 1-6 0 3 3 0 0 1 6 0ZM31.78 580.09a3 3 0 1 1-6 0 3 3 0 0 1 6 0ZM146.69 419.6a3 3 0 1 1-6 0 3 3 0 0 1 6 0Zm126.26-135.3a3 3 0 1 1-6 0 3 3 0 0 1 6 0Zm129.41-106.76a3 3 0 1 1-6 0 3 3 0 0 1 6 0Zm132.19-77.66a3 3 0 1 1-6 0 3 3 0 0 1 6 0Zm128.7-55.79a3 3 0 1 1-6 0 3 3 0 0 1 6 0Z"/><path stroke="#242424" stroke-width="3" stroke-linejoin="round" stroke-linecap="round" d="M440.38 10.07v3.81q1.05-1.36 2.52-1.36 1.25 0 2.14.93.9.9.9 2.23t-.9 2.27q-.9.92-2.14.92-1.5 0-2.52-1.35v1.13h-1.34q-.2 0-.3-.08-.08-.1-.08-.2 0-.14.08-.22.1-.08.3-.08h.78v-7.42h-.78q-.2 0-.3-.08-.08-.08-.08-.22 0-.12.08-.2.1-.08.3-.08h1.34Zm4.99 5.63q0-1.08-.75-1.83-.74-.77-1.74-.77t-1.75.77q-.73.75-.73 1.83 0 1.1.73 1.86.75.75 1.75.75t1.74-.75q.75-.77.75-1.86Zm5.46-5.9v1.46H450V9.79h.84Zm.02 2.93v5.34h2.27q.2 0 .3.08.09.08.09.22 0 .1-.1.2-.1.08-.3.08h-5.09q-.2 0-.3-.08-.07-.1-.07-.2 0-.14.08-.22.09-.08.3-.08h2.26v-4.76h-1.69q-.2 0-.3-.08-.1-.08-.1-.2 0-.13.1-.2.1-.1.3-.1h2.25Zm6.52 0h3.12q.2 0 .28.1.1.07.1.2 0 .12-.1.2-.08.08-.28.08h-3.12v3.82q0 .5.4.85.4.33 1.17.33.58 0 1.25-.18.7-.18 1.07-.4.14-.08.22-.08.1 0 .18.1.1.07.1.18 0 .11-.1.19-.22.23-1.06.5-.84.25-1.6.25-1.02 0-1.62-.47-.6-.47-.6-1.27v-3.82h-1.05q-.2 0-.3-.08-.08-.08-.08-.22 0-.11.08-.19.1-.1.3-.1h1.06v-1.68q0-.22.08-.3.09-.09.21-.09.13 0 .2.1.09.07.09.3v1.68Zm8.5 0v1.45q1.12-1.01 1.67-1.3.56-.3 1.03-.3.51 0 .95.35.44.35.44.52 0 .14-.1.23-.07.08-.2.08-.06 0-.1-.02l-.2-.17q-.23-.23-.42-.31-.17-.1-.34-.1-.38 0-.9.3-.54.3-1.83 1.47v3.14h2.54q.2 0 .3.08.1.08.1.22 0 .1-.1.2-.1.08-.3.08h-4.51q-.2 0-.3-.08-.08-.08-.08-.2 0-.11.08-.19.1-.08.3-.08h1.39v-4.8h-1.06q-.2 0-.3-.07-.08-.08-.08-.22 0-.11.08-.19.1-.1.3-.1h1.64Zm10.34 5.92v-.83q-1.27 1.05-2.69 1.05-1.03 0-1.6-.52-.59-.53-.59-1.28 0-.83.77-1.45.77-.63 2.23-.63.4 0 .86.05.47.05 1.02.16v-.92q0-.47-.44-.82-.44-.36-1.31-.36-.67 0-1.9.4-.21.06-.27.06-.11 0-.19-.08t-.08-.2q0-.11.08-.2.1-.09.77-.27 1.06-.29 1.6-.29 1.1 0 1.7.55.62.53.62 1.2v3.8h.76q.2 0 .3.08.1.08.1.22 0 .1-.1.2-.1.08-.3.08h-1.34Zm0-2.86q-.4-.1-.86-.16-.45-.06-.95-.06-1.25 0-1.96.53-.53.4-.53.97 0 .52.4.88.42.36 1.2.36.73 0 1.37-.3.64-.3 1.33-.95v-1.27Zm5.16-3.06h3.12q.2 0 .28.1.1.07.1.2 0 .12-.1.2-.08.08-.28.08h-3.12v3.82q0 .5.4.85.4.33 1.17.33.58 0 1.25-.18.7-.18 1.07-.4.14-.08.22-.08.1 0 .18.1.1.07.1.18 0 .11-.1.19-.22.23-1.06.5-.84.25-1.6.25-1.02 0-1.62-.47-.6-.47-.6-1.27v-3.82h-1.05q-.2 0-.3-.08-.08-.08-.08-.22 0-.11.08-.19.1-.1.3-.1h1.06v-1.68q0-.22.08-.3.09-.09.21-.09.13 0 .2.1.09.07.09.3v1.68Zm12.3 3.1h-5.87q.16 1.12.94 1.8.78.68 1.94.68.64 0 1.34-.2.7-.23 1.16-.59.12-.09.22-.09t.18.1q.1.07.1.18 0 .11-.11.22-.33.34-1.17.64-.85.3-1.72.3-1.49 0-2.47-.95-.98-.97-.98-2.35 0-1.25.92-2.14.93-.9 2.3-.9 1.4 0 2.3.92.93.92.91 2.37Zm-.59-.59q-.17-.95-.9-1.54-.74-.6-1.74-.6t-1.73.6q-.72.58-.9 1.54h5.27Zm13.41 0q0-.78.2-1.65.2-.9.79-2.05.57-1.16.84-1.39.1-.08.19-.08.12 0 .2.08.1.08.1.2 0 .07-.05.14-.77 1.4-1.1 2.52-.31 1.1-.31 2.23t.31 2.25q.33 1.13 1.1 2.5.04.08.04.14 0 .13-.1.2-.07.1-.2.1-.09 0-.18-.08-.25-.23-.83-1.36-.56-1.12-.78-1.98-.22-.88-.22-1.77Zm6.9.85v2.56h-1.35q-.2 0-.3-.08-.08-.1-.08-.2 0-.14.08-.22.1-.08.3-.08h.78v-7.42h-.78q-.2 0-.3-.08-.08-.08-.08-.22 0-.12.08-.2.1-.08.3-.08h1.34v5.3l2.44-2.06h-.28q-.2 0-.3-.08-.1-.08-.1-.2 0-.13.1-.2.1-.1.3-.1h1.83q.21 0 .3.1.09.07.09.2 0 .12-.1.2-.08.08-.3.08h-.65l-2.25 1.87 2.84 2.9h.66q.22 0 .3.07.09.08.09.22 0 .1-.1.2-.07.08-.3.08h-1.85q-.2 0-.3-.08-.07-.1-.07-.2 0-.14.07-.22.1-.08.3-.08h.4l-2.46-2.53-.66.55Zm7-6.02v3.81q1.04-1.36 2.5-1.36 1.26 0 2.15.93.9.9.9 2.23t-.9 2.27q-.9.92-2.14.92-1.5 0-2.52-1.35v1.13h-1.34q-.2 0-.3-.08-.08-.1-.08-.2 0-.14.08-.22.1-.08.3-.08h.78v-7.42h-.78q-.2 0-.3-.08-.08-.08-.08-.22 0-.12.08-.2.1-.08.3-.08h1.34Zm4.98 5.63q0-1.08-.75-1.83-.74-.77-1.74-.77t-1.75.77q-.73.75-.73 1.83 0 1.1.73 1.86.75.75 1.75.75t1.74-.75q.75-.77.75-1.86Zm7.76-6.05-4.62 9.9q-.11.26-.3.26-.11 0-.2-.1-.08-.08-.08-.19 0-.07.06-.21l4.61-9.91q.08-.16.14-.2.08-.05.17-.05.11 0 .19.1.1.07.1.18 0 .08-.07.22Zm7.31 3.45q0-.2.08-.28.1-.1.22-.1.13 0 .2.1.08.08.08.3v.98q0 .2-.08.3-.07.1-.2.1-.12 0-.2-.08-.08-.08-.1-.25-.03-.41-.42-.68-.56-.39-1.48-.39-.96 0-1.5.4-.4.3-.4.65 0 .4.48.69.32.19 1.25.3 1.18.12 1.65.28.67.25.99.67.32.42.32.92 0 .72-.7 1.3-.7.56-2.06.56t-2.24-.69q0 .24-.03.31-.01.07-.1.11-.05.05-.15.05-.12 0-.2-.08-.08-.1-.08-.31v-1.17q0-.2.08-.3.08-.1.2-.1.13 0 .2.1.1.08.1.22 0 .33.16.53.23.33.75.55.53.22 1.3.22 1.1 0 1.65-.43.55-.42.55-.87 0-.55-.55-.86-.56-.33-1.64-.44-1.06-.1-1.53-.28-.46-.17-.72-.53-.27-.36-.27-.77 0-.73.72-1.17.74-.44 1.74-.44 1.2 0 1.93.58Zm6.28 2.16q0 .78-.21 1.66-.2.87-.78 2.03-.58 1.17-.85 1.4-.08.08-.17.08-.13 0-.22-.1-.08-.07-.08-.2 0-.06.05-.14.75-1.37 1.06-2.5.33-1.12.33-2.23 0-1.14-.33-2.25-.31-1.13-1.06-2.52-.05-.07-.05-.14 0-.12.08-.2.1-.08.22-.08.1 0 .17.08.25.23.83 1.36.58 1.12.8 2 .22.86.22 1.75Zm18.41-5.61-4.62 9.9q-.11.26-.3.26-.11 0-.2-.1-.08-.08-.08-.19 0-.07.06-.21l4.61-9.91q.08-.16.14-.2.08-.05.17-.05.11 0 .19.1.1.07.1.18 0 .08-.07.22Zm15.31 3.45q0-.2.08-.28.1-.1.22-.1.13 0 .2.1.08.08.08.3v.98q0 .2-.08.3-.07.1-.2.1-.12 0-.2-.08-.08-.08-.1-.25-.03-.41-.42-.68-.56-.39-1.48-.39-.96 0-1.5.4-.4.3-.4.65 0 .4.48.69.32.19 1.25.3 1.18.12 1.65.28.67.25.99.67.32.42.32.92 0 .72-.7 1.3-.7.56-2.06.56t-2.24-.69q0 .24-.03.31-.01.07-.1.11-.05.05-.15.05-.12 0-.2-.08-.08-.1-.08-.31v-1.17q0-.2.08-.3.08-.1.2-.1.13 0 .2.1.1.08.1.22 0 .33.16.53.23.33.75.55.53.22 1.3.22 1.1 0 1.65-.43.55-.42.55-.87 0-.55-.55-.86-.56-.33-1.64-.44-1.06-.1-1.53-.28-.46-.17-.72-.53-.27-.36-.27-.77 0-.73.72-1.17.74-.44 1.74-.44 1.2 0 1.93.58Zm8 0q0-.2.08-.28.1-.1.22-.1.13 0 .2.1.08.08.08.3v.98q0 .2-.08.3-.07.1-.2.1-.12 0-.2-.08-.08-.08-.1-.25-.03-.41-.42-.68-.56-.39-1.48-.39-.96 0-1.5.4-.4.3-.4.65 0 .4.48.69.32.19 1.25.3 1.18.12 1.65.28.67.25.99.67.32.42.32.92 0 .72-.7 1.3-.7.56-2.06.56t-2.24-.69q0 .24-.03.31-.01.07-.1.11-.05.05-.15.05-.12 0-.2-.08-.08-.1-.08-.31v-1.17q0-.2.08-.3.08-.1.2-.1.13 0 .2.1.1.08.1.22 0 .33.16.53.23.33.75.55.53.22 1.3.22 1.1 0 1.65-.43.55-.42.55-.87 0-.55-.55-.86-.56-.33-1.64-.44-1.06-.1-1.53-.28-.46-.17-.72-.53-.27-.36-.27-.77 0-.73.72-1.17.74-.44 1.74-.44 1.2 0 1.93.58Zm6.4-3.3v1.46h-.85V9.79h.84Zm.01 2.93v5.34h2.27q.2 0 .3.08.09.08.09.22 0 .1-.1.2-.1.08-.3.08h-5.09q-.2 0-.3-.08-.07-.1-.07-.2 0-.14.08-.22.09-.08.3-.08h2.26v-4.76h-1.69q-.2 0-.3-.08-.1-.08-.1-.2 0-.13.1-.2.1-.1.3-.1h2.25Zm5.1 0v.58q.71-.79 1.46-.79.44 0 .77.24.34.23.56.72.4-.49.78-.72.4-.23.8-.23.6 0 .98.4.49.52.49 1.13v4.01h.48q.2 0 .3.08.1.08.1.22 0 .1-.1.2-.1.08-.3.08h-1.06v-4.53q0-.44-.27-.72-.26-.3-.6-.3-.32 0-.68.24-.34.23-.78.94v3.8h.47q.2 0 .3.07.1.08.1.22 0 .1-.1.2-.1.08-.3.08h-1.06v-4.48q0-.47-.27-.77-.26-.3-.6-.3-.3 0-.6.2-.42.29-.88.97v3.8h.49q.2 0 .28.08.1.08.1.22 0 .1-.1.2-.08.08-.28.08h-1.55q-.2 0-.3-.08-.09-.1-.09-.2 0-.14.1-.22.09-.08.3-.08h.48v-4.76h-.49q-.2 0-.3-.08-.09-.08-.09-.22 0-.11.1-.19.09-.1.3-.1h1.05Zm12.57 5.92v-.84q-1.19 1.06-2.54 1.06-.85 0-1.29-.45-.56-.6-.56-1.41v-3.7h-.78q-.2 0-.3-.08-.07-.08-.07-.22 0-.11.07-.19.1-.1.3-.1h1.36v4.29q0 .56.34.94.36.36.9.36 1.4 0 2.57-1.3v-3.7h-1.06q-.2 0-.3-.08-.1-.08-.1-.22 0-.11.1-.19.1-.1.3-.1h1.62v5.35h.49q.22 0 .3.08.09.08.09.22 0 .1-.1.2-.07.08-.3.08h-1.04Zm6.31-8.58v8h2.27q.2 0 .3.08.1.08.1.22 0 .1-.1.2-.1.08-.3.08H616q-.2 0-.3-.08-.07-.1-.07-.2 0-.14.08-.22.1-.08.3-.08h2.26v-7.42h-1.65q-.2 0-.3-.08-.1-.08-.1-.22 0-.12.08-.2.1-.08.32-.08h2.21Zm9.38 8.58v-.83q-1.27 1.05-2.69 1.05-1.03 0-1.6-.52-.59-.53-.59-1.28 0-.83.77-1.45.77-.63 2.23-.63.4 0 .86.05.47.05 1.02.16v-.92q0-.47-.44-.82-.44-.36-1.31-.36-.67 0-1.9.4-.21.06-.27.06-.11 0-.19-.08t-.08-.2q0-.11.08-.2.1-.09.77-.27 1.06-.29 1.6-.29 1.1 0 1.7.55.62.53.62 1.2v3.8h.76q.2 0 .3.08.1.08.1.22 0 .1-.1.2-.1.08-.3.08h-1.34Zm0-2.86q-.4-.1-.86-.16-.45-.06-.95-.06-1.25 0-1.96.53-.53.4-.53.97 0 .52.4.88.42.36 1.2.36.73 0 1.37-.3.64-.3 1.33-.95v-1.27Zm8.73-2.48v-.2q0-.21.08-.29.1-.1.22-.1.13 0 .2.1.08.08.08.3v1.3q0 .21-.08.3-.07.09-.2.09-.12 0-.2-.08-.08-.08-.1-.27-.03-.48-.64-.92-.6-.44-1.6-.44-1.29 0-1.94.82-.66.8-.66 1.82 0 1.11.72 1.85.73.72 1.9.72.66 0 1.35-.25.7-.25 1.26-.8.14-.14.25-.14.13 0 .2.08.09.07.09.2 0 .3-.7.75-1.12.72-2.48.72-1.39 0-2.28-.88-.89-.89-.89-2.25 0-1.39.9-2.3.93-.91 2.3-.91 1.33 0 2.22.78Zm4.93-.58v1.45q1.12-1.01 1.67-1.3.56-.3 1.03-.3.51 0 .95.35.44.35.44.52 0 .14-.1.23-.07.08-.2.08-.06 0-.1-.02l-.2-.17q-.23-.23-.42-.31-.17-.1-.34-.1-.38 0-.9.3-.54.3-1.83 1.47v3.14h2.54q.2 0 .3.08.1.08.1.22 0 .1-.1.2-.1.08-.3.08h-4.51q-.2 0-.3-.08-.08-.08-.08-.2 0-.11.08-.19.1-.08.3-.08h1.39v-4.8h-1.06q-.2 0-.3-.07-.08-.08-.08-.22 0-.11.08-.19.1-.1.3-.1h1.64Zm10.34 5.92v-.83q-1.27 1.05-2.69 1.05-1.03 0-1.6-.52-.59-.53-.59-1.28 0-.83.77-1.45.77-.63 2.23-.63.4 0 .86.05.47.05 1.02.16v-.92q0-.47-.44-.82-.44-.36-1.31-.36-.67 0-1.9.4-.21.06-.27.06-.11 0-.19-.08t-.08-.2q0-.11.08-.2.1-.09.77-.27 1.06-.29 1.6-.29 1.1 0 1.7.55.62.53.62 1.2v3.8h.76q.2 0 .3.08.1.08.1.22 0 .1-.1.2-.1.08-.3.08h-1.34Zm0-2.86q-.4-.1-.86-.16-.45-.06-.95-.06-1.25 0-1.96.53-.53.4-.53.97 0 .52.4.88.42.36 1.2.36.73 0 1.37-.3.64-.3 1.33-.95v-1.27Zm3.87 2.28h4.41v-.22q0-.2.08-.3.08-.09.22-.09.12 0 .2.1.08.09.08.3v.79h-5.55v-.84q1.75-1.58 3.4-3.2.77-.77 1.06-1.12.3-.36.39-.62.1-.28.1-.55 0-.73-.59-1.3-.6-.57-1.42-.57-.77 0-1.34.43-.58.43-.75 1.07-.05.15-.1.2-.1.08-.2.08-.11 0-.19-.08t-.08-.19q0-.33.36-.89t.99-.87q.64-.33 1.3-.33 1.07 0 1.84.75.78.73.78 1.69 0 .39-.14.71-.13.33-.44.74-.31.39-1.1 1.17-2.04 2-3.3 3.11v.03Z"/><path fill="#bdbdbd" d="M440.38 10.07v3.81q1.05-1.36 2.52-1.36 1.25 0 2.14.93.9.9.9 2.23t-.9 2.27q-.9.92-2.14.92-1.5 0-2.52-1.35v1.13h-1.34q-.2 0-.3-.08-.08-.1-.08-.2 0-.14.08-.22.1-.08.3-.08h.78v-7.42h-.78q-.2 0-.3-.08-.08-.08-.08-.22 0-.12.08-.2.1-.08.3-.08h1.34Zm4.99 5.63q0-1.08-.75-1.83-.74-.77-1.74-.77t-1.75.77q-.73.75-.73 1.83 0 1.1.73 1.86.75.75 1.75.75t1.74-.75q.75-.77.75-1.86Zm5.46-5.9v1.46H450V9.79h.84Zm.02 2.93v5.34h2.27q.2 0 .3.08.09.08.09.22 0 .1-.1.2-.1.08-.3.08h-5.09q-.2 0-.3-.08-.07-.1-.07-.2 0-.14.08-.22.09-.08.3-.08h2.26v-4.76h-1.69q-.2 0-.3-.08-.1-.08-.1-.2 0-.13.1-.2.1-.1.3-.1h2.25Zm6.52 0h3.12q.2 0 .28.1.1.07.1.2 0 .12-.1.2-.08.08-.28.08h-3.12v3.82q0 .5.4.85.4.33 1.17.33.58 0 1.25-.18.7-.18 1.07-.4.14-.08.22-.08.1 0 .18.1.1.07.1.18 0 .11-.1.19-.22.23-1.06.5-.84.25-1.6.25-1.02 0-1.62-.47-.6-.47-.6-1.27v-3.82h-1.05q-.2 0-.3-.08-.08-.08-.08-.22 0-.11.08-.19.1-.1.3-.1h1.06v-1.68q0-.22.08-.3.09-.09.21-.09.13 0 .2.1.09.07.09.3v1.68Zm8.5 0v1.45q1.12-1.01 1.67-1.3.56-.3 1.03-.3.51 0 .95.35.44.35.44.52 0 .14-.1.23-.07.08-.2.08-.06 0-.1-.02l-.2-.17q-.23-.23-.42-.31-.17-.1-.34-.1-.38 0-.9.3-.54.3-1.83 1.47v3.14h2.54q.2 0 .3.08.1.08.1.22 0 .1-.1.2-.1.08-.3.08h-4.51q-.2 0-.3-.08-.08-.08-.08-.2 0-.11.08-.19.1-.08.3-.08h1.39v-4.8h-1.06q-.2 0-.3-.07-.08-.08-.08-.22 0-.11.08-.19.1-.1.3-.1h1.64Zm10.34 5.92v-.83q-1.27 1.05-2.69 1.05-1.03 0-1.6-.52-.59-.53-.59-1.28 0-.83.77-1.45.77-.63 2.23-.63.4 0 .86.05.47.05 1.02.16v-.92q0-.47-.44-.82-.44-.36-1.31-.36-.67 0-1.9.4-.21.06-.27.06-.11 0-.19-.08t-.08-.2q0-.11.08-.2.1-.09.77-.27 1.06-.29 1.6-.29 1.1 0 1.7.55.62.53.62 1.2v3.8h.76q.2 0 .3.08.1.08.1.22 0 .1-.1.2-.1.08-.3.08h-1.34Zm0-2.86q-.4-.1-.86-.16-.45-.06-.95-.06-1.25 0-1.96.53-.53.4-.53.97 0 .52.4.88.42.36 1.2.36.73 0 1.37-.3.64-.3 1.33-.95v-1.27Zm5.16-3.06h3.12q.2 0 .28.1.1.07.1.2 0 .12-.1.2-.08.08-.28.08h-3.12v3.82q0 .5.4.85.4.33 1.17.33.58 0 1.25-.18.7-.18 1.07-.4.14-.08.22-.08.1 0 .18.1.1.07.1.18 0 .11-.1.19-.22.23-1.06.5-.84.25-1.6.25-1.02 0-1.62-.47-.6-.47-.6-1.27v-3.82h-1.05q-.2 0-.3-.08-.08-.08-.08-.22 0-.11.08-.19.1-.1.3-.1h1.06v-1.68q0-.22.08-.3.09-.09.21-.09.13 0 .2.1.09.07.09.3v1.68Zm12.3 3.1h-5.87q.16 1.12.94 1.8.78.68 1.94.68.64 0 1.34-.2.7-.23 1.16-.59.12-.09.22-.09t.18.1q.1.07.1.18 0 .11-.11.22-.33.34-1.17.64-.85.3-1.72.3-1.49 0-2.47-.95-.98-.97-.98-2.35 0-1.25.92-2.14.93-.9 2.3-.9 1.4 0 2.3.92.93.92.91 2.37Zm-.59-.59q-.17-.95-.9-1.54-.74-.6-1.74-.6t-1.73.6q-.72.58-.9 1.54h5.27Zm13.41 0q0-.78.2-1.65.2-.9.79-2.05.57-1.16.84-1.39.1-.08.19-.08.12 0 .2.08.1.08.1.2 0 .07-.05.14-.77 1.4-1.1 2.52-.31 1.1-.31 2.23t.31 2.25q.33 1.13 1.1 2.5.04.08.04.14 0 .13-.1.2-.07.1-.2.1-.09 0-.18-.08-.25-.23-.83-1.36-.56-1.12-.78-1.98-.22-.88-.22-1.77Zm6.9.85v2.56h-1.35q-.2 0-.3-.08-.08-.1-.08-.2 0-.14.08-.22.1-.08.3-.08h.78v-7.42h-.78q-.2 0-.3-.08-.08-.08-.08-.22 0-.12.08-.2.1-.08.3-.08h1.34v5.3l2.44-2.06h-.28q-.2 0-.3-.08-.1-.08-.1-.2 0-.13.1-.2.1-.1.3-.1h1.83q.21 0 .3.1.09.07.09.2 0 .12-.1.2-.08.08-.3.08h-.65l-2.25 1.87 2.84 2.9h.66q.22 0 .3.07.09.08.09.22 0 .1-.1.2-.07.08-.3.08h-1.85q-.2 0-.3-.08-.07-.1-.07-.2 0-.14.07-.22.1-.08.3-.08h.4l-2.46-2.53-.66.55Zm7-6.02v3.81q1.04-1.36 2.5-1.36 1.26 0 2.15.93.9.9.9 2.23t-.9 2.27q-.9.92-2.14.92-1.5 0-2.52-1.35v1.13h-1.34q-.2 0-.3-.08-.08-.1-.08-.2 0-.14.08-.22.1-.08.3-.08h.78v-7.42h-.78q-.2 0-.3-.08-.08-.08-.08-.22 0-.12.08-.2.1-.08.3-.08h1.34Zm4.98 5.63q0-1.08-.75-1.83-.74-.77-1.74-.77t-1.75.77q-.73.75-.73 1.83 0 1.1.73 1.86.75.75 1.75.75t1.74-.75q.75-.77.75-1.86Zm7.76-6.05-4.62 9.9q-.11.26-.3.26-.11 0-.2-.1-.08-.08-.08-.19 0-.07.06-.21l4.61-9.91q.08-.16.14-.2.08-.05.17-.05.11 0 .19.1.1.07.1.18 0 .08-.07.22Zm7.31 3.45q0-.2.08-.28.1-.1.22-.1.13 0 .2.1.08.08.08.3v.98q0 .2-.08.3-.07.1-.2.1-.12 0-.2-.08-.08-.08-.1-.25-.03-.41-.42-.68-.56-.39-1.48-.39-.96 0-1.5.4-.4.3-.4.65 0 .4.48.69.32.19 1.25.3 1.18.12 1.65.28.67.25.99.67.32.42.32.92 0 .72-.7 1.3-.7.56-2.06.56t-2.24-.69q0 .24-.03.31-.01.07-.1.11-.05.05-.15.05-.12 0-.2-.08-.08-.1-.08-.31v-1.17q0-.2.08-.3.08-.1.2-.1.13 0 .2.1.1.08.1.22 0 .33.16.53.23.33.75.55.53.22 1.3.22 1.1 0 1.65-.43.55-.42.55-.87 0-.55-.55-.86-.56-.33-1.64-.44-1.06-.1-1.53-.28-.46-.17-.72-.53-.27-.36-.27-.77 0-.73.72-1.17.74-.44 1.74-.44 1.2 0 1.93.58Zm6.28 2.16q0 .78-.21 1.66-.2.87-.78 2.03-.58 1.17-.85 1.4-.08.08-.17.08-.13 0-.22-.1-.08-.07-.08-.2 0-.06.05-.14.75-1.37 1.06-2.5.33-1.12.33-2.23 0-1.14-.33-2.25-.31-1.13-1.06-2.52-.05-.07-.05-.14 0-.12.08-.2.1-.08.22-.08.1 0 .17.08.25.23.83 1.36.58 1.12.8 2 .22.86.22 1.75Zm18.41-5.61-4.62 9.9q-.11.26-.3.26-.11 0-.2-.1-.08-.08-.08-.19 0-.07.06-.21l4.61-9.91q.08-.16.14-.2.08-.05.17-.05.11 0 .19.1.1.07.1.18 0 .08-.07.22Zm15.31 3.45q0-.2.08-.28.1-.1.22-.1.13 0 .2.1.08.08.08.3v.98q0 .2-.08.3-.07.1-.2.1-.12 0-.2-.08-.08-.08-.1-.25-.03-.41-.42-.68-.56-.39-1.48-.39-.96 0-1.5.4-.4.3-.4.65 0 .4.48.69.32.19 1.25.3 1.18.12 1.65.28.67.25.99.67.32.42.32.92 0 .72-.7 1.3-.7.56-2.06.56t-2.24-.69q0 .24-.03.31-.01.07-.1.11-.05.05-.15.05-.12 0-.2-.08-.08-.1-.08-.31v-1.17q0-.2.08-.3.08-.1.2-.1.13 0 .2.1.1.08.1.22 0 .33.16.53.23.33.75.55.53.22 1.3.22 1.1 0 1.65-.43.55-.42.55-.87 0-.55-.55-.86-.56-.33-1.64-.44-1.06-.1-1.53-.28-.46-.17-.72-.53-.27-.36-.27-.77 0-.73.72-1.17.74-.44 1.74-.44 1.2 0 1.93.58Zm8 0q0-.2.08-.28.1-.1.22-.1.13 0 .2.1.08.08.08.3v.98q0 .2-.08.3-.07.1-.2.1-.12 0-.2-.08-.08-.08-.1-.25-.03-.41-.42-.68-.56-.39-1.48-.39-.96 0-1.5.4-.4.3-.4.65 0 .4.48.69.32.19 1.25.3 1.18.12 1.65.28.67.25.99.67.32.42.32.92 0 .72-.7 1.3-.7.56-2.06.56t-2.24-.69q0 .24-.03.31-.01.07-.1.11-.05.05-.15.05-.12 0-.2-.08-.08-.1-.08-.31v-1.17q0-.2.08-.3.08-.1.2-.1.13 0 .2.1.1.08.1.22 0 .33.16.53.23.33.75.55.53.22 1.3.22 1.1 0 1.65-.43.55-.42.55-.87 0-.55-.55-.86-.56-.33-1.64-.44-1.06-.1-1.53-.28-.46-.17-.72-.53-.27-.36-.27-.77 0-.73.72-1.17.74-.44 1.74-.44 1.2 0 1.93.58Zm6.4-3.3v1.46h-.85V9.79h.84Zm.01 2.93v5.34h2.27q.2 0 .3.08.09.08.09.22 0 .1-.1.2-.1.08-.3.08h-5.09q-.2 0-.3-.08-.07-.1-.07-.2 0-.14.08-.22.09-.08.3-.08h2.26v-4.76h-1.69q-.2 0-.3-.08-.1-.08-.1-.2 0-.13.1-.2.1-.1.3-.1h2.25Zm5.1 0v.58q.71-.79 1.46-.79.44 0 .77.24.34.23.56.72.4-.49.78-.72.4-.23.8-.23.6 0 .98.4.49.52.49 1.13v4.01h.48q.2 0 .3.08.1.08.1.22 0 .1-.1.2-.1.08-.3.08h-1.06v-4.53q0-.44-.27-.72-.26-.3-.6-.3-.32 0-.68.24-.34.23-.78.94v3.8h.47q.2 0 .3.07.1.08.1.22 0 .1-.1.2-.1.08-.3.08h-1.06v-4.48q0-.47-.27-.77-.26-.3-.6-.3-.3 0-.6.2-.42.29-.88.97v3.8h.49q.2 0 .28.08.1.08.1.22 0 .1-.1.2-.08.08-.28.08h-1.55q-.2 0-.3-.08-.09-.1-.09-.2 0-.14.1-.22.09-.08.3-.08h.48v-4.76h-.49q-.2 0-.3-.08-.09-.08-.09-.22 0-.11.1-.19.09-.1.3-.1h1.05Zm12.57 5.92v-.84q-1.19 1.06-2.54 1.06-.85 0-1.29-.45-.56-.6-.56-1.41v-3.7h-.78q-.2 0-.3-.08-.07-.08-.07-.22 0-.11.07-.19.1-.1.3-.1h1.36v4.29q0 .56.34.94.36.36.9.36 1.4 0 2.57-1.3v-3.7h-1.06q-.2 0-.3-.08-.1-.08-.1-.22 0-.11.1-.19.1-.1.3-.1h1.62v5.35h.49q.22 0 .3.08.09.08.09.22 0 .1-.1.2-.07.08-.3.08h-1.04Zm6.31-8.58v8h2.27q.2 0 .3.08.1.08.1.22 0 .1-.1.2-.1.08-.3.08H616q-.2 0-.3-.08-.07-.1-.07-.2 0-.14.08-.22.1-.08.3-.08h2.26v-7.42h-1.65q-.2 0-.3-.08-.1-.08-.1-.22 0-.12.08-.2.1-.08.32-.08h2.21Zm9.38 8.58v-.83q-1.27 1.05-2.69 1.05-1.03 0-1.6-.52-.59-.53-.59-1.28 0-.83.77-1.45.77-.63 2.23-.63.4 0 .86.05.47.05 1.02.16v-.92q0-.47-.44-.82-.44-.36-1.31-.36-.67 0-1.9.4-.21.06-.27.06-.11 0-.19-.08t-.08-.2q0-.11.08-.2.1-.09.77-.27 1.06-.29 1.6-.29 1.1 0 1.7.55.62.53.62 1.2v3.8h.76q.2 0 .3.08.1.08.1.22 0 .1-.1.2-.1.08-.3.08h-1.34Zm0-2.86q-.4-.1-.86-.16-.45-.06-.95-.06-1.25 0-1.96.53-.53.4-.53.97 0 .52.4.88.42.36 1.2.36.73 0 1.37-.3.64-.3 1.33-.95v-1.27Zm8.73-2.48v-.2q0-.21.08-.29.1-.1.22-.1.13 0 .2.1.08.08.08.3v1.3q0 .21-.08.3-.07.09-.2.09-.12 0-.2-.08-.08-.08-.1-.27-.03-.48-.64-.92-.6-.44-1.6-.44-1.29 0-1.94.82-.66.8-.66 1.82 0 1.11.72 1.85.73.72 1.9.72.66 0 1.35-.25.7-.25 1.26-.8.14-.14.25-.14.13 0 .2.08.09.07.09.2 0 .3-.7.75-1.12.72-2.48.72-1.39 0-2.28-.88-.89-.89-.89-2.25 0-1.39.9-2.3.93-.91 2.3-.91 1.33 0 2.22.78Zm4.93-.58v1.45q1.12-1.01 1.67-1.3.56-.3 1.03-.3.51 0 .95.35.44.35.44.52 0 .14-.1.23-.07.08-.2.08-.06 0-.1-.02l-.2-.17q-.23-.23-.42-.31-.17-.1-.34-.1-.38 0-.9.3-.54.3-1.83 1.47v3.14h2.54q.2 0 .3.08.1.08.1.22 0 .1-.1.2-.1.08-.3.08h-4.51q-.2 0-.3-.08-.08-.08-.08-.2 0-.11.08-.19.1-.08.3-.08h1.39v-4.8h-1.06q-.2 0-.3-.07-.08-.08-.08-.22 0-.11.08-.19.1-.1.3-.1h1.64Zm10.34 5.92v-.83q-1.27 1.05-2.69 1.05-1.03 0-1.6-.52-.59-.53-.59-1.28 0-.83.77-1.45.77-.63 2.23-.63.4 0 .86.05.47.05 1.02.16v-.92q0-.47-.44-.82-.44-.36-1.31-.36-.67 0-1.9.4-.21.06-.27.06-.11 0-.19-.08t-.08-.2q0-.11.08-.2.1-.09.77-.27 1.06-.29 1.6-.29 1.1 0 1.7.55.62.53.62 1.2v3.8h.76q.2 0 .3.08.1.08.1.22 0 .1-.1.2-.1.08-.3.08h-1.34Zm0-2.86q-.4-.1-.86-.16-.45-.06-.95-.06-1.25 0-1.96.53-.53.4-.53.97 0 .52.4.88.42.36 1.2.36.73 0 1.37-.3.64-.3 1.33-.95v-1.27Zm3.87 2.28h4.41v-.22q0-.2.08-.3.08-.09.22-.09.12 0 .2.1.08.09.08.3v.79h-5.55v-.84q1.75-1.58 3.4-3.2.77-.77 1.06-1.12.3-.36.39-.62.1-.28.1-.55 0-.73-.59-1.3-.6-.57-1.42-.57-.77 0-1.34.43-.58.43-.75 1.07-.05.15-.1.2-.1.08-.2.08-.11 0-.19-.08t-.08-.19q0-.33.36-.89t.99-.87q.64-.33 1.3-.33 1.07 0 1.84.75.78.73.78 1.69 0 .39-.14.71-.13.33-.44.74-.31.39-1.1 1.17-2.04 2-3.3 3.11v.03Z"/><path stroke="#242424" stroke-width="3" stroke-linejoin="round" stroke-linecap="round" d="M9.48 542.38q.54-.8 1.1-1.18.58-.37 1.26-.37.91 0 1.61.76.72.77.72 1.9 0 1.01-.65 1.87-.64.84-1.79.84-.73 0-1.39-.45-.64-.47-1.01-1.4-.46-1.2-.46-2.63 0-1.08.43-2.02.32-.7.87-1.25.55-.54 1.28-.89.74-.34 1.58-.34.58 0 .95.23.18.1.18.27 0 .12-.08.2-.08.08-.19.08-.1 0-.22-.06-.28-.14-.7-.14-1.33 0-2.42 1.15-1.1 1.14-1.1 2.72l.03.7Zm.14.93q.26 1.25.82 1.78.56.53 1.31.53.77 0 1.31-.59.55-.6.55-1.55 0-.9-.55-1.48-.54-.6-1.25-.6-.65 0-1.26.57-.43.37-.93 1.34Zm8-5.31v2.81q.5-.22.96-.31.47-.1.89-.1 1.08 0 1.8.76.73.75.73 1.98 0 1.38-.83 2.22-.81.84-2.03.84-.81 0-1.56-.36-.55-.25-.99-.62-.25-.24-.25-.38 0-.12.08-.2.08-.1.19-.1.12 0 .25.13 1.03.96 2.25.96 1 0 1.66-.7.65-.68.65-1.82 0-.97-.56-1.55-.56-.6-1.44-.6-.9 0-1.8.48-.21.1-.3.1-.13 0-.21-.07-.06-.1-.06-.24v-3.8h4q.2 0 .3.07.09.08.09.22 0 .12-.1.2-.09.08-.3.08h-3.41Z"/><path fill="#bdbdbd" d="M9.48 542.38q.54-.8 1.1-1.18.58-.37 1.26-.37.91 0 1.61.76.72.77.72 1.9 0 1.01-.65 1.87-.64.84-1.79.84-.73 0-1.39-.45-.64-.47-1.01-1.4-.46-1.2-.46-2.63 0-1.08.43-2.02.32-.7.87-1.25.55-.54 1.28-.89.74-.34 1.58-.34.58 0 .95.23.18.1.18.27 0 .12-.08.2-.08.08-.19.08-.1 0-.22-.06-.28-.14-.7-.14-1.33 0-2.42 1.15-1.1 1.14-1.1 2.72l.03.7Zm.14.93q.26 1.25.82 1.78.56.53 1.31.53.77 0 1.31-.59.55-.6.55-1.55 0-.9-.55-1.48-.54-.6-1.25-.6-.65 0-1.26.57-.43.37-.93 1.34Zm8-5.31v2.81q.5-.22.96-.31.47-.1.89-.1 1.08 0 1.8.76.73.75.73 1.98 0 1.38-.83 2.22-.81.84-2.03.84-.81 0-1.56-.36-.55-.25-.99-.62-.25-.24-.25-.38 0-.12.08-.2.08-.1.19-.1.12 0 .25.13 1.03.96 2.25.96 1 0 1.66-.7.65-.68.65-1.82 0-.97-.56-1.55-.56-.6-1.44-.6-.9 0-1.8.48-.21.1-.3.1-.13 0-.21-.07-.06-.1-.06-.24v-3.8h4q.2 0 .3.07.09.08.09.22 0 .12-.1.2-.09.08-.3.08h-3.41Z"/><path stroke="#242424" stroke-width="3" stroke-linejoin="round" stroke-linecap="round" d="M13.13 405.27V405H9.02v.5q0 .22-.08.31-.08.08-.2.08-.13 0-.22-.08-.08-.1-.08-.31v-1.08h5.28v.92l-2.31 7.38q-.07.17-.14.23-.07.07-.16.07-.13 0-.22-.08-.08-.1-.08-.2 0-.07.05-.2l2.27-7.27Zm8.71 2.73v1.42q0 1.86-.89 2.94-.68.84-1.73.84-.52 0-.97-.2-.44-.2-.75-.56-.2-.22-.44-.72-.23-.5-.34-.92-.16-.6-.16-1.38V408q0-1.86.9-2.94.68-.84 1.73-.84.51 0 .95.2.45.2.77.56.2.24.43.74.24.5.35.9.15.58.15 1.38Zm-.57.08q0-.81-.24-1.52-.23-.7-.51-1.1-.18-.26-.44-.43-.4-.23-.88-.23-.97 0-1.51.98-.55.99-.55 2.3v1.26q0 .82.22 1.52.23.7.53 1.12.17.24.44.41.39.24.89.24.95 0 1.5-.99.55-.98.55-2.3v-1.26Z"/><path fill="#bdbdbd" d="M13.13 405.27V405H9.02v.5q0 .22-.08.31-.08.08-.2.08-.13 0-.22-.08-.08-.1-.08-.31v-1.08h5.28v.92l-2.31 7.38q-.07.17-.14.23-.07.07-.16.07-.13 0-.22-.08-.08-.1-.08-.2 0-.07.05-.2l2.27-7.27Zm8.71 2.73v1.42q0 1.86-.89 2.94-.68.84-1.73.84-.52 0-.97-.2-.44-.2-.75-.56-.2-.22-.44-.72-.23-.5-.34-.92-.16-.6-.16-1.38V408q0-1.86.9-2.94.68-.84 1.73-.84.51 0 .95.2.45.2.77.56.2.24.43.74.24.5.35.9.15.58.15 1.38Zm-.57.08q0-.81-.24-1.52-.23-.7-.51-1.1-.18-.26-.44-.43-.4-.23-.88-.23-.97 0-1.51.98-.55.99-.55 2.3v1.26q0 .82.22 1.52.23.7.53 1.12.17.24.44.41.39.24.89.24.95 0 1.5-.99.55-.98.55-2.3v-1.26Z"/><path stroke="#242424" stroke-width="3" stroke-linejoin="round" stroke-linecap="round" d="M13.13 272.27V272H9.02v.5q0 .22-.08.31-.08.08-.2.08-.13 0-.22-.08-.08-.1-.08-.31v-1.08h5.28v.92l-2.31 7.38q-.07.17-.14.23-.07.07-.16.07-.13 0-.22-.08-.08-.1-.08-.2 0-.07.05-.2l2.27-7.27Zm4.5-.27v2.81q.5-.22.95-.31.47-.1.89-.1 1.08 0 1.8.76.73.75.73 1.98 0 1.38-.83 2.22-.81.84-2.03.84-.81 0-1.56-.36-.55-.25-.99-.62-.25-.24-.25-.38 0-.12.08-.2.08-.1.19-.1.12 0 .25.13 1.03.95 2.25.95 1 0 1.66-.68.65-.69.65-1.83 0-.97-.56-1.55-.56-.6-1.44-.6-.9 0-1.8.48-.21.1-.3.1-.13 0-.21-.07-.06-.1-.06-.24v-3.8h4q.2 0 .3.07.09.08.09.22 0 .12-.1.2-.09.08-.3.08h-3.41Z"/><path fill="#bdbdbd" d="M13.13 272.27V272H9.02v.5q0 .22-.08.31-.08.08-.2.08-.13 0-.22-.08-.08-.1-.08-.31v-1.08h5.28v.92l-2.31 7.38q-.07.17-.14.23-.07.07-.16.07-.13 0-.22-.08-.08-.1-.08-.2 0-.07.05-.2l2.27-7.27Zm4.5-.27v2.81q.5-.22.95-.31.47-.1.89-.1 1.08 0 1.8.76.73.75.73 1.98 0 1.38-.83 2.22-.81.84-2.03.84-.81 0-1.56-.36-.55-.25-.99-.62-.25-.24-.25-.38 0-.12.08-.2.08-.1.19-.1.12 0 .25.13 1.03.95 2.25.95 1 0 1.66-.68.65-.69.65-1.83 0-.97-.56-1.55-.56-.6-1.44-.6-.9 0-1.8.48-.21.1-.3.1-.13 0-.21-.07-.06-.1-.06-.24v-3.8h4q.2 0 .3.07.09.08.09.22 0 .12-.1.2-.09.08-.3.08h-3.41Z"/><path stroke="#242424" stroke-width="3" stroke-linejoin="round" stroke-linecap="round" d="M12.38 142.55q.71.34 1.07.92.38.58.38 1.23 0 1.02-.77 1.77-.76.73-1.86.73t-1.86-.73q-.76-.75-.76-1.77 0-.65.36-1.22.37-.57 1.1-.93-.63-.36-.91-.75-.41-.55-.41-1.22 0-.96.72-1.66.73-.7 1.76-.7t1.75.7q.74.7.74 1.66 0 .67-.4 1.22-.27.39-.91.75Zm.71-1.96q0-.73-.54-1.26-.55-.53-1.35-.53t-1.36.53q-.54.53-.54 1.26 0 .66.54 1.18.55.5 1.36.5.82 0 1.35-.5.54-.52.54-1.18Zm.16 4.11q0-.75-.6-1.3-.57-.57-1.45-.57-.87 0-1.47.56-.57.56-.57 1.31 0 .78.59 1.36.6.56 1.45.56.88 0 1.46-.56.59-.58.59-1.36Zm8.6-2.7v1.42q0 1.86-.9 2.94-.68.84-1.73.84-.52 0-.97-.2-.44-.2-.75-.56-.2-.22-.44-.72-.23-.5-.34-.92-.16-.6-.16-1.38V142q0-1.86.9-2.94.68-.84 1.73-.84.51 0 .95.2.45.2.77.56.2.24.43.74.24.5.35.9.15.58.15 1.38Zm-.58.08q0-.81-.24-1.52-.23-.7-.51-1.1-.18-.26-.44-.43-.4-.23-.88-.23-.97 0-1.51.98-.55.99-.55 2.3v1.26q0 .82.22 1.52.23.7.53 1.12.17.24.44.41.39.24.89.24.95 0 1.5-.99.55-.98.55-2.3v-1.26Z"/><path fill="#bdbdbd" d="M12.38 142.55q.71.34 1.07.92.38.58.38 1.23 0 1.02-.77 1.77-.76.73-1.86.73t-1.86-.73q-.76-.75-.76-1.77 0-.65.36-1.22.37-.57 1.1-.93-.63-.36-.91-.75-.41-.55-.41-1.22 0-.96.72-1.66.73-.7 1.76-.7t1.75.7q.74.7.74 1.66 0 .67-.4 1.22-.27.39-.91.75Zm.71-1.96q0-.73-.54-1.26-.55-.53-1.35-.53t-1.36.53q-.54.53-.54 1.26 0 .66.54 1.18.55.5 1.36.5.82 0 1.35-.5.54-.52.54-1.18Zm.16 4.11q0-.75-.6-1.3-.57-.57-1.45-.57-.87 0-1.47.56-.57.56-.57 1.31 0 .78.59 1.36.6.56 1.45.56.88 0 1.46-.56.59-.58.59-1.36Zm8.6-2.7v1.42q0 1.86-.9 2.94-.68.84-1.73.84-.52 0-.97-.2-.44-.2-.75-.56-.2-.22-.44-.72-.23-.5-.34-.92-.16-.6-.16-1.38V142q0-1.86.9-2.94.68-.84 1.73-.84.51 0 .95.2.45.2.77.56.2.24.43.74.24.5.35.9.15.58.15 1.38Zm-.58.08q0-.81-.24-1.52-.23-.7-.51-1.1-.18-.26-.44-.43-.4-.23-.88-.23-.97 0-1.51.98-.55.99-.55 2.3v1.26q0 .82.22 1.52.23.7.53 1.12.17.24.44.41.39.24.89.24.95 0 1.5-.99.55-.98.55-2.3v-1.26Z"/><path stroke="#242424" stroke-width="3" stroke-linejoin="round" stroke-linecap="round" d="M10.13 649.38q.53-.8 1.1-1.18.57-.37 1.26-.37.9 0 1.6.76.73.77.73 1.9 0 1.01-.66 1.87-.64.84-1.78.84-.74 0-1.4-.45-.63-.47-1-1.4-.46-1.2-.46-2.63 0-1.08.42-2.02.33-.7.88-1.25.54-.54 1.28-.89.73-.34 1.57-.34.58 0 .96.23.17.1.17.27 0 .12-.08.2-.08.08-.19.08-.09 0-.21-.06-.29-.14-.7-.14-1.34 0-2.43 1.15-1.1 1.14-1.1 2.72 0 .22.04.7Zm.14.93q.25 1.25.81 1.78t1.31.53q.77 0 1.32-.59.54-.6.54-1.55 0-.9-.54-1.48-.55-.6-1.25-.6-.66 0-1.27.57-.42.37-.92 1.34ZM22.49 648v1.42q0 1.86-.9 2.94-.68.84-1.73.84-.51 0-.97-.2-.43-.2-.75-.56-.2-.22-.43-.72-.24-.5-.35-.92-.15-.6-.15-1.38V648q0-1.86.89-2.94.68-.84 1.73-.84.52 0 .95.2.46.2.77.56.2.24.44.74.23.5.34.9.16.58.16 1.38Zm-.58.08q0-.81-.24-1.52-.23-.7-.51-1.1-.17-.26-.44-.43-.39-.23-.87-.23-.97 0-1.52.98-.55.99-.55 2.3v1.26q0 .82.22 1.52.24.7.53 1.12.18.24.44.41.4.24.9.24.95 0 1.5-.99.54-.98.54-2.3v-1.26Zm8.58-.08v1.42q0 1.86-.9 2.94-.68.84-1.73.84-.51 0-.97-.2-.43-.2-.75-.56-.2-.22-.43-.72-.24-.5-.35-.92-.15-.6-.15-1.38V648q0-1.86.89-2.94.68-.84 1.73-.84.52 0 .95.2.46.2.77.56.2.24.44.74.23.5.34.9.16.58.16 1.38Zm-.58.08q0-.81-.24-1.52-.23-.7-.51-1.1-.17-.26-.44-.43-.39-.23-.87-.23-.97 0-1.52.98-.55.99-.55 2.3v1.26q0 .82.22 1.52.24.7.53 1.12.18.24.44.41.4.24.9.24.95 0 1.5-.99.54-.98.54-2.3v-1.26Z"/><path fill="#bdbdbd" d="M10.13 649.38q.53-.8 1.1-1.18.57-.37 1.26-.37.9 0 1.6.76.73.77.73 1.9 0 1.01-.66 1.87-.64.84-1.78.84-.74 0-1.4-.45-.63-.47-1-1.4-.46-1.2-.46-2.63 0-1.08.42-2.02.33-.7.88-1.25.54-.54 1.28-.89.73-.34 1.57-.34.58 0 .96.23.17.1.17.27 0 .12-.08.2-.08.08-.19.08-.09 0-.21-.06-.29-.14-.7-.14-1.34 0-2.43 1.15-1.1 1.14-1.1 2.72 0 .22.04.7Zm.14.93q.25 1.25.81 1.78t1.31.53q.77 0 1.32-.59.54-.6.54-1.55 0-.9-.54-1.48-.55-.6-1.25-.6-.66 0-1.27.57-.42.37-.92 1.34ZM22.49 648v1.42q0 1.86-.9 2.94-.68.84-1.73.84-.51 0-.97-.2-.43-.2-.75-.56-.2-.22-.43-.72-.24-.5-.35-.92-.15-.6-.15-1.38V648q0-1.86.89-2.94.68-.84 1.73-.84.52 0 .95.2.46.2.77.56.2.24.44.74.23.5.34.9.16.58.16 1.38Zm-.58.08q0-.81-.24-1.52-.23-.7-.51-1.1-.17-.26-.44-.43-.39-.23-.87-.23-.97 0-1.52.98-.55.99-.55 2.3v1.26q0 .82.22 1.52.24.7.53 1.12.18.24.44.41.4.24.9.24.95 0 1.5-.99.54-.98.54-2.3v-1.26Zm8.58-.08v1.42q0 1.86-.9 2.94-.68.84-1.73.84-.51 0-.97-.2-.43-.2-.75-.56-.2-.22-.43-.72-.24-.5-.35-.92-.15-.6-.15-1.38V648q0-1.86.89-2.94.68-.84 1.73-.84.52 0 .95.2.46.2.77.56.2.24.44.74.23.5.34.9.16.58.16 1.38Zm-.58.08q0-.81-.24-1.52-.23-.7-.51-1.1-.17-.26-.44-.43-.39-.23-.87-.23-.97 0-1.52.98-.55.99-.55 2.3v1.26q0 .82.22 1.52.24.7.53 1.12.18.24.44.41.4.24.9.24.95 0 1.5-.99.54-.98.54-2.3v-1.26Z"/><path stroke="#242424" stroke-width="3" stroke-linejoin="round" stroke-linecap="round" d="M84.92 645.27V645H80.8v.5q0 .22-.08.31-.08.08-.2.08-.13 0-.22-.08-.08-.1-.08-.31v-1.08h5.28v.92l-2.31 7.38q-.07.17-.14.23-.07.07-.16.07-.12 0-.22-.08-.08-.1-.08-.2 0-.07.05-.2l2.27-7.27Zm8.71 2.73v1.42q0 1.86-.89 2.94-.68.84-1.73.84-.52 0-.97-.2-.44-.2-.75-.56-.2-.22-.44-.72-.23-.5-.34-.92-.16-.6-.16-1.38V648q0-1.86.9-2.94.68-.84 1.73-.84.51 0 .95.2.45.2.77.56.2.24.43.74.24.5.35.9.15.58.15 1.38Zm-.57.08q0-.81-.24-1.52-.23-.7-.51-1.1-.18-.26-.44-.43-.4-.23-.88-.23-.96 0-1.51.98-.55.99-.55 2.3v1.26q0 .82.22 1.52.23.7.53 1.12.17.24.44.41.39.24.89.24.95 0 1.5-.99.55-.98.55-2.3v-1.26Zm8.57-.08v1.42q0 1.86-.89 2.94-.68.84-1.73.84-.52 0-.97-.2-.44-.2-.75-.56-.2-.22-.44-.72-.23-.5-.34-.92-.16-.6-.16-1.38V648q0-1.86.9-2.94.68-.84 1.73-.84.51 0 .95.2.45.2.77.56.2.24.43.74.24.5.35.9.15.58.15 1.38Zm-.57.08q0-.81-.24-1.52-.23-.7-.51-1.1-.18-.26-.44-.43-.4-.23-.88-.23-.96 0-1.51.98-.55.99-.55 2.3v1.26q0 .82.22 1.52.23.7.53 1.12.17.24.44.41.39.24.89.24.95 0 1.5-.99.55-.98.55-2.3v-1.26Z"/><path fill="#bdbdbd" d="M84.92 645.27V645H80.8v.5q0 .22-.08.31-.08.08-.2.08-.13 0-.22-.08-.08-.1-.08-.31v-1.08h5.28v.92l-2.31 7.38q-.07.17-.14.23-.07.07-.16.07-.12 0-.22-.08-.08-.1-.08-.2 0-.07.05-.2l2.27-7.27Zm8.71 2.73v1.42q0 1.86-.89 2.94-.68.84-1.73.84-.52 0-.97-.2-.44-.2-.75-.56-.2-.22-.44-.72-.23-.5-.34-.92-.16-.6-.16-1.38V648q0-1.86.9-2.94.68-.84 1.73-.84.51 0 .95.2.45.2.77.56.2.24.43.74.24.5.35.9.15.58.15 1.38Zm-.57.08q0-.81-.24-1.52-.23-.7-.51-1.1-.18-.26-.44-.43-.4-.23-.88-.23-.96 0-1.51.98-.55.99-.55 2.3v1.26q0 .82.22 1.52.23.7.53 1.12.17.24.44.41.39.24.89.24.95 0 1.5-.99.55-.98.55-2.3v-1.26Zm8.57-.08v1.42q0 1.86-.89 2.94-.68.84-1.73.84-.52 0-.97-.2-.44-.2-.75-.56-.2-.22-.44-.72-.23-.5-.34-.92-.16-.6-.16-1.38V648q0-1.86.9-2.94.68-.84 1.73-.84.51 0 .95.2.45.2.77.56.2.24.43.74.24.5.35.9.15.58.15 1.38Zm-.57.08q0-.81-.24-1.52-.23-.7-.51-1.1-.18-.26-.44-.43-.4-.23-.88-.23-.96 0-1.51.98-.55.99-.55 2.3v1.26q0 .82.22 1.52.23.7.53 1.12.17.24.44.41.39.24.89.24.95 0 1.5-.99.55-.98.55-2.3v-1.26Z"/><path stroke="#242424" stroke-width="3" stroke-linejoin="round" stroke-linecap="round" d="M145.8 648.55q.72.34 1.08.92.37.58.37 1.23 0 1.02-.77 1.77-.76.73-1.85.73-1.1 0-1.86-.73-.77-.75-.77-1.77 0-.65.36-1.22.37-.57 1.1-.93-.63-.36-.91-.75-.4-.55-.4-1.22 0-.96.71-1.66.73-.7 1.77-.7 1.03 0 1.75.7.73.7.73 1.66 0 .67-.4 1.22-.27.39-.91.75Zm.72-1.96q0-.73-.55-1.26t-1.34-.53q-.8 0-1.36.53-.55.53-.55 1.26 0 .66.55 1.18.54.5 1.36.5.8 0 1.34-.5.55-.52.55-1.18Zm.15 4.11q0-.75-.6-1.3-.57-.57-1.44-.57-.88 0-1.47.56-.58.56-.58 1.31 0 .78.6 1.36.59.57 1.45.57.87 0 1.45-.57.6-.58.6-1.36Zm8.6-2.7v1.42q0 1.86-.9 2.94-.68.84-1.73.84-.51 0-.97-.2-.44-.2-.75-.56-.2-.22-.44-.72-.23-.5-.34-.92-.16-.6-.16-1.38V648q0-1.86.9-2.94.68-.84 1.73-.84.52 0 .95.2.46.2.77.56.2.24.44.74.23.5.34.9.16.58.16 1.38Zm-.58.08q0-.81-.24-1.52-.23-.7-.51-1.1-.17-.26-.44-.43-.39-.23-.87-.23-.97 0-1.52.98-.55.99-.55 2.3v1.26q0 .82.22 1.52.24.7.53 1.12.17.24.44.41.4.24.9.24.94 0 1.5-.99.54-.98.54-2.3v-1.26Zm8.58-.08v1.42q0 1.86-.9 2.94-.68.84-1.73.84-.51 0-.97-.2-.44-.2-.75-.56-.2-.22-.44-.72-.23-.5-.34-.92-.16-.6-.16-1.38V648q0-1.86.9-2.94.68-.84 1.73-.84.52 0 .95.2.46.2.77.56.2.24.44.74.23.5.34.9.16.58.16 1.38Zm-.58.08q0-.81-.24-1.52-.23-.7-.51-1.1-.17-.26-.44-.43-.39-.23-.87-.23-.97 0-1.52.98-.55.99-.55 2.3v1.26q0 .82.22 1.52.24.7.53 1.12.17.24.44.41.4.24.9.24.94 0 1.5-.99.54-.98.54-2.3v-1.26Z"/><path fill="#bdbdbd" d="M145.8 648.55q.72.34 1.08.92.37.58.37 1.23 0 1.02-.77 1.77-.76.73-1.85.73-1.1 0-1.86-.73-.77-.75-.77-1.77 0-.65.36-1.22.37-.57 1.1-.93-.63-.36-.91-.75-.4-.55-.4-1.22 0-.96.71-1.66.73-.7 1.77-.7 1.03 0 1.75.7.73.7.73 1.66 0 .67-.4 1.22-.27.39-.91.75Zm.72-1.96q0-.73-.55-1.26t-1.34-.53q-.8 0-1.36.53-.55.53-.55 1.26 0 .66.55 1.18.54.5 1.36.5.8 0 1.34-.5.55-.52.55-1.18Zm.15 4.11q0-.75-.6-1.3-.57-.57-1.44-.57-.88 0-1.47.56-.58.56-.58 1.31 0 .78.6 1.36.59.57 1.45.57.87 0 1.45-.57.6-.58.6-1.36Zm8.6-2.7v1.42q0 1.86-.9 2.94-.68.84-1.73.84-.51 0-.97-.2-.44-.2-.75-.56-.2-.22-.44-.72-.23-.5-.34-.92-.16-.6-.16-1.38V648q0-1.86.9-2.94.68-.84 1.73-.84.52 0 .95.2.46.2.77.56.2.24.44.74.23.5.34.9.16.58.16 1.38Zm-.58.08q0-.81-.24-1.52-.23-.7-.51-1.1-.17-.26-.44-.43-.39-.23-.87-.23-.97 0-1.52.98-.55.99-.55 2.3v1.26q0 .82.22 1.52.24.7.53 1.12.17.24.44.41.4.24.9.24.94 0 1.5-.99.54-.98.54-2.3v-1.26Zm8.58-.08v1.42q0 1.86-.9 2.94-.68.84-1.73.84-.51 0-.97-.2-.44-.2-.75-.56-.2-.22-.44-.72-.23-.5-.34-.92-.16-.6-.16-1.38V648q0-1.86.9-2.94.68-.84 1.73-.84.52 0 .95.2.46.2.77.56.2.24.44.74.23.5.34.9.16.58.16 1.38Zm-.58.08q0-.81-.24-1.52-.23-.7-.51-1.1-.17-.26-.44-.43-.39-.23-.87-.23-.97 0-1.52.98-.55.99-.55 2.3v1.26q0 .82.22 1.52.24.7.53 1.12.17.24.44.41.4.24.9.24.94 0 1.5-.99.54-.98.54-2.3v-1.26Z"/><path stroke="#242424" stroke-width="3" stroke-linejoin="round" stroke-linecap="round" d="M201.35 648.14q-.46.8-1.07 1.19-.6.39-1.25.39-.59 0-1.15-.33-.56-.34-.9-1-.32-.67-.32-1.39 0-1.06.66-1.92.65-.86 1.75-.86.78 0 1.42.48.64.49 1 1.4.45 1.2.45 2.76 0 1.22-.39 2.01-.25.55-.77 1.07-.5.51-1.12.84-.86.42-1.8.42-.6 0-1-.23-.17-.11-.17-.27 0-.12.08-.2.08-.08.2-.08.08 0 .24.08.26.13.6.13 1.46 0 2.5-1.05 1.05-1.05 1.05-2.63l-.01-.8Zm-.11-.95q-.38-1.4-.9-1.9-.54-.5-1.26-.5-.73 0-1.3.63-.54.61-.54 1.56 0 .94.54 1.57.57.6 1.27.6.4 0 .78-.21.4-.22.75-.66.22-.3.66-1.1Zm8.39.81v1.42q0 1.86-.9 2.94-.68.84-1.73.84-.51 0-.97-.2-.43-.2-.75-.56-.2-.22-.43-.72-.24-.5-.35-.92-.15-.6-.15-1.38V648q0-1.86.89-2.94.69-.84 1.73-.84.52 0 .96.2.45.2.76.56.2.24.44.74.23.5.34.9.16.58.16 1.38Zm-.58.08q0-.81-.23-1.52-.24-.7-.52-1.1-.17-.26-.44-.43-.39-.23-.87-.23-.97 0-1.52.98-.54.99-.54 2.3v1.26q0 .82.21 1.52.24.7.54 1.12.17.24.43.41.4.24.9.24.95 0 1.5-.99.54-.98.54-2.3v-1.26Zm8.58-.08v1.42q0 1.86-.9 2.94-.68.84-1.73.84-.51 0-.97-.2-.43-.2-.75-.56-.2-.22-.43-.72-.24-.5-.35-.92-.15-.6-.15-1.38V648q0-1.86.89-2.94.69-.84 1.73-.84.52 0 .96.2.45.2.76.56.2.24.44.74.23.5.34.9.16.58.16 1.38Zm-.58.08q0-.81-.23-1.52-.24-.7-.52-1.1-.17-.26-.44-.43-.39-.23-.87-.23-.97 0-1.52.98-.54.99-.54 2.3v1.26q0 .82.21 1.52.24.7.54 1.12.17.24.43.41.4.24.9.24.95 0 1.5-.99.54-.98.54-2.3v-1.26Z"/><path fill="#bdbdbd" d="M201.35 648.14q-.46.8-1.07 1.19-.6.39-1.25.39-.59 0-1.15-.33-.56-.34-.9-1-.32-.67-.32-1.39 0-1.06.66-1.92.65-.86 1.75-.86.78 0 1.42.48.64.49 1 1.4.45 1.2.45 2.76 0 1.22-.39 2.01-.25.55-.77 1.07-.5.51-1.12.84-.86.42-1.8.42-.6 0-1-.23-.17-.11-.17-.27 0-.12.08-.2.08-.08.2-.08.08 0 .24.08.26.13.6.13 1.46 0 2.5-1.05 1.05-1.05 1.05-2.63l-.01-.8Zm-.11-.95q-.38-1.4-.9-1.9-.54-.5-1.26-.5-.73 0-1.3.63-.54.61-.54 1.56 0 .94.54 1.57.57.6 1.27.6.4 0 .78-.21.4-.22.75-.66.22-.3.66-1.1Zm8.39.81v1.42q0 1.86-.9 2.94-.68.84-1.73.84-.51 0-.97-.2-.43-.2-.75-.56-.2-.22-.43-.72-.24-.5-.35-.92-.15-.6-.15-1.38V648q0-1.86.89-2.94.69-.84 1.73-.84.52 0 .96.2.45.2.76.56.2.24.44.74.23.5.34.9.16.58.16 1.38Zm-.58.08q0-.81-.23-1.52-.24-.7-.52-1.1-.17-.26-.44-.43-.39-.23-.87-.23-.97 0-1.52.98-.54.99-.54 2.3v1.26q0 .82.21 1.52.24.7.54 1.12.17.24.43.41.4.24.9.24.95 0 1.5-.99.54-.98.54-2.3v-1.26Zm8.58-.08v1.42q0 1.86-.9 2.94-.68.84-1.73.84-.51 0-.97-.2-.43-.2-.75-.56-.2-.22-.43-.72-.24-.5-.35-.92-.15-.6-.15-1.38V648q0-1.86.89-2.94.69-.84 1.73-.84.52 0 .96.2.45.2.76.56.2.24.44.74.23.5.34.9.16.58.16 1.38Zm-.58.08q0-.81-.23-1.52-.24-.7-.52-1.1-.17-.26-.44-.43-.39-.23-.87-.23-.97 0-1.52.98-.54.99-.54 2.3v1.26q0 .82.21 1.52.24.7.54 1.12.17.24.43.41.4.24.9.24.95 0 1.5-.99.54-.98.54-2.3v-1.26Z"/><path stroke="#242424" stroke-width="3" stroke-linejoin="round" stroke-linecap="round" d="M243.9 644.3v8.12h1.97q.2 0 .3.08.09.08.09.22 0 .1-.1.2-.09.08-.3.08h-4.5q-.21 0-.3-.08-.08-.1-.08-.2 0-.14.07-.22.1-.08.3-.08h1.97v-7.33l-1.88.6-.18.03q-.11 0-.2-.08-.08-.08-.08-.2 0-.1.07-.19.05-.06.22-.13l2.63-.82Zm10.36 3.7v1.42q0 1.86-.9 2.94-.68.84-1.73.84-.51 0-.97-.2-.43-.2-.75-.56-.2-.22-.43-.72-.24-.5-.35-.92-.15-.6-.15-1.38V648q0-1.86.89-2.94.68-.84 1.73-.84.52 0 .95.2.46.2.77.56.2.24.44.74.23.5.34.9.16.58.16 1.38Zm-.58.08q0-.81-.24-1.52-.23-.7-.51-1.1-.17-.26-.44-.43-.39-.23-.87-.23-.97 0-1.52.98-.55.99-.55 2.3v1.26q0 .82.22 1.52.24.7.53 1.12.18.24.44.41.4.24.9.24.95 0 1.5-.99.54-.98.54-2.3v-1.26Zm8.58-.08v1.42q0 1.86-.9 2.94-.68.84-1.73.84-.51 0-.97-.2-.43-.2-.75-.56-.2-.22-.43-.72-.24-.5-.35-.92-.15-.6-.15-1.38V648q0-1.86.89-2.94.68-.84 1.73-.84.52 0 .95.2.46.2.77.56.2.24.44.74.23.5.34.9.16.58.16 1.38Zm-.58.08q0-.81-.24-1.52-.23-.7-.51-1.1-.17-.26-.44-.43-.39-.23-.87-.23-.97 0-1.52.98-.55.99-.55 2.3v1.26q0 .82.22 1.52.24.7.53 1.12.18.24.44.41.4.24.9.24.95 0 1.5-.99.54-.98.54-2.3v-1.26Zm8.58-.08v1.42q0 1.86-.9 2.94-.68.84-1.73.84-.51 0-.97-.2-.43-.2-.75-.56-.2-.22-.43-.72-.24-.5-.35-.92-.15-.6-.15-1.38V648q0-1.86.89-2.94.68-.84 1.73-.84.52 0 .95.2.46.2.77.56.2.24.44.74.23.5.34.9.16.58.16 1.38Zm-.58.08q0-.81-.24-1.52-.23-.7-.51-1.1-.17-.26-.44-.43-.39-.23-.87-.23-.97 0-1.52.98-.55.99-.55 2.3v1.26q0 .82.22 1.52.24.7.53 1.12.18.24.44.41.4.24.9.24.95 0 1.5-.99.54-.98.54-2.3v-1.26Z"/><path fill="#bdbdbd" d="M243.9 644.3v8.12h1.97q.2 0 .3.08.09.08.09.22 0 .1-.1.2-.09.08-.3.08h-4.5q-.21 0-.3-.08-.08-.1-.08-.2 0-.14.07-.22.1-.08.3-.08h1.97v-7.33l-1.88.6-.18.03q-.11 0-.2-.08-.08-.08-.08-.2 0-.1.07-.19.05-.06.22-.13l2.63-.82Zm10.36 3.7v1.42q0 1.86-.9 2.94-.68.84-1.73.84-.51 0-.97-.2-.43-.2-.75-.56-.2-.22-.43-.72-.24-.5-.35-.92-.15-.6-.15-1.38V648q0-1.86.89-2.94.68-.84 1.73-.84.52 0 .95.2.46.2.77.56.2.24.44.74.23.5.34.9.16.58.16 1.38Zm-.58.08q0-.81-.24-1.52-.23-.7-.51-1.1-.17-.26-.44-.43-.39-.23-.87-.23-.97 0-1.52.98-.55.99-.55 2.3v1.26q0 .82.22 1.52.24.7.53 1.12.18.24.44.41.4.24.9.24.95 0 1.5-.99.54-.98.54-2.3v-1.26Zm8.58-.08v1.42q0 1.86-.9 2.94-.68.84-1.73.84-.51 0-.97-.2-.43-.2-.75-.56-.2-.22-.43-.72-.24-.5-.35-.92-.15-.6-.15-1.38V648q0-1.86.89-2.94.68-.84 1.73-.84.52 0 .95.2.46.2.77.56.2.24.44.74.23.5.34.9.16.58.16 1.38Zm-.58.08q0-.81-.24-1.52-.23-.7-.51-1.1-.17-.26-.44-.43-.39-.23-.87-.23-.97 0-1.52.98-.55.99-.55 2.3v1.26q0 .82.22 1.52.24.7.53 1.12.18.24.44.41.4.24.9.24.95 0 1.5-.99.54-.98.54-2.3v-1.26Zm8.58-.08v1.42q0 1.86-.9 2.94-.68.84-1.73.84-.51 0-.97-.2-.43-.2-.75-.56-.2-.22-.43-.72-.24-.5-.35-.92-.15-.6-.15-1.38V648q0-1.86.89-2.94.68-.84 1.73-.84.52 0 .95.2.46.2.77.56.2.24.44.74.23.5.34.9.16.58.16 1.38Zm-.58.08q0-.81-.24-1.52-.23-.7-.51-1.1-.17-.26-.44-.43-.39-.23-.87-.23-.97 0-1.52.98-.55.99-.55 2.3v1.26q0 .82.22 1.52.24.7.53 1.12.18.24.44.41.4.24.9.24.95 0 1.5-.99.54-.98.54-2.3v-1.26Z"/><path stroke="#242424" stroke-width="3" stroke-linejoin="round" stroke-linecap="round" d="M561.07 652.42h4.4v-.22q0-.2.08-.3.08-.09.22-.09.13 0 .2.1.08.09.08.3v.79h-5.54v-.84q1.75-1.58 3.4-3.2.77-.77 1.05-1.12.3-.36.39-.62.1-.28.1-.55 0-.73-.59-1.3-.59-.57-1.42-.57-.76 0-1.34.43-.58.43-.75 1.07-.05.15-.1.2-.09.08-.2.08-.1 0-.19-.08-.07-.08-.07-.19 0-.33.36-.89t.98-.87q.64-.33 1.3-.33 1.08 0 1.84.75.78.73.78 1.69 0 .39-.14.72-.12.32-.44.73-.3.39-1.1 1.17-2.04 2-3.3 3.11v.03Zm13.1-4.42v1.42q0 1.86-.88 2.94-.7.84-1.74.84-.51 0-.97-.2-.43-.2-.75-.56-.2-.22-.43-.72-.24-.5-.35-.92-.15-.6-.15-1.38V648q0-1.86.89-2.94.68-.84 1.73-.84.52 0 .95.2.46.2.77.56.2.24.44.74.23.5.34.9.16.58.16 1.38Zm-.57.08q0-.81-.24-1.52-.23-.7-.51-1.1-.17-.26-.44-.43-.39-.23-.87-.23-.97 0-1.52.98-.55.99-.55 2.3v1.26q0 .82.22 1.52.24.7.53 1.12.18.24.44.41.4.24.9.24.95 0 1.5-.99.54-.98.54-2.3v-1.26Zm8.58-.08v1.42q0 1.86-.9 2.94-.68.84-1.73.84-.51 0-.97-.2-.43-.2-.75-.56-.2-.22-.43-.72-.24-.5-.35-.92-.15-.6-.15-1.38V648q0-1.86.89-2.94.68-.84 1.73-.84.52 0 .95.2.46.2.77.56.2.24.44.74.23.5.34.9.16.58.16 1.38Zm-.58.08q0-.81-.24-1.52-.23-.7-.51-1.1-.17-.26-.44-.43-.39-.23-.87-.23-.97 0-1.52.98-.55.99-.55 2.3v1.26q0 .82.22 1.52.24.7.53 1.12.18.24.44.41.4.24.9.24.95 0 1.5-.99.54-.98.54-2.3v-1.26Zm8.58-.08v1.42q0 1.86-.9 2.94-.68.84-1.73.84-.51 0-.97-.2-.43-.2-.75-.56-.2-.22-.43-.72-.24-.5-.35-.92-.15-.6-.15-1.38V648q0-1.86.89-2.94.68-.84 1.73-.84.52 0 .95.2.46.2.77.56.2.24.44.74.23.5.34.9.16.58.16 1.38Zm-.58.08q0-.81-.24-1.52-.23-.7-.51-1.1-.17-.26-.44-.43-.39-.23-.87-.23-.97 0-1.52.98-.55.99-.55 2.3v1.26q0 .82.22 1.52.24.7.53 1.12.18.24.44.41.4.24.9.24.95 0 1.5-.99.54-.98.54-2.3v-1.26Z"/><path fill="#bdbdbd" d="M561.07 652.42h4.4v-.22q0-.2.08-.3.08-.09.22-.09.13 0 .2.1.08.09.08.3v.79h-5.54v-.84q1.75-1.58 3.4-3.2.77-.77 1.05-1.12.3-.36.39-.62.1-.28.1-.55 0-.73-.59-1.3-.59-.57-1.42-.57-.76 0-1.34.43-.58.43-.75 1.07-.05.15-.1.2-.09.08-.2.08-.1 0-.19-.08-.07-.08-.07-.19 0-.33.36-.89t.98-.87q.64-.33 1.3-.33 1.08 0 1.84.75.78.73.78 1.69 0 .39-.14.72-.12.32-.44.73-.3.39-1.1 1.17-2.04 2-3.3 3.11v.03Zm13.1-4.42v1.42q0 1.86-.88 2.94-.7.84-1.74.84-.51 0-.97-.2-.43-.2-.75-.56-.2-.22-.43-.72-.24-.5-.35-.92-.15-.6-.15-1.38V648q0-1.86.89-2.94.68-.84 1.73-.84.52 0 .95.2.46.2.77.56.2.24.44.74.23.5.34.9.16.58.16 1.38Zm-.57.08q0-.81-.24-1.52-.23-.7-.51-1.1-.17-.26-.44-.43-.39-.23-.87-.23-.97 0-1.52.98-.55.99-.55 2.3v1.26q0 .82.22 1.52.24.7.53 1.12.18.24.44.41.4.24.9.24.95 0 1.5-.99.54-.98.54-2.3v-1.26Zm8.58-.08v1.42q0 1.86-.9 2.94-.68.84-1.73.84-.51 0-.97-.2-.43-.2-.75-.56-.2-.22-.43-.72-.24-.5-.35-.92-.15-.6-.15-1.38V648q0-1.86.89-2.94.68-.84 1.73-.84.52 0 .95.2.46.2.77.56.2.24.44.74.23.5.34.9.16.58.16 1.38Zm-.58.08q0-.81-.24-1.52-.23-.7-.51-1.1-.17-.26-.44-.43-.39-.23-.87-.23-.97 0-1.52.98-.55.99-.55 2.3v1.26q0 .82.22 1.52.24.7.53 1.12.18.24.44.41.4.24.9.24.95 0 1.5-.99.54-.98.54-2.3v-1.26Zm8.58-.08v1.42q0 1.86-.9 2.94-.68.84-1.73.84-.51 0-.97-.2-.43-.2-.75-.56-.2-.22-.43-.72-.24-.5-.35-.92-.15-.6-.15-1.38V648q0-1.86.89-2.94.68-.84 1.73-.84.52 0 .95.2.46.2.77.56.2.24.44.74.23.5.34.9.16.58.16 1.38Zm-.58.08q0-.81-.24-1.52-.23-.7-.51-1.1-.17-.26-.44-.43-.39-.23-.87-.23-.97 0-1.52.98-.55.99-.55 2.3v1.26q0 .82.22 1.52.24.7.53 1.12.18.24.44.41.4.24.9.24.95 0 1.5-.99.54-.98.54-2.3v-1.26Z"/><path stroke="#ed333b" stroke-width="4" stroke-linecap="butt" d="M6.65 84.05h12"/><path stroke="#242424" stroke-width="3" stroke-linejoin="round" stroke-linecap="round" d="M32.5 87.55v-.83q-1.26 1.05-2.68 1.05-1.03 0-1.6-.52-.59-.53-.59-1.28 0-.83.77-1.45.77-.63 2.23-.63.4 0 .86.05.47.05 1.02.16v-.92q0-.47-.44-.82-.44-.36-1.31-.36-.67 0-1.9.4-.21.06-.27.06-.11 0-.19-.08t-.08-.2q0-.11.08-.2.1-.09.77-.27 1.06-.28 1.6-.28 1.1 0 1.7.54.62.53.62 1.2v3.8h.76q.2 0 .3.08.1.08.1.22 0 .1-.1.2-.1.08-.3.08h-1.34Zm0-2.86q-.4-.1-.85-.16-.45-.06-.95-.06-1.25 0-1.96.53-.53.4-.53.97 0 .52.4.88.41.36 1.2.36.73 0 1.37-.3.64-.3 1.33-.95v-1.27Zm6.85 2.86h-.97l-2.36-5.34h-.59q-.2 0-.3-.08-.07-.08-.07-.22 0-.11.07-.19.1-.1.3-.1h2.16q.2 0 .3.1.09.08.09.2 0 .13-.1.2-.09.09-.3.09h-.95l2.11 4.76H39l2.07-4.76h-.96q-.2 0-.3-.08-.07-.08-.07-.22 0-.11.08-.19.09-.1.3-.1h2.15q.22 0 .3.1.09.08.09.2 0 .13-.1.2-.07.09-.3.09h-.57l-2.33 5.34Zm7.78-8.86v1.47h-.84v-1.47h.84Zm.02 2.94v5.34h2.27q.2 0 .3.08.09.08.09.22 0 .1-.1.2-.1.08-.3.08h-5.09q-.2 0-.3-.08-.07-.1-.07-.2 0-.14.07-.22.1-.08.3-.08h2.27v-4.76H44.9q-.2 0-.3-.08-.1-.08-.1-.2 0-.13.1-.2.1-.1.3-.1h2.25Zm9.36 5.92v-.83q-1.27 1.05-2.69 1.05-1.03 0-1.6-.52-.59-.53-.59-1.28 0-.83.77-1.45.77-.63 2.23-.63.4 0 .86.05.47.05 1.02.16v-.92q0-.47-.44-.82-.44-.36-1.31-.36-.67 0-1.9.4-.21.06-.27.06-.11 0-.19-.08t-.08-.2q0-.11.08-.2.1-.09.77-.27 1.06-.28 1.6-.28 1.1 0 1.7.54.62.53.62 1.2v3.8h.76q.2 0 .3.08.1.08.1.22 0 .1-.1.2-.1.08-.3.08h-1.34Zm0-2.86q-.4-.1-.86-.16-.45-.06-.95-.06-1.25 0-1.96.53-.53.4-.53.97 0 .52.4.88.41.36 1.2.36.73 0 1.37-.3.64-.3 1.33-.95v-1.27Zm5.16-3.06h3.12q.2 0 .28.1.1.07.1.2 0 .12-.1.2-.08.08-.28.08h-3.12v3.82q0 .5.4.85.4.33 1.17.33.58 0 1.25-.18.7-.18 1.07-.4.14-.08.22-.08.1 0 .18.1.1.07.1.18 0 .11-.1.19-.22.23-1.06.5-.84.25-1.6.25-1.02 0-1.62-.47-.6-.47-.6-1.27v-3.82h-1.05q-.2 0-.3-.08-.08-.08-.08-.22 0-.11.08-.19.1-.1.3-.1h1.06v-1.68q0-.22.08-.3.09-.09.21-.09.13 0 .2.1.09.07.09.3v1.68Zm12.39 2.97q0 1.3-.94 2.25-.94.92-2.27.92-1.34 0-2.28-.92-.94-.94-.94-2.25 0-1.32.94-2.24.94-.94 2.28-.94 1.33 0 2.27.94.94.92.94 2.24Zm-.58 0q0-1.08-.77-1.83-.76-.77-1.86-.77t-1.87.77q-.77.76-.77 1.83 0 1.08.77 1.84.78.77 1.87.77 1.1 0 1.86-.77.77-.77.77-1.84Zm4.69-2.97v1.45q1.12-1.01 1.67-1.3.56-.3 1.03-.3.51 0 .95.35.44.34.44.52 0 .14-.1.23-.07.08-.2.08-.06 0-.1-.02l-.2-.17q-.23-.23-.42-.31-.17-.1-.34-.1-.38 0-.9.3-.54.3-1.83 1.47v3.14h2.54q.2 0 .3.08.1.08.1.22 0 .1-.1.2-.1.08-.3.08H76.2q-.2 0-.3-.08-.08-.08-.08-.2 0-.11.08-.19.1-.08.3-.08h1.39v-4.8h-1.06q-.2 0-.3-.07-.08-.08-.08-.22 0-.11.08-.19.1-.1.3-.1h1.64Z"/><path fill="#bdbdbd" d="M32.5 87.55v-.83q-1.26 1.05-2.68 1.05-1.03 0-1.6-.52-.59-.53-.59-1.28 0-.83.77-1.45.77-.63 2.23-.63.4 0 .86.05.47.05 1.02.16v-.92q0-.47-.44-.82-.44-.36-1.31-.36-.67 0-1.9.4-.21.06-.27.06-.11 0-.19-.08t-.08-.2q0-.11.08-.2.1-.09.77-.27 1.06-.28 1.6-.28 1.1 0 1.7.54.62.53.62 1.2v3.8h.76q.2 0 .3.08.1.08.1.22 0 .1-.1.2-.1.08-.3.08h-1.34Zm0-2.86q-.4-.1-.85-.16-.45-.06-.95-.06-1.25 0-1.96.53-.53.4-.53.97 0 .52.4.88.41.36 1.2.36.73 0 1.37-.3.64-.3 1.33-.95v-1.27Zm6.85 2.86h-.97l-2.36-5.34h-.59q-.2 0-.3-.08-.07-.08-.07-.22 0-.11.07-.19.1-.1.3-.1h2.16q.2 0 .3.1.09.08.09.2 0 .13-.1.2-.09.09-.3.09h-.95l2.11 4.76H39l2.07-4.76h-.96q-.2 0-.3-.08-.07-.08-.07-.22 0-.11.08-.19.09-.1.3-.1h2.15q.22 0 .3.1.09.08.09.2 0 .13-.1.2-.07.09-.3.09h-.57l-2.33 5.34Zm7.78-8.86v1.47h-.84v-1.47h.84Zm.02 2.94v5.34h2.27q.2 0 .3.08.09.08.09.22 0 .1-.1.2-.1.08-.3.08h-5.09q-.2 0-.3-.08-.07-.1-.07-.2 0-.14.07-.22.1-.08.3-.08h2.27v-4.76H44.9q-.2 0-.3-.08-.1-.08-.1-.2 0-.13.1-.2.1-.1.3-.1h2.25Zm9.36 5.92v-.83q-1.27 1.05-2.69 1.05-1.03 0-1.6-.52-.59-.53-.59-1.28 0-.83.77-1.45.77-.63 2.23-.63.4 0 .86.05.47.05 1.02.16v-.92q0-.47-.44-.82-.44-.36-1.31-.36-.67 0-1.9.4-.21.06-.27.06-.11 0-.19-.08t-.08-.2q0-.11.08-.2.1-.09.77-.27 1.06-.28 1.6-.28 1.1 0 1.7.54.62.53.62 1.2v3.8h.76q.2 0 .3.08.1.08.1.22 0 .1-.1.2-.1.08-.3.08h-1.34Zm0-2.86q-.4-.1-.86-.16-.45-.06-.95-.06-1.25 0-1.96.53-.53.4-.53.97 0 .52.4.88.41.36 1.2.36.73 0 1.37-.3.64-.3 1.33-.95v-1.27Zm5.16-3.06h3.12q.2 0 .28.1.1.07.1.2 0 .12-.1.2-.08.08-.28.08h-3.12v3.82q0 .5.4.85.4.33 1.17.33.58 0 1.25-.18.7-.18 1.07-.4.14-.08.22-.08.1 0 .18.1.1.07.1.18 0 .11-.1.19-.22.23-1.06.5-.84.25-1.6.25-1.02 0-1.62-.47-.6-.47-.6-1.27v-3.82h-1.05q-.2 0-.3-.08-.08-.08-.08-.22 0-.11.08-.19.1-.1.3-.1h1.06v-1.68q0-.22.08-.3.09-.09.21-.09.13 0 .2.1.09.07.09.3v1.68Zm12.39 2.97q0 1.3-.94 2.25-.94.92-2.27.92-1.34 0-2.28-.92-.94-.94-.94-2.25 0-1.32.94-2.24.94-.94 2.28-.94 1.33 0 2.27.94.94.92.94 2.24Zm-.58 0q0-1.08-.77-1.83-.76-.77-1.86-.77t-1.87.77q-.77.76-.77 1.83 0 1.08.77 1.84.78.77 1.87.77 1.1 0 1.86-.77.77-.77.77-1.84Zm4.69-2.97v1.45q1.12-1.01 1.67-1.3.56-.3 1.03-.3.51 0 .95.35.44.34.44.52 0 .14-.1.23-.07.08-.2.08-.06 0-.1-.02l-.2-.17q-.23-.23-.42-.31-.17-.1-.34-.1-.38 0-.9.3-.54.3-1.83 1.47v3.14h2.54q.2 0 .3.08.1.08.1.22 0 .1-.1.2-.1.08-.3.08H76.2q-.2 0-.3-.08-.08-.08-.08-.2 0-.11.08-.19.1-.08.3-.08h1.39v-4.8h-1.06q-.2 0-.3-.07-.08-.08-.08-.22 0-.11.08-.19.1-.1.3-.1h1.64Z"/><path stroke="#e5a50a" stroke-width="4" stroke-linecap="butt" d="M98.65 84.05h12"/><path stroke="#242424" stroke-width="3" stroke-linejoin="round" stroke-linecap="round" d="M120.96 78.97v3.53q.55-.6 1.05-.83.5-.25 1.12-.25.68 0 1.15.24.46.23.78.73.3.49.3 1.02v3.56h.65q.22 0 .3.08.09.08.09.22 0 .1-.1.2-.07.08-.3.08h-1.85q-.22 0-.31-.08-.08-.1-.08-.2 0-.14.08-.22.1-.08.31-.08h.64v-3.51q0-.63-.45-1.03-.44-.43-1.25-.43-.63 0-1.06.3-.33.22-1.07 1.03v3.64h.64q.22 0 .3.08.1.08.1.22 0 .1-.1.2-.08.08-.3.08h-1.86q-.21 0-.3-.08-.09-.1-.09-.2 0-.14.08-.22.1-.08.31-.08h.64v-7.42h-.76q-.2 0-.3-.08-.1-.08-.1-.22 0-.12.1-.2.1-.08.3-.08h1.34Zm11.55 8.58v-.83q-1.27 1.05-2.69 1.05-1.03 0-1.6-.52-.59-.53-.59-1.28 0-.83.77-1.45.77-.63 2.23-.63.4 0 .86.05.47.05 1.02.16v-.92q0-.47-.44-.82-.44-.36-1.31-.36-.67 0-1.9.4-.21.06-.27.06-.11 0-.19-.08t-.08-.2q0-.11.08-.2.1-.09.77-.27 1.06-.28 1.6-.28 1.1 0 1.7.54.62.53.62 1.2v3.8h.76q.2 0 .3.08.1.08.1.22 0 .1-.1.2-.1.08-.3.08h-1.34Zm0-2.86q-.4-.1-.86-.16-.45-.06-.95-.06-1.25 0-1.96.53-.53.4-.53.97 0 .52.4.88.41.36 1.2.36.73 0 1.37-.3.64-.3 1.33-.95v-1.27Zm4.48-3.06v.87q.61-.6 1.1-.84.48-.23 1.1-.23.65 0 1.18.28.39.2.7.68.31.47.31.97v3.61h.49q.2 0 .28.08.1.08.1.22 0 .1-.1.2-.08.08-.28.08h-1.55q-.2 0-.3-.08-.09-.1-.09-.2 0-.14.1-.22.09-.08.3-.08h.48v-3.51q0-.61-.46-1.03-.43-.43-1.18-.43-.57 0-.99.24-.4.22-1.19 1.14v3.6h.66q.2 0 .28.07.1.08.1.22 0 .1-.1.2-.08.08-.28.08h-1.88q-.2 0-.3-.08-.09-.1-.09-.2 0-.14.1-.22.1-.08.3-.08h.64v-4.76h-.49q-.2 0-.3-.08-.07-.08-.07-.22 0-.11.07-.19.1-.1.3-.1H137Zm12.68-2.66v8h.76q.2 0 .3.08.1.08.1.22 0 .1-.1.2-.1.08-.3.08h-1.34v-1.14q-1 1.36-2.55 1.36-.76 0-1.48-.4-.72-.43-1.14-1.2-.41-.76-.41-1.57 0-.82.4-1.58.43-.77 1.15-1.17.72-.42 1.5-.42 1.5 0 2.53 1.35v-3.23h-.77q-.22 0-.31-.08-.08-.08-.08-.22 0-.12.08-.2.1-.08.31-.08h1.35Zm-.58 5.63q0-1.1-.75-1.85-.74-.75-1.75-.75-1.03 0-1.77.75-.73.75-.73 1.85t.73 1.86q.74.75 1.77.75 1.01 0 1.75-.75.75-.77.75-1.86Zm3.6-5.63v3.81q1.04-1.36 2.5-1.36 1.26 0 2.15.93.9.9.9 2.23t-.9 2.27q-.9.92-2.14.92-1.5 0-2.52-1.34v1.12h-1.34q-.2 0-.3-.08-.08-.1-.08-.2 0-.14.08-.22.1-.08.3-.08h.78v-7.42h-.78q-.2 0-.3-.08-.08-.08-.08-.22 0-.12.08-.2.1-.08.3-.08h1.34Zm4.98 5.63q0-1.08-.75-1.83-.74-.77-1.74-.77t-1.75.77q-.73.75-.73 1.83 0 1.1.73 1.86.75.75 1.75.75t1.74-.75q.75-.77.75-1.86Zm4.5-2.97v1.45q1.12-1.01 1.67-1.3.56-.3 1.03-.3.51 0 .95.35.44.34.44.52 0 .14-.1.23-.07.08-.2.08-.06 0-.1-.02l-.2-.17q-.23-.23-.42-.31-.17-.1-.34-.1-.38 0-.9.3-.54.3-1.83 1.47v3.14h2.54q.2 0 .3.08.1.08.1.22 0 .1-.1.2-.1.08-.3.08h-4.51q-.2 0-.3-.08-.08-.08-.08-.2 0-.11.08-.19.1-.08.3-.08h1.39v-4.8h-1.06q-.2 0-.3-.07-.08-.08-.08-.22 0-.11.08-.19.1-.1.3-.1h1.64Zm10.34 5.92v-.83q-1.27 1.05-2.69 1.05-1.03 0-1.6-.52-.59-.53-.59-1.28 0-.83.77-1.45.77-.63 2.23-.63.4 0 .86.05.47.05 1.02.16v-.92q0-.47-.44-.82-.44-.36-1.31-.36-.67 0-1.9.4-.21.06-.27.06-.11 0-.19-.08t-.08-.2q0-.11.08-.2.1-.09.77-.27 1.06-.28 1.6-.28 1.1 0 1.7.54.62.53.62 1.2v3.8h.76q.2 0 .3.08.1.08.1.22 0 .1-.1.2-.1.08-.3.08h-1.34Zm0-2.86q-.4-.1-.86-.16-.45-.06-.95-.06-1.25 0-1.96.53-.53.4-.53.97 0 .52.4.88.41.36 1.2.36.73 0 1.37-.3.64-.3 1.33-.95v-1.27Zm5.17.3v2.56h-1.34q-.2 0-.3-.08-.08-.1-.08-.2 0-.14.08-.22.1-.08.3-.08h.78v-7.42h-.78q-.2 0-.3-.08-.08-.08-.08-.22 0-.12.08-.2.1-.08.3-.08h1.34v5.3l2.44-2.06h-.28q-.2 0-.3-.08-.1-.08-.1-.2 0-.13.1-.2.1-.1.3-.1h1.83q.21 0 .3.1.09.07.09.2 0 .12-.1.2-.08.08-.3.08h-.65l-2.25 1.87 2.84 2.9h.66q.22 0 .3.07.09.08.09.22 0 .1-.1.2-.07.08-.3.08h-1.85q-.2 0-.3-.08-.07-.1-.07-.2 0-.14.07-.22.1-.08.3-.08h.4l-2.46-2.53-.66.55Zm12.28-.27h-5.86q.16 1.13.94 1.81.78.68 1.94.68.64 0 1.34-.2.7-.23 1.16-.59.12-.09.22-.09t.18.1q.1.07.1.18 0 .11-.11.22-.33.34-1.17.64-.85.3-1.72.3-1.49 0-2.47-.95-.98-.97-.98-2.35 0-1.25.92-2.14.93-.9 2.3-.9 1.4 0 2.3.92.93.92.91 2.37Zm-.58-.58q-.17-.95-.9-1.54-.74-.6-1.74-.6t-1.73.6q-.72.58-.9 1.54h5.27Z"/><path fill="#bdbdbd" d="M120.96 78.97v3.53q.55-.6 1.05-.83.5-.25 1.12-.25.68 0 1.15.24.46.23.78.73.3.49.3 1.02v3.56h.65q.22 0 .3.08.09.08.09.22 0 .1-.1.2-.07.08-.3.08h-1.85q-.22 0-.31-.08-.08-.1-.08-.2 0-.14.08-.22.1-.08.31-.08h.64v-3.51q0-.63-.45-1.03-.44-.43-1.25-.43-.63 0-1.06.3-.33.22-1.07 1.03v3.64h.64q.22 0 .3.08.1.08.1.22 0 .1-.1.2-.08.08-.3.08h-1.86q-.21 0-.3-.08-.09-.1-.09-.2 0-.14.08-.22.1-.08.31-.08h.64v-7.42h-.76q-.2 0-.3-.08-.1-.08-.1-.22 0-.12.1-.2.1-.08.3-.08h1.34Zm11.55 8.58v-.83q-1.27 1.05-2.69 1.05-1.03 0-1.6-.52-.59-.53-.59-1.28 0-.83.77-1.45.77-.63 2.23-.63.4 0 .86.05.47.05 1.02.16v-.92q0-.47-.44-.82-.44-.36-1.31-.36-.67 0-1.9.4-.21.06-.27.06-.11 0-.19-.08t-.08-.2q0-.11.08-.2.1-.09.77-.27 1.06-.28 1.6-.28 1.1 0 1.7.54.62.53.62 1.2v3.8h.76q.2 0 .3.08.1.08.1.22 0 .1-.1.2-.1.08-.3.08h-1.34Zm0-2.86q-.4-.1-.86-.16-.45-.06-.95-.06-1.25 0-1.96.53-.53.4-.53.97 0 .52.4.88.41.36 1.2.36.73 0 1.37-.3.64-.3 1.33-.95v-1.27Zm4.48-3.06v.87q.61-.6 1.1-.84.48-.23 1.1-.23.65 0 1.18.28.39.2.7.68.31.47.31.97v3.61h.49q.2 0 .28.08.1.08.1.22 0 .1-.1.2-.08.08-.28.08h-1.55q-.2 0-.3-.08-.09-.1-.09-.2 0-.14.1-.22.09-.08.3-.08h.48v-3.51q0-.61-.46-1.03-.43-.43-1.18-.43-.57 0-.99.24-.4.22-1.19 1.14v3.6h.66q.2 0 .28.07.1.08.1.22 0 .1-.1.2-.08.08-.28.08h-1.88q-.2 0-.3-.08-.09-.1-.09-.2 0-.14.1-.22.1-.08.3-.08h.64v-4.76h-.49q-.2 0-.3-.08-.07-.08-.07-.22 0-.11.07-.19.1-.1.3-.1H137Zm12.68-2.66v8h.76q.2 0 .3.08.1.08.1.22 0 .1-.1.2-.1.08-.3.08h-1.34v-1.14q-1 1.36-2.55 1.36-.76 0-1.48-.4-.72-.43-1.14-1.2-.41-.76-.41-1.57 0-.82.4-1.58.43-.77 1.15-1.17.72-.42 1.5-.42 1.5 0 2.53 1.35v-3.23h-.77q-.22 0-.31-.08-.08-.08-.08-.22 0-.12.08-.2.1-.08.31-.08h1.35Zm-.58 5.63q0-1.1-.75-1.85-.74-.75-1.75-.75-1.03 0-1.77.75-.73.75-.73 1.85t.73 1.86q.74.75 1.77.75 1.01 0 1.75-.75.75-.77.75-1.86Zm3.6-5.63v3.81q1.04-1.36 2.5-1.36 1.26 0 2.15.93.9.9.9 2.23t-.9 2.27q-.9.92-2.14.92-1.5 0-2.52-1.34v1.12h-1.34q-.2 0-.3-.08-.08-.1-.08-.2 0-.14.08-.22.1-.08.3-.08h.78v-7.42h-.78q-.2 0-.3-.08-.08-.08-.08-.22 0-.12.08-.2.1-.08.3-.08h1.34Zm4.98 5.63q0-1.08-.75-1.83-.74-.77-1.74-.77t-1.75.77q-.73.75-.73 1.83 0 1.1.73 1.86.75.75 1.75.75t1.74-.75q.75-.77.75-1.86Zm4.5-2.97v1.45q1.12-1.01 1.67-1.3.56-.3 1.03-.3.51 0 .95.35.44.34.44.52 0 .14-.1.23-.07.08-.2.08-.06 0-.1-.02l-.2-.17q-.23-.23-.42-.31-.17-.1-.34-.1-.38 0-.9.3-.54.3-1.83 1.47v3.14h2.54q.2 0 .3.08.1.08.1.22 0 .1-.1.2-.1.08-.3.08h-4.51q-.2 0-.3-.08-.08-.08-.08-.2 0-.11.08-.19.1-.08.3-.08h1.39v-4.8h-1.06q-.2 0-.3-.07-.08-.08-.08-.22 0-.11.08-.19.1-.1.3-.1h1.64Zm10.34 5.92v-.83q-1.27 1.05-2.69 1.05-1.03 0-1.6-.52-.59-.53-.59-1.28 0-.83.77-1.45.77-.63 2.23-.63.4 0 .86.05.47.05 1.02.16v-.92q0-.47-.44-.82-.44-.36-1.31-.36-.67 0-1.9.4-.21.06-.27.06-.11 0-.19-.08t-.08-.2q0-.11.08-.2.1-.09.77-.27 1.06-.28 1.6-.28 1.1 0 1.7.54.62.53.62 1.2v3.8h.76q.2 0 .3.08.1.08.1.22 0 .1-.1.2-.1.08-.3.08h-1.34Zm0-2.86q-.4-.1-.86-.16-.45-.06-.95-.06-1.25 0-1.96.53-.53.4-.53.97 0 .52.4.88.41.36 1.2.36.73 0 1.37-.3.64-.3 1.33-.95v-1.27Zm5.17.3v2.56h-1.34q-.2 0-.3-.08-.08-.1-.08-.2 0-.14.08-.22.1-.08.3-.08h.78v-7.42h-.78q-.2 0-.3-.08-.08-.08-.08-.22 0-.12.08-.2.1-.08.3-.08h1.34v5.3l2.44-2.06h-.28q-.2 0-.3-.08-.1-.08-.1-.2 0-.13.1-.2.1-.1.3-.1h1.83q.21 0 .3.1.09.07.09.2 0 .12-.1.2-.08.08-.3.08h-.65l-2.25 1.87 2.84 2.9h.66q.22 0 .3.07.09.08.09.22 0 .1-.1.2-.07.08-.3.08h-1.85q-.2 0-.3-.08-.07-.1-.07-.2 0-.14.07-.22.1-.08.3-.08h.4l-2.46-2.53-.66.55Zm12.28-.27h-5.86q.16 1.13.94 1.81.78.68 1.94.68.64 0 1.34-.2.7-.23 1.16-.59.12-.09.22-.09t.18.1q.1.07.1.18 0 .11-.11.22-.33.34-1.17.64-.85.3-1.72.3-1.49 0-2.47-.95-.98-.97-.98-2.35 0-1.25.92-2.14.93-.9 2.3-.9 1.4 0 2.3.92.93.92.91 2.37Zm-.58-.58q-.17-.95-.9-1.54-.74-.6-1.74-.6t-1.73.6q-.72.58-.9 1.54h5.27Z"/><path stroke="#242424" stroke-width="3" stroke-linejoin="round" stroke-linecap="round" d="M12.12 59.3v-.33q-.53.28-1.17.42-.63.14-1.16.14-1.12 0-1.83-.59-.7-.6-.7-1.33 0-.89.89-1.64.9-.75 2.5-.75.63 0 1.47.14v-.34q0-.31-.28-.5-.27-.2-1.03-.2-.61 0-1.61.23-.36.1-.58.1-.27 0-.47-.2-.19-.21-.19-.53 0-.17.07-.3.06-.13.18-.21.13-.08.52-.19.51-.14 1.04-.22.55-.1.99-.1 1.31 0 2.03.57.72.56.72 1.55v2.87h.25q.5 0 .72.2.22.2.22.5 0 .32-.22.52-.22.19-.72.19h-1.64Zm0-2.52q-.84-.15-1.56-.15-.85 0-1.47.42-.38.27-.38.53 0 .2.19.33.33.22.92.22.52 0 1.16-.19.64-.2 1.14-.55v-.6Zm5.31-3.68v.47q.4-.33.84-.49.47-.17 1-.17 1.25 0 1.97.77.58.62.58 1.62v2.6q.44 0 .66.2.22.18.22.5 0 .3-.22.51-.22.19-.72.19h-1.27q-.51 0-.73-.19-.2-.2-.2-.51 0-.32.2-.5.22-.2.66-.2v-2.65q0-.45-.24-.67-.33-.26-.97-.26-.48 0-.86.18-.36.2-.92.8v2.6q.55 0 .7.1.33.2.33.6 0 .3-.22.51-.2.19-.71.19h-1.6q-.5 0-.72-.19-.22-.2-.22-.51 0-.4.33-.6.17-.1.7-.1v-3.41q-.43 0-.65-.19-.2-.2-.2-.52 0-.3.2-.48.22-.2.73-.2h1.33Zm9.92-2.66v1.47h-1.67v-1.47h1.67Zm.2 2.66v4.8h1.68q.5 0 .72.2.22.18.22.5 0 .3-.22.51-.22.19-.72.19h-4.77q-.5 0-.72-.19-.21-.2-.21-.51 0-.32.21-.5.22-.2.72-.2h1.69v-3.41h-1.14q-.5 0-.72-.19-.22-.2-.22-.52 0-.3.22-.48.22-.2.72-.2h2.53Zm5.13 0v.39q.34-.33.63-.46.28-.14.64-.14.3 0 .6.16t.58.45q.38-.3.74-.43.37-.16.76-.16.79 0 1.27.42.64.55.64 1.42v3.14q.44 0 .64.2.22.21.22.5 0 .32-.22.52-.2.19-.7.19h-1.33v-4.42q0-.33-.13-.44-.1-.12-.35-.12-.22 0-.43.1-.25.18-.6.66v2.81q.43 0 .63.2.22.21.22.5 0 .32-.22.52-.2.19-.71.19h-1.33v-4.42q0-.31-.13-.44-.1-.12-.36-.12-.25 0-.48.15-.23.14-.58.61v2.81q.44 0 .66.2.22.21.22.5 0 .32-.22.52-.22.19-.72.19h-1.27q-.5 0-.72-.19-.21-.2-.21-.51 0-.32.21-.5.2-.2.66-.2v-3.41q-.45 0-.66-.19-.21-.2-.21-.52 0-.3.21-.48.22-.2.72-.2h1.33Zm11.44 6.2v-.33q-.53.28-1.17.42-.63.14-1.16.14-1.12 0-1.83-.59-.7-.6-.7-1.33 0-.89.89-1.64.9-.75 2.5-.75.63 0 1.47.14v-.34q0-.31-.28-.5-.27-.2-1.03-.2-.61 0-1.61.23-.36.1-.58.1-.27 0-.47-.2-.19-.21-.19-.53 0-.17.06-.3.07-.13.2-.21.12-.08.5-.19.52-.14 1.05-.22.55-.1.99-.1 1.31 0 2.03.57.72.56.72 1.55v2.87h.25q.5 0 .72.2.22.2.22.5 0 .32-.22.52-.22.19-.72.19h-1.64Zm0-2.52q-.84-.15-1.56-.15-.85 0-1.47.42-.38.27-.38.53 0 .2.19.33.33.22.92.22.52 0 1.16-.19.64-.2 1.14-.55v-.6Zm6.39-2.3v2.82q0 .45.19.6.28.23 1.01.23 1.08 0 1.99-.47.34-.17.54-.17.28 0 .47.2.2.2.2.5 0 .28-.21.47-.33.33-1.32.6-.98.26-1.67.26-1.3 0-1.95-.56-.66-.57-.66-1.38v-3.1h-.5q-.51 0-.73-.18-.2-.2-.2-.52 0-.3.2-.48.22-.2.73-.2h.5v-1.27q0-.51.2-.72.2-.22.5-.22.32 0 .5.22.2.2.2.72v1.27h2.6q.5 0 .72.2.22.19.22.5 0 .3-.22.5-.22.19-.72.19h-2.6Zm8.84-4.04v1.47h-1.67v-1.47h1.67Zm.2 2.66v4.8h1.68q.5 0 .72.2.22.18.22.5 0 .3-.22.51-.22.19-.72.19h-4.77q-.5 0-.72-.19-.22-.2-.22-.51 0-.32.22-.5.22-.2.72-.2h1.69v-3.41h-1.14q-.5 0-.72-.19-.22-.2-.22-.52 0-.3.22-.48.22-.2.72-.2h2.53Zm10.94 3.22q0 .8-.45 1.56-.44.75-1.33 1.2-.89.44-1.84.44-.97 0-1.84-.44-.88-.44-1.33-1.19-.46-.76-.46-1.59 0-.84.46-1.66.47-.8 1.34-1.26.88-.47 1.83-.47.95 0 1.83.48.89.47 1.34 1.28.45.8.45 1.65Zm-1.4 0q0-.68-.49-1.24-.65-.76-1.73-.76-.95 0-1.6.6-.64.6-.64 1.41 0 .66.65 1.24.65.56 1.59.56.94 0 1.58-.56.64-.58.64-1.25Zm4.34-3.22v.47q.4-.33.84-.49.47-.17 1-.17 1.26 0 1.97.77.58.62.58 1.62v2.6q.44 0 .66.2.22.18.22.5 0 .3-.22.51-.22.19-.72.19h-1.27q-.51 0-.73-.19-.2-.2-.2-.51 0-.32.2-.5.22-.2.66-.2v-2.65q0-.45-.24-.67-.33-.26-.97-.26-.48 0-.86.18-.36.2-.92.8v2.6q.55 0 .7.1.33.2.33.6 0 .3-.22.51-.2.19-.71.19h-1.6q-.5 0-.72-.19-.22-.2-.22-.51 0-.4.33-.6.17-.1.7-.1v-3.41q-.43 0-.65-.19-.2-.2-.2-.52 0-.3.2-.48.22-.2.73-.2h1.33Zm16.92 2.8q0-1.2.4-2.43.3-.9.9-2 .45-.8.66-.97.22-.18.47-.18.3 0 .51.2.2.2.2.48 0 .2-.17.47-.73 1.22-1.08 2.28-.32 1.07-.32 2.14 0 1.1.32 2.16.35 1.06 1.08 2.27.17.26.17.46 0 .3-.2.5t-.52.2q-.24 0-.43-.15-.27-.25-.72-1.08-.66-1.22-.9-2-.37-1.2-.37-2.36Zm10.02-1.16q-.34-.22-.72-.32-.38-.1-.78-.1-.83 0-1.3.26-.22.11-.22.25 0 .16.3.31.22.11.97.2 1.39.2 1.94.4.72.25 1.1.75.4.5.4 1.04 0 .75-.66 1.27-.95.72-2.47.72-.6 0-1.12-.11-.52-.1-.96-.3-.1.08-.22.14-.1.05-.23.05-.33 0-.53-.22-.19-.22-.19-.72v-.48q0-.5.19-.72.2-.22.51-.22.25 0 .43.14.17.14.26.49.33.28.78.42.46.14 1.03.14.97 0 1.5-.31.25-.15.25-.32 0-.26-.35-.45-.36-.17-1.5-.3-1.7-.17-2.25-.68-.57-.49-.57-1.22 0-.75.63-1.25.86-.7 2.26-.7.49 0 .93.1.45.1.85.28l.25-.14q.11-.04.2-.04.3 0 .5.22.18.2.18.71v.35q0 .45-.11.6-.22.32-.6.32-.24 0-.45-.16-.18-.15-.23-.4Zm4.75 3.8v2.3h.83q.51 0 .72.18.21.2.21.51 0 .3-.21.49-.2.2-.72.2h-2.47q-.52 0-.74-.2-.2-.19-.2-.49t.22-.51q.22-.19.72-.19h.23V54.5h-.23q-.52 0-.74-.19-.2-.2-.2-.52 0-.3.2-.48.22-.2.74-.2h1.64v.47q.48-.33 1-.49.53-.17 1.1-.17 1.43 0 2.43.98 1.02.97 1.02 2.22 0 1.4-1.2 2.3-1 .75-2.24.75-.55 0-1.08-.16-.52-.15-1.03-.47Zm4.16-2.41q0-.3-.24-.75-.23-.46-.72-.75-.48-.31-1.12-.31-1.05 0-1.67.78-.41.53-.41 1.03 0 .56.6 1.1.59.52 1.48.52.87 0 1.47-.51.6-.53.6-1.11Zm9.09.78h-5.75q.22.55.76.89.57.33 1.52.33.78 0 2.08-.35.53-.12.73-.12.28 0 .47.2.19.19.19.49 0 .28-.2.47-.27.25-1.33.48-1.06.22-2.03.22-1.7 0-2.7-.94-1-.95-1-2.34 0-1.49 1.07-2.4 1.1-.93 2.52-.93.86 0 1.58.3.71.3 1.06.65.48.5.81 1.25.22.52.22 1.2v.6Zm-1.55-1.4q-.33-.6-.84-.9-.52-.3-1.24-.3-.71 0-1.23.3t-.84.9h4.15Zm9.55 1.4h-5.75q.22.55.76.89.57.33 1.52.33.78 0 2.08-.35.53-.12.73-.12.28 0 .47.2.19.19.19.49 0 .28-.2.47-.27.25-1.33.48-1.06.22-2.03.22-1.7 0-2.7-.94-1-.95-1-2.34 0-1.49 1.07-2.4 1.1-.93 2.52-.93.86 0 1.58.3.71.3 1.06.65.48.5.81 1.25.22.52.22 1.2v.6Zm-1.55-1.4q-.33-.6-.84-.9-.52-.3-1.24-.3-.71 0-1.23.3t-.84.9h4.15Zm9.25-5.07v7.45h.24q.5 0 .72.2.21.2.21.5 0 .32-.22.52-.21.19-.71.19h-1.64v-.34q-.49.28-1.02.42-.52.14-1.06.14-1.58 0-2.55-.9-.97-.91-.97-2.27 0-1.43 1.02-2.43 1.01-1.01 2.47-1.01.54 0 1.06.17.53.16 1.05.5v-1.75h-.24q-.51 0-.73-.19-.2-.2-.2-.5 0-.32.2-.51.22-.19.73-.19h1.64Zm-1.4 5.94q0-.86-.61-1.46t-1.49-.6q-.87 0-1.48.6t-.61 1.44q0 .77.55 1.27.54.5 1.54.5.99 0 1.53-.5.57-.5.57-1.25Zm16.23-5.92v5.48q.45 0 .66.2.22.2.22.49 0 .31-.22.51t-.66.2v.55q.45 0 .66.2.22.21.22.5 0 .32-.22.52-.22.19-.72.19h-1.88q-.51 0-.73-.19-.2-.2-.2-.51 0-.32.2-.5.22-.2.73-.2h.55v-.57h-3.81v-1.16l3.36-5.71h1.84Zm-1.4 5.48V52.5l-2.02 3.45h2.03Zm7.95-.05q0 1.2-.4 2.43-.3.9-.9 2.01-.45.78-.67.97-.2.19-.47.19-.3 0-.5-.2t-.2-.5q0-.2.15-.47.75-1.2 1.08-2.27.34-1.06.34-2.16 0-1.07-.34-2.14-.33-1.06-1.08-2.28-.15-.26-.15-.47 0-.28.2-.48.2-.2.5-.2.27 0 .45.15.27.24.72 1.08.66 1.2.9 1.98.37 1.22.37 2.36Zm18.34.07h-5.86v-1.27h5.86v1.27Zm13.78-5.74v7.67h1.4q.52 0 .73.2.22.2.22.5 0 .32-.22.52-.2.19-.72.19h-4.24q-.5 0-.72-.19-.21-.2-.21-.51 0-.32.22-.5.21-.2.71-.2h1.43v-5.85l-1.25.33q-.3.08-.46.08-.26 0-.47-.2-.18-.23-.18-.52 0-.28.14-.44.14-.17.6-.3l3.02-.78Zm10.35 3.88v1.53q0 1.37-.8 2.62-.78 1.25-2.25 1.25-.86 0-1.45-.37-.58-.38-1.1-1.38-.51-1-.51-2.12V54.1q0-1.36.78-2.61.78-1.27 2.25-1.27.84 0 1.42.38.6.37 1.12 1.37.54 1 .54 2.13Zm-1.41 0q0-1.14-.64-2-.36-.47-1.02-.47-.64 0-1.04.51-.61.8-.61 1.96v1.53q0 1.15.64 2 .36.47 1.03.47.62 0 1.03-.52.6-.78.6-1.95V54.1Zm8.33.72q.54.42.81.95t.27 1.17q0 .7-.35 1.3-.34.58-1.1.92-.73.34-1.62.34-.9 0-1.64-.34-.72-.34-1.06-.94-.34-.6-.34-1.28 0-.64.26-1.17.28-.53.81-.95-.46-.44-.71-.93-.24-.5-.24-1.04 0-1.07.81-1.85.83-.78 2.13-.78 1.28 0 2.1.78.82.78.82 1.85 0 .56-.23 1.06-.24.48-.72.9Zm-.49-1.94q0-.52-.4-.88-.4-.37-1.1-.37-.7 0-1.1.37-.41.36-.41.88 0 .53.4.9.41.36 1.11.36.7 0 1.1-.36.4-.37.4-.9Zm.16 4.12q0-.54-.47-1-.47-.45-1.17-.45-.72 0-1.19.45-.47.46-.47 1.02 0 .44.4.76.41.32 1.26.32.83 0 1.23-.32t.4-.78Zm9.4-2.9v1.53q0 1.37-.8 2.62-.77 1.25-2.24 1.25-.86 0-1.45-.37-.58-.38-1.1-1.38-.51-1-.51-2.12V54.1q0-1.36.78-2.61.78-1.27 2.25-1.27.84 0 1.42.38.6.37 1.12 1.37.54 1 .54 2.13Zm-1.4 0q0-1.14-.64-2-.36-.47-1.02-.47-.64 0-1.04.51-.61.8-.61 1.96v1.53q0 1.15.64 2 .36.47 1.03.47.62 0 1.03-.52.6-.78.6-1.95V54.1Zm4.6 4.43v2.3h.84q.51 0 .72.19.21.2.21.51 0 .3-.21.49-.2.2-.72.2h-2.47q-.52 0-.74-.2-.2-.19-.2-.49t.22-.51q.22-.19.72-.19h.23V54.5h-.23q-.52 0-.74-.19-.2-.2-.2-.52 0-.3.2-.48.22-.2.74-.2h1.64v.47q.48-.33 1-.49.53-.17 1.1-.17 1.43 0 2.43.98 1.02.97 1.02 2.22 0 1.4-1.2 2.3-1 .75-2.24.75-.55 0-1.08-.16-.52-.15-1.03-.47Zm4.16-2.4q0-.3-.23-.75-.23-.46-.72-.75-.48-.31-1.12-.31-1.05 0-1.67.78-.41.53-.41 1.03 0 .56.6 1.1.59.52 1.48.52.87 0 1.47-.51.6-.53.6-1.11Z"/><path fill="#bdbdbd" d="M12.12 59.3v-.33q-.53.28-1.17.42-.63.14-1.16.14-1.12 0-1.83-.59-.7-.6-.7-1.33 0-.89.89-1.64.9-.75 2.5-.75.63 0 1.47.14v-.34q0-.31-.28-.5-.27-.2-1.03-.2-.61 0-1.61.23-.36.1-.58.1-.27 0-.47-.2-.19-.21-.19-.53 0-.17.07-.3.06-.13.18-.21.13-.08.52-.19.51-.14 1.04-.22.55-.1.99-.1 1.31 0 2.03.57.72.56.72 1.55v2.87h.25q.5 0 .72.2.22.2.22.5 0 .32-.22.52-.22.19-.72.19h-1.64Zm0-2.52q-.84-.15-1.56-.15-.85 0-1.47.42-.38.27-.38.53 0 .2.19.33.33.22.92.22.52 0 1.16-.19.64-.2 1.14-.55v-.6Zm5.31-3.68v.47q.4-.33.84-.49.47-.17 1-.17 1.25 0 1.97.77.58.62.58 1.62v2.6q.44 0 .66.2.22.18.22.5 0 .3-.22.51-.22.19-.72.19h-1.27q-.51 0-.73-.19-.2-.2-.2-.51 0-.32.2-.5.22-.2.66-.2v-2.65q0-.45-.24-.67-.33-.26-.97-.26-.48 0-.86.18-.36.2-.92.8v2.6q.55 0 .7.1.33.2.33.6 0 .3-.22.51-.2.19-.71.19h-1.6q-.5 0-.72-.19-.22-.2-.22-.51 0-.4.33-.6.17-.1.7-.1v-3.41q-.43 0-.65-.19-.2-.2-.2-.52 0-.3.2-.48.22-.2.73-.2h1.33Zm9.92-2.66v1.47h-1.67v-1.47h1.67Zm.2 2.66v4.8h1.68q.5 0 .72.2.22.18.22.5 0 .3-.22.51-.22.19-.72.19h-4.77q-.5 0-.72-.19-.21-.2-.21-.51 0-.32.21-.5.22-.2.72-.2h1.69v-3.41h-1.14q-.5 0-.72-.19-.22-.2-.22-.52 0-.3.22-.48.22-.2.72-.2h2.53Zm5.13 0v.39q.34-.33.63-.46.28-.14.64-.14.3 0 .6.16t.58.45q.38-.3.74-.43.37-.16.76-.16.79 0 1.27.42.64.55.64 1.42v3.14q.44 0 .64.2.22.21.22.5 0 .32-.22.52-.2.19-.7.19h-1.33v-4.42q0-.33-.13-.44-.1-.12-.35-.12-.22 0-.43.1-.25.18-.6.66v2.81q.43 0 .63.2.22.21.22.5 0 .32-.22.52-.2.19-.71.19h-1.33v-4.42q0-.31-.13-.44-.1-.12-.36-.12-.25 0-.48.15-.23.14-.58.61v2.81q.44 0 .66.2.22.21.22.5 0 .32-.22.52-.22.19-.72.19h-1.27q-.5 0-.72-.19-.21-.2-.21-.51 0-.32.21-.5.2-.2.66-.2v-3.41q-.45 0-.66-.19-.21-.2-.21-.52 0-.3.21-.48.22-.2.72-.2h1.33Zm11.44 6.2v-.33q-.53.28-1.17.42-.63.14-1.16.14-1.12 0-1.83-.59-.7-.6-.7-1.33 0-.89.89-1.64.9-.75 2.5-.75.63 0 1.47.14v-.34q0-.31-.28-.5-.27-.2-1.03-.2-.61 0-1.61.23-.36.1-.58.1-.27 0-.47-.2-.19-.21-.19-.53 0-.17.06-.3.07-.13.2-.21.12-.08.5-.19.52-.14 1.05-.22.55-.1.99-.1 1.31 0 2.03.57.72.56.72 1.55v2.87h.25q.5 0 .72.2.22.2.22.5 0 .32-.22.52-.22.19-.72.19h-1.64Zm0-2.52q-.84-.15-1.56-.15-.85 0-1.47.42-.38.27-.38.53 0 .2.19.33.33.22.92.22.52 0 1.16-.19.64-.2 1.14-.55v-.6Zm6.39-2.3v2.82q0 .45.19.6.28.23 1.01.23 1.08 0 1.99-.47.34-.17.54-.17.28 0 .47.2.2.2.2.5 0 .28-.21.47-.33.33-1.32.6-.98.26-1.67.26-1.3 0-1.95-.56-.66-.57-.66-1.38v-3.1h-.5q-.51 0-.73-.18-.2-.2-.2-.52 0-.3.2-.48.22-.2.73-.2h.5v-1.27q0-.51.2-.72.2-.22.5-.22.32 0 .5.22.2.2.2.72v1.27h2.6q.5 0 .72.2.22.19.22.5 0 .3-.22.5-.22.19-.72.19h-2.6Zm8.84-4.04v1.47h-1.67v-1.47h1.67Zm.2 2.66v4.8h1.68q.5 0 .72.2.22.18.22.5 0 .3-.22.51-.22.19-.72.19h-4.77q-.5 0-.72-.19-.22-.2-.22-.51 0-.32.22-.5.22-.2.72-.2h1.69v-3.41h-1.14q-.5 0-.72-.19-.22-.2-.22-.52 0-.3.22-.48.22-.2.72-.2h2.53Zm10.94 3.22q0 .8-.45 1.56-.44.75-1.33 1.2-.89.44-1.84.44-.97 0-1.84-.44-.88-.44-1.33-1.19-.46-.76-.46-1.59 0-.84.46-1.66.47-.8 1.34-1.26.88-.47 1.83-.47.95 0 1.83.48.89.47 1.34 1.28.45.8.45 1.65Zm-1.4 0q0-.68-.49-1.24-.65-.76-1.73-.76-.95 0-1.6.6-.64.6-.64 1.41 0 .66.65 1.24.65.56 1.59.56.94 0 1.58-.56.64-.58.64-1.25Zm4.34-3.22v.47q.4-.33.84-.49.47-.17 1-.17 1.26 0 1.97.77.58.62.58 1.62v2.6q.44 0 .66.2.22.18.22.5 0 .3-.22.51-.22.19-.72.19h-1.27q-.51 0-.73-.19-.2-.2-.2-.51 0-.32.2-.5.22-.2.66-.2v-2.65q0-.45-.24-.67-.33-.26-.97-.26-.48 0-.86.18-.36.2-.92.8v2.6q.55 0 .7.1.33.2.33.6 0 .3-.22.51-.2.19-.71.19h-1.6q-.5 0-.72-.19-.22-.2-.22-.51 0-.4.33-.6.17-.1.7-.1v-3.41q-.43 0-.65-.19-.2-.2-.2-.52 0-.3.2-.48.22-.2.73-.2h1.33Zm16.92 2.8q0-1.2.4-2.43.3-.9.9-2 .45-.8.66-.97.22-.18.47-.18.3 0 .51.2.2.2.2.48 0 .2-.17.47-.73 1.22-1.08 2.28-.32 1.07-.32 2.14 0 1.1.32 2.16.35 1.06 1.08 2.27.17.26.17.46 0 .3-.2.5t-.52.2q-.24 0-.43-.15-.27-.25-.72-1.08-.66-1.22-.9-2-.37-1.2-.37-2.36Zm10.02-1.16q-.34-.22-.72-.32-.38-.1-.78-.1-.83 0-1.3.26-.22.11-.22.25 0 .16.3.31.22.11.97.2 1.39.2 1.94.4.72.25 1.1.75.4.5.4 1.04 0 .75-.66 1.27-.95.72-2.47.72-.6 0-1.12-.11-.52-.1-.96-.3-.1.08-.22.14-.1.05-.23.05-.33 0-.53-.22-.19-.22-.19-.72v-.48q0-.5.19-.72.2-.22.51-.22.25 0 .43.14.17.14.26.49.33.28.78.42.46.14 1.03.14.97 0 1.5-.31.25-.15.25-.32 0-.26-.35-.45-.36-.17-1.5-.3-1.7-.17-2.25-.68-.57-.49-.57-1.22 0-.75.63-1.25.86-.7 2.26-.7.49 0 .93.1.45.1.85.28l.25-.14q.11-.04.2-.04.3 0 .5.22.18.2.18.71v.35q0 .45-.11.6-.22.32-.6.32-.24 0-.45-.16-.18-.15-.23-.4Zm4.75 3.8v2.3h.83q.51 0 .72.18.21.2.21.51 0 .3-.21.49-.2.2-.72.2h-2.47q-.52 0-.74-.2-.2-.19-.2-.49t.22-.51q.22-.19.72-.19h.23V54.5h-.23q-.52 0-.74-.19-.2-.2-.2-.52 0-.3.2-.48.22-.2.74-.2h1.64v.47q.48-.33 1-.49.53-.17 1.1-.17 1.43 0 2.43.98 1.02.97 1.02 2.22 0 1.4-1.2 2.3-1 .75-2.24.75-.55 0-1.08-.16-.52-.15-1.03-.47Zm4.16-2.41q0-.3-.24-.75-.23-.46-.72-.75-.48-.31-1.12-.31-1.05 0-1.67.78-.41.53-.41 1.03 0 .56.6 1.1.59.52 1.48.52.87 0 1.47-.51.6-.53.6-1.11Zm9.09.78h-5.75q.22.55.76.89.57.33 1.52.33.78 0 2.08-.35.53-.12.73-.12.28 0 .47.2.19.19.19.49 0 .28-.2.47-.27.25-1.33.48-1.06.22-2.03.22-1.7 0-2.7-.94-1-.95-1-2.34 0-1.49 1.07-2.4 1.1-.93 2.52-.93.86 0 1.58.3.71.3 1.06.65.48.5.81 1.25.22.52.22 1.2v.6Zm-1.55-1.4q-.33-.6-.84-.9-.52-.3-1.24-.3-.71 0-1.23.3t-.84.9h4.15Zm9.55 1.4h-5.75q.22.55.76.89.57.33 1.52.33.78 0 2.08-.35.53-.12.73-.12.28 0 .47.2.19.19.19.49 0 .28-.2.47-.27.25-1.33.48-1.06.22-2.03.22-1.7 0-2.7-.94-1-.95-1-2.34 0-1.49 1.07-2.4 1.1-.93 2.52-.93.86 0 1.58.3.71.3 1.06.65.48.5.81 1.25.22.52.22 1.2v.6Zm-1.55-1.4q-.33-.6-.84-.9-.52-.3-1.24-.3-.71 0-1.23.3t-.84.9h4.15Zm9.25-5.07v7.45h.24q.5 0 .72.2.21.2.21.5 0 .32-.22.52-.21.19-.71.19h-1.64v-.34q-.49.28-1.02.42-.52.14-1.06.14-1.58 0-2.55-.9-.97-.91-.97-2.27 0-1.43 1.02-2.43 1.01-1.01 2.47-1.01.54 0 1.06.17.53.16 1.05.5v-1.75h-.24q-.51 0-.73-.19-.2-.2-.2-.5 0-.32.2-.51.22-.19.73-.19h1.64Zm-1.4 5.94q0-.86-.61-1.46t-1.49-.6q-.87 0-1.48.6t-.61 1.44q0 .77.55 1.27.54.5 1.54.5.99 0 1.53-.5.57-.5.57-1.25Zm16.23-5.92v5.48q.45 0 .66.2.22.2.22.49 0 .31-.22.51t-.66.2v.55q.45 0 .66.2.22.21.22.5 0 .32-.22.52-.22.19-.72.19h-1.88q-.51 0-.73-.19-.2-.2-.2-.51 0-.32.2-.5.22-.2.73-.2h.55v-.57h-3.81v-1.16l3.36-5.71h1.84Zm-1.4 5.48V52.5l-2.02 3.45h2.03Zm7.95-.05q0 1.2-.4 2.43-.3.9-.9 2.01-.45.78-.67.97-.2.19-.47.19-.3 0-.5-.2t-.2-.5q0-.2.15-.47.75-1.2 1.08-2.27.34-1.06.34-2.16 0-1.07-.34-2.14-.33-1.06-1.08-2.28-.15-.26-.15-.47 0-.28.2-.48.2-.2.5-.2.27 0 .45.15.27.24.72 1.08.66 1.2.9 1.98.37 1.22.37 2.36Zm18.34.07h-5.86v-1.27h5.86v1.27Zm13.78-5.74v7.67h1.4q.52 0 .73.2.22.2.22.5 0 .32-.22.52-.2.19-.72.19h-4.24q-.5 0-.72-.19-.21-.2-.21-.51 0-.32.22-.5.21-.2.71-.2h1.43v-5.85l-1.25.33q-.3.08-.46.08-.26 0-.47-.2-.18-.23-.18-.52 0-.28.14-.44.14-.17.6-.3l3.02-.78Zm10.35 3.88v1.53q0 1.37-.8 2.62-.78 1.25-2.25 1.25-.86 0-1.45-.37-.58-.38-1.1-1.38-.51-1-.51-2.12V54.1q0-1.36.78-2.61.78-1.27 2.25-1.27.84 0 1.42.38.6.37 1.12 1.37.54 1 .54 2.13Zm-1.41 0q0-1.14-.64-2-.36-.47-1.02-.47-.64 0-1.04.51-.61.8-.61 1.96v1.53q0 1.15.64 2 .36.47 1.03.47.62 0 1.03-.52.6-.78.6-1.95V54.1Zm8.33.72q.54.42.81.95t.27 1.17q0 .7-.35 1.3-.34.58-1.1.92-.73.34-1.62.34-.9 0-1.64-.34-.72-.34-1.06-.94-.34-.6-.34-1.28 0-.64.26-1.17.28-.53.81-.95-.46-.44-.71-.93-.24-.5-.24-1.04 0-1.07.81-1.85.83-.78 2.13-.78 1.28 0 2.1.78.82.78.82 1.85 0 .56-.23 1.06-.24.48-.72.9Zm-.49-1.94q0-.52-.4-.88-.4-.37-1.1-.37-.7 0-1.1.37-.41.36-.41.88 0 .53.4.9.41.36 1.11.36.7 0 1.1-.36.4-.37.4-.9Zm.16 4.12q0-.54-.47-1-.47-.45-1.17-.45-.72 0-1.19.45-.47.46-.47 1.02 0 .44.4.76.41.32 1.26.32.83 0 1.23-.32t.4-.78Zm9.4-2.9v1.53q0 1.37-.8 2.62-.77 1.25-2.24 1.25-.86 0-1.45-.37-.58-.38-1.1-1.38-.51-1-.51-2.12V54.1q0-1.36.78-2.61.78-1.27 2.25-1.27.84 0 1.42.38.6.37 1.12 1.37.54 1 .54 2.13Zm-1.4 0q0-1.14-.64-2-.36-.47-1.02-.47-.64 0-1.04.51-.61.8-.61 1.96v1.53q0 1.15.64 2 .36.47 1.03.47.62 0 1.03-.52.6-.78.6-1.95V54.1Zm4.6 4.43v2.3h.84q.51 0 .72.19.21.2.21.51 0 .3-.21.49-.2.2-.72.2h-2.47q-.52 0-.74-.2-.2-.19-.2-.49t.22-.51q.22-.19.72-.19h.23V54.5h-.23q-.52 0-.74-.19-.2-.2-.2-.52 0-.3.2-.48.22-.2.74-.2h1.64v.47q.48-.33 1-.49.53-.17 1.1-.17 1.43 0 2.43.98 1.02.97 1.02 2.22 0 1.4-1.2 2.3-1 .75-2.24.75-.55 0-1.08-.16-.52-.15-1.03-.47Zm4.16-2.4q0-.3-.23-.75-.23-.46-.72-.75-.48-.31-1.12-.31-1.05 0-1.67.78-.41.53-.41 1.03 0 .56.6 1.1.59.52 1.48.52.87 0 1.47-.51.6-.53.6-1.11Z"/><path stroke="#242424" stroke-width="3" stroke-linejoin="round" stroke-linecap="round" d="M18.35 31.65v-.7q-1.12.6-2.48.89-1.36.31-2.49.31-2.4 0-3.92-1.28-1.51-1.28-1.51-2.85 0-1.89 1.92-3.5 1.94-1.62 5.34-1.62 1.36 0 3.14.3v-.72q0-.67-.58-1.1-.57-.42-2.2-.42-1.33 0-3.45.52-.8.2-1.24.2-.59 0-1.01-.44-.42-.43-.42-1.1 0-.38.14-.66.15-.28.42-.44.27-.17 1.1-.4 1.1-.32 2.26-.5 1.16-.2 2.1-.2 2.79 0 4.34 1.23 1.54 1.2 1.54 3.3v6.18h.52q1.08 0 1.55.42.46.4.46 1.08 0 .67-.46 1.1-.47.4-1.55.4h-3.52Zm0-5.38q-1.8-.35-3.33-.35-1.82 0-3.14.9-.82.56-.82 1.16 0 .42.4.69.72.48 2 .48 1.08 0 2.46-.42 1.37-.44 2.43-1.17v-1.29Zm15.33 1.74 3.24-6.66q-1.2 0-1.55-.2-.74-.45-.74-1.31 0-.66.46-1.07.47-.42 1.56-.42h4.1q1.1 0 1.56.42.46.41.46 1.08 0 .66-.46 1.08-.46.42-1.55.42h-.5l-5.02 10.3H32.1l-5.01-10.3h-.44q-1.08 0-1.55-.42-.45-.42-.45-1.1 0-.65.45-1.05.47-.43 1.55-.43h4.03q1.08 0 1.53.42.47.41.47 1.08 0 .85-.7 1.28-.36.22-1.58.22l3.28 6.66Zm19.05-15.36v3.17h-3.58v-3.17h3.58Zm.4 5.7v10.3h3.61q1.08 0 1.53.42.47.4.47 1.08 0 .67-.47 1.1-.45.4-1.53.4H46.52q-1.07 0-1.54-.4-.45-.43-.45-1.12 0-.65.45-1.06.47-.42 1.55-.42h3.6v-7.3h-2.42q-1.06 0-1.53-.42t-.47-1.1q0-.65.46-1.05.46-.43 1.54-.43h5.42Zm19.22 13.3v-.7q-1.12.6-2.48.89-1.36.31-2.49.31-2.4 0-3.92-1.28-1.51-1.28-1.51-2.85 0-1.89 1.92-3.5 1.94-1.62 5.34-1.62 1.36 0 3.14.3v-.72q0-.67-.57-1.1-.58-.42-2.2-.42-1.34 0-3.46.52-.8.2-1.24.2-.59 0-1.01-.44-.42-.43-.42-1.1 0-.38.14-.66.15-.28.42-.44.27-.17 1.1-.4 1.1-.32 2.26-.5 1.16-.2 2.1-.2 2.79 0 4.34 1.23 1.54 1.2 1.54 3.3v6.18h.52q1.08 0 1.55.42.46.4.46 1.08 0 .67-.46 1.1-.47.4-1.55.4h-3.52Zm0-5.38q-1.8-.35-3.32-.35-1.83 0-3.15.9-.82.56-.82 1.16 0 .42.4.69.72.48 2 .48 1.08 0 2.46-.42 1.37-.44 2.43-1.17v-1.29Zm14.57-4.92v6.02q0 .97.39 1.28.6.48 2.2.48 2.3 0 4.25-.98.73-.38 1.17-.38.58 0 1 .44.44.44.44 1.06 0 .6-.47 1.02-.72.69-2.83 1.27-2.1.57-3.56.57-2.8 0-4.2-1.2-1.4-1.22-1.4-2.97v-6.6h-1.09q-1.08 0-1.54-.43-.46-.42-.46-1.1 0-.65.46-1.05.46-.43 1.54-.43h1.1v-2.72q0-1.07.4-1.53.42-.47 1.1-.47.65 0 1.07.47.43.46.43 1.53v2.72h5.54q1.08 0 1.55.42.47.41.47 1.08 0 .66-.47 1.08-.47.42-1.55.42h-5.54Zm26.53 3.9q0 1.73-.96 3.35-.95 1.61-2.86 2.58-1.89.95-3.95.95-2.06 0-3.94-.93-1.87-.96-2.86-2.58-.96-1.63-.96-3.4 0-1.8.98-3.54 1-1.73 2.86-2.73 1.87-1 3.92-1t3.94 1.03q1.9 1.01 2.86 2.73.97 1.72.97 3.53Zm-3 0q0-1.44-1.03-2.65-1.43-1.64-3.74-1.64-2.05 0-3.4 1.3-1.36 1.3-1.36 3.01 0 1.41 1.37 2.65 1.38 1.21 3.4 1.21 2 0 3.38-1.21 1.38-1.24 1.38-2.66Zm12.58-6.9v1.88q1.89-1.36 2.98-1.81 1.1-.47 2.05-.47 1.47 0 2.84 1.1.94.72.94 1.47 0 .66-.46 1.11-.43.44-1.07.44-.55 0-1.18-.55-.6-.56-1.09-.56-.62 0-1.89.8-1.25.78-3.13 2.36v4.53h4.29q1.07 0 1.53.42.47.4.47 1.08 0 .67-.47 1.1-.46.4-1.53.4h-9.07q-1.09 0-1.56-.4-.45-.43-.45-1.12 0-.65.45-1.06.47-.42 1.56-.42h1.79v-7.3h-1.08q-1.1 0-1.57-.42-.45-.42-.45-1.1 0-.65.45-1.05.47-.43 1.57-.43h4.08Zm36.65 9.66 3.24-6.66q-1.2 0-1.55-.2-.74-.45-.74-1.31 0-.66.46-1.07.47-.42 1.56-.42h4.1q1.1 0 1.56.42.47.41.47 1.08 0 .66-.47 1.08-.46.42-1.55.42h-.5l-5.02 10.3h-3.14l-5.01-10.3h-.44q-1.08 0-1.55-.42-.45-.42-.45-1.1 0-.65.45-1.05.47-.43 1.55-.43h4.03q1.08 0 1.53.42.47.41.47 1.08 0 .85-.7 1.28-.36.22-1.58.22l3.28 6.66Zm32.88-15.36v6.4q.93-.56 1.89-.82.97-.28 1.93-.28 1.57 0 2.77.53 1.22.53 2.02 1.67.8 1.13.8 2.86v5.64q1.15 0 1.5.22.7.45.7 1.28 0 .67-.46 1.1-.45.4-1.53.4h-3.44q-1.06 0-1.53-.4-.45-.43-.45-1.12 0-.8.7-1.26.36-.24 1.5-.22v-5.44q0-1.15-.53-1.62-.69-.63-2.05-.63-.98 0-1.76.4-.77.37-2.06 1.66v5.63q1.15 0 1.48.22.72.45.72 1.28 0 .67-.47 1.1-.45.4-1.53.4h-3.4q-1.1 0-1.57-.4-.45-.43-.45-1.12 0-.8.72-1.26.36-.24 1.5-.22v-13h-.52q-1.1 0-1.56-.4-.45-.43-.45-1.1 0-.67.45-1.08.47-.42 1.56-.42h3.52Zm23.8 19v-.7q-1.13.6-2.5.89-1.35.31-2.48.31-2.4 0-3.92-1.28-1.51-1.28-1.51-2.85 0-1.89 1.92-3.5 1.94-1.62 5.34-1.62 1.36 0 3.14.3v-.72q0-.67-.57-1.1-.58-.42-2.2-.42-1.34 0-3.46.52-.8.2-1.24.2-.59 0-1.01-.44-.42-.43-.42-1.1 0-.38.14-.66.15-.28.42-.44.27-.17 1.1-.4 1.1-.32 2.26-.5 1.16-.2 2.1-.2 2.79 0 4.34 1.23 1.54 1.2 1.54 3.3v6.18h.52q1.08 0 1.55.42.46.4.46 1.08 0 .67-.46 1.1-.47.4-1.55.4h-3.52Zm0-5.38q-1.8-.35-3.34-.35-1.82 0-3.14.9-.82.56-.82 1.16 0 .42.4.69.72.48 2 .48 1.08 0 2.46-.42 1.37-.44 2.43-1.17v-1.29Zm12.26-7.92v1q.81-.7 1.8-1.04 1-.36 2.15-.36 2.66 0 4.22 1.65 1.22 1.33 1.22 3.47v5.58q.95 0 1.4.42.47.4.47 1.08 0 .67-.46 1.1-.47.4-1.55.4h-2.7q-1.1 0-1.57-.4-.45-.43-.45-1.12 0-.65.45-1.06.46-.42 1.4-.42v-5.67q0-.99-.5-1.44-.7-.58-2.08-.58-1.04 0-1.83.4-.78.4-1.97 1.71v5.58q1.16 0 1.48.22.72.44.72 1.28 0 .67-.47 1.1-.45.4-1.53.4h-3.42q-1.08 0-1.55-.4-.45-.43-.45-1.12 0-.8.7-1.26.35-.22 1.5-.22v-7.3q-.95 0-1.4-.42-.46-.42-.46-1.1 0-.65.46-1.05.47-.43 1.56-.43h2.86Zm27.92-5.7v16h.52q1.06 0 1.53.42.47.4.47 1.08 0 .67-.47 1.1-.46.4-1.53.4h-3.52v-.73q-1.03.6-2.16.9-1.1.31-2.3.31-3.38 0-5.46-1.95-2.06-1.95-2.06-4.87 0-3.05 2.17-5.2 2.17-2.16 5.28-2.16 1.17 0 2.3.36 1.14.36 2.23 1.07v-3.73h-.51q-1.08 0-1.55-.4-.45-.43-.45-1.08 0-.7.45-1.1.47-.42 1.55-.42h3.51Zm-3 12.75q0-1.86-1.31-3.14-1.3-1.3-3.19-1.3-1.87 0-3.19 1.3-1.3 1.28-1.3 3.1 0 1.65 1.18 2.71 1.17 1.06 3.31 1.06 2.13 0 3.31-1.06 1.2-1.06 1.2-2.67Zm10.33-12.75v6.73q1.1-.71 2.22-1.07 1.14-.36 2.3-.36 3.12 0 5.3 2.15 2.16 2.16 2.16 5.2 0 2.93-2.08 4.88-2.06 1.95-5.43 1.95-1.2 0-2.33-.3-1.11-.3-2.14-.91v.73h-3.52q-1.1 0-1.56-.4-.45-.43-.45-1.12 0-.65.47-1.06.46-.42 1.54-.42h.52v-13h-.52q-1.1 0-1.56-.4-.45-.43-.45-1.1 0-.67.45-1.08.47-.42 1.56-.42h3.52Zm8.97 12.75q0-1.86-1.3-3.14-1.3-1.3-3.19-1.3-1.87 0-3.18 1.3-1.3 1.28-1.3 3.1 0 1.65 1.17 2.71t3.31 1.06q2.14 0 3.32-1.06 1.17-1.06 1.17-2.67Zm12.19-7.05v1.88q1.89-1.36 2.98-1.81 1.1-.47 2.05-.47 1.46 0 2.84 1.1.94.72.94 1.47 0 .66-.46 1.11-.43.44-1.07.44-.55 0-1.18-.55-.6-.56-1.09-.56-.62 0-1.89.8-1.25.78-3.13 2.36v4.53h4.29q1.07 0 1.53.42.47.4.47 1.08 0 .67-.47 1.1-.46.4-1.53.4h-9.07q-1.09 0-1.56-.4-.45-.43-.45-1.12 0-.65.45-1.06.47-.42 1.56-.42h1.78v-7.3h-1.07q-1.1 0-1.57-.42-.45-.42-.45-1.1 0-.65.45-1.05.47-.43 1.57-.43h4.07Zm21.32 13.3v-.7q-1.12.6-2.48.89-1.36.31-2.49.31-2.4 0-3.92-1.28-1.51-1.28-1.51-2.85 0-1.89 1.92-3.5 1.94-1.62 5.34-1.62 1.36 0 3.14.3v-.72q0-.67-.58-1.1-.57-.42-2.2-.42-1.33 0-3.45.52-.8.2-1.24.2-.59 0-1.01-.44-.42-.43-.42-1.1 0-.38.14-.66.15-.28.42-.44.26-.17 1.1-.4 1.1-.32 2.26-.5 1.15-.2 2.1-.2 2.79 0 4.34 1.23 1.54 1.2 1.54 3.3v6.18h.52q1.08 0 1.55.42.46.4.46 1.08 0 .67-.46 1.1-.47.4-1.55.4h-3.52Zm0-5.38q-1.8-.35-3.33-.35-1.82 0-3.14.9-.82.56-.82 1.16 0 .42.4.69.72.48 2 .48 1.08 0 2.46-.42 1.37-.44 2.43-1.17v-1.29Zm12.83.38v5h-3.51q-1.08 0-1.55-.4-.45-.43-.45-1.12 0-.65.46-1.06.47-.42 1.54-.42h.51v-13h-.51q-1.08 0-1.55-.4-.45-.43-.45-1.1 0-.67.45-1.08.47-.42 1.55-.42h3.51v10.12l2.34-1.89q-.35-.62-.35-1.03 0-.67.45-1.08.45-.42 1.53-.42h3.44q1.08 0 1.53.42.47.41.47 1.08 0 .66-.47 1.08-.45.42-1.53.42h-.85l-3.64 2.96 4.9 4.34h.88q1.08 0 1.54.42.46.4.46 1.08 0 .67-.46 1.1-.46.4-1.54.4h-3.45q-1.1 0-1.56-.4-.45-.43-.45-1.12 0-.56.5-1.12l-3.18-2.81-.56.45Zm28-.13h-12.31q.47 1.18 1.65 1.9 1.2.71 3.24.71 1.67 0 4.44-.71 1.14-.3 1.57-.3.61 0 1.02.42.4.42.4 1.08 0 .58-.43.98-.58.55-2.86 1.05-2.27.48-4.36.48-3.6 0-5.77-2.03-2.15-2.04-2.15-5.01 0-3.17 2.33-5.16 2.34-1.98 5.39-1.98 1.83 0 3.36.65 1.53.64 2.28 1.4 1.04 1.07 1.73 2.67.47 1.12.47 2.57v1.29Zm-3.31-3q-.69-1.3-1.81-1.92-1.11-.64-2.64-.64-1.54 0-2.65.64-1.1.63-1.8 1.92h8.9Z"/><path fill="#fff" d="M18.35 31.65v-.7q-1.12.6-2.48.89-1.36.31-2.49.31-2.4 0-3.92-1.28-1.51-1.28-1.51-2.85 0-1.89 1.92-3.5 1.94-1.62 5.34-1.62 1.36 0 3.14.3v-.72q0-.67-.58-1.1-.57-.42-2.2-.42-1.33 0-3.45.52-.8.2-1.24.2-.59 0-1.01-.44-.42-.43-.42-1.1 0-.38.14-.66.15-.28.42-.44.27-.17 1.1-.4 1.1-.32 2.26-.5 1.16-.2 2.1-.2 2.79 0 4.34 1.23 1.54 1.2 1.54 3.3v6.18h.52q1.08 0 1.55.42.46.4.46 1.08 0 .67-.46 1.1-.47.4-1.55.4h-3.52Zm0-5.38q-1.8-.35-3.33-.35-1.82 0-3.14.9-.82.56-.82 1.16 0 .42.4.69.72.48 2 .48 1.08 0 2.46-.42 1.37-.44 2.43-1.17v-1.29Zm15.33 1.74 3.24-6.66q-1.2 0-1.55-.2-.74-.45-.74-1.31 0-.66.46-1.07.47-.42 1.56-.42h4.1q1.1 0 1.56.42.46.41.46 1.08 0 .66-.46 1.08-.46.42-1.55.42h-.5l-5.02 10.3H32.1l-5.01-10.3h-.44q-1.08 0-1.55-.42-.45-.42-.45-1.1 0-.65.45-1.05.47-.43 1.55-.43h4.03q1.08 0 1.53.42.47.41.47 1.08 0 .85-.7 1.28-.36.22-1.58.22l3.28 6.66Zm19.05-15.36v3.17h-3.58v-3.17h3.58Zm.4 5.7v10.3h3.61q1.08 0 1.53.42.47.4.47 1.08 0 .67-.47 1.1-.45.4-1.53.4H46.52q-1.07 0-1.54-.4-.45-.43-.45-1.12 0-.65.45-1.06.47-.42 1.55-.42h3.6v-7.3h-2.42q-1.06 0-1.53-.42t-.47-1.1q0-.65.46-1.05.46-.43 1.54-.43h5.42Zm19.22 13.3v-.7q-1.12.6-2.48.89-1.36.31-2.49.31-2.4 0-3.92-1.28-1.51-1.28-1.51-2.85 0-1.89 1.92-3.5 1.94-1.62 5.34-1.62 1.36 0 3.14.3v-.72q0-.67-.57-1.1-.58-.42-2.2-.42-1.34 0-3.46.52-.8.2-1.24.2-.59 0-1.01-.44-.42-.43-.42-1.1 0-.38.14-.66.15-.28.42-.44.27-.17 1.1-.4 1.1-.32 2.26-.5 1.16-.2 2.1-.2 2.79 0 4.34 1.23 1.54 1.2 1.54 3.3v6.18h.52q1.08 0 1.55.42.46.4.46 1.08 0 .67-.46 1.1-.47.4-1.55.4h-3.52Zm0-5.38q-1.8-.35-3.32-.35-1.83 0-3.15.9-.82.56-.82 1.16 0 .42.4.69.72.48 2 .48 1.08 0 2.46-.42 1.37-.44 2.43-1.17v-1.29Zm14.57-4.92v6.02q0 .97.39 1.28.6.48 2.2.48 2.3 0 4.25-.98.73-.38 1.17-.38.58 0 1 .44.44.44.44 1.06 0 .6-.47 1.02-.72.69-2.83 1.27-2.1.57-3.56.57-2.8 0-4.2-1.2-1.4-1.22-1.4-2.97v-6.6h-1.09q-1.08 0-1.54-.43-.46-.42-.46-1.1 0-.65.46-1.05.46-.43 1.54-.43h1.1v-2.72q0-1.07.4-1.53.42-.47 1.1-.47.65 0 1.07.47.43.46.43 1.53v2.72h5.54q1.08 0 1.55.42.47.41.47 1.08 0 .66-.47 1.08-.47.42-1.55.42h-5.54Zm26.53 3.9q0 1.73-.96 3.35-.95 1.61-2.86 2.58-1.89.95-3.95.95-2.06 0-3.94-.93-1.87-.96-2.86-2.58-.96-1.63-.96-3.4 0-1.8.98-3.54 1-1.73 2.86-2.73 1.87-1 3.92-1t3.94 1.03q1.9 1.01 2.86 2.73.97 1.72.97 3.53Zm-3 0q0-1.44-1.03-2.65-1.43-1.64-3.74-1.64-2.05 0-3.4 1.3-1.36 1.3-1.36 3.01 0 1.41 1.37 2.65 1.38 1.21 3.4 1.21 2 0 3.38-1.21 1.38-1.24 1.38-2.66Zm12.58-6.9v1.88q1.89-1.36 2.98-1.81 1.1-.47 2.05-.47 1.47 0 2.84 1.1.94.72.94 1.47 0 .66-.46 1.11-.43.44-1.07.44-.55 0-1.18-.55-.6-.56-1.09-.56-.62 0-1.89.8-1.25.78-3.13 2.36v4.53h4.29q1.07 0 1.53.42.47.4.47 1.08 0 .67-.47 1.1-.46.4-1.53.4h-9.07q-1.09 0-1.56-.4-.45-.43-.45-1.12 0-.65.45-1.06.47-.42 1.56-.42h1.79v-7.3h-1.08q-1.1 0-1.57-.42-.45-.42-.45-1.1 0-.65.45-1.05.47-.43 1.57-.43h4.08Zm36.65 9.66 3.24-6.66q-1.2 0-1.55-.2-.74-.45-.74-1.31 0-.66.46-1.07.47-.42 1.56-.42h4.1q1.1 0 1.56.42.47.41.47 1.08 0 .66-.47 1.08-.46.42-1.55.42h-.5l-5.02 10.3h-3.14l-5.01-10.3h-.44q-1.08 0-1.55-.42-.45-.42-.45-1.1 0-.65.45-1.05.47-.43 1.55-.43h4.03q1.08 0 1.53.42.47.41.47 1.08 0 .85-.7 1.28-.36.22-1.58.22l3.28 6.66Zm32.88-15.36v6.4q.93-.56 1.89-.82.97-.28 1.93-.28 1.57 0 2.77.53 1.22.53 2.02 1.67.8 1.13.8 2.86v5.64q1.15 0 1.5.22.7.45.7 1.28 0 .67-.46 1.1-.45.4-1.53.4h-3.44q-1.06 0-1.53-.4-.45-.43-.45-1.12 0-.8.7-1.26.36-.24 1.5-.22v-5.44q0-1.15-.53-1.62-.69-.63-2.05-.63-.98 0-1.76.4-.77.37-2.06 1.66v5.63q1.15 0 1.48.22.72.45.72 1.28 0 .67-.47 1.1-.45.4-1.53.4h-3.4q-1.1 0-1.57-.4-.45-.43-.45-1.12 0-.8.72-1.26.36-.24 1.5-.22v-13h-.52q-1.1 0-1.56-.4-.45-.43-.45-1.1 0-.67.45-1.08.47-.42 1.56-.42h3.52Zm23.8 19v-.7q-1.13.6-2.5.89-1.35.31-2.48.31-2.4 0-3.92-1.28-1.51-1.28-1.51-2.85 0-1.89 1.92-3.5 1.94-1.62 5.34-1.62 1.36 0 3.14.3v-.72q0-.67-.57-1.1-.58-.42-2.2-.42-1.34 0-3.46.52-.8.2-1.24.2-.59 0-1.01-.44-.42-.43-.42-1.1 0-.38.14-.66.15-.28.42-.44.27-.17 1.1-.4 1.1-.32 2.26-.5 1.16-.2 2.1-.2 2.79 0 4.34 1.23 1.54 1.2 1.54 3.3v6.18h.52q1.08 0 1.55.42.46.4.46 1.08 0 .67-.46 1.1-.47.4-1.55.4h-3.52Zm0-5.38q-1.8-.35-3.34-.35-1.82 0-3.14.9-.82.56-.82 1.16 0 .42.4.69.72.48 2 .48 1.08 0 2.46-.42 1.37-.44 2.43-1.17v-1.29Zm12.26-7.92v1q.81-.7 1.8-1.04 1-.36 2.15-.36 2.66 0 4.22 1.65 1.22 1.33 1.22 3.47v5.58q.95 0 1.4.42.47.4.47 1.08 0 .67-.46 1.1-.47.4-1.55.4h-2.7q-1.1 0-1.57-.4-.45-.43-.45-1.12 0-.65.45-1.06.46-.42 1.4-.42v-5.67q0-.99-.5-1.44-.7-.58-2.08-.58-1.04 0-1.83.4-.78.4-1.97 1.71v5.58q1.16 0 1.48.22.72.44.72 1.28 0 .67-.47 1.1-.45.4-1.53.4h-3.42q-1.08 0-1.55-.4-.45-.43-.45-1.12 0-.8.7-1.26.35-.22 1.5-.22v-7.3q-.95 0-1.4-.42-.46-.42-.46-1.1 0-.65.46-1.05.47-.43 1.56-.43h2.86Zm27.92-5.7v16h.52q1.06 0 1.53.42.47.4.47 1.08 0 .67-.47 1.1-.46.4-1.53.4h-3.52v-.73q-1.03.6-2.16.9-1.1.31-2.3.31-3.38 0-5.46-1.95-2.06-1.95-2.06-4.87 0-3.05 2.17-5.2 2.17-2.16 5.28-2.16 1.17 0 2.3.36 1.14.36 2.23 1.07v-3.73h-.51q-1.08 0-1.55-.4-.45-.43-.45-1.08 0-.7.45-1.1.47-.42 1.55-.42h3.51Zm-3 12.75q0-1.86-1.31-3.14-1.3-1.3-3.19-1.3-1.87 0-3.19 1.3-1.3 1.28-1.3 3.1 0 1.65 1.18 2.71 1.17 1.06 3.31 1.06 2.13 0 3.31-1.06 1.2-1.06 1.2-2.67Zm10.33-12.75v6.73q1.1-.71 2.22-1.07 1.14-.36 2.3-.36 3.12 0 5.3 2.15 2.16 2.16 2.16 5.2 0 2.93-2.08 4.88-2.06 1.95-5.43 1.95-1.2 0-2.33-.3-1.11-.3-2.14-.91v.73h-3.52q-1.1 0-1.56-.4-.45-.43-.45-1.12 0-.65.47-1.06.46-.42 1.54-.42h.52v-13h-.52q-1.1 0-1.56-.4-.45-.43-.45-1.1 0-.67.45-1.08.47-.42 1.56-.42h3.52Zm8.97 12.75q0-1.86-1.3-3.14-1.3-1.3-3.19-1.3-1.87 0-3.18 1.3-1.3 1.28-1.3 3.1 0 1.65 1.17 2.71t3.31 1.06q2.14 0 3.32-1.06 1.17-1.06 1.17-2.67Zm12.19-7.05v1.88q1.89-1.36 2.98-1.81 1.1-.47 2.05-.47 1.46 0 2.84 1.1.94.72.94 1.47 0 .66-.46 1.11-.43.44-1.07.44-.55 0-1.18-.55-.6-.56-1.09-.56-.62 0-1.89.8-1.25.78-3.13 2.36v4.53h4.29q1.07 0 1.53.42.47.4.47 1.08 0 .67-.47 1.1-.46.4-1.53.4h-9.07q-1.09 0-1.56-.4-.45-.43-.45-1.12 0-.65.45-1.06.47-.42 1.56-.42h1.78v-7.3h-1.07q-1.1 0-1.57-.42-.45-.42-.45-1.1 0-.65.45-1.05.47-.43 1.57-.43h4.07Zm21.32 13.3v-.7q-1.12.6-2.48.89-1.36.31-2.49.31-2.4 0-3.92-1.28-1.51-1.28-1.51-2.85 0-1.89 1.92-3.5 1.94-1.62 5.34-1.62 1.36 0 3.14.3v-.72q0-.67-.58-1.1-.57-.42-2.2-.42-1.33 0-3.45.52-.8.2-1.24.2-.59 0-1.01-.44-.42-.43-.42-1.1 0-.38.14-.66.15-.28.42-.44.26-.17 1.1-.4 1.1-.32 2.26-.5 1.15-.2 2.1-.2 2.79 0 4.34 1.23 1.54 1.2 1.54 3.3v6.18h.52q1.08 0 1.55.42.46.4.46 1.08 0 .67-.46 1.1-.47.4-1.55.4h-3.52Zm0-5.38q-1.8-.35-3.33-.35-1.82 0-3.14.9-.82.56-.82 1.16 0 .42.4.69.72.48 2 .48 1.08 0 2.46-.42 1.37-.44 2.43-1.17v-1.29Zm12.83.38v5h-3.51q-1.08 0-1.55-.4-.45-.43-.45-1.12 0-.65.46-1.06.47-.42 1.54-.42h.51v-13h-.51q-1.08 0-1.55-.4-.45-.43-.45-1.1 0-.67.45-1.08.47-.42 1.55-.42h3.51v10.12l2.34-1.89q-.35-.62-.35-1.03 0-.67.45-1.08.45-.42 1.53-.42h3.44q1.08 0 1.53.42.47.41.47 1.08 0 .66-.47 1.08-.45.42-1.53.42h-.85l-3.64 2.96 4.9 4.34h.88q1.08 0 1.54.42.46.4.46 1.08 0 .67-.46 1.1-.46.4-1.54.4h-3.45q-1.1 0-1.56-.4-.45-.43-.45-1.12 0-.56.5-1.12l-3.18-2.81-.56.45Zm28-.13h-12.31q.47 1.18 1.65 1.9 1.2.71 3.24.71 1.67 0 4.44-.71 1.14-.3 1.57-.3.61 0 1.02.42.4.42.4 1.08 0 .58-.43.98-.58.55-2.86 1.05-2.27.48-4.36.48-3.6 0-5.77-2.03-2.15-2.04-2.15-5.01 0-3.17 2.33-5.16 2.34-1.98 5.39-1.98 1.83 0 3.36.65 1.53.64 2.28 1.4 1.04 1.07 1.73 2.67.47 1.12.47 2.57v1.29Zm-3.31-3q-.69-1.3-1.81-1.92-1.11-.64-2.64-.64-1.54 0-2.65.64-1.1.63-1.8 1.92h8.9Z"/></svg>