<svg fill="none" stroke-linecap="square" stroke-miterlimit="10" width="669" height="665" xmlns="http://www.w3.org/2000/svg"><path fill="#242424" d="M0 0h669v665H0V0Z"/><path stroke="#3a3a3a" stroke-linecap="butt" d="M33.5.5v665m218-665v665m128-665v665m91-665v665m71-665v665m-541-39h669m-669-96h669m-669-49h669m-669-96h669m-669-48h669m-669-97h669m-669-48h669m-669-96h669m-669-48h669"/><path stroke="#000" stroke-linecap="butt" d="M.5 665.5V.5"/><clipPath id="a"><path d="M0 0h669v665H0V0Z"/></clipPath><path stroke="#ed333b" stroke-width="2" stroke-linecap="butt" clip-path="url(#a)" d="M1.75 630.24s65.73-120.17 98.1-170.74c32.36-50.57 64.72-96.78 97.09-134.4 32.36-37.63 72.82-74.33 109.23-102.76 36.42-28.43 86.91-54.92 130.37-80.95C479.99 115.35 633.4 27.7 633.4 27.7"/><path stroke="#e5a50a" stroke-width="2" stroke-linecap="butt" clip-path="url(#a)" d="M6.93 631.27s62.34-110.28 91.63-151.35c29.3-41.07 58.58-69.36 87.87-101.28 29.3-31.93 72.62-80.45 108.93-111.9 36.31-31.44 101.32-71.8 151.97-107.12C498 124.31 658.3 14.2 658.3 14.2"/><path clip-path="url(#a)" d="M4.75 630.24a3 3 0 1 1-6 0 3 3 0 0 1 6 0Zm98.09-170.74a3 3 0 1 1-6 0 3 3 0 0 1 6 0Zm97.1-134.4a3 3 0 1 1-6 0 3 3 0 0 1 6 0Zm109.23-102.76a3 3 0 1 1-6 0 3 3 0 0 1 6 0Zm130.37-80.95a3 3 0 1 1-6 0 3 3 0 0 1 6 0ZM636.41 27.7a3 3 0 1 1-6 0 3 3 0 0 1 6 0Z"/><path clip-path="url(#a)" d="M9.93 631.27a3 3 0 1 1-6 0 3 3 0 0 1 6 0Zm91.63-151.35a3 3 0 1 1-6 0 3 3 0 0 1 6 0Zm87.87-101.28a3 3 0 1 1-6 0 3 3 0 0 1 6 0Zm108.93-111.89a3 3 0 1 1-6 0 3 3 0 0 1 6 0Zm151.97-107.13a3 3 0 1 1-6 0 3 3 0 0 1 6 0ZM661.3 14.2a3 3 0 1 1-6 0 3 3 0 0 1 6 0Z"/><path stroke="#242424" stroke-width="3" stroke-linejoin="round" stroke-linecap="round" d="M440.38 10.07v3.81q1.05-1.36 2.52-1.36 1.25 0 2.14.93.9.9.9 2.23t-.9 2.27q-.9.92-2.14.92-1.5 0-2.52-1.35v1.13h-1.34q-.2 0-.3-.08-.08-.1-.08-.2 0-.14.08-.22.1-.08.3-.08h.78v-7.42h-.78q-.2 0-.3-.08-.08-.08-.08-.22 0-.12.08-.2.1-.08.3-.08h1.34Zm4.99 5.63q0-1.08-.75-1.83-.74-.77-1.74-.77t-1.75.77q-.73.75-.73 1.83 0 1.1.73 1.86.75.75 1.75.75t1.74-.75q.75-.77.75-1.86Zm5.46-5.9v1.46H450V9.79h.84Zm.02 2.93v5.34h2.27q.2 0 .3.08.09.08.09.22 0 .1-.1.2-.1.08-.3.08h-5.09q-.2 0-.3-.08-.07-.1-.07-.2 0-.14.08-.22.09-.08.3-.08h2.26v-4.76h-1.69q-.2 0-.3-.08-.1-.08-.1-.2 0-.13.1-.2.1-.1.3-.1h2.25Zm6.52 0h3.12q.2 0 .28.1.1.07.1.2 0 .12-.1.2-.08.08-.28.08h-3.12v3.82q0 .5.4.85.4.33 1.17.33.58 0 1.25-.18.7-.18 1.07-.4.14-.08.22-.08.1 0 .18.1.1.07.1.18 0 .11-.1.19-.22.23-1.06.5-.84.25-1.6.25-1.02 0-1.62-.47-.6-.47-.6-1.27v-3.82h-1.05q-.2 0-.3-.08-.08-.08-.08-.22 0-.11.08-.19.1-.1.3-.1h1.06v-1.68q0-.22.08-.3.09-.09.21-.09.13 0 .2.1.09.07.09.3v1.68Zm8.5 0v1.45q1.12-1.01 1.67-1.3.56-.3 1.03-.3.51 0 .95.35.44.35.44.52 0 .14-.1.23-.07.08-.2.08-.06 0-.1-.02l-.2-.17q-.23-.23-.42-.31-.17-.1-.34-.1-.38 0-.9.3-.54.3-1.83 1.47v3.14h2.54q.2 0 .3.08.1.08.1.22 0 .1-.1.2-.1.08-.3.08h-4.51q-.2 0-.3-.08-.08-.08-.08-.2 0-.11.08-.19.1-.08.3-.08h1.39v-4.8h-1.06q-.2 0-.3-.07-.08-.08-.08-.22 0-.11.08-.19.1-.1.3-.1h1.64Zm10.34 5.92v-.83q-1.27 1.05-2.69 1.05-1.03 0-1.6-.52-.59-.53-.59-1.28 0-.83.77-1.45.77-.63 2.23-.63.4 0 .86.05.47.05 1.02.16v-.92q0-.47-.44-.82-.44-.36-1.31-.36-.67 0-1.9.4-.21.06-.27.06-.11 0-.19-.08t-.08-.2q0-.11.08-.2.1-.09.77-.27 1.06-.29 1.6-.29 1.1 0 1.7.55.62.53.62 1.2v3.8h.76q.2 0 .3.08.1.08.1.22 0 .1-.1.2-.1.08-.3.08h-1.34Zm0-2.86q-.4-.1-.86-.16-.45-.06-.95-.06-1.25 0-1.96.53-.53.4-.53.97 0 .52.4.88.42.36 1.2.36.73 0 1.37-.3.64-.3 1.33-.95v-1.27Zm5.16-3.06h3.12q.2 0 .28.1.1.07.1.2 0 .12-.1.2-.08.08-.28.08h-3.12v3.82q0 .5.4.85.4.33 1.17.33.58 0 1.25-.18.7-.18 1.07-.4.14-.08.22-.08.1 0 .18.1.1.07.1.18 0 .11-.1.19-.22.23-1.06.5-.84.25-1.6.25-1.02 0-1.62-.47-.6-.47-.6-1.27v-3.82h-1.05q-.2 0-.3-.08-.08-.08-.08-.22 0-.11.08-.19.1-.1.3-.1h1.06v-1.68q0-.22.08-.3.09-.09.21-.09.13 0 .2.1.09.07.09.3v1.68Zm12.3 3.1h-5.87q.16 1.12.94 1.8.78.68 1.94.68.64 0 1.34-.2.7-.23 1.16-.59.12-.09.22-.09t.18.1q.1.07.1.18 0 .11-.11.22-.33.34-1.17.64-.85.3-1.72.3-1.49 0-2.47-.95-.98-.97-.98-2.35 0-1.25.92-2.14.93-.9 2.3-.9 1.4 0 2.3.92.93.92.91 2.37Zm-.59-.59q-.17-.95-.9-1.54-.74-.6-1.74-.6t-1.73.6q-.72.58-.9 1.54h5.27Zm13.41 0q0-.78.2-1.65.2-.9.79-2.05.57-1.16.84-1.39.1-.08.19-.08.12 0 .2.08.1.08.1.2 0 .07-.05.14-.77 1.4-1.1 2.52-.31 1.1-.31 2.23t.31 2.25q.33 1.13 1.1 2.5.04.08.04.14 0 .13-.1.2-.07.1-.2.1-.09 0-.18-.08-.25-.23-.83-1.36-.56-1.12-.78-1.98-.22-.88-.22-1.77Zm5.45-2.51v.58q.72-.79 1.47-.79.44 0 .77.24.34.23.56.72.4-.49.78-.72.4-.23.8-.23.6 0 .98.4.49.52.49 1.13v4.01h.48q.2 0 .3.08.1.08.1.22 0 .1-.1.2-.1.08-.3.08h-1.06v-4.53q0-.44-.27-.72-.26-.3-.6-.3-.32 0-.68.24-.34.23-.78.94v3.8h.47q.2 0 .3.07.1.08.1.22 0 .1-.1.2-.1.08-.3.08h-1.06v-4.48q0-.47-.27-.77-.26-.3-.6-.3-.3 0-.6.2-.42.29-.88.97v3.8h.49q.2 0 .28.08.1.08.1.22 0 .1-.1.2-.08.08-.28.08h-1.55q-.2 0-.3-.08-.09-.1-.09-.2 0-.14.1-.22.09-.08.3-.08h.48v-4.76h-.49q-.2 0-.3-.08-.09-.08-.09-.22 0-.11.1-.19.09-.1.3-.1h1.05Zm8.44-2.66v3.81q1.05-1.36 2.52-1.36 1.25 0 2.14.93.9.9.9 2.23t-.9 2.27q-.9.92-2.14.92-1.5 0-2.52-1.35v1.13h-1.34q-.2 0-.3-.08-.08-.1-.08-.2 0-.14.08-.22.1-.08.3-.08h.78v-7.42h-.78q-.2 0-.3-.08-.08-.08-.08-.22 0-.12.08-.2.1-.08.3-.08h1.34Zm4.99 5.63q0-1.08-.75-1.83-.74-.77-1.74-.77t-1.75.77q-.73.75-.73 1.83 0 1.1.73 1.86.75.75 1.75.75t1.74-.75q.75-.77.75-1.86Zm7.76-6.05-4.62 9.9q-.11.26-.3.26-.11 0-.2-.1-.08-.08-.08-.19 0-.07.06-.21l4.61-9.91q.08-.16.14-.2.08-.05.17-.05.11 0 .19.1.1.07.1.18 0 .08-.07.22Zm7.31 3.45q0-.2.08-.28.1-.1.22-.1.13 0 .2.1.08.08.08.3v.98q0 .2-.08.3-.07.1-.2.1-.12 0-.2-.08-.08-.08-.1-.25-.03-.41-.42-.68-.56-.39-1.48-.39-.96 0-1.5.4-.4.3-.4.65 0 .4.48.69.32.19 1.25.3 1.18.12 1.65.28.67.25.99.67.32.42.32.92 0 .72-.7 1.3-.7.56-2.06.56t-2.24-.69q0 .24-.03.31-.01.07-.1.11-.05.05-.15.05-.12 0-.2-.08-.08-.1-.08-.31v-1.17q0-.2.08-.3.08-.1.2-.1.13 0 .2.1.1.08.1.22 0 .33.16.53.23.33.75.55.53.22 1.3.22 1.1 0 1.65-.43.55-.42.55-.87 0-.55-.55-.86-.56-.33-1.64-.44-1.06-.1-1.53-.28-.46-.17-.72-.53-.27-.36-.27-.77 0-.73.72-1.17.74-.44 1.74-.44 1.2 0 1.93.58Zm6.28 2.16q0 .78-.21 1.66-.2.87-.78 2.03-.58 1.17-.85 1.4-.08.08-.17.08-.13 0-.22-.1-.08-.07-.08-.2 0-.06.05-.14.75-1.37 1.06-2.5.33-1.12.33-2.23 0-1.14-.33-2.25-.31-1.13-1.06-2.52-.05-.07-.05-.14 0-.12.08-.2.1-.08.22-.08.1 0 .17.08.25.23.83 1.36.58 1.12.8 2 .22.86.22 1.75Zm18.41-5.61-4.62 9.9q-.11.26-.3.26-.11 0-.2-.1-.08-.08-.08-.19 0-.07.06-.21l4.61-9.91q.08-.16.14-.2.08-.05.17-.05.11 0 .19.1.1.07.1.18 0 .08-.07.22Zm15.31 3.45q0-.2.08-.28.1-.1.22-.1.13 0 .2.1.08.08.08.3v.98q0 .2-.08.3-.07.1-.2.1-.12 0-.2-.08-.08-.08-.1-.25-.03-.41-.42-.68-.56-.39-1.48-.39-.96 0-1.5.4-.4.3-.4.65 0 .4.48.69.32.19 1.25.3 1.18.12 1.65.28.67.25.99.67.32.42.32.92 0 .72-.7 1.3-.7.56-2.06.56t-2.24-.69q0 .24-.03.31-.01.07-.1.11-.05.05-.15.05-.12 0-.2-.08-.08-.1-.08-.31v-1.17q0-.2.08-.3.08-.1.2-.1.13 0 .2.1.1.08.1.22 0 .33.16.53.23.33.75.55.53.22 1.3.22 1.1 0 1.65-.43.55-.42.55-.87 0-.55-.55-.86-.56-.33-1.64-.44-1.06-.1-1.53-.28-.46-.17-.72-.53-.27-.36-.27-.77 0-.73.72-1.17.74-.44 1.74-.44 1.2 0 1.93.58Zm8 0q0-.2.08-.28.1-.1.22-.1.13 0 .2.1.08.08.08.3v.98q0 .2-.08.3-.07.1-.2.1-.12 0-.2-.08-.08-.08-.1-.25-.03-.41-.42-.68-.56-.39-1.48-.39-.96 0-1.5.4-.4.3-.4.65 0 .4.48.69.32.19 1.25.3 1.18.12 1.65.28.67.25.99.67.32.42.32.92 0 .72-.7 1.3-.7.56-2.06.56t-2.24-.69q0 .24-.03.31-.01.07-.1.11-.05.05-.15.05-.12 0-.2-.08-.08-.1-.08-.31v-1.17q0-.2.08-.3.08-.1.2-.1.13 0 .2.1.1.08.1.22 0 .33.16.53.23.33.75.55.53.22 1.3.22 1.1 0 1.65-.43.55-.42.55-.87 0-.55-.55-.86-.56-.33-1.64-.44-1.06-.1-1.53-.28-.46-.17-.72-.53-.27-.36-.27-.77 0-.73.72-1.17.74-.44 1.74-.44 1.2 0 1.93.58Zm6.4-3.3v1.46h-.85V9.79h.84Zm.01 2.93v5.34h2.27q.2 0 .3.08.09.08.09.22 0 .1-.1.2-.1.08-.3.08h-5.09q-.2 0-.3-.08-.07-.1-.07-.2 0-.14.08-.22.09-.08.3-.08h2.26v-4.76h-1.69q-.2 0-.3-.08-.1-.08-.1-.2 0-.13.1-.2.1-.1.3-.1h2.25Zm5.1 0v.58q.71-.79 1.46-.79.44 0 .77.24.34.23.56.72.4-.49.78-.72.4-.23.8-.23.6 0 .98.4.49.52.49 1.13v4.01h.48q.2 0 .3.08.1.08.1.22 0 .1-.1.2-.1.08-.3.08h-1.06v-4.53q0-.44-.27-.72-.26-.3-.6-.3-.32 0-.68.24-.34.23-.78.94v3.8h.47q.2 0 .3.07.1.08.1.22 0 .1-.1.2-.1.08-.3.08h-1.06v-4.48q0-.47-.27-.77-.26-.3-.6-.3-.3 0-.6.2-.42.29-.88.97v3.8h.49q.2 0 .28.08.1.08.1.22 0 .1-.1.2-.08.08-.28.08h-1.55q-.2 0-.3-.08-.09-.1-.09-.2 0-.14.1-.22.09-.08.3-.08h.48v-4.76h-.49q-.2 0-.3-.08-.09-.08-.09-.22 0-.11.1-.19.09-.1.3-.1h1.05Zm12.57 5.92v-.84q-1.19 1.06-2.54 1.06-.85 0-1.29-.45-.56-.6-.56-1.41v-3.7h-.78q-.2 0-.3-.08-.07-.08-.07-.22 0-.11.07-.19.1-.1.3-.1h1.36v4.29q0 .56.34.94.36.36.9.36 1.4 0 2.57-1.3v-3.7h-1.06q-.2 0-.3-.08-.1-.08-.1-.22 0-.11.1-.19.1-.1.3-.1h1.62v5.35h.49q.22 0 .3.08.09.08.09.22 0 .1-.1.2-.07.08-.3.08h-1.04Zm6.31-8.58v8h2.27q.2 0 .3.08.1.08.1.22 0 .1-.1.2-.1.08-.3.08H616q-.2 0-.3-.08-.07-.1-.07-.2 0-.14.08-.22.1-.08.3-.08h2.26v-7.42h-1.65q-.2 0-.3-.08-.1-.08-.1-.22 0-.12.08-.2.1-.08.32-.08h2.21Zm9.38 8.58v-.83q-1.27 1.05-2.69 1.05-1.03 0-1.6-.52-.59-.53-.59-1.28 0-.83.77-1.45.77-.63 2.23-.63.4 0 .86.05.47.05 1.02.16v-.92q0-.47-.44-.82-.44-.36-1.31-.36-.67 0-1.9.4-.21.06-.27.06-.11 0-.19-.08t-.08-.2q0-.11.08-.2.1-.09.77-.27 1.06-.29 1.6-.29 1.1 0 1.7.55.62.53.62 1.2v3.8h.76q.2 0 .3.08.1.08.1.22 0 .1-.1.2-.1.08-.3.08h-1.34Zm0-2.86q-.4-.1-.86-.16-.45-.06-.95-.06-1.25 0-1.96.53-.53.4-.53.97 0 .52.4.88.42.36 1.2.36.73 0 1.37-.3.64-.3 1.33-.95v-1.27Zm8.73-2.48v-.2q0-.21.08-.29.1-.1.22-.1.13 0 .2.1.08.08.08.3v1.3q0 .21-.08.3-.07.09-.2.09-.12 0-.2-.08-.08-.08-.1-.27-.03-.48-.64-.92-.6-.44-1.6-.44-1.29 0-1.94.82-.66.8-.66 1.82 0 1.11.72 1.85.73.72 1.9.72.66 0 1.35-.25.7-.25 1.26-.8.14-.14.25-.14.13 0 .2.08.09.07.09.2 0 .3-.7.75-1.12.72-2.48.72-1.39 0-2.28-.88-.89-.89-.89-2.25 0-1.39.9-2.3.93-.91 2.3-.91 1.33 0 2.22.78Zm4.93-.58v1.45q1.12-1.01 1.67-1.3.56-.3 1.03-.3.51 0 .95.35.44.35.44.52 0 .14-.1.23-.07.08-.2.08-.06 0-.1-.02l-.2-.17q-.23-.23-.42-.31-.17-.1-.34-.1-.38 0-.9.3-.54.3-1.83 1.47v3.14h2.54q.2 0 .3.08.1.08.1.22 0 .1-.1.2-.1.08-.3.08h-4.51q-.2 0-.3-.08-.08-.08-.08-.2 0-.11.08-.19.1-.08.3-.08h1.39v-4.8h-1.06q-.2 0-.3-.07-.08-.08-.08-.22 0-.11.08-.19.1-.1.3-.1h1.64Zm10.34 5.92v-.83q-1.27 1.05-2.69 1.05-1.03 0-1.6-.52-.59-.53-.59-1.28 0-.83.77-1.45.77-.63 2.23-.63.4 0 .86.05.47.05 1.02.16v-.92q0-.47-.44-.82-.44-.36-1.31-.36-.67 0-1.9.4-.21.06-.27.06-.11 0-.19-.08t-.08-.2q0-.11.08-.2.1-.09.77-.27 1.06-.29 1.6-.29 1.1 0 1.7.55.62.53.62 1.2v3.8h.76q.2 0 .3.08.1.08.1.22 0 .1-.1.2-.1.08-.3.08h-1.34Zm0-2.86q-.4-.1-.86-.16-.45-.06-.95-.06-1.25 0-1.96.53-.53.4-.53.97 0 .52.4.88.42.36 1.2.36.73 0 1.37-.3.64-.3 1.33-.95v-1.27Zm3.87 2.28h4.41v-.22q0-.2.08-.3.08-.09.22-.09.12 0 .2.1.08.09.08.3v.79h-5.55v-.84q1.75-1.58 3.4-3.2.77-.77 1.06-1.12.3-.36.39-.62.1-.28.1-.55 0-.73-.59-1.3-.6-.57-1.42-.57-.77 0-1.34.43-.58.43-.75 1.07-.05.15-.1.2-.1.08-.2.08-.11 0-.19-.08t-.08-.19q0-.33.36-.89t.99-.87q.64-.33 1.3-.33 1.07 0 1.84.75.78.73.78 1.69 0 .39-.14.71-.13.33-.44.74-.31.39-1.1 1.17-2.04 2-3.3 3.11v.03Z"/><path fill="#bdbdbd" d="M440.38 10.07v3.81q1.05-1.36 2.52-1.36 1.25 0 2.14.93.9.9.9 2.23t-.9 2.27q-.9.92-2.14.92-1.5 0-2.52-1.35v1.13h-1.34q-.2 0-.3-.08-.08-.1-.08-.2 0-.14.08-.22.1-.08.3-.08h.78v-7.42h-.78q-.2 0-.3-.08-.08-.08-.08-.22 0-.12.08-.2.1-.08.3-.08h1.34Zm4.99 5.63q0-1.08-.75-1.83-.74-.77-1.74-.77t-1.75.77q-.73.75-.73 1.83 0 1.1.73 1.86.75.75 1.75.75t1.74-.75q.75-.77.75-1.86Zm5.46-5.9v1.46H450V9.79h.84Zm.02 2.93v5.34h2.27q.2 0 .3.08.09.08.09.22 0 .1-.1.2-.1.08-.3.08h-5.09q-.2 0-.3-.08-.07-.1-.07-.2 0-.14.08-.22.09-.08.3-.08h2.26v-4.76h-1.69q-.2 0-.3-.08-.1-.08-.1-.2 0-.13.1-.2.1-.1.3-.1h2.25Zm6.52 0h3.12q.2 0 .28.1.1.07.1.2 0 .12-.1.2-.08.08-.28.08h-3.12v3.82q0 .5.4.85.4.33 1.17.33.58 0 1.25-.18.7-.18 1.07-.4.14-.08.22-.08.1 0 .18.1.1.07.1.18 0 .11-.1.19-.22.23-1.06.5-.84.25-1.6.25-1.02 0-1.62-.47-.6-.47-.6-1.27v-3.82h-1.05q-.2 0-.3-.08-.08-.08-.08-.22 0-.11.08-.19.1-.1.3-.1h1.06v-1.68q0-.22.08-.3.09-.09.21-.09.13 0 .2.1.09.07.09.3v1.68Zm8.5 0v1.45q1.12-1.01 1.67-1.3.56-.3 1.03-.3.51 0 .95.35.44.35.44.52 0 .14-.1.23-.07.08-.2.08-.06 0-.1-.02l-.2-.17q-.23-.23-.42-.31-.17-.1-.34-.1-.38 0-.9.3-.54.3-1.83 1.47v3.14h2.54q.2 0 .3.08.1.08.1.22 0 .1-.1.2-.1.08-.3.08h-4.51q-.2 0-.3-.08-.08-.08-.08-.2 0-.11.08-.19.1-.08.3-.08h1.39v-4.8h-1.06q-.2 0-.3-.07-.08-.08-.08-.22 0-.11.08-.19.1-.1.3-.1h1.64Zm10.34 5.92v-.83q-1.27 1.05-2.69 1.05-1.03 0-1.6-.52-.59-.53-.59-1.28 0-.83.77-1.45.77-.63 2.23-.63.4 0 .86.05.47.05 1.02.16v-.92q0-.47-.44-.82-.44-.36-1.31-.36-.67 0-1.9.4-.21.06-.27.06-.11 0-.19-.08t-.08-.2q0-.11.08-.2.1-.09.77-.27 1.06-.29 1.6-.29 1.1 0 1.7.55.62.53.62 1.2v3.8h.76q.2 0 .3.08.1.08.1.22 0 .1-.1.2-.1.08-.3.08h-1.34Zm0-2.86q-.4-.1-.86-.16-.45-.06-.95-.06-1.25 0-1.96.53-.53.4-.53.97 0 .52.4.88.42.36 1.2.36.73 0 1.37-.3.64-.3 1.33-.95v-1.27Zm5.16-3.06h3.12q.2 0 .28.1.1.07.1.2 0 .12-.1.2-.08.08-.28.08h-3.12v3.82q0 .5.4.85.4.33 1.17.33.58 0 1.25-.18.7-.18 1.07-.4.14-.08.22-.08.1 0 .18.1.1.07.1.18 0 .11-.1.19-.22.23-1.06.5-.84.25-1.6.25-1.02 0-1.62-.47-.6-.47-.6-1.27v-3.82h-1.05q-.2 0-.3-.08-.08-.08-.08-.22 0-.11.08-.19.1-.1.3-.1h1.06v-1.68q0-.22.08-.3.09-.09.21-.09.13 0 .2.1.09.07.09.3v1.68Zm12.3 3.1h-5.87q.16 1.12.94 1.8.78.68 1.94.68.64 0 1.34-.2.7-.23 1.16-.59.12-.09.22-.09t.18.1q.1.07.1.18 0 .11-.11.22-.33.34-1.17.64-.85.3-1.72.3-1.49 0-2.47-.95-.98-.97-.98-2.35 0-1.25.92-2.14.93-.9 2.3-.9 1.4 0 2.3.92.93.92.91 2.37Zm-.59-.59q-.17-.95-.9-1.54-.74-.6-1.74-.6t-1.73.6q-.72.58-.9 1.54h5.27Zm13.41 0q0-.78.2-1.65.2-.9.79-2.05.57-1.16.84-1.39.1-.08.19-.08.12 0 .2.08.1.08.1.2 0 .07-.05.14-.77 1.4-1.1 2.52-.31 1.1-.31 2.23t.31 2.25q.33 1.13 1.1 2.5.04.08.04.14 0 .13-.1.2-.07.1-.2.1-.09 0-.18-.08-.25-.23-.83-1.36-.56-1.12-.78-1.98-.22-.88-.22-1.77Zm5.45-2.51v.58q.72-.79 1.47-.79.44 0 .77.24.34.23.56.72.4-.49.78-.72.4-.23.8-.23.6 0 .98.4.49.52.49 1.13v4.01h.48q.2 0 .3.08.1.08.1.22 0 .1-.1.2-.1.08-.3.08h-1.06v-4.53q0-.44-.27-.72-.26-.3-.6-.3-.32 0-.68.24-.34.23-.78.94v3.8h.47q.2 0 .3.07.1.08.1.22 0 .1-.1.2-.1.08-.3.08h-1.06v-4.48q0-.47-.27-.77-.26-.3-.6-.3-.3 0-.6.2-.42.29-.88.97v3.8h.49q.2 0 .28.08.1.08.1.22 0 .1-.1.2-.08.08-.28.08h-1.55q-.2 0-.3-.08-.09-.1-.09-.2 0-.14.1-.22.09-.08.3-.08h.48v-4.76h-.49q-.2 0-.3-.08-.09-.08-.09-.22 0-.11.1-.19.09-.1.3-.1h1.05Zm8.44-2.66v3.81q1.05-1.36 2.52-1.36 1.25 0 2.14.93.9.9.9 2.23t-.9 2.27q-.9.92-2.14.92-1.5 0-2.52-1.35v1.13h-1.34q-.2 0-.3-.08-.08-.1-.08-.2 0-.14.08-.22.1-.08.3-.08h.78v-7.42h-.78q-.2 0-.3-.08-.08-.08-.08-.22 0-.12.08-.2.1-.08.3-.08h1.34Zm4.99 5.63q0-1.08-.75-1.83-.74-.77-1.74-.77t-1.75.77q-.73.75-.73 1.83 0 1.1.73 1.86.75.75 1.75.75t1.74-.75q.75-.77.75-1.86Zm7.76-6.05-4.62 9.9q-.11.26-.3.26-.11 0-.2-.1-.08-.08-.08-.19 0-.07.06-.21l4.61-9.91q.08-.16.14-.2.08-.05.17-.05.11 0 .19.1.1.07.1.18 0 .08-.07.22Zm7.31 3.45q0-.2.08-.28.1-.1.22-.1.13 0 .2.1.08.08.08.3v.98q0 .2-.08.3-.07.1-.2.1-.12 0-.2-.08-.08-.08-.1-.25-.03-.41-.42-.68-.56-.39-1.48-.39-.96 0-1.5.4-.4.3-.4.65 0 .4.48.69.32.19 1.25.3 1.18.12 1.65.28.67.25.99.67.32.42.32.92 0 .72-.7 1.3-.7.56-2.06.56t-2.24-.69q0 .24-.03.31-.01.07-.1.11-.05.05-.15.05-.12 0-.2-.08-.08-.1-.08-.31v-1.17q0-.2.08-.3.08-.1.2-.1.13 0 .2.1.1.08.1.22 0 .33.16.53.23.33.75.55.53.22 1.3.22 1.1 0 1.65-.43.55-.42.55-.87 0-.55-.55-.86-.56-.33-1.64-.44-1.06-.1-1.53-.28-.46-.17-.72-.53-.27-.36-.27-.77 0-.73.72-1.17.74-.44 1.74-.44 1.2 0 1.93.58Zm6.28 2.16q0 .78-.21 1.66-.2.87-.78 2.03-.58 1.17-.85 1.4-.08.08-.17.08-.13 0-.22-.1-.08-.07-.08-.2 0-.06.05-.14.75-1.37 1.06-2.5.33-1.12.33-2.23 0-1.14-.33-2.25-.31-1.13-1.06-2.52-.05-.07-.05-.14 0-.12.08-.2.1-.08.22-.08.1 0 .17.08.25.23.83 1.36.58 1.12.8 2 .22.86.22 1.75Zm18.41-5.61-4.62 9.9q-.11.26-.3.26-.11 0-.2-.1-.08-.08-.08-.19 0-.07.06-.21l4.61-9.91q.08-.16.14-.2.08-.05.17-.05.11 0 .19.1.1.07.1.18 0 .08-.07.22Zm15.31 3.45q0-.2.08-.28.1-.1.22-.1.13 0 .2.1.08.08.08.3v.98q0 .2-.08.3-.07.1-.2.1-.12 0-.2-.08-.08-.08-.1-.25-.03-.41-.42-.68-.56-.39-1.48-.39-.96 0-1.5.4-.4.3-.4.65 0 .4.48.69.32.19 1.25.3 1.18.12 1.65.28.67.25.99.67.32.42.32.92 0 .72-.7 1.3-.7.56-2.06.56t-2.24-.69q0 .24-.03.31-.01.07-.1.11-.05.05-.15.05-.12 0-.2-.08-.08-.1-.08-.31v-1.17q0-.2.08-.3.08-.1.2-.1.13 0 .2.1.1.08.1.22 0 .33.16.53.23.33.75.55.53.22 1.3.22 1.1 0 1.65-.43.55-.42.55-.87 0-.55-.55-.86-.56-.33-1.64-.44-1.06-.1-1.53-.28-.46-.17-.72-.53-.27-.36-.27-.77 0-.73.72-1.17.74-.44 1.74-.44 1.2 0 1.93.58Zm8 0q0-.2.08-.28.1-.1.22-.1.13 0 .2.1.08.08.08.3v.98q0 .2-.08.3-.07.1-.2.1-.12 0-.2-.08-.08-.08-.1-.25-.03-.41-.42-.68-.56-.39-1.48-.39-.96 0-1.5.4-.4.3-.4.65 0 .4.48.69.32.19 1.25.3 1.18.12 1.65.28.67.25.99.67.32.42.32.92 0 .72-.7 1.3-.7.56-2.06.56t-2.24-.69q0 .24-.03.31-.01.07-.1.11-.05.05-.15.05-.12 0-.2-.08-.08-.1-.08-.31v-1.17q0-.2.08-.3.08-.1.2-.1.13 0 .2.1.1.08.1.22 0 .33.16.53.23.33.75.55.53.22 1.3.22 1.1 0 1.65-.43.55-.42.55-.87 0-.55-.55-.86-.56-.33-1.64-.44-1.06-.1-1.53-.28-.46-.17-.72-.53-.27-.36-.27-.77 0-.73.72-1.17.74-.44 1.74-.44 1.2 0 1.93.58Zm6.4-3.3v1.46h-.85V9.79h.84Zm.01 2.93v5.34h2.27q.2 0 .3.08.09.08.09.22 0 .1-.1.2-.1.08-.3.08h-5.09q-.2 0-.3-.08-.07-.1-.07-.2 0-.14.08-.22.09-.08.3-.08h2.26v-4.76h-1.69q-.2 0-.3-.08-.1-.08-.1-.2 0-.13.1-.2.1-.1.3-.1h2.25Zm5.1 0v.58q.71-.79 1.46-.79.44 0 .77.24.34.23.56.72.4-.49.78-.72.4-.23.8-.23.6 0 .98.4.49.52.49 1.13v4.01h.48q.2 0 .3.08.1.08.1.22 0 .1-.1.2-.1.08-.3.08h-1.06v-4.53q0-.44-.27-.72-.26-.3-.6-.3-.32 0-.68.24-.34.23-.78.94v3.8h.47q.2 0 .3.07.1.08.1.22 0 .1-.1.2-.1.08-.3.08h-1.06v-4.48q0-.47-.27-.77-.26-.3-.6-.3-.3 0-.6.2-.42.29-.88.97v3.8h.49q.2 0 .28.08.1.08.1.22 0 .1-.1.2-.08.08-.28.08h-1.55q-.2 0-.3-.08-.09-.1-.09-.2 0-.14.1-.22.09-.08.3-.08h.48v-4.76h-.49q-.2 0-.3-.08-.09-.08-.09-.22 0-.11.1-.19.09-.1.3-.1h1.05Zm12.57 5.92v-.84q-1.19 1.06-2.54 1.06-.85 0-1.29-.45-.56-.6-.56-1.41v-3.7h-.78q-.2 0-.3-.08-.07-.08-.07-.22 0-.11.07-.19.1-.1.3-.1h1.36v4.29q0 .56.34.94.36.36.9.36 1.4 0 2.57-1.3v-3.7h-1.06q-.2 0-.3-.08-.1-.08-.1-.22 0-.11.1-.19.1-.1.3-.1h1.62v5.35h.49q.22 0 .3.08.09.08.09.22 0 .1-.1.2-.07.08-.3.08h-1.04Zm6.31-8.58v8h2.27q.2 0 .3.08.1.08.1.22 0 .1-.1.2-.1.08-.3.08H616q-.2 0-.3-.08-.07-.1-.07-.2 0-.14.08-.22.1-.08.3-.08h2.26v-7.42h-1.65q-.2 0-.3-.08-.1-.08-.1-.22 0-.12.08-.2.1-.08.32-.08h2.21Zm9.38 8.58v-.83q-1.27 1.05-2.69 1.05-1.03 0-1.6-.52-.59-.53-.59-1.28 0-.83.77-1.45.77-.63 2.23-.63.4 0 .86.05.47.05 1.02.16v-.92q0-.47-.44-.82-.44-.36-1.31-.36-.67 0-1.9.4-.21.06-.27.06-.11 0-.19-.08t-.08-.2q0-.11.08-.2.1-.09.77-.27 1.06-.29 1.6-.29 1.1 0 1.7.55.62.53.62 1.2v3.8h.76q.2 0 .3.08.1.08.1.22 0 .1-.1.2-.1.08-.3.08h-1.34Zm0-2.86q-.4-.1-.86-.16-.45-.06-.95-.06-1.25 0-1.96.53-.53.4-.53.97 0 .52.4.88.42.36 1.2.36.73 0 1.37-.3.64-.3 1.33-.95v-1.27Zm8.73-2.48v-.2q0-.21.08-.29.1-.1.22-.1.13 0 .2.1.08.08.08.3v1.3q0 .21-.08.3-.07.09-.2.09-.12 0-.2-.08-.08-.08-.1-.27-.03-.48-.64-.92-.6-.44-1.6-.44-1.29 0-1.94.82-.66.8-.66 1.82 0 1.11.72 1.85.73.72 1.9.72.66 0 1.35-.25.7-.25 1.26-.8.14-.14.25-.14.13 0 .2.08.09.07.09.2 0 .3-.7.75-1.12.72-2.48.72-1.39 0-2.28-.88-.89-.89-.89-2.25 0-1.39.9-2.3.93-.91 2.3-.91 1.33 0 2.22.78Zm4.93-.58v1.45q1.12-1.01 1.67-1.3.56-.3 1.03-.3.51 0 .95.35.44.35.44.52 0 .14-.1.23-.07.08-.2.08-.06 0-.1-.02l-.2-.17q-.23-.23-.42-.31-.17-.1-.34-.1-.38 0-.9.3-.54.3-1.83 1.47v3.14h2.54q.2 0 .3.08.1.08.1.22 0 .1-.1.2-.1.08-.3.08h-4.51q-.2 0-.3-.08-.08-.08-.08-.2 0-.11.08-.19.1-.08.3-.08h1.39v-4.8h-1.06q-.2 0-.3-.07-.08-.08-.08-.22 0-.11.08-.19.1-.1.3-.1h1.64Zm10.34 5.92v-.83q-1.27 1.05-2.69 1.05-1.03 0-1.6-.52-.59-.53-.59-1.28 0-.83.77-1.45.77-.63 2.23-.63.4 0 .86.05.47.05 1.02.16v-.92q0-.47-.44-.82-.44-.36-1.31-.36-.67 0-1.9.4-.21.06-.27.06-.11 0-.19-.08t-.08-.2q0-.11.08-.2.1-.09.77-.27 1.06-.29 1.6-.29 1.1 0 1.7.55.62.53.62 1.2v3.8h.76q.2 0 .3.08.1.08.1.22 0 .1-.1.2-.1.08-.3.08h-1.34Zm0-2.86q-.4-.1-.86-.16-.45-.06-.95-.06-1.25 0-1.96.53-.53.4-.53.97 0 .52.4.88.42.36 1.2.36.73 0 1.37-.3.64-.3 1.33-.95v-1.27Zm3.87 2.28h4.41v-.22q0-.2.08-.3.08-.09.22-.09.12 0 .2.1.08.09.08.3v.79h-5.55v-.84q1.75-1.58 3.4-3.2.77-.77 1.06-1.12.3-.36.39-.62.1-.28.1-.55 0-.73-.59-1.3-.6-.57-1.42-.57-.77 0-1.34.43-.58.43-.75 1.07-.05.15-.1.2-.1.08-.2.08-.11 0-.19-.08t-.08-.19q0-.33.36-.89t.99-.87q.64-.33 1.3-.33 1.07 0 1.84.75.78.73.78 1.69 0 .39-.14.71-.13.33-.44.74-.31.39-1.1 1.17-2.04 2-3.3 3.11v.03Z"/><path stroke="#242424" stroke-width="3" stroke-linejoin="round" stroke-linecap="round" d="M12.38 443.02q.8.36 1.2.99.42.6.42 1.28 0 1.03-.84 1.83-.83.78-2.08.78-.74 0-1.53-.31-.8-.32-1.11-.64-.11-.11-.11-.24 0-.1.08-.19.07-.09.18-.09.11 0 .25.1 1.07.8 2.25.8 1 0 1.68-.63.67-.63.67-1.4 0-.51-.35-1-.32-.5-.95-.78-.6-.28-1.25-.28-.2 0-.3-.08-.09-.07-.09-.2 0-.12.08-.2.1-.1.26-.1l.5.02q.77 0 1.27-.47.52-.48.52-1.1 0-.63-.54-1.12-.53-.5-1.37-.5-.6 0-1.1.2-.5.2-.8.57-.1.12-.16.15-.07.04-.13.04-.12 0-.2-.08-.08-.08-.08-.19 0-.27.6-.69.82-.58 1.87-.58 1.1 0 1.78.66.7.64.7 1.55 0 .58-.34 1.1-.33.5-.98.8Zm9.46-.32v1.42q0 1.86-.89 2.94-.68.84-1.73.84-.52 0-.97-.2-.44-.2-.75-.57-.2-.22-.44-.72-.23-.5-.34-.92-.16-.6-.16-1.37v-1.42q0-1.86.9-2.94.68-.85 1.73-.85.51 0 .95.2.45.21.77.57.2.23.43.73.24.5.35.91.15.58.15 1.38Zm-.57.07q0-.8-.24-1.51-.23-.7-.51-1.11-.18-.25-.44-.42-.4-.24-.88-.24-.97 0-1.51.99-.55.98-.55 2.3v1.26q0 .81.22 1.52.23.7.53 1.12.17.23.44.4.39.24.89.24.95 0 1.5-.98.55-.99.55-2.3v-1.27Z"/><path fill="#bdbdbd" d="M12.38 443.02q.8.36 1.2.99.42.6.42 1.28 0 1.03-.84 1.83-.83.78-2.08.78-.74 0-1.53-.31-.8-.32-1.11-.64-.11-.11-.11-.24 0-.1.08-.19.07-.09.18-.09.11 0 .25.1 1.07.8 2.25.8 1 0 1.68-.63.67-.63.67-1.4 0-.51-.35-1-.32-.5-.95-.78-.6-.28-1.25-.28-.2 0-.3-.08-.09-.07-.09-.2 0-.12.08-.2.1-.1.26-.1l.5.02q.77 0 1.27-.47.52-.48.52-1.1 0-.63-.54-1.12-.53-.5-1.37-.5-.6 0-1.1.2-.5.2-.8.57-.1.12-.16.15-.07.04-.13.04-.12 0-.2-.08-.08-.08-.08-.19 0-.27.6-.69.82-.58 1.87-.58 1.1 0 1.78.66.7.64.7 1.55 0 .58-.34 1.1-.33.5-.98.8Zm9.46-.32v1.42q0 1.86-.89 2.94-.68.84-1.73.84-.52 0-.97-.2-.44-.2-.75-.57-.2-.22-.44-.72-.23-.5-.34-.92-.16-.6-.16-1.37v-1.42q0-1.86.9-2.94.68-.85 1.73-.85.51 0 .95.2.45.21.77.57.2.23.43.73.24.5.35.91.15.58.15 1.38Zm-.57.07q0-.8-.24-1.51-.23-.7-.51-1.11-.18-.25-.44-.42-.4-.24-.88-.24-.97 0-1.51.99-.55.98-.55 2.3v1.26q0 .81.22 1.52.23.7.53 1.12.17.23.44.4.39.24.89.24.95 0 1.5-.98.55-.99.55-2.3v-1.27Z"/><path stroke="#242424" stroke-width="3" stroke-linejoin="round" stroke-linecap="round" d="M12.27 300.72h-3.8v-.65l3.19-5.52h1.2v5.61h.47q.22 0 .3.08.09.08.09.2 0 .13-.1.2-.07.08-.3.08h-.46v1.83h.47q.22 0 .3.08.09.08.09.22 0 .1-.1.2-.07.08-.3.08H11.2q-.22 0-.3-.08-.09-.1-.09-.2 0-.14.08-.22.1-.08.31-.08h1.07v-1.83Zm0-.56v-5.03h-.3l-2.9 5.03h3.2Zm9.57-2.03v1.42q0 1.86-.89 2.94-.68.84-1.73.84-.52 0-.97-.2-.44-.2-.75-.56-.2-.22-.44-.72-.23-.5-.34-.92-.16-.6-.16-1.38v-1.42q0-1.86.9-2.94.68-.84 1.73-.84.51 0 .95.2.45.2.77.56.2.24.43.74.24.5.35.9.15.58.15 1.38Zm-.57.08q0-.81-.24-1.52-.23-.7-.51-1.1-.18-.26-.44-.43-.4-.23-.88-.23-.97 0-1.51.98-.55.99-.55 2.3v1.26q0 .82.22 1.52.23.7.53 1.12.17.24.44.41.39.24.89.24.95 0 1.5-.99.55-.98.55-2.3v-1.26Z"/><path fill="#bdbdbd" d="M12.27 300.72h-3.8v-.65l3.19-5.52h1.2v5.61h.47q.22 0 .3.08.09.08.09.2 0 .13-.1.2-.07.08-.3.08h-.46v1.83h.47q.22 0 .3.08.09.08.09.22 0 .1-.1.2-.07.08-.3.08H11.2q-.22 0-.3-.08-.09-.1-.09-.2 0-.14.08-.22.1-.08.31-.08h1.07v-1.83Zm0-.56v-5.03h-.3l-2.9 5.03h3.2Zm9.57-2.03v1.42q0 1.86-.89 2.94-.68.84-1.73.84-.52 0-.97-.2-.44-.2-.75-.56-.2-.22-.44-.72-.23-.5-.34-.92-.16-.6-.16-1.38v-1.42q0-1.86.9-2.94.68-.84 1.73-.84.51 0 .95.2.45.2.77.56.2.24.43.74.24.5.35.9.15.58.15 1.38Zm-.57.08q0-.81-.24-1.52-.23-.7-.51-1.1-.18-.26-.44-.43-.4-.23-.88-.23-.97 0-1.51.98-.55.99-.55 2.3v1.26q0 .82.22 1.52.23.7.53 1.12.17.24.44.41.39.24.89.24.95 0 1.5-.99.55-.98.55-2.3v-1.26Z"/><path stroke="#242424" stroke-width="3" stroke-linejoin="round" stroke-linecap="round" d="M9.63 150.57v2.8q.5-.21.95-.3.47-.11.89-.11 1.08 0 1.8.76.73.75.73 1.99 0 1.37-.83 2.21-.81.85-2.03.85-.81 0-1.56-.36-.55-.25-.99-.63-.25-.23-.25-.37 0-.13.08-.2.08-.1.19-.1.12 0 .25.13 1.03.95 2.25.95 1 0 1.66-.69.65-.68.65-1.83 0-.96-.56-1.54-.56-.6-1.44-.6-.9 0-1.8.47-.21.11-.3.11-.13 0-.21-.08-.06-.09-.06-.23v-3.81h4q.2 0 .3.08.09.07.09.21 0 .13-.1.2-.09.09-.3.09h-3.4Zm12.21 3v1.42q0 1.86-.89 2.93-.68.85-1.73.85-.52 0-.97-.2-.44-.2-.75-.57-.2-.22-.44-.72-.23-.5-.34-.92-.16-.6-.16-1.37v-1.42q0-1.86.9-2.94.68-.85 1.73-.85.51 0 .95.2.45.21.77.57.2.23.43.73.24.5.35.91.15.58.15 1.38Zm-.57.07q0-.8-.24-1.51-.23-.7-.51-1.11-.18-.25-.44-.42-.4-.24-.88-.24-.97 0-1.51.99-.55.98-.55 2.3v1.26q0 .81.22 1.51.23.7.53 1.13.17.23.44.4.39.24.89.24.95 0 1.5-.98.55-.99.55-2.3v-1.27Z"/><path fill="#bdbdbd" d="M9.63 150.57v2.8q.5-.21.95-.3.47-.11.89-.11 1.08 0 1.8.76.73.75.73 1.99 0 1.37-.83 2.21-.81.85-2.03.85-.81 0-1.56-.36-.55-.25-.99-.63-.25-.23-.25-.37 0-.13.08-.2.08-.1.19-.1.12 0 .25.13 1.03.95 2.25.95 1 0 1.66-.69.65-.68.65-1.83 0-.96-.56-1.54-.56-.6-1.44-.6-.9 0-1.8.47-.21.11-.3.11-.13 0-.21-.08-.06-.09-.06-.23v-3.81h4q.2 0 .3.08.09.07.09.21 0 .13-.1.2-.09.09-.3.09h-3.4Zm12.21 3v1.42q0 1.86-.89 2.93-.68.85-1.73.85-.52 0-.97-.2-.44-.2-.75-.57-.2-.22-.44-.72-.23-.5-.34-.92-.16-.6-.16-1.37v-1.42q0-1.86.9-2.94.68-.85 1.73-.85.51 0 .95.2.45.21.77.57.2.23.43.73.24.5.35.91.15.58.15 1.38Zm-.57.07q0-.8-.24-1.51-.23-.7-.51-1.11-.18-.25-.44-.42-.4-.24-.88-.24-.97 0-1.51.99-.55.98-.55 2.3v1.26q0 .81.22 1.51.23.7.53 1.13.17.23.44.4.39.24.89.24.95 0 1.5-.98.55-.99.55-2.3v-1.27Z"/><path stroke="#242424" stroke-width="3" stroke-linejoin="round" stroke-linecap="round" d="M26.98 652.42h4.4v-.22q0-.2.08-.3.08-.09.22-.09.13 0 .2.1.08.09.08.3v.79h-5.54v-.84q1.75-1.58 3.4-3.2.77-.77 1.05-1.12.3-.36.39-.62.1-.28.1-.55 0-.73-.58-1.3-.6-.57-1.43-.57-.76 0-1.34.43-.58.43-.75 1.07-.05.15-.1.2-.09.08-.2.08-.1 0-.18-.08-.08-.08-.08-.19 0-.33.36-.89t.98-.87q.64-.33 1.3-.33 1.08 0 1.84.75.78.73.78 1.69 0 .39-.14.72-.12.32-.44.73-.3.39-1.1 1.17-2.04 2-3.3 3.11v.03Zm13.1-4.42v1.42q0 1.86-.88 2.94-.69.84-1.74.84-.51 0-.97-.2-.43-.2-.75-.56-.2-.22-.43-.72-.24-.5-.35-.92-.15-.6-.15-1.38V648q0-1.86.89-2.94.68-.84 1.73-.84.52 0 .95.2.46.2.77.56.2.24.44.74.23.5.34.9.16.58.16 1.38Zm-.57.08q0-.81-.23-1.52-.24-.7-.52-1.1-.17-.26-.44-.43-.39-.23-.87-.23-.97 0-1.52.98-.55.99-.55 2.3v1.26q0 .82.22 1.52.24.7.53 1.12.18.24.44.41.4.24.9.24.95 0 1.5-.99.54-.98.54-2.3v-1.26Z"/><path fill="#bdbdbd" d="M26.98 652.42h4.4v-.22q0-.2.08-.3.08-.09.22-.09.13 0 .2.1.08.09.08.3v.79h-5.54v-.84q1.75-1.58 3.4-3.2.77-.77 1.05-1.12.3-.36.39-.62.1-.28.1-.55 0-.73-.58-1.3-.6-.57-1.43-.57-.76 0-1.34.43-.58.43-.75 1.07-.05.15-.1.2-.09.08-.2.08-.1 0-.18-.08-.08-.08-.08-.19 0-.33.36-.89t.98-.87q.64-.33 1.3-.33 1.08 0 1.84.75.78.73.78 1.69 0 .39-.14.72-.12.32-.44.73-.3.39-1.1 1.17-2.04 2-3.3 3.11v.03Zm13.1-4.42v1.42q0 1.86-.88 2.94-.69.84-1.74.84-.51 0-.97-.2-.43-.2-.75-.56-.2-.22-.43-.72-.24-.5-.35-.92-.15-.6-.15-1.38V648q0-1.86.89-2.94.68-.84 1.73-.84.52 0 .95.2.46.2.77.56.2.24.44.74.23.5.34.9.16.58.16 1.38Zm-.57.08q0-.81-.23-1.52-.24-.7-.52-1.1-.17-.26-.44-.43-.39-.23-.87-.23-.97 0-1.52.98-.55.99-.55 2.3v1.26q0 .82.22 1.52.24.7.53 1.12.18.24.44.41.4.24.9.24.95 0 1.5-.99.54-.98.54-2.3v-1.26Z"/><path stroke="#242424" stroke-width="3" stroke-linejoin="round" stroke-linecap="round" d="M249.22 650.6h-3.8v-.66l3.19-5.52h1.2v5.61h.47q.22 0 .3.08.09.08.09.2 0 .13-.1.2-.07.08-.3.08h-.46v1.83h.47q.22 0 .3.08.09.08.09.22 0 .1-.1.2-.07.08-.3.08h-2.12q-.22 0-.3-.08-.09-.1-.09-.2 0-.14.08-.22.1-.08.31-.08h1.07v-1.83Zm0-.57V645h-.3l-2.9 5.03h3.2Zm9.57-2.03v1.42q0 1.86-.89 2.94-.68.84-1.73.84-.52 0-.97-.2-.44-.2-.75-.56-.2-.22-.44-.72-.23-.5-.34-.92-.16-.6-.16-1.38V648q0-1.86.9-2.94.68-.84 1.73-.84.51 0 .95.2.45.2.77.56.2.24.43.74.24.5.35.9.15.58.15 1.38Zm-.57.08q0-.81-.24-1.52-.23-.7-.51-1.1-.18-.26-.44-.43-.4-.23-.88-.23-.97 0-1.51.98-.55.99-.55 2.3v1.26q0 .82.22 1.52.23.7.53 1.12.17.24.44.41.39.24.89.24.95 0 1.5-.99.55-.98.55-2.3v-1.26Z"/><path fill="#bdbdbd" d="M249.22 650.6h-3.8v-.66l3.19-5.52h1.2v5.61h.47q.22 0 .3.08.09.08.09.2 0 .13-.1.2-.07.08-.3.08h-.46v1.83h.47q.22 0 .3.08.09.08.09.22 0 .1-.1.2-.07.08-.3.08h-2.12q-.22 0-.3-.08-.09-.1-.09-.2 0-.14.08-.22.1-.08.31-.08h1.07v-1.83Zm0-.57V645h-.3l-2.9 5.03h3.2Zm9.57-2.03v1.42q0 1.86-.89 2.94-.68.84-1.73.84-.52 0-.97-.2-.44-.2-.75-.56-.2-.22-.44-.72-.23-.5-.34-.92-.16-.6-.16-1.38V648q0-1.86.9-2.94.68-.84 1.73-.84.51 0 .95.2.45.2.77.56.2.24.43.74.24.5.35.9.15.58.15 1.38Zm-.57.08q0-.81-.24-1.52-.23-.7-.51-1.1-.18-.26-.44-.43-.4-.23-.88-.23-.97 0-1.51.98-.55.99-.55 2.3v1.26q0 .82.22 1.52.23.7.53 1.12.17.24.44.41.39.24.89.24.95 0 1.5-.99.55-.98.55-2.3v-1.26Z"/><path stroke="#242424" stroke-width="3" stroke-linejoin="round" stroke-linecap="round" d="M374.37 649.38q.53-.8 1.1-1.18.57-.37 1.26-.37.9 0 1.6.76.73.77.73 1.9 0 1.01-.66 1.87-.64.84-1.78.84-.73 0-1.4-.45-.63-.47-1-1.4-.46-1.2-.46-2.63 0-1.08.42-2.02.33-.7.88-1.25.54-.54 1.28-.89.73-.34 1.58-.34.58 0 .95.23.17.1.17.27 0 .12-.08.2-.07.08-.18.08-.1 0-.22-.06-.28-.14-.7-.14-1.33 0-2.43 1.15-1.1 1.14-1.1 2.72 0 .22.04.7Zm.14.93q.25 1.25.81 1.78.57.53 1.32.53.76 0 1.3-.59.56-.6.56-1.55 0-.9-.55-1.48-.55-.6-1.25-.6-.66 0-1.27.57-.42.37-.92 1.34Zm12.22-2.31v1.42q0 1.86-.9 2.94-.68.84-1.73.84-.51 0-.96-.2-.44-.2-.75-.56-.2-.22-.44-.72t-.35-.92q-.15-.6-.15-1.38V648q0-1.86.89-2.94.69-.84 1.73-.84.52 0 .96.2.45.2.76.56.2.24.44.74.23.5.34.9.16.58.16 1.38Zm-.58.08q0-.81-.23-1.52-.24-.7-.52-1.1-.17-.26-.44-.43-.39-.23-.87-.23-.97 0-1.52.98-.54.99-.54 2.3v1.26q0 .82.22 1.52.23.7.53 1.12.17.24.43.41.4.24.9.24.95 0 1.5-.99.54-.98.54-2.3v-1.26Z"/><path fill="#bdbdbd" d="M374.37 649.38q.53-.8 1.1-1.18.57-.37 1.26-.37.9 0 1.6.76.73.77.73 1.9 0 1.01-.66 1.87-.64.84-1.78.84-.73 0-1.4-.45-.63-.47-1-1.4-.46-1.2-.46-2.63 0-1.08.42-2.02.33-.7.88-1.25.54-.54 1.28-.89.73-.34 1.58-.34.58 0 .95.23.17.1.17.27 0 .12-.08.2-.07.08-.18.08-.1 0-.22-.06-.28-.14-.7-.14-1.33 0-2.43 1.15-1.1 1.14-1.1 2.72 0 .22.04.7Zm.14.93q.25 1.25.81 1.78.57.53 1.32.53.76 0 1.3-.59.56-.6.56-1.55 0-.9-.55-1.48-.55-.6-1.25-.6-.66 0-1.27.57-.42.37-.92 1.34Zm12.22-2.31v1.42q0 1.86-.9 2.94-.68.84-1.73.84-.51 0-.96-.2-.44-.2-.75-.56-.2-.22-.44-.72t-.35-.92q-.15-.6-.15-1.38V648q0-1.86.89-2.94.69-.84 1.73-.84.52 0 .96.2.45.2.76.56.2.24.44.74.23.5.34.9.16.58.16 1.38Zm-.58.08q0-.81-.23-1.52-.24-.7-.52-1.1-.17-.26-.44-.43-.39-.23-.87-.23-.97 0-1.52.98-.54.99-.54 2.3v1.26q0 .82.22 1.52.23.7.53 1.12.17.24.43.41.4.24.9.24.95 0 1.5-.99.54-.98.54-2.3v-1.26Z"/><path stroke="#242424" stroke-width="3" stroke-linejoin="round" stroke-linecap="round" d="M468.03 648.55q.72.34 1.08.92.38.58.38 1.23 0 1.02-.77 1.77-.77.73-1.86.73-1.1 0-1.86-.73-.76-.75-.76-1.77 0-.65.35-1.22.38-.57 1.1-.93-.63-.36-.9-.75-.41-.55-.41-1.22 0-.96.71-1.66.74-.7 1.77-.7t1.75.7q.73.7.73 1.66 0 .67-.39 1.22-.28.39-.92.75Zm.72-1.96q0-.73-.55-1.26-.54-.53-1.34-.53t-1.36.53q-.55.53-.55 1.26 0 .66.55 1.18.55.5 1.36.5t1.34-.5q.55-.52.55-1.18Zm.16 4.11q0-.75-.6-1.3-.57-.57-1.45-.57-.87 0-1.47.56-.58.56-.58 1.31 0 .78.6 1.36.6.57 1.45.57.88 0 1.45-.57.6-.58.6-1.36Zm8.6-2.7v1.42q0 1.86-.9 2.94-.69.84-1.73.84-.52 0-.97-.2-.44-.2-.75-.56-.2-.22-.44-.72-.23-.5-.34-.92-.16-.6-.16-1.38V648q0-1.86.89-2.94.69-.84 1.73-.84.52 0 .96.2.45.2.76.56.2.24.44.74t.34.9q.16.58.16 1.38Zm-.59.08q0-.81-.23-1.52-.24-.7-.52-1.1-.17-.26-.43-.43-.4-.23-.88-.23-.97 0-1.52.98-.54.99-.54 2.3v1.26q0 .82.22 1.52.23.7.53 1.12.17.24.44.41.39.24.89.24.95 0 1.5-.99.54-.98.54-2.3v-1.26Z"/><path fill="#bdbdbd" d="M468.03 648.55q.72.34 1.08.92.38.58.38 1.23 0 1.02-.77 1.77-.77.73-1.86.73-1.1 0-1.86-.73-.76-.75-.76-1.77 0-.65.35-1.22.38-.57 1.1-.93-.63-.36-.9-.75-.41-.55-.41-1.22 0-.96.71-1.66.74-.7 1.77-.7t1.75.7q.73.7.73 1.66 0 .67-.39 1.22-.28.39-.92.75Zm.72-1.96q0-.73-.55-1.26-.54-.53-1.34-.53t-1.36.53q-.55.53-.55 1.26 0 .66.55 1.18.55.5 1.36.5t1.34-.5q.55-.52.55-1.18Zm.16 4.11q0-.75-.6-1.3-.57-.57-1.45-.57-.87 0-1.47.56-.58.56-.58 1.31 0 .78.6 1.36.6.57 1.45.57.88 0 1.45-.57.6-.58.6-1.36Zm8.6-2.7v1.42q0 1.86-.9 2.94-.69.84-1.73.84-.52 0-.97-.2-.44-.2-.75-.56-.2-.22-.44-.72-.23-.5-.34-.92-.16-.6-.16-1.38V648q0-1.86.89-2.94.69-.84 1.73-.84.52 0 .96.2.45.2.76.56.2.24.44.74t.34.9q.16.58.16 1.38Zm-.59.08q0-.81-.23-1.52-.24-.7-.52-1.1-.17-.26-.43-.43-.4-.23-.88-.23-.97 0-1.52.98-.54.99-.54 2.3v1.26q0 .82.22 1.52.23.7.53 1.12.17.24.44.41.39.24.89.24.95 0 1.5-.99.54-.98.54-2.3v-1.26Z"/><path stroke="#242424" stroke-width="3" stroke-linejoin="round" stroke-linecap="round" d="M533.55 644.3v8.12h1.97q.2 0 .3.08.09.08.09.22 0 .1-.1.2-.09.08-.3.08h-4.5q-.21 0-.3-.08-.08-.1-.08-.2 0-.14.08-.22.09-.08.3-.08h1.96v-7.33l-1.87.6q-.13.03-.2.03-.1 0-.2-.08-.07-.08-.07-.2 0-.1.08-.19.04-.06.21-.13l2.63-.82Zm10.36 3.7v1.42q0 1.86-.9 2.94-.68.84-1.73.84-.51 0-.97-.2-.43-.2-.75-.56-.2-.22-.43-.72-.24-.5-.35-.92-.15-.6-.15-1.38V648q0-1.86.89-2.94.69-.84 1.73-.84.52 0 .96.2.45.2.76.56.2.24.44.74.23.5.34.9.16.58.16 1.38Zm-.58.08q0-.81-.23-1.52-.24-.7-.52-1.1-.17-.26-.44-.43-.39-.23-.87-.23-.97 0-1.52.98-.54.99-.54 2.3v1.26q0 .82.21 1.52.24.7.54 1.12.17.24.43.41.4.24.9.24.95 0 1.5-.99.54-.98.54-2.3v-1.26Zm8.58-.08v1.42q0 1.86-.9 2.94-.68.84-1.73.84-.51 0-.97-.2-.43-.2-.75-.56-.2-.22-.43-.72-.24-.5-.35-.92-.15-.6-.15-1.38V648q0-1.86.89-2.94.69-.84 1.73-.84.52 0 .96.2.45.2.76.56.2.24.44.74.23.5.34.9.16.58.16 1.38Zm-.58.08q0-.81-.23-1.52-.24-.7-.52-1.1-.17-.26-.44-.43-.39-.23-.87-.23-.97 0-1.52.98-.54.99-.54 2.3v1.26q0 .82.21 1.52.24.7.54 1.12.17.24.43.41.4.24.9.24.95 0 1.5-.99.54-.98.54-2.3v-1.26Z"/><path fill="#bdbdbd" d="M533.55 644.3v8.12h1.97q.2 0 .3.08.09.08.09.22 0 .1-.1.2-.09.08-.3.08h-4.5q-.21 0-.3-.08-.08-.1-.08-.2 0-.14.08-.22.09-.08.3-.08h1.96v-7.33l-1.87.6q-.13.03-.2.03-.1 0-.2-.08-.07-.08-.07-.2 0-.1.08-.19.04-.06.21-.13l2.63-.82Zm10.36 3.7v1.42q0 1.86-.9 2.94-.68.84-1.73.84-.51 0-.97-.2-.43-.2-.75-.56-.2-.22-.43-.72-.24-.5-.35-.92-.15-.6-.15-1.38V648q0-1.86.89-2.94.69-.84 1.73-.84.52 0 .96.2.45.2.76.56.2.24.44.74.23.5.34.9.16.58.16 1.38Zm-.58.08q0-.81-.23-1.52-.24-.7-.52-1.1-.17-.26-.44-.43-.39-.23-.87-.23-.97 0-1.52.98-.54.99-.54 2.3v1.26q0 .82.21 1.52.24.7.54 1.12.17.24.43.41.4.24.9.24.95 0 1.5-.99.54-.98.54-2.3v-1.26Zm8.58-.08v1.42q0 1.86-.9 2.94-.68.84-1.73.84-.51 0-.97-.2-.43-.2-.75-.56-.2-.22-.43-.72-.24-.5-.35-.92-.15-.6-.15-1.38V648q0-1.86.89-2.94.69-.84 1.73-.84.52 0 .96.2.45.2.76.56.2.24.44.74.23.5.34.9.16.58.16 1.38Zm-.58.08q0-.81-.23-1.52-.24-.7-.52-1.1-.17-.26-.44-.43-.39-.23-.87-.23-.97 0-1.52.98-.54.99-.54 2.3v1.26q0 .82.21 1.52.24.7.54 1.12.17.24.43.41.4.24.9.24.95 0 1.5-.99.54-.98.54-2.3v-1.26Z"/><path stroke="#ed333b" stroke-width="4" stroke-linecap="butt" d="M6.65 84.05h12"/><path stroke="#242424" stroke-width="3" stroke-linejoin="round" stroke-linecap="round" d="M32.5 87.55v-.83q-1.26 1.05-2.68 1.05-1.03 0-1.6-.52-.59-.53-.59-1.28 0-.83.77-1.45.77-.63 2.23-.63.4 0 .86.05.47.05 1.02.16v-.92q0-.47-.44-.82-.44-.36-1.31-.36-.67 0-1.9.4-.21.06-.27.06-.11 0-.19-.08t-.08-.2q0-.11.08-.2.1-.09.77-.27 1.06-.28 1.6-.28 1.1 0 1.7.54.62.53.62 1.2v3.8h.76q.2 0 .3.08.1.08.1.22 0 .1-.1.2-.1.08-.3.08h-1.34Zm0-2.86q-.4-.1-.85-.16-.45-.06-.95-.06-1.25 0-1.96.53-.53.4-.53.97 0 .52.4.88.41.36 1.2.36.73 0 1.37-.3.64-.3 1.33-.95v-1.27Zm6.85 2.86h-.97l-2.36-5.34h-.59q-.2 0-.3-.08-.07-.08-.07-.22 0-.11.07-.19.1-.1.3-.1h2.16q.2 0 .3.1.09.08.09.2 0 .13-.1.2-.09.09-.3.09h-.95l2.11 4.76H39l2.07-4.76h-.96q-.2 0-.3-.08-.07-.08-.07-.22 0-.11.08-.19.09-.1.3-.1h2.15q.22 0 .3.1.09.08.09.2 0 .13-.1.2-.07.09-.3.09h-.57l-2.33 5.34Zm7.78-8.86v1.47h-.84v-1.47h.84Zm.02 2.94v5.34h2.27q.2 0 .3.08.09.08.09.22 0 .1-.1.2-.1.08-.3.08h-5.09q-.2 0-.3-.08-.07-.1-.07-.2 0-.14.07-.22.1-.08.3-.08h2.27v-4.76H44.9q-.2 0-.3-.08-.1-.08-.1-.2 0-.13.1-.2.1-.1.3-.1h2.25Zm9.36 5.92v-.83q-1.27 1.05-2.69 1.05-1.03 0-1.6-.52-.59-.53-.59-1.28 0-.83.77-1.45.77-.63 2.23-.63.4 0 .86.05.47.05 1.02.16v-.92q0-.47-.44-.82-.44-.36-1.31-.36-.67 0-1.9.4-.21.06-.27.06-.11 0-.19-.08t-.08-.2q0-.11.08-.2.1-.09.77-.27 1.06-.28 1.6-.28 1.1 0 1.7.54.62.53.62 1.2v3.8h.76q.2 0 .3.08.1.08.1.22 0 .1-.1.2-.1.08-.3.08h-1.34Zm0-2.86q-.4-.1-.86-.16-.45-.06-.95-.06-1.25 0-1.96.53-.53.4-.53.97 0 .52.4.88.41.36 1.2.36.73 0 1.37-.3.64-.3 1.33-.95v-1.27Zm5.16-3.06h3.12q.2 0 .28.1.1.07.1.2 0 .12-.1.2-.08.08-.28.08h-3.12v3.82q0 .5.4.85.4.33 1.17.33.58 0 1.25-.18.7-.18 1.07-.4.14-.08.22-.08.1 0 .18.1.1.07.1.18 0 .11-.1.19-.22.23-1.06.5-.84.25-1.6.25-1.02 0-1.62-.47-.6-.47-.6-1.27v-3.82h-1.05q-.2 0-.3-.08-.08-.08-.08-.22 0-.11.08-.19.1-.1.3-.1h1.06v-1.68q0-.22.08-.3.09-.09.21-.09.13 0 .2.1.09.07.09.3v1.68Zm12.39 2.97q0 1.3-.94 2.25-.94.92-2.27.92-1.34 0-2.28-.92-.94-.94-.94-2.25 0-1.32.94-2.24.94-.94 2.28-.94 1.33 0 2.27.94.94.92.94 2.24Zm-.58 0q0-1.08-.77-1.83-.76-.77-1.86-.77t-1.87.77q-.77.76-.77 1.83 0 1.08.77 1.84.78.77 1.87.77 1.1 0 1.86-.77.77-.77.77-1.84Zm4.69-2.97v1.45q1.12-1.01 1.67-1.3.56-.3 1.03-.3.51 0 .95.35.44.34.44.52 0 .14-.1.23-.07.08-.2.08-.06 0-.1-.02l-.2-.17q-.23-.23-.42-.31-.17-.1-.34-.1-.38 0-.9.3-.54.3-1.83 1.47v3.14h2.54q.2 0 .3.08.1.08.1.22 0 .1-.1.2-.1.08-.3.08H76.2q-.2 0-.3-.08-.08-.08-.08-.2 0-.11.08-.19.1-.08.3-.08h1.39v-4.8h-1.06q-.2 0-.3-.07-.08-.08-.08-.22 0-.11.08-.19.1-.1.3-.1h1.64Z"/><path fill="#bdbdbd" d="M32.5 87.55v-.83q-1.26 1.05-2.68 1.05-1.03 0-1.6-.52-.59-.53-.59-1.28 0-.83.77-1.45.77-.63 2.23-.63.4 0 .86.05.47.05 1.02.16v-.92q0-.47-.44-.82-.44-.36-1.31-.36-.67 0-1.9.4-.21.06-.27.06-.11 0-.19-.08t-.08-.2q0-.11.08-.2.1-.09.77-.27 1.06-.28 1.6-.28 1.1 0 1.7.54.62.53.62 1.2v3.8h.76q.2 0 .3.08.1.08.1.22 0 .1-.1.2-.1.08-.3.08h-1.34Zm0-2.86q-.4-.1-.85-.16-.45-.06-.95-.06-1.25 0-1.96.53-.53.4-.53.97 0 .52.4.88.41.36 1.2.36.73 0 1.37-.3.64-.3 1.33-.95v-1.27Zm6.85 2.86h-.97l-2.36-5.34h-.59q-.2 0-.3-.08-.07-.08-.07-.22 0-.11.07-.19.1-.1.3-.1h2.16q.2 0 .3.1.09.08.09.2 0 .13-.1.2-.09.09-.3.09h-.95l2.11 4.76H39l2.07-4.76h-.96q-.2 0-.3-.08-.07-.08-.07-.22 0-.11.08-.19.09-.1.3-.1h2.15q.22 0 .3.1.09.08.09.2 0 .13-.1.2-.07.09-.3.09h-.57l-2.33 5.34Zm7.78-8.86v1.47h-.84v-1.47h.84Zm.02 2.94v5.34h2.27q.2 0 .3.08.09.08.09.22 0 .1-.1.2-.1.08-.3.08h-5.09q-.2 0-.3-.08-.07-.1-.07-.2 0-.14.07-.22.1-.08.3-.08h2.27v-4.76H44.9q-.2 0-.3-.08-.1-.08-.1-.2 0-.13.1-.2.1-.1.3-.1h2.25Zm9.36 5.92v-.83q-1.27 1.05-2.69 1.05-1.03 0-1.6-.52-.59-.53-.59-1.28 0-.83.77-1.45.77-.63 2.23-.63.4 0 .86.05.47.05 1.02.16v-.92q0-.47-.44-.82-.44-.36-1.31-.36-.67 0-1.9.4-.21.06-.27.06-.11 0-.19-.08t-.08-.2q0-.11.08-.2.1-.09.77-.27 1.06-.28 1.6-.28 1.1 0 1.7.54.62.53.62 1.2v3.8h.76q.2 0 .3.08.1.08.1.22 0 .1-.1.2-.1.08-.3.08h-1.34Zm0-2.86q-.4-.1-.86-.16-.45-.06-.95-.06-1.25 0-1.96.53-.53.4-.53.97 0 .52.4.88.41.36 1.2.36.73 0 1.37-.3.64-.3 1.33-.95v-1.27Zm5.16-3.06h3.12q.2 0 .28.1.1.07.1.2 0 .12-.1.2-.08.08-.28.08h-3.12v3.82q0 .5.4.85.4.33 1.17.33.58 0 1.25-.18.7-.18 1.07-.4.14-.08.22-.08.1 0 .18.1.1.07.1.18 0 .11-.1.19-.22.23-1.06.5-.84.25-1.6.25-1.02 0-1.62-.47-.6-.47-.6-1.27v-3.82h-1.05q-.2 0-.3-.08-.08-.08-.08-.22 0-.11.08-.19.1-.1.3-.1h1.06v-1.68q0-.22.08-.3.09-.09.21-.09.13 0 .2.1.09.07.09.3v1.68Zm12.39 2.97q0 1.3-.94 2.25-.94.92-2.27.92-1.34 0-2.28-.92-.94-.94-.94-2.25 0-1.32.94-2.24.94-.94 2.28-.94 1.33 0 2.27.94.94.92.94 2.24Zm-.58 0q0-1.08-.77-1.83-.76-.77-1.86-.77t-1.87.77q-.77.76-.77 1.83 0 1.08.77 1.84.78.77 1.87.77 1.1 0 1.86-.77.77-.77.77-1.84Zm4.69-2.97v1.45q1.12-1.01 1.67-1.3.56-.3 1.03-.3.51 0 .95.35.44.34.44.52 0 .14-.1.23-.07.08-.2.08-.06 0-.1-.02l-.2-.17q-.23-.23-.42-.31-.17-.1-.34-.1-.38 0-.9.3-.54.3-1.83 1.47v3.14h2.54q.2 0 .3.08.1.08.1.22 0 .1-.1.2-.1.08-.3.08H76.2q-.2 0-.3-.08-.08-.08-.08-.2 0-.11.08-.19.1-.08.3-.08h1.39v-4.8h-1.06q-.2 0-.3-.07-.08-.08-.08-.22 0-.11.08-.19.1-.1.3-.1h1.64Z"/><path stroke="#e5a50a" stroke-width="4" stroke-linecap="butt" d="M98.65 84.05h12"/><path stroke="#242424" stroke-width="3" stroke-linejoin="round" stroke-linecap="round" d="M120.96 78.97v3.53q.55-.6 1.05-.83.5-.25 1.12-.25.68 0 1.15.24.46.23.78.73.3.49.3 1.02v3.56h.65q.22 0 .3.08.09.08.09.22 0 .1-.1.2-.07.08-.3.08h-1.85q-.22 0-.31-.08-.08-.1-.08-.2 0-.14.08-.22.1-.08.31-.08h.64v-3.51q0-.63-.45-1.03-.44-.43-1.25-.43-.63 0-1.06.3-.33.22-1.07 1.03v3.64h.64q.22 0 .3.08.1.08.1.22 0 .1-.1.2-.08.08-.3.08h-1.86q-.21 0-.3-.08-.09-.1-.09-.2 0-.14.08-.22.1-.08.31-.08h.64v-7.42h-.76q-.2 0-.3-.08-.1-.08-.1-.22 0-.12.1-.2.1-.08.3-.08h1.34Zm11.55 8.58v-.83q-1.27 1.05-2.69 1.05-1.03 0-1.6-.52-.59-.53-.59-1.28 0-.83.77-1.45.77-.63 2.23-.63.4 0 .86.05.47.05 1.02.16v-.92q0-.47-.44-.82-.44-.36-1.31-.36-.67 0-1.9.4-.21.06-.27.06-.11 0-.19-.08t-.08-.2q0-.11.08-.2.1-.09.77-.27 1.06-.28 1.6-.28 1.1 0 1.7.54.62.53.62 1.2v3.8h.76q.2 0 .3.08.1.08.1.22 0 .1-.1.2-.1.08-.3.08h-1.34Zm0-2.86q-.4-.1-.86-.16-.45-.06-.95-.06-1.25 0-1.96.53-.53.4-.53.97 0 .52.4.88.41.36 1.2.36.73 0 1.37-.3.64-.3 1.33-.95v-1.27Zm4.48-3.06v.87q.61-.6 1.1-.84.48-.23 1.1-.23.65 0 1.18.28.39.2.7.68.31.47.31.97v3.61h.49q.2 0 .28.08.1.08.1.22 0 .1-.1.2-.08.08-.28.08h-1.55q-.2 0-.3-.08-.09-.1-.09-.2 0-.14.1-.22.09-.08.3-.08h.48v-3.51q0-.61-.46-1.03-.43-.43-1.18-.43-.57 0-.99.24-.4.22-1.19 1.14v3.6h.66q.2 0 .28.07.1.08.1.22 0 .1-.1.2-.08.08-.28.08h-1.88q-.2 0-.3-.08-.09-.1-.09-.2 0-.14.1-.22.1-.08.3-.08h.64v-4.76h-.49q-.2 0-.3-.08-.07-.08-.07-.22 0-.11.07-.19.1-.1.3-.1H137Zm12.68-2.66v8h.76q.2 0 .3.08.1.08.1.22 0 .1-.1.2-.1.08-.3.08h-1.34v-1.14q-1 1.36-2.55 1.36-.76 0-1.48-.4-.72-.43-1.14-1.2-.41-.76-.41-1.57 0-.82.4-1.58.43-.77 1.15-1.17.72-.42 1.5-.42 1.5 0 2.53 1.35v-3.23h-.77q-.22 0-.31-.08-.08-.08-.08-.22 0-.12.08-.2.1-.08.31-.08h1.35Zm-.58 5.63q0-1.1-.75-1.85-.74-.75-1.75-.75-1.03 0-1.77.75-.73.75-.73 1.85t.73 1.86q.74.75 1.77.75 1.01 0 1.75-.75.75-.77.75-1.86Zm3.6-5.63v3.81q1.04-1.36 2.5-1.36 1.26 0 2.15.93.9.9.9 2.23t-.9 2.27q-.9.92-2.14.92-1.5 0-2.52-1.34v1.12h-1.34q-.2 0-.3-.08-.08-.1-.08-.2 0-.14.08-.22.1-.08.3-.08h.78v-7.42h-.78q-.2 0-.3-.08-.08-.08-.08-.22 0-.12.08-.2.1-.08.3-.08h1.34Zm4.98 5.63q0-1.08-.75-1.83-.74-.77-1.74-.77t-1.75.77q-.73.75-.73 1.83 0 1.1.73 1.86.75.75 1.75.75t1.74-.75q.75-.77.75-1.86Zm4.5-2.97v1.45q1.12-1.01 1.67-1.3.56-.3 1.03-.3.51 0 .95.35.44.34.44.52 0 .14-.1.23-.07.08-.2.08-.06 0-.1-.02l-.2-.17q-.23-.23-.42-.31-.17-.1-.34-.1-.38 0-.9.3-.54.3-1.83 1.47v3.14h2.54q.2 0 .3.08.1.08.1.22 0 .1-.1.2-.1.08-.3.08h-4.51q-.2 0-.3-.08-.08-.08-.08-.2 0-.11.08-.19.1-.08.3-.08h1.39v-4.8h-1.06q-.2 0-.3-.07-.08-.08-.08-.22 0-.11.08-.19.1-.1.3-.1h1.64Zm10.34 5.92v-.83q-1.27 1.05-2.69 1.05-1.03 0-1.6-.52-.59-.53-.59-1.28 0-.83.77-1.45.77-.63 2.23-.63.4 0 .86.05.47.05 1.02.16v-.92q0-.47-.44-.82-.44-.36-1.31-.36-.67 0-1.9.4-.21.06-.27.06-.11 0-.19-.08t-.08-.2q0-.11.08-.2.1-.09.77-.27 1.06-.28 1.6-.28 1.1 0 1.7.54.62.53.62 1.2v3.8h.76q.2 0 .3.08.1.08.1.22 0 .1-.1.2-.1.08-.3.08h-1.34Zm0-2.86q-.4-.1-.86-.16-.45-.06-.95-.06-1.25 0-1.96.53-.53.4-.53.97 0 .52.4.88.41.36 1.2.36.73 0 1.37-.3.64-.3 1.33-.95v-1.27Zm5.17.3v2.56h-1.34q-.2 0-.3-.08-.08-.1-.08-.2 0-.14.08-.22.1-.08.3-.08h.78v-7.42h-.78q-.2 0-.3-.08-.08-.08-.08-.22 0-.12.08-.2.1-.08.3-.08h1.34v5.3l2.44-2.06h-.28q-.2 0-.3-.08-.1-.08-.1-.2 0-.13.1-.2.1-.1.3-.1h1.83q.21 0 .3.1.09.07.09.2 0 .12-.1.2-.08.08-.3.08h-.65l-2.25 1.87 2.84 2.9h.66q.22 0 .3.07.09.08.09.22 0 .1-.1.2-.07.08-.3.08h-1.85q-.2 0-.3-.08-.07-.1-.07-.2 0-.14.07-.22.1-.08.3-.08h.4l-2.46-2.53-.66.55Zm12.28-.27h-5.86q.16 1.13.94 1.81.78.68 1.94.68.64 0 1.34-.2.7-.23 1.16-.59.12-.09.22-.09t.18.1q.1.07.1.18 0 .11-.11.22-.33.34-1.17.64-.85.3-1.72.3-1.49 0-2.47-.95-.98-.97-.98-2.35 0-1.25.92-2.14.93-.9 2.3-.9 1.4 0 2.3.92.93.92.91 2.37Zm-.58-.58q-.17-.95-.9-1.54-.74-.6-1.74-.6t-1.73.6q-.72.58-.9 1.54h5.27Z"/><path fill="#bdbdbd" d="M120.96 78.97v3.53q.55-.6 1.05-.83.5-.25 1.12-.25.68 0 1.15.24.46.23.78.73.3.49.3 1.02v3.56h.65q.22 0 .3.08.09.08.09.22 0 .1-.1.2-.07.08-.3.08h-1.85q-.22 0-.31-.08-.08-.1-.08-.2 0-.14.08-.22.1-.08.31-.08h.64v-3.51q0-.63-.45-1.03-.44-.43-1.25-.43-.63 0-1.06.3-.33.22-1.07 1.03v3.64h.64q.22 0 .3.08.1.08.1.22 0 .1-.1.2-.08.08-.3.08h-1.86q-.21 0-.3-.08-.09-.1-.09-.2 0-.14.08-.22.1-.08.31-.08h.64v-7.42h-.76q-.2 0-.3-.08-.1-.08-.1-.22 0-.12.1-.2.1-.08.3-.08h1.34Zm11.55 8.58v-.83q-1.27 1.05-2.69 1.05-1.03 0-1.6-.52-.59-.53-.59-1.28 0-.83.77-1.45.77-.63 2.23-.63.4 0 .86.05.47.05 1.02.16v-.92q0-.47-.44-.82-.44-.36-1.31-.36-.67 0-1.9.4-.21.06-.27.06-.11 0-.19-.08t-.08-.2q0-.11.08-.2.1-.09.77-.27 1.06-.28 1.6-.28 1.1 0 1.7.54.62.53.62 1.2v3.8h.76q.2 0 .3.08.1.08.1.22 0 .1-.1.2-.1.08-.3.08h-1.34Zm0-2.86q-.4-.1-.86-.16-.45-.06-.95-.06-1.25 0-1.96.53-.53.4-.53.97 0 .52.4.88.41.36 1.2.36.73 0 1.37-.3.64-.3 1.33-.95v-1.27Zm4.48-3.06v.87q.61-.6 1.1-.84.48-.23 1.1-.23.65 0 1.18.28.39.2.7.68.31.47.31.97v3.61h.49q.2 0 .28.08.1.08.1.22 0 .1-.1.2-.08.08-.28.08h-1.55q-.2 0-.3-.08-.09-.1-.09-.2 0-.14.1-.22.09-.08.3-.08h.48v-3.51q0-.61-.46-1.03-.43-.43-1.18-.43-.57 0-.99.24-.4.22-1.19 1.14v3.6h.66q.2 0 .28.07.1.08.1.22 0 .1-.1.2-.08.08-.28.08h-1.88q-.2 0-.3-.08-.09-.1-.09-.2 0-.14.1-.22.1-.08.3-.08h.64v-4.76h-.49q-.2 0-.3-.08-.07-.08-.07-.22 0-.11.07-.19.1-.1.3-.1H137Zm12.68-2.66v8h.76q.2 0 .3.08.1.08.1.22 0 .1-.1.2-.1.08-.3.08h-1.34v-1.14q-1 1.36-2.55 1.36-.76 0-1.48-.4-.72-.43-1.14-1.2-.41-.76-.41-1.57 0-.82.4-1.58.43-.77 1.15-1.17.72-.42 1.5-.42 1.5 0 2.53 1.35v-3.23h-.77q-.22 0-.31-.08-.08-.08-.08-.22 0-.12.08-.2.1-.08.31-.08h1.35Zm-.58 5.63q0-1.1-.75-1.85-.74-.75-1.75-.75-1.03 0-1.77.75-.73.75-.73 1.85t.73 1.86q.74.75 1.77.75 1.01 0 1.75-.75.75-.77.75-1.86Zm3.6-5.63v3.81q1.04-1.36 2.5-1.36 1.26 0 2.15.93.9.9.9 2.23t-.9 2.27q-.9.92-2.14.92-1.5 0-2.52-1.34v1.12h-1.34q-.2 0-.3-.08-.08-.1-.08-.2 0-.14.08-.22.1-.08.3-.08h.78v-7.42h-.78q-.2 0-.3-.08-.08-.08-.08-.22 0-.12.08-.2.1-.08.3-.08h1.34Zm4.98 5.63q0-1.08-.75-1.83-.74-.77-1.74-.77t-1.75.77q-.73.75-.73 1.83 0 1.1.73 1.86.75.75 1.75.75t1.74-.75q.75-.77.75-1.86Zm4.5-2.97v1.45q1.12-1.01 1.67-1.3.56-.3 1.03-.3.51 0 .95.35.44.34.44.52 0 .14-.1.23-.07.08-.2.08-.06 0-.1-.02l-.2-.17q-.23-.23-.42-.31-.17-.1-.34-.1-.38 0-.9.3-.54.3-1.83 1.47v3.14h2.54q.2 0 .3.08.1.08.1.22 0 .1-.1.2-.1.08-.3.08h-4.51q-.2 0-.3-.08-.08-.08-.08-.2 0-.11.08-.19.1-.08.3-.08h1.39v-4.8h-1.06q-.2 0-.3-.07-.08-.08-.08-.22 0-.11.08-.19.1-.1.3-.1h1.64Zm10.34 5.92v-.83q-1.27 1.05-2.69 1.05-1.03 0-1.6-.52-.59-.53-.59-1.28 0-.83.77-1.45.77-.63 2.23-.63.4 0 .86.05.47.05 1.02.16v-.92q0-.47-.44-.82-.44-.36-1.31-.36-.67 0-1.9.4-.21.06-.27.06-.11 0-.19-.08t-.08-.2q0-.11.08-.2.1-.09.77-.27 1.06-.28 1.6-.28 1.1 0 1.7.54.62.53.62 1.2v3.8h.76q.2 0 .3.08.1.08.1.22 0 .1-.1.2-.1.08-.3.08h-1.34Zm0-2.86q-.4-.1-.86-.16-.45-.06-.95-.06-1.25 0-1.96.53-.53.4-.53.97 0 .52.4.88.41.36 1.2.36.73 0 1.37-.3.64-.3 1.33-.95v-1.27Zm5.17.3v2.56h-1.34q-.2 0-.3-.08-.08-.1-.08-.2 0-.14.08-.22.1-.08.3-.08h.78v-7.42h-.78q-.2 0-.3-.08-.08-.08-.08-.22 0-.12.08-.2.1-.08.3-.08h1.34v5.3l2.44-2.06h-.28q-.2 0-.3-.08-.1-.08-.1-.2 0-.13.1-.2.1-.1.3-.1h1.83q.21 0 .3.1.09.07.09.2 0 .12-.1.2-.08.08-.3.08h-.65l-2.25 1.87 2.84 2.9h.66q.22 0 .3.07.09.08.09.22 0 .1-.1.2-.07.08-.3.08h-1.85q-.2 0-.3-.08-.07-.1-.07-.2 0-.14.07-.22.1-.08.3-.08h.4l-2.46-2.53-.66.55Zm12.28-.27h-5.86q.16 1.13.94 1.81.78.68 1.94.68.64 0 1.34-.2.7-.23 1.16-.59.12-.09.22-.09t.18.1q.1.07.1.18 0 .11-.11.22-.33.34-1.17.64-.85.3-1.72.3-1.49 0-2.47-.95-.98-.97-.98-2.35 0-1.25.92-2.14.93-.9 2.3-.9 1.4 0 2.3.92.93.92.91 2.37Zm-.58-.58q-.17-.95-.9-1.54-.74-.6-1.74-.6t-1.73.6q-.72.58-.9 1.54h5.27Z"/><path stroke="#242424" stroke-width="3" stroke-linejoin="round" stroke-linecap="round" d="M13.04 53.35q.25-.24.52-.24.3 0 .48.22.2.2.2.7v.91q0 .5-.2.72-.19.2-.5.2-.28 0-.48-.15-.14-.13-.24-.5-.08-.4-.39-.57-.55-.32-1.4-.32-1 0-1.6.57-.6.58-.6 1.47 0 .81.57 1.3.58.47 1.9.47.88 0 1.44-.17.33-.11.61-.38.3-.26.55-.26.28 0 .48.21.22.2.22.5 0 .46-.64.88-.94.62-2.76.62-1.63 0-2.53-.67-1.24-.92-1.24-2.5 0-1.5 1-2.47 1-.98 2.6-.98.59 0 1.09.1.5.12.92.34Zm5.52-.25v.87q.89-.64 1.39-.84.51-.22.95-.22.69 0 1.33.5.44.34.44.7 0 .3-.2.52-.21.2-.5.2-.27 0-.57-.25-.28-.26-.5-.26-.3 0-.9.37-.57.36-1.44 1.1v2.1h2q.5 0 .71.2.22.2.22.5 0 .32-.21.52-.22.19-.72.19h-4.24q-.5 0-.72-.19-.22-.2-.22-.51 0-.32.22-.5.22-.2.72-.2h.85v-3.41h-.52q-.5 0-.72-.19-.22-.2-.22-.52 0-.3.22-.48.22-.2.72-.2h1.9Zm11.93 3.22q0 .8-.45 1.56-.44.75-1.33 1.2-.89.44-1.84.44-.97 0-1.85-.44-.87-.44-1.32-1.19-.46-.76-.46-1.59 0-.84.46-1.66.47-.8 1.34-1.26.88-.47 1.83-.47.95 0 1.83.48.89.47 1.34 1.28.45.8.45 1.65Zm-1.4 0q0-.68-.49-1.24-.65-.76-1.73-.76-.95 0-1.6.6-.64.6-.64 1.41 0 .66.64 1.24.66.56 1.6.56.94 0 1.58-.56.64-.58.64-1.25Zm5.78.4-.99 2.58h-1.3l-1.18-4.81q-.4-.02-.6-.2-.18-.2-.18-.5t.22-.49q.22-.2.72-.2h1.3q.5 0 .73.2.22.19.22.5t-.25.53q-.2.16-.72.16l.53 2.23.86-2.28h1.25l.87 2.28.55-2.23q-.52 0-.69-.1-.33-.22-.33-.6 0-.3.22-.49.22-.2.72-.2h1.33q.5 0 .7.2.22.19.22.5 0 .28-.19.48-.18.2-.54.2l-1.16 4.82h-1.3l-1.01-2.58Zm11.2-6.28v7.45h.24q.5 0 .71.2.22.2.22.5 0 .32-.22.52-.21.19-.71.19h-1.64v-.34q-.49.28-1.02.42-.52.14-1.06.14-1.58 0-2.55-.9-.97-.91-.97-2.27 0-1.43 1.02-2.43 1.01-1.01 2.47-1.01.54 0 1.06.17.53.16 1.05.5v-1.75h-.24q-.51 0-.73-.19-.2-.2-.2-.5 0-.32.2-.51.22-.19.73-.19h1.64Zm-1.4 5.94q0-.86-.61-1.46t-1.49-.6q-.87 0-1.48.6t-.61 1.44q0 .77.55 1.27.54.5 1.54.5.99 0 1.53-.5.57-.5.57-1.25Zm13.89-3.28v.87q.89-.64 1.39-.84.51-.22.95-.22.69 0 1.33.5.44.34.44.7 0 .3-.2.52-.21.2-.5.2-.27 0-.57-.25-.28-.26-.5-.26-.3 0-.9.37-.57.36-1.44 1.1v2.1h2q.5 0 .71.2.22.2.22.5 0 .32-.22.52-.21.19-.71.19h-4.24q-.5 0-.72-.19-.22-.2-.22-.51 0-.32.22-.5.22-.2.72-.2h.85v-3.41h-.52q-.5 0-.72-.19-.22-.2-.22-.52 0-.3.22-.48.22-.2.72-.2h1.9Zm11.26 0v4.8q.46 0 .66.2.22.2.22.5t-.22.51q-.22.19-.72.19h-1.33v-.33q-.6.28-1.16.4-.54.15-1.03.15-.68 0-1.2-.28-.5-.3-.8-.82-.21-.35-.21-.92v-3h-.24q-.5 0-.72-.19-.22-.2-.22-.52 0-.3.22-.48.22-.2.72-.2h1.64v4.17q0 .44.22.65.22.2.66.2.42 0 .9-.16.5-.18 1.22-.61V54.5h-.51q-.5 0-.72-.19-.22-.2-.22-.52 0-.3.22-.48.22-.2.72-.2h1.9Zm3.61 0v.47q.4-.33.84-.49.47-.17 1-.17 1.26 0 1.97.77.58.62.58 1.62v2.6q.44 0 .66.2.22.18.22.5 0 .3-.22.51-.22.19-.72.19h-1.27q-.51 0-.73-.19-.2-.2-.2-.51 0-.32.2-.5.22-.2.66-.2v-2.65q0-.45-.24-.67-.33-.26-.97-.26-.48 0-.86.18-.36.2-.92.8v2.6q.55 0 .7.1.33.2.33.6 0 .3-.22.51-.2.19-.71.19h-1.6q-.5 0-.72-.19-.22-.2-.22-.51 0-.4.33-.6.17-.1.7-.1v-3.41q-.43 0-.65-.19-.2-.2-.2-.52 0-.3.2-.48.22-.2.73-.2h1.33Zm16.92 2.8q0-1.2.4-2.43.3-.9.9-2 .45-.8.66-.97.22-.18.47-.18.3 0 .51.2.2.2.2.48 0 .2-.17.47-.73 1.22-1.08 2.28-.32 1.07-.32 2.14 0 1.1.32 2.16.35 1.06 1.08 2.27.17.26.17.46 0 .3-.2.5t-.52.2q-.24 0-.43-.15-.27-.25-.72-1.08-.66-1.22-.9-2-.37-1.2-.37-2.36Zm10.02-1.16q-.34-.22-.72-.32-.38-.1-.78-.1-.83 0-1.3.26-.22.11-.22.25 0 .16.3.31.22.11.97.2 1.39.2 1.94.4.72.25 1.1.75.4.5.4 1.04 0 .75-.66 1.27-.95.72-2.47.72-.6 0-1.12-.11-.52-.1-.96-.3-.1.08-.22.14-.1.05-.23.05-.33 0-.53-.22-.19-.22-.19-.72v-.48q0-.5.19-.72.2-.22.51-.22.25 0 .43.14.17.14.26.49.33.28.78.42.46.14 1.03.14.97 0 1.5-.31.25-.15.25-.32 0-.26-.35-.45-.36-.17-1.5-.3-1.7-.17-2.25-.68-.57-.49-.57-1.22 0-.75.63-1.25.86-.7 2.26-.7.49 0 .93.1.45.1.85.28l.25-.14q.11-.04.2-.04.3 0 .5.22.18.2.18.71v.35q0 .45-.11.6-.22.32-.6.32-.24 0-.45-.16-.18-.15-.23-.4Zm4.75 3.8v2.3h.83q.51 0 .72.18.21.2.21.51 0 .3-.21.49-.2.2-.72.2h-2.47q-.52 0-.74-.2-.2-.19-.2-.49t.22-.51q.22-.19.72-.19h.23V54.5h-.23q-.52 0-.74-.19-.2-.2-.2-.52 0-.3.2-.48.22-.2.74-.2h1.64v.47q.48-.33 1-.49.53-.17 1.1-.17 1.43 0 2.43.98 1.02.97 1.02 2.22 0 1.4-1.2 2.3-1 .75-2.24.75-.55 0-1.08-.16-.52-.15-1.03-.47Zm4.16-2.41q0-.3-.24-.75-.23-.46-.72-.75-.48-.31-1.12-.31-1.05 0-1.67.78-.41.53-.41 1.03 0 .56.6 1.1.59.52 1.48.52.87 0 1.47-.51.6-.53.6-1.11Zm9.09.78h-5.75q.22.55.76.89.57.33 1.52.33.78 0 2.08-.35.53-.12.73-.12.28 0 .47.2.19.19.19.49 0 .28-.2.47-.27.25-1.33.48-1.06.22-2.03.22-1.7 0-2.7-.94-1-.95-1-2.34 0-1.49 1.07-2.4 1.1-.93 2.52-.93.86 0 1.58.3.71.3 1.06.65.48.5.81 1.25.22.52.22 1.2v.6Zm-1.55-1.4q-.33-.6-.84-.9-.52-.3-1.24-.3-.71 0-1.23.3t-.84.9h4.15Zm9.55 1.4h-5.75q.22.55.76.89.57.33 1.52.33.78 0 2.08-.35.53-.12.73-.12.28 0 .47.2.19.19.19.49 0 .28-.2.47-.27.25-1.33.48-1.06.22-2.03.22-1.7 0-2.7-.94-1-.95-1-2.34 0-1.49 1.07-2.4 1.1-.93 2.52-.93.86 0 1.58.3.71.3 1.06.65.48.5.81 1.25.22.52.22 1.2v.6Zm-1.55-1.4q-.33-.6-.84-.9-.52-.3-1.24-.3-.71 0-1.23.3t-.84.9h4.15Zm9.25-5.07v7.45h.24q.5 0 .72.2.21.2.21.5 0 .32-.22.52-.21.19-.71.19h-1.64v-.34q-.49.28-1.02.42-.52.14-1.06.14-1.58 0-2.55-.9-.97-.91-.97-2.27 0-1.43 1.02-2.43 1.01-1.01 2.47-1.01.54 0 1.06.17.53.16 1.05.5v-1.75h-.24q-.51 0-.73-.19-.2-.2-.2-.5 0-.32.2-.51.22-.19.73-.19h1.64Zm-1.4 5.94q0-.86-.61-1.46t-1.49-.6q-.87 0-1.48.6t-.61 1.44q0 .77.55 1.27.54.5 1.54.5.99 0 1.53-.5.57-.5.57-1.25Zm12.87-1.86q.5-.42.95-.61.47-.2.99-.2 1.1 0 1.92.87.83.88.83 2.19 0 1.22-.77 1.98-.76.75-2.1.75-1.09 0-1.8-.51-.7-.52-1.07-1.58-.36-1.06-.36-2.38 0-1.57.7-2.6.73-1.05 1.7-1.63.98-.58 2.06-.58.84 0 1.33.35.3.21.3.57 0 .3-.21.52-.2.2-.48.2-.18 0-.47-.17-.2-.1-.36-.1-.67 0-1.4.4-.71.37-1.24 1.15-.36.55-.52 1.38Zm.2 2.15q.22.83.58 1.13.38.3 1.08.3.69 0 1.06-.36.38-.36.38-.99 0-.7-.44-1.17-.42-.48-.95-.48-.42 0-.9.42-.5.42-.8 1.15Zm9.7-.78q0 1.2-.38 2.43-.3.9-.91 2.01-.45.78-.67.97-.2.19-.47.19-.3 0-.5-.2t-.2-.5q0-.2.15-.47.75-1.2 1.08-2.27.34-1.06.34-2.16 0-1.07-.34-2.14-.33-1.06-1.08-2.28-.15-.26-.15-.47 0-.28.2-.48.2-.2.5-.2.27 0 .45.15.27.24.72 1.08.66 1.2.9 1.98.37 1.22.37 2.36Zm18.35.07h-5.86v-1.27h5.86v1.27Zm15.11-5.5v5.48q.45 0 .66.2.22.2.22.49 0 .31-.22.51t-.66.2v.55q.45 0 .66.2.22.21.22.5 0 .32-.22.52-.22.19-.72.19h-1.88q-.51 0-.73-.19-.2-.2-.2-.51 0-.32.2-.5.22-.2.73-.2h.55v-.57h-3.81v-1.16l3.36-5.71h1.84Zm-1.4 5.48V52.5l-2.02 3.45h2.03Zm6.2 1.03v2.33h-1.64q-.5 0-.72-.19-.22-.2-.22-.51 0-.32.22-.5.22-.2.72-.2h.23v-6.07h-.23q-.5 0-.72-.19-.22-.2-.22-.51t.22-.5q.22-.19.72-.19h1.64v4.72l1.1-.9q-.18-.27-.18-.46 0-.31.2-.5.22-.2.74-.2h1.59q.5 0 .72.2.22.19.22.5 0 .3-.22.5-.22.19-.72.19h-.4l-1.7 1.39 2.3 2.01h.4q.5 0 .73.2.22.2.22.5 0 .32-.22.52-.22.19-.72.19h-1.61q-.52 0-.73-.19-.2-.2-.2-.51 0-.27.23-.53l-1.49-1.32-.26.22Z"/><path fill="#bdbdbd" d="M13.04 53.35q.25-.24.52-.24.3 0 .48.22.2.2.2.7v.91q0 .5-.2.72-.19.2-.5.2-.28 0-.48-.15-.14-.13-.24-.5-.08-.4-.39-.57-.55-.32-1.4-.32-1 0-1.6.57-.6.58-.6 1.47 0 .81.57 1.3.58.47 1.9.47.88 0 1.44-.17.33-.11.61-.38.3-.26.55-.26.28 0 .48.21.22.2.22.5 0 .46-.64.88-.94.62-2.76.62-1.63 0-2.53-.67-1.24-.92-1.24-2.5 0-1.5 1-2.47 1-.98 2.6-.98.59 0 1.09.1.5.12.92.34Zm5.52-.25v.87q.89-.64 1.39-.84.51-.22.95-.22.69 0 1.33.5.44.34.44.7 0 .3-.2.52-.21.2-.5.2-.27 0-.57-.25-.28-.26-.5-.26-.3 0-.9.37-.57.36-1.44 1.1v2.1h2q.5 0 .71.2.22.2.22.5 0 .32-.21.52-.22.19-.72.19h-4.24q-.5 0-.72-.19-.22-.2-.22-.51 0-.32.22-.5.22-.2.72-.2h.85v-3.41h-.52q-.5 0-.72-.19-.22-.2-.22-.52 0-.3.22-.48.22-.2.72-.2h1.9Zm11.93 3.22q0 .8-.45 1.56-.44.75-1.33 1.2-.89.44-1.84.44-.97 0-1.85-.44-.87-.44-1.32-1.19-.46-.76-.46-1.59 0-.84.46-1.66.47-.8 1.34-1.26.88-.47 1.83-.47.95 0 1.83.48.89.47 1.34 1.28.45.8.45 1.65Zm-1.4 0q0-.68-.49-1.24-.65-.76-1.73-.76-.95 0-1.6.6-.64.6-.64 1.41 0 .66.64 1.24.66.56 1.6.56.94 0 1.58-.56.64-.58.64-1.25Zm5.78.4-.99 2.58h-1.3l-1.18-4.81q-.4-.02-.6-.2-.18-.2-.18-.5t.22-.49q.22-.2.72-.2h1.3q.5 0 .73.2.22.19.22.5t-.25.53q-.2.16-.72.16l.53 2.23.86-2.28h1.25l.87 2.28.55-2.23q-.52 0-.69-.1-.33-.22-.33-.6 0-.3.22-.49.22-.2.72-.2h1.33q.5 0 .7.2.22.19.22.5 0 .28-.19.48-.18.2-.54.2l-1.16 4.82h-1.3l-1.01-2.58Zm11.2-6.28v7.45h.24q.5 0 .71.2.22.2.22.5 0 .32-.22.52-.21.19-.71.19h-1.64v-.34q-.49.28-1.02.42-.52.14-1.06.14-1.58 0-2.55-.9-.97-.91-.97-2.27 0-1.43 1.02-2.43 1.01-1.01 2.47-1.01.54 0 1.06.17.53.16 1.05.5v-1.75h-.24q-.51 0-.73-.19-.2-.2-.2-.5 0-.32.2-.51.22-.19.73-.19h1.64Zm-1.4 5.94q0-.86-.61-1.46t-1.49-.6q-.87 0-1.48.6t-.61 1.44q0 .77.55 1.27.54.5 1.54.5.99 0 1.53-.5.57-.5.57-1.25Zm13.89-3.28v.87q.89-.64 1.39-.84.51-.22.95-.22.69 0 1.33.5.44.34.44.7 0 .3-.2.52-.21.2-.5.2-.27 0-.57-.25-.28-.26-.5-.26-.3 0-.9.37-.57.36-1.44 1.1v2.1h2q.5 0 .71.2.22.2.22.5 0 .32-.22.52-.21.19-.71.19h-4.24q-.5 0-.72-.19-.22-.2-.22-.51 0-.32.22-.5.22-.2.72-.2h.85v-3.41h-.52q-.5 0-.72-.19-.22-.2-.22-.52 0-.3.22-.48.22-.2.72-.2h1.9Zm11.26 0v4.8q.46 0 .66.2.22.2.22.5t-.22.51q-.22.19-.72.19h-1.33v-.33q-.6.28-1.16.4-.54.15-1.03.15-.68 0-1.2-.28-.5-.3-.8-.82-.21-.35-.21-.92v-3h-.24q-.5 0-.72-.19-.22-.2-.22-.52 0-.3.22-.48.22-.2.72-.2h1.64v4.17q0 .44.22.65.22.2.66.2.42 0 .9-.16.5-.18 1.22-.61V54.5h-.51q-.5 0-.72-.19-.22-.2-.22-.52 0-.3.22-.48.22-.2.72-.2h1.9Zm3.61 0v.47q.4-.33.84-.49.47-.17 1-.17 1.26 0 1.97.77.58.62.58 1.62v2.6q.44 0 .66.2.22.18.22.5 0 .3-.22.51-.22.19-.72.19h-1.27q-.51 0-.73-.19-.2-.2-.2-.51 0-.32.2-.5.22-.2.66-.2v-2.65q0-.45-.24-.67-.33-.26-.97-.26-.48 0-.86.18-.36.2-.92.8v2.6q.55 0 .7.1.33.2.33.6 0 .3-.22.51-.2.19-.71.19h-1.6q-.5 0-.72-.19-.22-.2-.22-.51 0-.4.33-.6.17-.1.7-.1v-3.41q-.43 0-.65-.19-.2-.2-.2-.52 0-.3.2-.48.22-.2.73-.2h1.33Zm16.92 2.8q0-1.2.4-2.43.3-.9.9-2 .45-.8.66-.97.22-.18.47-.18.3 0 .51.2.2.2.2.48 0 .2-.17.47-.73 1.22-1.08 2.28-.32 1.07-.32 2.14 0 1.1.32 2.16.35 1.06 1.08 2.27.17.26.17.46 0 .3-.2.5t-.52.2q-.24 0-.43-.15-.27-.25-.72-1.08-.66-1.22-.9-2-.37-1.2-.37-2.36Zm10.02-1.16q-.34-.22-.72-.32-.38-.1-.78-.1-.83 0-1.3.26-.22.11-.22.25 0 .16.3.31.22.11.97.2 1.39.2 1.94.4.72.25 1.1.75.4.5.4 1.04 0 .75-.66 1.27-.95.72-2.47.72-.6 0-1.12-.11-.52-.1-.96-.3-.1.08-.22.14-.1.05-.23.05-.33 0-.53-.22-.19-.22-.19-.72v-.48q0-.5.19-.72.2-.22.51-.22.25 0 .43.14.17.14.26.49.33.28.78.42.46.14 1.03.14.97 0 1.5-.31.25-.15.25-.32 0-.26-.35-.45-.36-.17-1.5-.3-1.7-.17-2.25-.68-.57-.49-.57-1.22 0-.75.63-1.25.86-.7 2.26-.7.49 0 .93.1.45.1.85.28l.25-.14q.11-.04.2-.04.3 0 .5.22.18.2.18.71v.35q0 .45-.11.6-.22.32-.6.32-.24 0-.45-.16-.18-.15-.23-.4Zm4.75 3.8v2.3h.83q.51 0 .72.18.21.2.21.51 0 .3-.21.49-.2.2-.72.2h-2.47q-.52 0-.74-.2-.2-.19-.2-.49t.22-.51q.22-.19.72-.19h.23V54.5h-.23q-.52 0-.74-.19-.2-.2-.2-.52 0-.3.2-.48.22-.2.74-.2h1.64v.47q.48-.33 1-.49.53-.17 1.1-.17 1.43 0 2.43.98 1.02.97 1.02 2.22 0 1.4-1.2 2.3-1 .75-2.24.75-.55 0-1.08-.16-.52-.15-1.03-.47Zm4.16-2.41q0-.3-.24-.75-.23-.46-.72-.75-.48-.31-1.12-.31-1.05 0-1.67.78-.41.53-.41 1.03 0 .56.6 1.1.59.52 1.48.52.87 0 1.47-.51.6-.53.6-1.11Zm9.09.78h-5.75q.22.55.76.89.57.33 1.52.33.78 0 2.08-.35.53-.12.73-.12.28 0 .47.2.19.19.19.49 0 .28-.2.47-.27.25-1.33.48-1.06.22-2.03.22-1.7 0-2.7-.94-1-.95-1-2.34 0-1.49 1.07-2.4 1.1-.93 2.52-.93.86 0 1.58.3.71.3 1.06.65.48.5.81 1.25.22.52.22 1.2v.6Zm-1.55-1.4q-.33-.6-.84-.9-.52-.3-1.24-.3-.71 0-1.23.3t-.84.9h4.15Zm9.55 1.4h-5.75q.22.55.76.89.57.33 1.52.33.78 0 2.08-.35.53-.12.73-.12.28 0 .47.2.19.19.19.49 0 .28-.2.47-.27.25-1.33.48-1.06.22-2.03.22-1.7 0-2.7-.94-1-.95-1-2.34 0-1.49 1.07-2.4 1.1-.93 2.52-.93.86 0 1.58.3.71.3 1.06.65.48.5.81 1.25.22.52.22 1.2v.6Zm-1.55-1.4q-.33-.6-.84-.9-.52-.3-1.24-.3-.71 0-1.23.3t-.84.9h4.15Zm9.25-5.07v7.45h.24q.5 0 .72.2.21.2.21.5 0 .32-.22.52-.21.19-.71.19h-1.64v-.34q-.49.28-1.02.42-.52.14-1.06.14-1.58 0-2.55-.9-.97-.91-.97-2.27 0-1.43 1.02-2.43 1.01-1.01 2.47-1.01.54 0 1.06.17.53.16 1.05.5v-1.75h-.24q-.51 0-.73-.19-.2-.2-.2-.5 0-.32.2-.51.22-.19.73-.19h1.64Zm-1.4 5.94q0-.86-.61-1.46t-1.49-.6q-.87 0-1.48.6t-.61 1.44q0 .77.55 1.27.54.5 1.54.5.99 0 1.53-.5.57-.5.57-1.25Zm12.87-1.86q.5-.42.95-.61.47-.2.99-.2 1.1 0 1.92.87.83.88.83 2.19 0 1.22-.77 1.98-.76.75-2.1.75-1.09 0-1.8-.51-.7-.52-1.07-1.58-.36-1.06-.36-2.38 0-1.57.7-2.6.73-1.05 1.7-1.63.98-.58 2.06-.58.84 0 1.33.35.3.21.3.57 0 .3-.21.52-.2.2-.48.2-.18 0-.47-.17-.2-.1-.36-.1-.67 0-1.4.4-.71.37-1.24 1.15-.36.55-.52 1.38Zm.2 2.15q.22.83.58 1.13.38.3 1.08.3.69 0 1.06-.36.38-.36.38-.99 0-.7-.44-1.17-.42-.48-.95-.48-.42 0-.9.42-.5.42-.8 1.15Zm9.7-.78q0 1.2-.38 2.43-.3.9-.91 2.01-.45.78-.67.97-.2.19-.47.19-.3 0-.5-.2t-.2-.5q0-.2.15-.47.75-1.2 1.08-2.27.34-1.06.34-2.16 0-1.07-.34-2.14-.33-1.06-1.08-2.28-.15-.26-.15-.47 0-.28.2-.48.2-.2.5-.2.27 0 .45.15.27.24.72 1.08.66 1.2.9 1.98.37 1.22.37 2.36Zm18.35.07h-5.86v-1.27h5.86v1.27Zm15.11-5.5v5.48q.45 0 .66.2.22.2.22.49 0 .31-.22.51t-.66.2v.55q.45 0 .66.2.22.21.22.5 0 .32-.22.52-.22.19-.72.19h-1.88q-.51 0-.73-.19-.2-.2-.2-.51 0-.32.2-.5.22-.2.73-.2h.55v-.57h-3.81v-1.16l3.36-5.71h1.84Zm-1.4 5.48V52.5l-2.02 3.45h2.03Zm6.2 1.03v2.33h-1.64q-.5 0-.72-.19-.22-.2-.22-.51 0-.32.22-.5.22-.2.72-.2h.23v-6.07h-.23q-.5 0-.72-.19-.22-.2-.22-.51t.22-.5q.22-.19.72-.19h1.64v4.72l1.1-.9q-.18-.27-.18-.46 0-.31.2-.5.22-.2.74-.2h1.59q.5 0 .72.2.22.19.22.5 0 .3-.22.5-.22.19-.72.19h-.4l-1.7 1.39 2.3 2.01h.4q.5 0 .73.2.22.2.22.5 0 .32-.22.52-.22.19-.72.19h-1.61q-.52 0-.73-.19-.2-.2-.2-.51 0-.27.23-.53l-1.49-1.32-.26.22Z"/><path stroke="#242424" stroke-width="3" stroke-linejoin="round" stroke-linecap="round" d="M18.35 31.65v-.7q-1.12.6-2.48.89-1.36.31-2.49.31-2.4 0-3.92-1.28-1.51-1.28-1.51-2.85 0-1.89 1.92-3.5 1.94-1.62 5.34-1.62 1.36 0 3.14.3v-.72q0-.67-.58-1.1-.57-.42-2.2-.42-1.33 0-3.45.52-.8.2-1.24.2-.59 0-1.01-.44-.42-.43-.42-1.1 0-.38.14-.66.15-.28.42-.44.27-.17 1.1-.4 1.1-.32 2.26-.5 1.16-.2 2.1-.2 2.79 0 4.34 1.23 1.54 1.2 1.54 3.3v6.18h.52q1.08 0 1.55.42.46.4.46 1.08 0 .67-.46 1.1-.47.4-1.55.4h-3.52Zm0-5.38q-1.8-.35-3.33-.35-1.82 0-3.14.9-.82.56-.82 1.16 0 .42.4.69.72.48 2 .48 1.08 0 2.46-.42 1.37-.44 2.43-1.17v-1.29Zm15.33 1.74 3.24-6.66q-1.2 0-1.55-.2-.74-.45-.74-1.31 0-.66.46-1.07.47-.42 1.56-.42h4.1q1.1 0 1.56.42.46.41.46 1.08 0 .66-.46 1.08-.46.42-1.55.42h-.5l-5.02 10.3H32.1l-5.01-10.3h-.44q-1.08 0-1.55-.42-.45-.42-.45-1.1 0-.65.45-1.05.47-.43 1.55-.43h4.03q1.08 0 1.53.42.47.41.47 1.08 0 .85-.7 1.28-.36.22-1.58.22l3.28 6.66Zm19.05-15.36v3.17h-3.58v-3.17h3.58Zm.4 5.7v10.3h3.61q1.08 0 1.53.42.47.4.47 1.08 0 .67-.47 1.1-.45.4-1.53.4H46.52q-1.07 0-1.54-.4-.45-.43-.45-1.12 0-.65.45-1.06.47-.42 1.55-.42h3.6v-7.3h-2.42q-1.06 0-1.53-.42t-.47-1.1q0-.65.46-1.05.46-.43 1.54-.43h5.42Zm19.22 13.3v-.7q-1.12.6-2.48.89-1.36.31-2.49.31-2.4 0-3.92-1.28-1.51-1.28-1.51-2.85 0-1.89 1.92-3.5 1.94-1.62 5.34-1.62 1.36 0 3.14.3v-.72q0-.67-.57-1.1-.58-.42-2.2-.42-1.34 0-3.46.52-.8.2-1.24.2-.59 0-1.01-.44-.42-.43-.42-1.1 0-.38.14-.66.15-.28.42-.44.27-.17 1.1-.4 1.1-.32 2.26-.5 1.16-.2 2.1-.2 2.79 0 4.34 1.23 1.54 1.2 1.54 3.3v6.18h.52q1.08 0 1.55.42.46.4.46 1.08 0 .67-.46 1.1-.47.4-1.55.4h-3.52Zm0-5.38q-1.8-.35-3.32-.35-1.83 0-3.15.9-.82.56-.82 1.16 0 .42.4.69.72.48 2 .48 1.08 0 2.46-.42 1.37-.44 2.43-1.17v-1.29Zm14.57-4.92v6.02q0 .97.39 1.28.6.48 2.2.48 2.3 0 4.25-.98.73-.38 1.17-.38.58 0 1 .44.44.44.44 1.06 0 .6-.47 1.02-.72.69-2.83 1.27-2.1.57-3.56.57-2.8 0-4.2-1.2-1.4-1.22-1.4-2.97v-6.6h-1.09q-1.08 0-1.54-.43-.46-.42-.46-1.1 0-.65.46-1.05.46-.43 1.54-.43h1.1v-2.72q0-1.07.4-1.53.42-.47 1.1-.47.65 0 1.07.47.43.46.43 1.53v2.72h5.54q1.08 0 1.55.42.47.41.47 1.08 0 .66-.47 1.08-.47.42-1.55.42h-5.54Zm26.53 3.9q0 1.73-.96 3.35-.95 1.61-2.86 2.58-1.89.95-3.95.95-2.06 0-3.94-.93-1.87-.96-2.86-2.58-.96-1.63-.96-3.4 0-1.8.98-3.54 1-1.73 2.86-2.73 1.87-1 3.92-1t3.94 1.03q1.9 1.01 2.86 2.73.97 1.72.97 3.53Zm-3 0q0-1.44-1.03-2.65-1.43-1.64-3.74-1.64-2.05 0-3.4 1.3-1.36 1.3-1.36 3.01 0 1.41 1.37 2.65 1.38 1.21 3.4 1.21 2 0 3.38-1.21 1.38-1.24 1.38-2.66Zm12.58-6.9v1.88q1.89-1.36 2.98-1.81 1.1-.47 2.05-.47 1.47 0 2.84 1.1.94.72.94 1.47 0 .66-.46 1.11-.43.44-1.07.44-.55 0-1.18-.55-.6-.56-1.09-.56-.62 0-1.89.8-1.25.78-3.13 2.36v4.53h4.29q1.07 0 1.53.42.47.4.47 1.08 0 .67-.47 1.1-.46.4-1.53.4h-9.07q-1.09 0-1.56-.4-.45-.43-.45-1.12 0-.65.45-1.06.47-.42 1.56-.42h1.79v-7.3h-1.08q-1.1 0-1.57-.42-.45-.42-.45-1.1 0-.65.45-1.05.47-.43 1.57-.43h4.08Zm36.65 9.66 3.24-6.66q-1.2 0-1.55-.2-.74-.45-.74-1.31 0-.66.46-1.07.47-.42 1.56-.42h4.1q1.1 0 1.56.42.47.41.47 1.08 0 .66-.47 1.08-.46.42-1.55.42h-.5l-5.02 10.3h-3.14l-5.01-10.3h-.44q-1.08 0-1.55-.42-.45-.42-.45-1.1 0-.65.45-1.05.47-.43 1.55-.43h4.03q1.08 0 1.53.42.47.41.47 1.08 0 .85-.7 1.28-.36.22-1.58.22l3.28 6.66Zm32.88-15.36v6.4q.93-.56 1.89-.82.97-.28 1.93-.28 1.57 0 2.77.53 1.22.53 2.02 1.67.8 1.13.8 2.86v5.64q1.15 0 1.5.22.7.45.7 1.28 0 .67-.46 1.1-.45.4-1.53.4h-3.44q-1.06 0-1.53-.4-.45-.43-.45-1.12 0-.8.7-1.26.36-.24 1.5-.22v-5.44q0-1.15-.53-1.62-.69-.63-2.05-.63-.98 0-1.76.4-.77.37-2.06 1.66v5.63q1.15 0 1.48.22.72.45.72 1.28 0 .67-.47 1.1-.45.4-1.53.4h-3.4q-1.1 0-1.57-.4-.45-.43-.45-1.12 0-.8.72-1.26.36-.24 1.5-.22v-13h-.52q-1.1 0-1.56-.4-.45-.43-.45-1.1 0-.67.45-1.08.47-.42 1.56-.42h3.52Zm23.8 19v-.7q-1.13.6-2.5.89-1.35.31-2.48.31-2.4 0-3.92-1.28-1.51-1.28-1.51-2.85 0-1.89 1.92-3.5 1.94-1.62 5.34-1.62 1.36 0 3.14.3v-.72q0-.67-.57-1.1-.58-.42-2.2-.42-1.34 0-3.46.52-.8.2-1.24.2-.59 0-1.01-.44-.42-.43-.42-1.1 0-.38.14-.66.15-.28.42-.44.27-.17 1.1-.4 1.1-.32 2.26-.5 1.16-.2 2.1-.2 2.79 0 4.34 1.23 1.54 1.2 1.54 3.3v6.18h.52q1.08 0 1.55.42.46.4.46 1.08 0 .67-.46 1.1-.47.4-1.55.4h-3.52Zm0-5.38q-1.8-.35-3.34-.35-1.82 0-3.14.9-.82.56-.82 1.16 0 .42.4.69.72.48 2 .48 1.08 0 2.46-.42 1.37-.44 2.43-1.17v-1.29Zm12.26-7.92v1q.81-.7 1.8-1.04 1-.36 2.15-.36 2.66 0 4.22 1.65 1.22 1.33 1.22 3.47v5.58q.95 0 1.4.42.47.4.47 1.08 0 .67-.46 1.1-.47.4-1.55.4h-2.7q-1.1 0-1.57-.4-.45-.43-.45-1.12 0-.65.45-1.06.46-.42 1.4-.42v-5.67q0-.99-.5-1.44-.7-.58-2.08-.58-1.04 0-1.83.4-.78.4-1.97 1.71v5.58q1.16 0 1.48.22.72.44.72 1.28 0 .67-.47 1.1-.45.4-1.53.4h-3.42q-1.08 0-1.55-.4-.45-.43-.45-1.12 0-.8.7-1.26.35-.22 1.5-.22v-7.3q-.95 0-1.4-.42-.46-.42-.46-1.1 0-.65.46-1.05.47-.43 1.56-.43h2.86Zm27.92-5.7v16h.52q1.06 0 1.53.42.47.4.47 1.08 0 .67-.47 1.1-.46.4-1.53.4h-3.52v-.73q-1.03.6-2.16.9-1.1.31-2.3.31-3.38 0-5.46-1.95-2.06-1.95-2.06-4.87 0-3.05 2.17-5.2 2.17-2.16 5.28-2.16 1.17 0 2.3.36 1.14.36 2.23 1.07v-3.73h-.51q-1.08 0-1.55-.4-.45-.43-.45-1.08 0-.7.45-1.1.47-.42 1.55-.42h3.51Zm-3 12.75q0-1.86-1.31-3.14-1.3-1.3-3.19-1.3-1.87 0-3.19 1.3-1.3 1.28-1.3 3.1 0 1.65 1.18 2.71 1.17 1.06 3.31 1.06 2.13 0 3.31-1.06 1.2-1.06 1.2-2.67Zm10.33-12.75v6.73q1.1-.71 2.22-1.07 1.14-.36 2.3-.36 3.12 0 5.3 2.15 2.16 2.16 2.16 5.2 0 2.93-2.08 4.88-2.06 1.95-5.43 1.95-1.2 0-2.33-.3-1.11-.3-2.14-.91v.73h-3.52q-1.1 0-1.56-.4-.45-.43-.45-1.12 0-.65.47-1.06.46-.42 1.54-.42h.52v-13h-.52q-1.1 0-1.56-.4-.45-.43-.45-1.1 0-.67.45-1.08.47-.42 1.56-.42h3.52Zm8.97 12.75q0-1.86-1.3-3.14-1.3-1.3-3.19-1.3-1.87 0-3.18 1.3-1.3 1.28-1.3 3.1 0 1.65 1.17 2.71t3.31 1.06q2.14 0 3.32-1.06 1.17-1.06 1.17-2.67Zm12.19-7.05v1.88q1.89-1.36 2.98-1.81 1.1-.47 2.05-.47 1.46 0 2.84 1.1.94.72.94 1.47 0 .66-.46 1.11-.43.44-1.07.44-.55 0-1.18-.55-.6-.56-1.09-.56-.62 0-1.89.8-1.25.78-3.13 2.36v4.53h4.29q1.07 0 1.53.42.47.4.47 1.08 0 .67-.47 1.1-.46.4-1.53.4h-9.07q-1.09 0-1.56-.4-.45-.43-.45-1.12 0-.65.45-1.06.47-.42 1.56-.42h1.78v-7.3h-1.07q-1.1 0-1.57-.42-.45-.42-.45-1.1 0-.65.45-1.05.47-.43 1.57-.43h4.07Zm21.32 13.3v-.7q-1.12.6-2.48.89-1.36.31-2.49.31-2.4 0-3.92-1.28-1.51-1.28-1.51-2.85 0-1.89 1.92-3.5 1.94-1.62 5.34-1.62 1.36 0 3.14.3v-.72q0-.67-.58-1.1-.57-.42-2.2-.42-1.33 0-3.45.52-.8.2-1.24.2-.59 0-1.01-.44-.42-.43-.42-1.1 0-.38.14-.66.15-.28.42-.44.26-.17 1.1-.4 1.1-.32 2.26-.5 1.15-.2 2.1-.2 2.79 0 4.34 1.23 1.54 1.2 1.54 3.3v6.18h.52q1.08 0 1.55.42.46.4.46 1.08 0 .67-.46 1.1-.47.4-1.55.4h-3.52Zm0-5.38q-1.8-.35-3.33-.35-1.82 0-3.14.9-.82.56-.82 1.16 0 .42.4.69.72.48 2 .48 1.08 0 2.46-.42 1.37-.44 2.43-1.17v-1.29Zm12.83.38v5h-3.51q-1.08 0-1.55-.4-.45-.43-.45-1.12 0-.65.46-1.06.47-.42 1.54-.42h.51v-13h-.51q-1.08 0-1.55-.4-.45-.43-.45-1.1 0-.67.45-1.08.47-.42 1.55-.42h3.51v10.12l2.34-1.89q-.35-.62-.35-1.03 0-.67.45-1.08.45-.42 1.53-.42h3.44q1.08 0 1.53.42.47.41.47 1.08 0 .66-.47 1.08-.45.42-1.53.42h-.85l-3.64 2.96 4.9 4.34h.88q1.08 0 1.54.42.46.4.46 1.08 0 .67-.46 1.1-.46.4-1.54.4h-3.45q-1.1 0-1.56-.4-.45-.43-.45-1.12 0-.56.5-1.12l-3.18-2.81-.56.45Zm28-.13h-12.31q.47 1.18 1.65 1.9 1.2.71 3.24.71 1.67 0 4.44-.71 1.14-.3 1.57-.3.61 0 1.02.42.4.42.4 1.08 0 .58-.43.98-.58.55-2.86 1.05-2.27.48-4.36.48-3.6 0-5.77-2.03-2.15-2.04-2.15-5.01 0-3.17 2.33-5.16 2.34-1.98 5.39-1.98 1.83 0 3.36.65 1.53.64 2.28 1.4 1.04 1.07 1.73 2.67.47 1.12.47 2.57v1.29Zm-3.31-3q-.69-1.3-1.81-1.92-1.11-.64-2.64-.64-1.54 0-2.65.64-1.1.63-1.8 1.92h8.9Z"/><path fill="#fff" d="M18.35 31.65v-.7q-1.12.6-2.48.89-1.36.31-2.49.31-2.4 0-3.92-1.28-1.51-1.28-1.51-2.85 0-1.89 1.92-3.5 1.94-1.62 5.34-1.62 1.36 0 3.14.3v-.72q0-.67-.58-1.1-.57-.42-2.2-.42-1.33 0-3.45.52-.8.2-1.24.2-.59 0-1.01-.44-.42-.43-.42-1.1 0-.38.14-.66.15-.28.42-.44.27-.17 1.1-.4 1.1-.32 2.26-.5 1.16-.2 2.1-.2 2.79 0 4.34 1.23 1.54 1.2 1.54 3.3v6.18h.52q1.08 0 1.55.42.46.4.46 1.08 0 .67-.46 1.1-.47.4-1.55.4h-3.52Zm0-5.38q-1.8-.35-3.33-.35-1.82 0-3.14.9-.82.56-.82 1.16 0 .42.4.69.72.48 2 .48 1.08 0 2.46-.42 1.37-.44 2.43-1.17v-1.29Zm15.33 1.74 3.24-6.66q-1.2 0-1.55-.2-.74-.45-.74-1.31 0-.66.46-1.07.47-.42 1.56-.42h4.1q1.1 0 1.56.42.46.41.46 1.08 0 .66-.46 1.08-.46.42-1.55.42h-.5l-5.02 10.3H32.1l-5.01-10.3h-.44q-1.08 0-1.55-.42-.45-.42-.45-1.1 0-.65.45-1.05.47-.43 1.55-.43h4.03q1.08 0 1.53.42.47.41.47 1.08 0 .85-.7 1.28-.36.22-1.58.22l3.28 6.66Zm19.05-15.36v3.17h-3.58v-3.17h3.58Zm.4 5.7v10.3h3.61q1.08 0 1.53.42.47.4.47 1.08 0 .67-.47 1.1-.45.4-1.53.4H46.52q-1.07 0-1.54-.4-.45-.43-.45-1.12 0-.65.45-1.06.47-.42 1.55-.42h3.6v-7.3h-2.42q-1.06 0-1.53-.42t-.47-1.1q0-.65.46-1.05.46-.43 1.54-.43h5.42Zm19.22 13.3v-.7q-1.12.6-2.48.89-1.36.31-2.49.31-2.4 0-3.92-1.28-1.51-1.28-1.51-2.85 0-1.89 1.92-3.5 1.94-1.62 5.34-1.62 1.36 0 3.14.3v-.72q0-.67-.57-1.1-.58-.42-2.2-.42-1.34 0-3.46.52-.8.2-1.24.2-.59 0-1.01-.44-.42-.43-.42-1.1 0-.38.14-.66.15-.28.42-.44.27-.17 1.1-.4 1.1-.32 2.26-.5 1.16-.2 2.1-.2 2.79 0 4.34 1.23 1.54 1.2 1.54 3.3v6.18h.52q1.08 0 1.55.42.46.4.46 1.08 0 .67-.46 1.1-.47.4-1.55.4h-3.52Zm0-5.38q-1.8-.35-3.32-.35-1.83 0-3.15.9-.82.56-.82 1.16 0 .42.4.69.72.48 2 .48 1.08 0 2.46-.42 1.37-.44 2.43-1.17v-1.29Zm14.57-4.92v6.02q0 .97.39 1.28.6.48 2.2.48 2.3 0 4.25-.98.73-.38 1.17-.38.58 0 1 .44.44.44.44 1.06 0 .6-.47 1.02-.72.69-2.83 1.27-2.1.57-3.56.57-2.8 0-4.2-1.2-1.4-1.22-1.4-2.97v-6.6h-1.09q-1.08 0-1.54-.43-.46-.42-.46-1.1 0-.65.46-1.05.46-.43 1.54-.43h1.1v-2.72q0-1.07.4-1.53.42-.47 1.1-.47.65 0 1.07.47.43.46.43 1.53v2.72h5.54q1.08 0 1.55.42.47.41.47 1.08 0 .66-.47 1.08-.47.42-1.55.42h-5.54Zm26.53 3.9q0 1.73-.96 3.35-.95 1.61-2.86 2.58-1.89.95-3.95.95-2.06 0-3.94-.93-1.87-.96-2.86-2.58-.96-1.63-.96-3.4 0-1.8.98-3.54 1-1.73 2.86-2.73 1.87-1 3.92-1t3.94 1.03q1.9 1.01 2.86 2.73.97 1.72.97 3.53Zm-3 0q0-1.44-1.03-2.65-1.43-1.64-3.74-1.64-2.05 0-3.4 1.3-1.36 1.3-1.36 3.01 0 1.41 1.37 2.65 1.38 1.21 3.4 1.21 2 0 3.38-1.21 1.38-1.24 1.38-2.66Zm12.58-6.9v1.88q1.89-1.36 2.98-1.81 1.1-.47 2.05-.47 1.47 0 2.84 1.1.94.72.94 1.47 0 .66-.46 1.11-.43.44-1.07.44-.55 0-1.18-.55-.6-.56-1.09-.56-.62 0-1.89.8-1.25.78-3.13 2.36v4.53h4.29q1.07 0 1.53.42.47.4.47 1.08 0 .67-.47 1.1-.46.4-1.53.4h-9.07q-1.09 0-1.56-.4-.45-.43-.45-1.12 0-.65.45-1.06.47-.42 1.56-.42h1.79v-7.3h-1.08q-1.1 0-1.57-.42-.45-.42-.45-1.1 0-.65.45-1.05.47-.43 1.57-.43h4.08Zm36.65 9.66 3.24-6.66q-1.2 0-1.55-.2-.74-.45-.74-1.31 0-.66.46-1.07.47-.42 1.56-.42h4.1q1.1 0 1.56.42.47.41.47 1.08 0 .66-.47 1.08-.46.42-1.55.42h-.5l-5.02 10.3h-3.14l-5.01-10.3h-.44q-1.08 0-1.55-.42-.45-.42-.45-1.1 0-.65.45-1.05.47-.43 1.55-.43h4.03q1.08 0 1.53.42.47.41.47 1.08 0 .85-.7 1.28-.36.22-1.58.22l3.28 6.66Zm32.88-15.36v6.4q.93-.56 1.89-.82.97-.28 1.93-.28 1.57 0 2.77.53 1.22.53 2.02 1.67.8 1.13.8 2.86v5.64q1.15 0 1.5.22.7.45.7 1.28 0 .67-.46 1.1-.45.4-1.53.4h-3.44q-1.06 0-1.53-.4-.45-.43-.45-1.12 0-.8.7-1.26.36-.24 1.5-.22v-5.44q0-1.15-.53-1.62-.69-.63-2.05-.63-.98 0-1.76.4-.77.37-2.06 1.66v5.63q1.15 0 1.48.22.72.45.72 1.28 0 .67-.47 1.1-.45.4-1.53.4h-3.4q-1.1 0-1.57-.4-.45-.43-.45-1.12 0-.8.72-1.26.36-.24 1.5-.22v-13h-.52q-1.1 0-1.56-.4-.45-.43-.45-1.1 0-.67.45-1.08.47-.42 1.56-.42h3.52Zm23.8 19v-.7q-1.13.6-2.5.89-1.35.31-2.48.31-2.4 0-3.92-1.28-1.51-1.28-1.51-2.85 0-1.89 1.92-3.5 1.94-1.62 5.34-1.62 1.36 0 3.14.3v-.72q0-.67-.57-1.1-.58-.42-2.2-.42-1.34 0-3.46.52-.8.2-1.24.2-.59 0-1.01-.44-.42-.43-.42-1.1 0-.38.14-.66.15-.28.42-.44.27-.17 1.1-.4 1.1-.32 2.26-.5 1.16-.2 2.1-.2 2.79 0 4.34 1.23 1.54 1.2 1.54 3.3v6.18h.52q1.08 0 1.55.42.46.4.46 1.08 0 .67-.46 1.1-.47.4-1.55.4h-3.52Zm0-5.38q-1.8-.35-3.34-.35-1.82 0-3.14.9-.82.56-.82 1.16 0 .42.4.69.72.48 2 .48 1.08 0 2.46-.42 1.37-.44 2.43-1.17v-1.29Zm12.26-7.92v1q.81-.7 1.8-1.04 1-.36 2.15-.36 2.66 0 4.22 1.65 1.22 1.33 1.22 3.47v5.58q.95 0 1.4.42.47.4.47 1.08 0 .67-.46 1.1-.47.4-1.55.4h-2.7q-1.1 0-1.57-.4-.45-.43-.45-1.12 0-.65.45-1.06.46-.42 1.4-.42v-5.67q0-.99-.5-1.44-.7-.58-2.08-.58-1.04 0-1.83.4-.78.4-1.97 1.71v5.58q1.16 0 1.48.22.72.44.72 1.28 0 .67-.47 1.1-.45.4-1.53.4h-3.42q-1.08 0-1.55-.4-.45-.43-.45-1.12 0-.8.7-1.26.35-.22 1.5-.22v-7.3q-.95 0-1.4-.42-.46-.42-.46-1.1 0-.65.46-1.05.47-.43 1.56-.43h2.86Zm27.92-5.7v16h.52q1.06 0 1.53.42.47.4.47 1.08 0 .67-.47 1.1-.46.4-1.53.4h-3.52v-.73q-1.03.6-2.16.9-1.1.31-2.3.31-3.38 0-5.46-1.95-2.06-1.95-2.06-4.87 0-3.05 2.17-5.2 2.17-2.16 5.28-2.16 1.17 0 2.3.36 1.14.36 2.23 1.07v-3.73h-.51q-1.08 0-1.55-.4-.45-.43-.45-1.08 0-.7.45-1.1.47-.42 1.55-.42h3.51Zm-3 12.75q0-1.86-1.31-3.14-1.3-1.3-3.19-1.3-1.87 0-3.19 1.3-1.3 1.28-1.3 3.1 0 1.65 1.18 2.71 1.17 1.06 3.31 1.06 2.13 0 3.31-1.06 1.2-1.06 1.2-2.67Zm10.33-12.75v6.73q1.1-.71 2.22-1.07 1.14-.36 2.3-.36 3.12 0 5.3 2.15 2.16 2.16 2.16 5.2 0 2.93-2.08 4.88-2.06 1.95-5.43 1.95-1.2 0-2.33-.3-1.11-.3-2.14-.91v.73h-3.52q-1.1 0-1.56-.4-.45-.43-.45-1.12 0-.65.47-1.06.46-.42 1.54-.42h.52v-13h-.52q-1.1 0-1.56-.4-.45-.43-.45-1.1 0-.67.45-1.08.47-.42 1.56-.42h3.52Zm8.97 12.75q0-1.86-1.3-3.14-1.3-1.3-3.19-1.3-1.87 0-3.18 1.3-1.3 1.28-1.3 3.1 0 1.65 1.17 2.71t3.31 1.06q2.14 0 3.32-1.06 1.17-1.06 1.17-2.67Zm12.19-7.05v1.88q1.89-1.36 2.98-1.81 1.1-.47 2.05-.47 1.46 0 2.84 1.1.94.72.94 1.47 0 .66-.46 1.11-.43.44-1.07.44-.55 0-1.18-.55-.6-.56-1.09-.56-.62 0-1.89.8-1.25.78-3.13 2.36v4.53h4.29q1.07 0 1.53.42.47.4.47 1.08 0 .67-.47 1.1-.46.4-1.53.4h-9.07q-1.09 0-1.56-.4-.45-.43-.45-1.12 0-.65.45-1.06.47-.42 1.56-.42h1.78v-7.3h-1.07q-1.1 0-1.57-.42-.45-.42-.45-1.1 0-.65.45-1.05.47-.43 1.57-.43h4.07Zm21.32 13.3v-.7q-1.12.6-2.48.89-1.36.31-2.49.31-2.4 0-3.92-1.28-1.51-1.28-1.51-2.85 0-1.89 1.92-3.5 1.94-1.62 5.34-1.62 1.36 0 3.14.3v-.72q0-.67-.58-1.1-.57-.42-2.2-.42-1.33 0-3.45.52-.8.2-1.24.2-.59 0-1.01-.44-.42-.43-.42-1.1 0-.38.14-.66.15-.28.42-.44.26-.17 1.1-.4 1.1-.32 2.26-.5 1.15-.2 2.1-.2 2.79 0 4.34 1.23 1.54 1.2 1.54 3.3v6.18h.52q1.08 0 1.55.42.46.4.46 1.08 0 .67-.46 1.1-.47.4-1.55.4h-3.52Zm0-5.38q-1.8-.35-3.33-.35-1.82 0-3.14.9-.82.56-.82 1.16 0 .42.4.69.72.48 2 .48 1.08 0 2.46-.42 1.37-.44 2.43-1.17v-1.29Zm12.83.38v5h-3.51q-1.08 0-1.55-.4-.45-.43-.45-1.12 0-.65.46-1.06.47-.42 1.54-.42h.51v-13h-.51q-1.08 0-1.55-.4-.45-.43-.45-1.1 0-.67.45-1.08.47-.42 1.55-.42h3.51v10.12l2.34-1.89q-.35-.62-.35-1.03 0-.67.45-1.08.45-.42 1.53-.42h3.44q1.08 0 1.53.42.47.41.47 1.08 0 .66-.47 1.08-.45.42-1.53.42h-.85l-3.64 2.96 4.9 4.34h.88q1.08 0 1.54.42.46.4.46 1.08 0 .67-.46 1.1-.46.4-1.54.4h-3.45q-1.1 0-1.56-.4-.45-.43-.45-1.12 0-.56.5-1.12l-3.18-2.81-.56.45Zm28-.13h-12.31q.47 1.18 1.65 1.9 1.2.71 3.24.71 1.67 0 4.44-.71 1.14-.3 1.57-.3.61 0 1.02.42.4.42.4 1.08 0 .58-.43.98-.58.55-2.86 1.05-2.27.48-4.36.48-3.6 0-5.77-2.03-2.15-2.04-2.15-5.01 0-3.17 2.33-5.16 2.34-1.98 5.39-1.98 1.83 0 3.36.65 1.53.64 2.28 1.4 1.04 1.07 1.73 2.67.47 1.12.47 2.57v1.29Zm-3.31-3q-.69-1.3-1.81-1.92-1.11-.64-2.64-.64-1.54 0-2.65.64-1.1.63-1.8 1.92h8.9Z"/></svg>