<svg fill="none" stroke-linecap="square" stroke-miterlimit="10" width="600" height="371" xmlns="http://www.w3.org/2000/svg"><path fill="#242424" d="M0 0h600v371H0V0Z"/><path stroke="#f0f0f0" stroke-linecap="butt" d="M77.5 272.5h504"/><path stroke="#575757" stroke-linecap="butt" d="M77.5 230.5h504m-504-43h504m-504-42h504m-504-42h504m-504-43h504"/><clipPath id="a"><path d="M77.5 61h504v211.4h-504V61Z"/></clipPath><path clip-path="url(#a)" d="M157 272h-52V84c0-1.1.9-2 2-2h48a2 2 0 0 1 2 2Z"/><path fill="#4a86e8" clip-path="url(#a)" d="M157 272h-52V84c0-1.1.9-2 2-2h48a2 2 0 0 1 2 2Z"/><path clip-path="url(#a)" d="M236 272h-52V81c0-1.1.9-2 2-2h48a2 2 0 0 1 2 2Z"/><path fill="#783f04" clip-path="url(#a)" d="M236 272h-52V81c0-1.1.9-2 2-2h48a2 2 0 0 1 2 2Z"/><path clip-path="url(#a)" d="M316 272h-52V79c0-1.1.9-2 2-2h48a2 2 0 0 1 2 2Z"/><path fill="#f90" clip-path="url(#a)" d="M316 272h-52V79c0-1.1.9-2 2-2h48a2 2 0 0 1 2 2Z"/><path clip-path="url(#a)" d="M395 272h-52V118c0-1.1.9-2 2-2h48a2 2 0 0 1 2 2Z"/><path fill="#666" clip-path="url(#a)" d="M395 272h-52V118c0-1.1.9-2 2-2h48a2 2 0 0 1 2 2Z"/><path clip-path="url(#a)" d="M475 272h-52v-79c0-1.1.9-2 2-2h48a2 2 0 0 1 2 2Z"/><path fill="#999" clip-path="url(#a)" d="M475 272h-52v-79c0-1.1.9-2 2-2h48a2 2 0 0 1 2 2Z"/><path clip-path="url(#a)" d="M554 272h-52v-86c0-1.1.9-2 2-2h48a2 2 0 0 1 2 2Z"/><path fill="#00f" clip-path="url(#a)" d="M554 272h-52v-86c0-1.1.9-2 2-2h48a2 2 0 0 1 2 2Z"/><path stroke="#4a86e8" stroke-width="3" stroke-linejoin="round" stroke-linecap="round" d="M122 96.4h3.8v-.5h.4v1h-4.7V96l3-2.7.8-1 .4-.5v-.5q0-.6-.5-1-.5-.6-1.2-.6-.6 0-1.1.4-.5.4-.7 1v.1h-.4V91l.2-.7q.4-.5.9-.8.5-.3 1.1-.3 1 0 1.6.7.7.6.7 1.4 0 .4-.2.7l-.3.6-1 1-2.8 2.6h0Zm7 0h3.8v-.5h.4v1h-4.7V96l3-2.7.8-1 .4-.5v-.5q0-.6-.5-1-.5-.6-1.2-.6-.6 0-1.1.4-.5.4-.7 1v.1h-.4V91l.2-.7q.4-.5.9-.8.5-.3 1.1-.3 1 0 1.6.7.7.6.7 1.4 0 .4-.2.7l-.3.6-1 1-2.8 2.6h0Zm7.8-6.4v2.4l.8-.2.7-.1q1 0 1.6.6.6.7.6 1.7 0 1.2-.7 2-.7.6-1.8.6-.7 0-1.3-.3l-.8-.5-.2-.3v-.2h.4q.9.9 2 .9.8 0 1.4-.6.5-.6.5-1.6 0-.8-.5-1.3t-1.2-.5q-.8 0-1.6.3l-.2.1h-.2v-3.5h3.6l.1.3v.1l-.3.1h-3Z"/><path fill="#fff" d="M122 96.4h3.8v-.5h.4v1h-4.7V96l3-2.7.8-1 .4-.5v-.5q0-.6-.5-1-.5-.6-1.2-.6-.6 0-1.1.4-.5.4-.7 1v.1h-.4V91l.2-.7q.4-.5.9-.8.5-.3 1.1-.3 1 0 1.6.7.7.6.7 1.4 0 .4-.2.7l-.3.6-1 1-2.8 2.6Zm7 0h3.8v-.5h.4v1h-4.7V96l3-2.7.8-1 .4-.5v-.5q0-.6-.5-1-.5-.6-1.2-.6-.6 0-1.1.4-.5.4-.7 1v.1h-.4V91l.2-.7q.4-.5.9-.8.5-.3 1.1-.3 1 0 1.6.7.7.6.7 1.4 0 .4-.2.7l-.3.6-1 1-2.8 2.6Zm7.8-6.4v2.4l.8-.2.7-.1q1 0 1.6.6.6.7.6 1.7 0 1.2-.7 2-.7.6-1.8.6-.7 0-1.3-.3l-.8-.5-.2-.3v-.2h.4q.9.9 2 .9.8 0 1.4-.6.5-.6.5-1.6 0-.8-.5-1.3t-1.2-.5q-.8 0-1.6.3l-.2.1h-.2v-3.5h3.6l.1.3v.1l-.3.1h-3Z"/><path stroke="#783f04" stroke-width="3" stroke-linejoin="round" stroke-linecap="round" d="M201 93h3.8v-.5h.4v1h-4.7v-.7l3-2.8.8-1q.3-.2.4-.5v-.4q0-.7-.5-1.2-.5-.4-1.2-.4-.6 0-1.1.3-.5.4-.7 1v.1h-.4v-.1l.2-.8q.4-.5.9-.8.5-.2 1.1-.2 1 0 1.6.6.7.6.7 1.4 0 .4-.2.7 0 .3-.3.6l-1 1L201 93h0Zm7 0h3.8v-.5h.4v1h-4.7v-.7l3-2.8.8-1q.3-.2.4-.5v-.4q0-.7-.5-1.2-.5-.4-1.2-.4-.6 0-1.1.3-.5.4-.7 1v.1h-.4v-.1l.2-.8q.4-.5.9-.8.5-.2 1.1-.2 1 0 1.6.6.7.6.7 1.4 0 .4-.2.7 0 .3-.3.6l-1 1L208 93h0Zm11.1-3.7q-.4.7-.9 1-.5.4-1 .4-.6 0-1-.3-.5-.3-.8-.9-.3-.5-.3-1.2 0-.9.6-1.6.5-.7 1.5-.7.6 0 1.2.4.5.4.8 1.2.4 1 .4 2.3 0 1-.3 1.8l-.7.9-1 .7q-.7.4-1.5.4-.5 0-.8-.2-.2-.1-.2-.3v-.1l.3-.1h.2q.2.2.5.2 1.2 0 2.1-1 1-.8 1-2.2v-.7Zm0-.8q-.4-1.2-.8-1.6-.5-.4-1.1-.4-.7 0-1.1.5-.5.5-.5 1.3t.5 1.4q.4.5 1 .5.4 0 .7-.2.4-.2.7-.6l.5-.9Z"/><path fill="#fff" d="M201 93h3.8v-.5h.4v1h-4.7v-.7l3-2.8.8-1q.3-.2.4-.5v-.4q0-.7-.5-1.2-.5-.4-1.2-.4-.6 0-1.1.3-.5.4-.7 1v.1h-.4v-.1l.2-.8q.4-.5.9-.8.5-.2 1.1-.2 1 0 1.6.6.7.6.7 1.4 0 .4-.2.7 0 .3-.3.6l-1 1L201 93Zm7 0h3.8v-.5h.4v1h-4.7v-.7l3-2.8.8-1q.3-.2.4-.5v-.4q0-.7-.5-1.2-.5-.4-1.2-.4-.6 0-1.1.3-.5.4-.7 1v.1h-.4v-.1l.2-.8q.4-.5.9-.8.5-.2 1.1-.2 1 0 1.6.6.7.6.7 1.4 0 .4-.2.7 0 .3-.3.6l-1 1L208 93Zm11.1-3.7q-.4.7-.9 1-.5.4-1 .4-.6 0-1-.3-.5-.3-.8-.9-.3-.5-.3-1.2 0-.9.6-1.6.5-.7 1.5-.7.6 0 1.2.4.5.4.8 1.2.4 1 .4 2.3 0 1-.3 1.8l-.7.9-1 .7q-.7.4-1.5.4-.5 0-.8-.2-.2-.1-.2-.3v-.1l.3-.1h.2q.2.2.5.2 1.2 0 2.1-1 1-.8 1-2.2v-.7Zm0-.8q-.4-1.2-.8-1.6-.5-.4-1.1-.4-.7 0-1.1.5-.5.5-.5 1.3t.5 1.4q.4.5 1 .5.4 0 .7-.2.4-.2.7-.6l.5-.9Z"/><path stroke="#f90" stroke-width="3" stroke-linejoin="round" stroke-linecap="round" d="M281 91.3h3.8v-.4l.2-.1h.2v1h-4.7V91l3-2.8.8-1q.3-.2.4-.5v-.4q0-.7-.5-1.2-.5-.4-1.2-.4-.6 0-1.1.3-.5.4-.7 1v.1h-.4V86l.2-.8q.4-.5.9-.8.5-.2 1.1-.2 1 0 1.6.6.6.6.6 1.5v.6l-.4.6-1 1-2.8 2.7h0Zm10.1-3.5q.7.3 1 .8.4.6.4 1.1 0 1-.7 1.6-.7.7-1.8.7-.6 0-1.3-.3l-1-.5v-.4h.4q.9.7 1.9.7.9 0 1.4-.6.6-.5.6-1.2 0-.4-.3-.8-.2-.4-.8-.7l-1-.2h-.3l-.1-.3v-.1l.3-.1h.4q.7 0 1.1-.4.4-.4.4-1 0-.5-.4-1-.5-.3-1.2-.3l-1 .1q-.4.2-.6.5l-.2.2q0 0 0 0h-.2l-.1-.2q0-.3.5-.6.7-.5 1.6-.5 1 0 1.5.5.6.6.6 1.4 0 .5-.2.9-.3.4-.9.7Zm6.2-3.5v7h2v.4h-4.4v-.3l.3-.1h1.7V85l-1.6.5h-.4v-.3l.2-.2 2.2-.7Z"/><path fill="#fff" d="M281 91.3h3.8v-.4l.2-.1h.2v1h-4.7V91l3-2.8.8-1q.3-.2.4-.5v-.4q0-.7-.5-1.2-.5-.4-1.2-.4-.6 0-1.1.3-.5.4-.7 1v.1h-.4V86l.2-.8q.4-.5.9-.8.5-.2 1.1-.2 1 0 1.6.6.6.6.6 1.5v.6l-.4.6-1 1-2.8 2.7Zm10.1-3.5q.7.3 1 .8.4.6.4 1.1 0 1-.7 1.6-.7.7-1.8.7-.6 0-1.3-.3l-1-.5v-.4h.4q.9.7 1.9.7.9 0 1.4-.6.6-.5.6-1.2 0-.4-.3-.8-.2-.4-.8-.7l-1-.2h-.3l-.1-.3v-.1l.3-.1h.4q.7 0 1.1-.4.4-.4.4-1 0-.5-.4-1-.5-.3-1.2-.3l-1 .1q-.4.2-.6.5l-.2.2h-.2l-.1-.2q0-.3.5-.6.7-.5 1.6-.5 1 0 1.5.5.6.6.6 1.4 0 .5-.2.9-.3.4-.9.7Zm6.2-3.5v7h2v.4h-4.4v-.3l.3-.1h1.7V85l-1.6.5h-.4v-.3l.2-.2 2.2-.7Z"/><path stroke="#666" stroke-width="3" stroke-linejoin="round" stroke-linecap="round" d="M362.3 123.3v7h2v.4h-4.4v-.4h2v-6.4l-1.6.5h-.4v-.3l.2-.1 2.2-.7Zm7.8 3.6q.6.3 1 .8.3.5.3 1 0 1-.7 1.5-.7.7-1.6.7-1 0-1.6-.7-.6-.6-.6-1.5 0-.5.3-1t1-.8l-.9-.6q-.3-.5-.3-1.1 0-.8.6-1.4.6-.6 1.5-.6t1.5.6q.6.6.6 1.4 0 .6-.3 1-.2.4-.8.7Zm.6-1.7q0-.6-.4-1-.5-.5-1.2-.5t-1.2.4q-.4.5-.4 1.1 0 .6.4 1 .5.5 1.2.5t1.2-.5q.4-.4.4-1Zm.2 3.5q0-.6-.5-1-.5-.6-1.3-.6-.7 0-1.3.5-.5.5-.5 1.1 0 .7.5 1.2.6.5 1.3.5.7 0 1.2-.5.6-.5.6-1.2Zm3.9-4.8v2.4l.8-.3.7-.1q1 0 1.6.7.6.6.6 1.7t-.7 1.9q-.7.7-1.8.7-.7 0-1.3-.3l-.8-.6-.2-.3v-.2h.4q.9.9 2 .9.8 0 1.4-.6.5-.6.5-1.6 0-.8-.5-1.3t-1.2-.5q-.8 0-1.6.4h-.4v-3.4h3.6l.1.2v.2h-3.3Z"/><path fill="#fff" d="M362.3 123.3v7h2v.4h-4.4v-.4h2v-6.4l-1.6.5h-.4v-.3l.2-.1 2.2-.7Zm7.8 3.6q.6.3 1 .8.3.5.3 1 0 1-.7 1.5-.7.7-1.6.7-1 0-1.6-.7-.6-.6-.6-1.5 0-.5.3-1t1-.8l-.9-.6q-.3-.5-.3-1.1 0-.8.6-1.4.6-.6 1.5-.6t1.5.6q.6.6.6 1.4 0 .6-.3 1-.2.4-.8.7Zm.6-1.7q0-.6-.4-1-.5-.5-1.2-.5t-1.2.4q-.4.5-.4 1.1 0 .6.4 1 .5.5 1.2.5t1.2-.5q.4-.4.4-1Zm.2 3.5q0-.6-.5-1-.5-.6-1.3-.6-.7 0-1.3.5-.5.5-.5 1.1 0 .7.5 1.2.6.5 1.3.5.7 0 1.2-.5.6-.5.6-1.2Zm3.9-4.8v2.4l.8-.3.7-.1q1 0 1.6.7.6.6.6 1.7t-.7 1.9q-.7.7-1.8.7-.7 0-1.3-.3l-.8-.6-.2-.3v-.2h.4q.9.9 2 .9.8 0 1.4-.6.5-.6.5-1.6 0-.8-.5-1.3t-1.2-.5q-.8 0-1.6.4h-.4v-3.4h3.6l.1.2v.2h-3.3Z"/><path stroke="#999" stroke-width="3" stroke-linejoin="round" stroke-linecap="round" d="M447.6 201.9q-.4.6-.9 1-.5.3-1 .3-.6 0-1-.3-.5-.3-.8-.8-.3-.6-.3-1.2 0-1 .6-1.7.5-.7 1.5-.7.6 0 1.2.4.5.4.9 1.2.3 1 .3 2.4 0 1-.3 1.7-.2.5-.7 1-.4.4-1 .6-.7.4-1.5.4-.5 0-.8-.2l-.2-.2v-.2h.5l.5.1q1.2 0 2.1-.9 1-.9 1-2.2v-.7Zm0-.9q-.4-1.2-.9-1.6-.4-.4-1-.4-.7 0-1.1.5-.5.5-.5 1.4 0 .8.5 1.3.4.5 1 .5.4 0 .7-.2l.7-.5.5-1Zm3.5 2q.5-.8 1-1 .5-.4 1-.4.8 0 1.4.6.7.7.7 1.7 0 .8-.6 1.6-.6.7-1.5.7-.7 0-1.2-.4-.6-.4-.9-1.2-.4-1-.4-2.3 0-.9.4-1.7l.7-1q.5-.5 1.1-.8.6-.3 1.4-.3.5 0 .8.2l.1.2v.2h-.4l-.6-.1q-1.1 0-2 1-1 1-1 2.3v.6Zm.1.7q.3 1 .7 1.6.5.4 1.2.4.6 0 1-.5.6-.5.6-1.3t-.5-1.3q-.5-.5-1-.5-.6 0-1.2.5l-.8 1.1Z"/><path fill="#fff" d="M447.6 201.9q-.4.6-.9 1-.5.3-1 .3-.6 0-1-.3-.5-.3-.8-.8-.3-.6-.3-1.2 0-1 .6-1.7.5-.7 1.5-.7.6 0 1.2.4.5.4.9 1.2.3 1 .3 2.4 0 1-.3 1.7-.2.5-.7 1-.4.4-1 .6-.7.4-1.5.4-.5 0-.8-.2l-.2-.2v-.2h.5l.5.1q1.2 0 2.1-.9 1-.9 1-2.2v-.7Zm0-.9q-.4-1.2-.9-1.6-.4-.4-1-.4-.7 0-1.1.5-.5.5-.5 1.4 0 .8.5 1.3.4.5 1 .5.4 0 .7-.2l.7-.5.5-1Zm3.5 2q.5-.8 1-1 .5-.4 1-.4.8 0 1.4.6.7.7.7 1.7 0 .8-.6 1.6-.6.7-1.5.7-.7 0-1.2-.4-.6-.4-.9-1.2-.4-1-.4-2.3 0-.9.4-1.7l.7-1q.5-.5 1.1-.8.6-.3 1.4-.3.5 0 .8.2l.1.2v.2h-.4l-.6-.1q-1.1 0-2 1-1 1-1 2.3v.6Zm.1.7q.3 1 .7 1.6.5.4 1.2.4.6 0 1-.5.6-.5.6-1.3t-.5-1.3q-.5-.5-1-.5-.6 0-1.2.5l-.8 1.1Z"/><path stroke="#00f" stroke-width="3" stroke-linejoin="round" stroke-linecap="round" d="M521.3 191.8v7h2v.4h-4.4v-.4h2v-6.3l-1.6.5h-.4v-.4l.2-.1 2.2-.7Zm9 3.2v1.2q0 1.6-.7 2.5-.6.7-1.5.7l-.8-.1-.7-.5-.3-.6-.3-.8q-.2-.5-.2-1.2V195q0-1.6.8-2.5.6-.8 1.5-.8l.8.2.7.5.3.6.3.8q.2.5.2 1.2Zm-.4 0q0-.7-.2-1.3l-.5-1-.4-.3q-.3-.2-.7-.2-.8 0-1.3.9-.5.8-.5 2v1q0 .7.2 1.3l.5 1q.1.2.4.3.3.2.7.2.8 0 1.3-.8.5-.9.5-2v-1Zm6.1 2.2h-3.3v-.6l2.8-4.7h1v4.8h.7v.4h-.7v1.7h.7v.4h-2.4v-.4h1.3v-1.6Zm0-.5v-4.3h-.2l-2.5 4.3h2.7Z"/><path fill="#fff" d="M521.3 191.8v7h2v.4h-4.4v-.4h2v-6.3l-1.6.5h-.4v-.4l.2-.1 2.2-.7Zm9 3.2v1.2q0 1.6-.7 2.5-.6.7-1.5.7l-.8-.1-.7-.5-.3-.6-.3-.8q-.2-.5-.2-1.2V195q0-1.6.8-2.5.6-.8 1.5-.8l.8.2.7.5.3.6.3.8q.2.5.2 1.2Zm-.4 0q0-.7-.2-1.3l-.5-1-.4-.3q-.3-.2-.7-.2-.8 0-1.3.9-.5.8-.5 2v1q0 .7.2 1.3l.5 1q.1.2.4.3.3.2.7.2.8 0 1.3-.8.5-.9.5-2v-1Zm6.1 2.2h-3.3v-.6l2.8-4.7h1v4.8h.7v.4h-.7v1.7h.7v.4h-2.4v-.4h1.3v-1.6Zm0-.5v-4.3h-.2l-2.5 4.3h2.7ZM306.2 347.2v-4.7h-.2l-.7-.1-.1-.4.1-.5q.2-.2.7-.2h3q1 0 1.7.6t.7 1.5q0 .4-.2.7l-.4.6.8.8q.3.5.3 1l-.2 1-.4.4-.7.4-1.1.1H306l-.7-.1-.1-.5.1-.4q.2-.2.7-.2h.2Zm1.1-3h1.4q.7 0 1.1-.3.4-.2.4-.6 0-.3-.3-.5-.3-.3-1-.3h-1.6v1.8Zm0 3h2.1q.8 0 1-.2.3-.1.3-.4 0-.4-.5-.7-.4-.4-1.3-.4h-1.6v1.7Zm8-4v.7q.8-.6 1.2-.7l.9-.2q.6 0 1.1.4.4.3.4.6t-.2.4l-.4.2q-.3 0-.5-.2l-.4-.2q-.3 0-.8.3l-1.2 1v1.7h1.7q.4 0 .6.2.2.2.2.5l-.2.4-.6.1h-3.7l-.6-.1q-.2-.2-.2-.5l.2-.4q.2-.2.6-.2h.8v-2.9h-.5l-.6-.1q-.2-.2-.2-.5l.2-.4q.2-.2.6-.2h1.7Zm10.4 2.7q0 .7-.4 1.3-.3.7-1.1 1-.8.4-1.6.4t-1.6-.3q-.7-.4-1.1-1-.4-.7-.4-1.4t.4-1.4q.4-.7 1.1-1.1.8-.4 1.6-.4t1.6.4q.8.4 1.1 1 .4.8.4 1.5Zm-1.2 0q0-.6-.4-1-.6-.7-1.5-.7-.8 0-1.4.5-.5.5-.5 1.2 0 .6.6 1 .5.5 1.3.5t1.4-.4q.5-.5.5-1.1Zm5.1.3-.8 2.3h-1.2l-1-4.2-.5-.1-.1-.5.2-.4q.1-.2.6-.2h1.1q.4 0 .6.2l.2.4q0 .3-.2.5l-.6.1.4 2 .8-2h1l.8 2 .5-2h-.6q-.3-.2-.3-.6l.2-.4q.2-.2.6-.2h1.1q.5 0 .6.2l.2.4-.1.4q-.2.2-.5.2l-1 4.1h-1.1l-.9-2.2Zm8.3-1.7-.6-.2-.7-.1q-.7 0-1.1.2l-.2.2.3.3.8.2q1.2.1 1.7.3.6.2 1 .6.3.5.3 1 0 .6-.6 1-.8.6-2.1.6h-1l-.8-.3-.2.1h-.2l-.5-.1-.1-.7v-.4l.1-.6q.2-.2.5-.2.2 0 .3.2.2 0 .3.4l.6.3 1 .1q.8 0 1.2-.2.2-.1.2-.3 0-.2-.3-.4l-1.3-.2q-1.4-.2-1.9-.6-.5-.4-.5-1 0-.7.6-1.1.7-.6 1.9-.6h.8l.7.3.2-.1h.2l.4.1q.2.2.2.6v.3l-.1.6q-.2.2-.5.2l-.4-.1-.2-.4Zm8.7 1.9h-5q.3.5.7.8.5.2 1.3.2l1.8-.2.6-.2q.3 0 .5.2l.1.4-.1.4-1.2.4-1.7.2q-1.5 0-2.4-.8-.8-.8-.8-2t1-2q.9-.8 2-.8.8 0 1.4.2l1 .6q.4.4.6 1l.2 1v.6Zm-1.3-1.2q-.3-.5-.7-.8-.5-.2-1.1-.2-.6 0-1 .2-.5.3-.8.8h3.6Zm5-2v.7q.8-.6 1.2-.7l.9-.2q.6 0 1.1.4.4.3.4.6t-.2.4l-.4.2q-.3 0-.5-.2l-.4-.2q-.3 0-.8.3l-1.2 1v1.7h1.7q.4 0 .6.2.2.2.2.5l-.2.4-.6.1h-3.7l-.6-.1q-.2-.2-.2-.5l.2-.4q.2-.2.6-.2h.8v-2.9h-.5l-.6-.1q-.2-.2-.2-.5l.2-.4q.2-.2.6-.2h1.7ZM25.1 281.6l3.5 1.1v1.3l-6 .8-.1.4-.4.1q-.3 0-.5-.2t-.2-.6V283q0-.4.2-.6.2-.2.5-.2l.4.2.1.6v.6l3.4-.4-2.8-.9V281l2.8-.9-3.4-.4v.6l-.1.7-.4.1-.5-.1q-.2-.2-.2-.7v-1.6q0-.4.2-.6.2-.2.5-.2.2 0 .3.2.2.1.2.4l6 .7v1.3l-3.5 1.2Zm1.4-10v4.9q.5-.2.8-.7.2-.4.2-1.3l-.2-1.7-.2-.7.2-.4.4-.1.4.1.5 1.2.1 1.7q0 1.5-.8 2.3-.8.9-2 .9t-2-1q-.8-.9-.8-2 0-.8.2-1.4.3-.7.6-1 .4-.4 1-.6l1-.2h.6Zm-1.2 1.3q-.5.3-.8.7l-.2 1q0 .7.2 1.1.3.5.8.8v-3.6Zm-4.3-3.8h2.6l-.4-.9-.1-1q0-1.2.8-2 .9-.9 2.1-.9 1.2 0 2 .8.7.8.7 2.2v1l-.4.8h.3v1.4q0 .4-.2.6-.2.2-.5.2l-.4-.2q-.2-.2-.2-.6v-.2h-5.2v.2l-.1.6-.4.2q-.3 0-.5-.2l-.1-.6v-1.4Zm5-3.6q-.7 0-1.2.5t-.5 1.3q0 .8.5 1.3t1.2.5q.7 0 1.1-.5.4-.4.4-1.3t-.4-1.3q-.4-.5-1-.5Zm-1-5.7 2.3-2q0-.4.2-.5.2-.2.5-.2l.4.2q.2.1.2.6v1.3q0 .5-.2.6-.2.2-.5.2l-.4-.1-.2-.5-1.4 1.2 1.4 1.2q0-.4.2-.5.2-.2.5-.2l.4.2q.2.2.2.6v1.3q0 .5-.2.7-.2.2-.5.2l-.4-.2q-.2-.2-.2-.6l-2.4-2-2.3 2-.1.5-.4.1-.5-.1q-.2-.2-.2-.7v-1q0-.5.2-.7.2-.2.5-.2l.3.1.2.4 1.4-1.1-1.4-1.1-.2.3-.3.1q-.3 0-.5-.2-.2-.1-.2-.6v-1q0-.5.2-.7.2-.2.5-.2l.4.2.1.5 2.3 1.9Zm1.1-5.5h1.2V253q0-.5.2-.7l.5-.1.4.1q.2.2.2.7v2.6q0 .4-.2.6-.2.2-.5.2l-.4-.2q-.2-.2-.2-.6v-.2h-4.7v.2l-.1.6-.4.2q-.3 0-.5-.2t-.2-.6v-2.8q0-1.2.7-2 .7-.6 1.6-.6.6 0 1 .2t.7.6q.4.4.5.9.2.4.2 1.1v1.2Zm-1.2 0v-1.1q0-.8-.3-1.3-.4-.4-.9-.4-.4 0-.7.3-.4.4-.4 1v1.5H25Zm1-6.5h1.4v-.4q0-.5.2-.6.2-.2.5-.2l.4.2q.2.1.2.6v1.8q0 .4-.2.6-.2.2-.5.2l-.4-.2q-.2-.2-.2-.6v-.2h-4.7v.2l-.1.6-.4.2q-.3 0-.5-.2t-.2-.6v-2.7q0-1.3.7-2 .6-.7 1.5-.7.6 0 1 .4.5.3.9 1l.8-.9 1-.7.1-.6q.2-.3.6-.3l.4.2q.2.2.2.6v.7q-2.3 1.5-2.8 2.4v1.2Zm-1.3 0v-1l-.1-.9q-.2-.5-.5-.7l-.4-.2q-.4 0-.7.4-.3.3-.3 1v1.4h2Zm-2-8.8h4.7v-.8q0-.4.2-.6.2-.2.5-.2l.4.2q.2.2.2.6v2.8q0 .4-.2.6-.2.2-.5.2l-.4-.2q-.2-.2-.2-.6v-.8h-4.7v1.3h1.2q.4 0 .6.2.2.1.2.4 0 .3-.2.4-.2.2-.6.2h-2.4v-6.2h2.4q.4 0 .6.2.2.1.2.4l-.2.4q-.2.2-.6.2h-1.2v1.3ZM21 223.8h4.7l.1-.5q.2-.2.5-.2l.4.2q.2.1.2.5h.4q0-.4.2-.5.2-.2.5-.2l.4.2q.2.1.2.6v1.6q0 .4-.2.6-.2.2-.5.2l-.4-.2q-.2-.2-.2-.6v-.5H27v3.3h-1l-5-2.9v-1.6Zm4.7 1.2h-3l3 1.8V225Zm0-13q-1 0-2.1-.3l-1.8-.8-.8-.6q-.2-.1-.2-.4l.2-.4.4-.2.4.2q1 .6 2 .9 1 .3 1.8.3 1 0 1.9-.3.9-.3 2-1h.3l.5.1.1.4-.1.4-1 .6-1.6.8q-1 .3-2 .3Zm0-8.7v2.5h1.6v-.1q0-.5.2-.7.2-.2.5-.2l.4.2q.2.2.2.7v1.4q0 .4-.2.6-.2.2-.5.2t-.5-.3v-.6h-4.8l-.1.5-.4.2q-.3 0-.5-.2t-.2-.6v-1.2q0-.5.2-.7.2-.2.5-.2l.4.2.1.7v.1h1.8v-2.5h-1.8v.1l-.1.7-.4.2q-.3 0-.5-.2t-.2-.7v-1.2q0-.4.2-.6.2-.2.5-.2l.4.2.1.5h4.7l.1-.6q.2-.3.6-.3l.4.2q.2.1.2.6v1.4q0 .5-.2.7-.2.2-.5.2l-.4-.2q-.2-.2-.2-.7v-.1h-1.7Zm-4.7-6.1h1.2v1.4H21v-1.4Zm2.2-.2h4.1v-1.5q0-.4.2-.6.2-.2.5-.2l.4.2q.2.2.2.6v4.1q0 .5-.2.6-.2.2-.5.2l-.4-.2q-.2-.1-.2-.6v-1.4h-2.9v1l-.1.6q-.2.2-.5.2l-.4-.2q-.2-.2-.2-.6V197Zm.4-7.7h-.4v-1.4q0-.5.2-.7l.4-.1.5.1.1.7v.2h4.4q.6 0 1.1.2.5.3.8.9.4.5.4 1.2v1.3q0 .5-.2.7l-.4.1-.5-.1-.1-.7v-1.3q0-.5-.3-.8-.3-.3-.8-.3h-.6l.4.8.1.8q0 1.2-.8 2-.8.9-2 .9t-2-.8q-.8-.9-.8-2v-1l.5-.7Zm2.3 0q-.7 0-1.2.5-.4.4-.4 1.1 0 .7.4 1.2.5.5 1.2.5t1.1-.5q.5-.5.5-1.2t-.5-1.1q-.4-.5-1.1-.5Zm-5-4.5h2.6l-.3-.7-.1-.8q0-.6.2-1.1.2-.5.6-.8.5-.3 1.2-.3h2.2l.1-.7q.2-.2.6-.2l.4.2q.2.1.2.6v1.3q0 .5-.2.7l-.5.1q-.3 0-.5-.2v-.6h-2.2q-.5 0-.7.2-.2.2-.2.8l.1.7.7.8h2.2l.1-.6q.2-.3.6-.3l.4.2q.2.2.2.6v1.4q0 .4-.2.6-.2.2-.5.2t-.5-.3v-.6H22v.2l-.1.7-.4.1-.5-.1-.1-.7v-1.4Zm5.6-11.2v4.9q.5-.2.8-.7.2-.4.2-1.3l-.2-1.7-.2-.7.2-.4.4-.1.4.1.5 1.2.1 1.7q0 1.5-.8 2.3-.8.9-2 .9t-2-1q-.8-.9-.8-2 0-.8.2-1.4.3-.7.6-1 .4-.4 1-.6l1-.2h.6Zm-1.2 1.3q-.5.3-.8.7l-.2 1q0 .7.2 1.1.3.5.8.8v-3.6Zm-2-5h.7q-.6-.8-.7-1.3l-.2-.8q0-.6.4-1.1.3-.4.6-.4t.5.2l.1.4-.2.5-.2.4q0 .3.3.8l1 1.2h1.7v-1.7q0-.4.2-.6.2-.2.5-.2l.4.2q.2.2.2.6v3.6q0 .5-.2.7l-.5.1-.4-.1q-.2-.2-.2-.7v-.7h-2.9v.5l-.1.6q-.2.2-.5.2l-.4-.2q-.2-.2-.2-.6v-1.7ZM21 155.1h1.2v1.4H21v-1.4Zm2.2-.2h4.1v-1.5q0-.4.2-.6.2-.2.5-.2l.4.2q.2.2.2.6v4.1q0 .5-.2.6-.2.2-.5.2l-.4-.2q-.2-.1-.2-.6v-1.4h-2.9v1l-.1.6q-.2.2-.5.2l-.4-.2q-.2-.2-.2-.6V155Zm1.4-7.7-.2.6-.1.7q0 .7.2 1l.2.3.3-.3.2-.8q.1-1.2.3-1.7.2-.6.6-1 .5-.3 1-.3.6 0 1 .6.6.8.6 2.1v1l-.3.8.1.2v.2l-.1.4q-.2.2-.7.2h-.4q-.4 0-.6-.2-.2-.1-.2-.4l.2-.4.4-.2.3-.7.1-.9q0-.8-.2-1.2-.1-.3-.3-.3-.2 0-.4.4l-.2 1.2q-.2 1.5-.6 2-.4.5-1 .5-.7 0-1.1-.6-.6-.7-.6-2v-.7l.3-.8-.1-.2v-.1l.1-.4q.2-.2.6-.2h1l.2.6-.1.4-.4.2Zm2.7-10.3h-4.7v.2l-.1.6-.4.2q-.3 0-.5-.2-.2-.1-.2-.6v-3q0-1 .7-1.7.5-.7 1.4-.7.4 0 .7.2.4.1.6.4l.8-.8q.5-.3 1-.3l1 .2.4.4.4.7q.2.4.2 1.1v3.5q0 .5-.2.6-.2.2-.5.2l-.4-.2q-.2-.1-.2-.6v-.2Zm-3-1.2v-1.3q0-.7-.3-1.2-.2-.3-.6-.3-.3 0-.5.3-.3.3-.3 1v1.5h1.8Zm3 0v-2q0-.8-.2-1-.1-.3-.4-.3-.4 0-.7.4-.4.5-.4 1.3v1.6h1.7Zm-.8-11.2v4.9q.5-.2.8-.7.2-.4.2-1.3l-.2-1.7-.2-.7.2-.4.4-.1.4.1.5 1.2.1 1.7q0 1.5-.8 2.3-.8.9-2 .9t-2-1q-.8-.9-.8-2 0-.8.2-1.4.3-.7.6-1 .4-.4 1-.6l1-.2h.6Zm-1.2 1.3q-.5.3-.8.7l-.2 1q0 .7.2 1.1.3.5.8.8v-3.6Zm-.9-5h2.4q.4 0 .5-.2.2-.2.2-.9 0-.9-.4-1.7l-.1-.4q0-.3.2-.4.1-.2.4-.2l.4.2q.3.3.5 1.1l.2 1.4q0 1.2-.4 1.7-.5.6-1.2.6h-2.7v.4l-.1.6q-.2.2-.5.2l-.4-.2q-.2-.2-.2-.6v-.4h-1q-.5 0-.7-.2l-.2-.4q0-.3.2-.5l.6-.1h1.1v-2.2q0-.5.2-.7l.4-.1.5.1.1.7v2.2Zm0-7h2.4q.4 0 .5-.2.2-.2.2-.9 0-.9-.4-1.7l-.1-.4q0-.3.2-.4.1-.2.4-.2l.4.2q.3.3.5 1.1l.2 1.4q0 1.2-.4 1.7-.5.6-1.2.6h-2.7v.4l-.1.6q-.2.2-.5.2l-.4-.2q-.2-.2-.2-.6v-.4h-1q-.5 0-.7-.2l-.2-.4q0-.3.2-.5l.6-.1h1.1v-2.2q0-.5.2-.7l.4-.1.5.1.1.7v2.2Zm2.1-10.3v4.9q.5-.2.8-.7.2-.4.2-1.3l-.2-1.7-.2-.7.2-.4.4-.1.4.1.5 1.2.1 1.7q0 1.5-.8 2.3-.8.9-2 .9t-2-1q-.8-.9-.8-2 0-.8.2-1.4.3-.7.6-1 .4-.4 1-.6l1-.2h.6Zm-1.2 1.3q-.5.3-.8.7l-.2 1q0 .7.2 1.1.3.5.8.8v-3.6Zm-2-5h.7q-.6-.8-.7-1.3l-.2-.8q0-.6.4-1.1.3-.4.6-.4t.5.2l.1.4-.2.5-.2.4q0 .3.3.8l1 1.2h1.7V98q0-.4.2-.6.2-.2.5-.2l.4.2q.2.2.2.6v3.6q0 .5-.2.7l-.5.1-.4-.1q-.2-.2-.2-.7v-.7h-2.9v.5l-.1.6q-.2.2-.5.2l-.4-.2q-.2-.2-.2-.6v-1.7Zm2.3-7.8q1 0 2.1.3l1.7.8.9.6.1.4-.1.4q-.2.2-.5.2l-.4-.2q-1-.6-2-.9-.8-.3-1.8-.3-.9 0-1.8.3-1 .3-2 1h-.4l-.4-.1-.2-.4q0-.3.2-.4.2-.3 1-.6l1.6-.8q1-.3 2-.3Zm44.8 179.2v1.2q0 1.6-.7 2.5-.6.7-1.5.7-.5 0-.9-.2l-.6-.4-.4-.6-.3-.8-.1-1.2v-1.2q0-1.6.7-2.5.6-.8 1.5-.8.5 0 .9.2l.6.5.4.6.3.8.1 1.2Zm-.5 0q0-.7-.2-1.3l-.4-1-.4-.3q-.3-.2-.8-.2-.8 0-1.3.9-.4.8-.4 2v1q0 .7.2 1.3l.4 1 .4.3q.3.2.8.2.8 0 1.3-.8.4-.9.4-2v-1Zm-10.1-44.9v2.4l.8-.3h.8q1 0 1.5.6.6.6.6 1.7 0 1.2-.7 1.9t-1.7.7q-.7 0-1.3-.3l-.9-.5-.2-.4v-.1l.2-.1.2.1q1 .8 2 .8.8 0 1.4-.6.6-.6.6-1.5t-.5-1.4q-.5-.5-1.3-.5-.7 0-1.5.4l-.3.1h-.1l-.1-.3v-3.2H63v.4h-3.2Zm10.6 2.6v1.2q0 1.6-.7 2.5-.6.7-1.5.7-.5 0-.9-.2l-.6-.4-.4-.7-.3-.7-.1-1.2v-1.2q0-1.6.7-2.6.6-.7 1.5-.7.5 0 .9.2l.6.5.4.6.3.8.1 1.2Zm-.5 0q0-.7-.2-1.3l-.4-1-.4-.3q-.3-.2-.8-.2-.8 0-1.3.9-.4.8-.4 2v1q0 .7.2 1.3l.4 1 .4.3q.3.2.8.2.8 0 1.3-.8.4-.9.4-2v-1Zm-15.5-45.5v7h1.9l.1.2v.2H52l-.1-.2v-.2h2V184l-1.6.5H52l-.1-.2v-.2l.2-.1 2.3-.7Zm9 3.2v1.2q0 1.6-.7 2.5-.6.7-1.5.7-.5 0-.9-.2l-.6-.4-.4-.7-.3-.8-.1-1.1v-1.2q0-1.6.7-2.6.6-.7 1.5-.7.5 0 .9.2.3.1.6.5l.4.6.3.8.1 1.2Zm-.5 0q0-.7-.2-1.3l-.4-1-.4-.3q-.3-.2-.8-.2-.8 0-1.3.8-.4.9-.4 2v1.1q0 .7.2 1.3l.4 1 .4.3q.3.2.8.2.8 0 1.3-.8.4-.9.4-2v-1Zm7.5 0v1.2q0 1.6-.7 2.5-.6.7-1.5.7-.5 0-.9-.2l-.6-.4-.4-.7-.3-.8-.1-1.1v-1.2q0-1.6.7-2.6.6-.7 1.5-.7.5 0 .9.2.3.1.6.5l.4.6.3.8.1 1.2Zm-.5 0q0-.7-.2-1.3l-.4-1-.4-.3q-.3-.2-.8-.2-.8 0-1.3.8-.4.9-.4 2v1.1q0 .7.2 1.3l.4 1 .4.3q.3.2.8.2.8 0 1.3-.8.4-.9.4-2v-1ZM54.4 141v7H56l.2.1.1.2v.2H52l-.1-.2v-.2h2v-6.4l-1.6.6H52l-.1-.3v-.1l.2-.1 2.3-.7Zm5.4.7v2.4l.8-.3h.8q1 0 1.5.6.6.6.6 1.7t-.7 1.9q-.7.7-1.7.7-.7 0-1.3-.3l-.9-.5-.2-.4v-.1l.2-.1h.2q1 1 2 1 .8 0 1.4-.7.6-.6.6-1.5t-.5-1.4q-.5-.5-1.3-.5-.7 0-1.5.4l-.3.1h-.1l-.1-.3v-3.2H63v.4h-3.2Zm10.6 2.5v1.3q0 1.5-.7 2.5-.6.7-1.5.7-.5 0-.9-.2-.3-.1-.6-.5-.2-.1-.4-.6l-.3-.8-.1-1.1v-1.3q0-1.5.7-2.5.6-.7 1.5-.7.5 0 .9.2.3.1.6.5l.4.6.3.8.1 1.1Zm-.5.1q0-.7-.2-1.3l-.4-1-.4-.3q-.3-.2-.8-.2-.8 0-1.3.8-.4.9-.4 2v1q0 .8.2 1.4l.4 1 .4.3q.3.2.8.2.8 0 1.3-.8.4-.9.4-2v-1ZM52 105.7h3.8v-.4h.4l.1.2v.7h-4.8v-.7l3-2.7.9-1 .3-.5.1-.5q0-.6-.5-1.1-.5-.5-1.2-.5t-1.2.4q-.5.3-.6.9l-.1.2h-.3l-.1-.2q0-.3.3-.8t.8-.7q.6-.3 1.2-.3.9 0 1.5.6.7.7.7 1.5l-.1.6-.4.6-1 1q-1.7 1.8-2.8 2.7Zm11.4-3.8v1.3q0 1.5-.7 2.5-.6.7-1.5.7-.5 0-.9-.2-.3-.1-.6-.5-.2-.1-.4-.6l-.3-.8-.1-1.1v-1.3q0-1.6.7-2.5.6-.7 1.5-.7.5 0 .9.2l.6.4.4.7.3.8.1 1.1Zm-.5.1q0-.7-.2-1.3l-.4-1-.4-.3q-.3-.2-.8-.2-.8 0-1.3.8-.4.9-.4 2v1q0 .8.2 1.4l.4 1 .4.3q.3.2.8.2.8 0 1.3-.8.4-.9.4-2V102Zm7.5 0v1.2q0 1.5-.7 2.5-.6.7-1.5.7-.5 0-.9-.2-.3-.1-.6-.5-.2-.1-.4-.6l-.3-.8-.1-1.1v-1.3q0-1.6.7-2.5.6-.7 1.5-.7.5 0 .9.2l.6.4.4.7.3.8.1 1.1Zm-.5 0q0-.7-.2-1.3l-.4-1-.4-.3q-.3-.2-.8-.2-.8 0-1.3.8-.4.9-.4 2v1q0 .8.2 1.4l.4 1 .4.3q.3.2.8.2.8 0 1.3-.8.4-.9.4-2V102ZM52 63.4h3.8V63l.3-.1h.1l.1.3v.7h-4.8v-.7l3-2.8.9-1 .3-.4.1-.5q0-.6-.5-1.1-.5-.5-1.2-.5t-1.2.4q-.5.3-.6.9l-.1.2h-.3l-.1-.2q0-.3.3-.8t.8-.7q.6-.3 1.2-.3.9 0 1.5.6.7.7.7 1.5l-.1.6-.4.6-1 1-2.8 2.7Zm7.8-6.3v2.4l.8-.3.8-.1q1 0 1.5.7.6.6.6 1.7t-.7 1.9q-.7.7-1.7.7-.7 0-1.3-.3-.5-.2-.9-.6l-.2-.3v-.2h.4q1 .9 2 .9.8 0 1.4-.6.6-.6.6-1.6 0-.8-.5-1.3t-1.3-.5q-.7 0-1.5.4h-.4l-.1-.2v-3.2H63v.4h-3.2Zm10.6 2.5V61q0 1.5-.7 2.5-.6.7-1.5.7-.5 0-.9-.2l-.6-.5-.4-.6-.3-.8v-2.4q0-1.6.7-2.5.6-.7 1.5-.7.5 0 .9.2l.6.4.4.7.3.7.1 1.2Zm-.5.1q0-.7-.2-1.3l-.4-1-.4-.3q-.3-.2-.8-.2-.8 0-1.3.8-.4.9-.4 2v1q0 .8.2 1.4l.4 1 .4.3q.3.2.8.2.8 0 1.3-.8.4-.9.4-2v-1.1Zm38.7 222 .2-.3h.3l.5.1.1.6v1l-.1.7q-.2.2-.5.2l-.4-.2-.2-.5-.1-.4-.7-.4-.9-.1-1 .2q-.4.2-.8.8-.3.5-.3 1.2v.8q0 .9.6 1.4.7.6 1.8.6.6 0 1.1-.2.3 0 .6-.4l.3-.2h.2l.4.1.2.4-.2.6q-.4.4-1 .6-.7.3-1.6.3-1.1 0-2-.4-.6-.4-1.1-1.1-.5-.8-.5-1.7v-.8q0-1 .4-1.7.5-.9 1.2-1.3.8-.4 1.7-.4h1l.8.5Zm3.9-.8v2.5l.7-.3.8-.1q.6 0 1.1.2.5.2.8.6.3.5.3 1.2v2.2l.6.1q.3.2.3.6l-.2.4-.6.1H115l-.7-.1-.1-.5q0-.3.2-.5h.6V285q0-.5-.2-.7-.2-.2-.8-.2l-.7.1-.8.7v2.2l.6.1q.3.2.3.6l-.2.4-.6.1h-1.4l-.6-.1q-.2-.2-.2-.5t.3-.5h.6V282h-.2l-.7-.1-.1-.4.1-.5.7-.1h1.4Zm8 2.2v.8q.7-.6 1.2-.7l.8-.2q.6 0 1.1.4.4.3.4.6t-.2.4l-.4.2-.5-.2-.4-.2q-.3 0-.8.3l-1.2 1v1.7h1.7q.4 0 .6.2.2.2.2.5l-.2.4-.6.1h-3.6l-.7-.1-.1-.5.1-.4q.2-.2.7-.2h.7v-2.9h-.5l-.6-.1q-.2-.2-.2-.5l.2-.4q.2-.2.6-.2h1.7Zm10.3 2.8q0 .7-.4 1.3-.3.7-1.1 1-.7.4-1.6.4-.8 0-1.5-.3-.8-.4-1.2-1-.4-.7-.4-1.4t.4-1.4q.4-.7 1.2-1.1.7-.4 1.5-.4.9 0 1.6.4.8.4 1.1 1 .4.8.4 1.5Zm-1.2 0q0-.6-.4-1-.6-.7-1.5-.7-.8 0-1.3.5-.6.5-.6 1.2 0 .6.6 1 .5.5 1.3.5t1.4-.4q.5-.5.5-1.1Zm3.3-2.8v.4l.5-.4.5-.1h.6l.5.5.6-.4.7-.1q.6 0 1 .3.6.5.6 1.3v2.6q.4 0 .5.2.2.2.2.5l-.2.4-.6.1h-1.1v-3.7l-.1-.4-.3-.1h-.4l-.5.6v2.4q.4 0 .5.2.2.2.2.5l-.2.4-.6.1h-1.1v-3.7l-.1-.4-.3-.1-.5.1-.4.5v2.4q.3 0 .5.2t.2.5l-.2.4-.6.1h-1l-.7-.1q-.2-.2-.2-.5l.2-.4q.2-.2.6-.2v-2.9l-.6-.1q-.2-.2-.2-.5l.2-.4q.2-.2.6-.2h1.2Zm9.2-2.2v1.2h-1.4V281h1.4Zm.2 2.2v4.1h1.5q.4 0 .6.2.2.2.2.5l-.2.4-.6.1h-4.1l-.6-.1q-.2-.2-.2-.5l.2-.4q.1-.2.6-.2h1.4v-2.9h-1l-.6-.1q-.2-.2-.2-.5l.2-.4q.2-.2.6-.2h2.2Zm9 0v4.1q.3 0 .5.2t.2.5l-.2.4-.6.1h-1.1v-.2l-1 .3-1 .1-1-.2q-.4-.3-.6-.7-.2-.3-.2-.8v-2.6h-.2l-.6-.1q-.2-.2-.2-.5l.2-.4q.2-.2.6-.2h1.4v3.6q0 .4.2.6l.6.1.7-.1q.5-.1 1-.5v-2.5h-.4l-.6-.1q-.2-.2-.2-.5l.2-.4q.2-.2.6-.2h1.7Zm2.6 0v.4l.5-.4.5-.1h.6l.5.5.6-.4.7-.1q.6 0 1 .3.6.5.6 1.3v2.6q.4 0 .5.2.2.2.2.5l-.2.4-.6.1h-1.1v-3.7l-.1-.4-.3-.1h-.4l-.5.6v2.4q.4 0 .5.2.2.2.2.5l-.2.4-.6.1h-1.1v-3.7l-.1-.4-.3-.1-.5.1-.4.5v2.4q.3 0 .5.2t.2.5l-.2.4-.6.1h-1l-.7-.1q-.2-.2-.2-.5l.2-.4q.2-.2.6-.2v-2.9l-.6-.1q-.2-.2-.2-.5l.2-.4q.2-.2.6-.2h1.2Zm36.3-.6v4.7h.8q.4 0 .6.2.2.2.2.5l-.2.4-.6.1h-2.8l-.7-.1q-.2-.2-.2-.5l.2-.4q.2-.2.7-.2h.8v-4.7h-1.3v1.2q0 .4-.2.6-.2.2-.5.2l-.4-.2-.1-.6v-2.4h6.2v2.4q0 .4-.2.6l-.4.2q-.3 0-.5-.2l-.1-.6v-1.2h-1.3Zm5.1-1.6v2.5l.8-.3.8-.1q.6 0 1 .2.6.2.9.6.3.5.3 1.2v2.2l.6.1q.3.2.3.6l-.2.4-.6.1h-1.4l-.6-.1q-.2-.2-.2-.5t.3-.5h.6V285q0-.5-.2-.7-.3-.2-.8-.2l-.7.1-.9.7v2.2l.6.1q.3.2.3.6l-.2.4-.6.1H194l-.6-.1q-.2-.2-.2-.5t.3-.5h.6V282h-.2l-.6-.1-.2-.4q0-.3.2-.5l.6-.1h1.4Zm11.4 5q0 .7-.4 1.3-.4.7-1.1 1-.8.4-1.6.4t-1.6-.3q-.7-.4-1.1-1-.4-.7-.4-1.4t.4-1.4q.4-.7 1.1-1.1.8-.4 1.6-.4t1.6.4q.7.4 1.1 1 .4.8.4 1.5Zm-1.2 0q0-.6-.4-1-.6-.7-1.5-.7-.8 0-1.4.5-.5.5-.5 1.2 0 .6.5 1 .6.5 1.4.5.8 0 1.3-.4.6-.5.6-1.1Zm4.8-2.8v.8q.8-.6 1.2-.7l.8-.2q.6 0 1.2.4.3.3.3.6l-.1.4q-.2.2-.5.2l-.4-.2-.5-.2-.7.3-1.3 1v1.7h1.7q.5 0 .6.2.2.2.2.5l-.2.4-.6.1h-3.6l-.6-.1q-.2-.2-.2-.5l.2-.4q.2-.2.6-.2h.7v-2.9h-.4l-.6-.1q-.2-.2-.2-.5l.2-.4q.1-.2.6-.2h1.6Zm7.7-2.2v1.2h-1.4V281h1.4Zm.2 2.2v4.1h1.4q.4 0 .6.2.2.2.2.5l-.2.4-.6.1h-4l-.7-.1q-.2-.2-.2-.5l.2-.4q.2-.2.6-.2h1.5v-2.9h-1l-.6-.1q-.2-.2-.2-.5l.2-.4q.2-.2.6-.2h2.2Zm9 0v4.1q.3 0 .5.2t.2.5l-.2.4-.6.1h-1.2v-.2l-1 .3-.9.1-1-.2-.7-.7-.1-.8v-2.6h-.2l-.7-.1q-.2-.2-.2-.5l.2-.4q.2-.2.7-.2h1.4v3.6l.1.6.6.1.8-.1 1-.5v-2.5h-.4l-.6-.1q-.2-.2-.2-.5l.2-.4q.1-.2.6-.2h1.6Zm2.5 0v.4l.5-.4.6-.1h.5l.5.5.6-.4.7-.1q.7 0 1 .3.6.5.6 1.3v2.6q.4 0 .6.2.2.2.2.5l-.2.4-.6.1h-1.2v-4.1l-.4-.1h-.3l-.6.6v2.4q.4 0 .6.2.2.2.2.5l-.2.4-.6.1H231v-4.1l-.4-.1-.4.1-.5.5v2.4q.4 0 .6.2.2.2.2.5l-.2.4-.6.1h-1.1l-.6-.1q-.2-.2-.2-.5l.2-.4q.1-.2.5-.2v-2.9l-.5-.1q-.2-.2-.2-.5l.2-.4q.1-.2.6-.2h1.1Zm38.4 2.4v1.7h1.2q.5 0 .6.2.2.2.2.5l-.2.4-.6.1h-2.6l-.6-.1q-.2-.2-.2-.5l.2-.4q.2-.2.6-.2h.2v-4.7h-.2l-.6-.1-.2-.4q0-.3.2-.5t.6-.2h5.7v1.9q0 .4-.2.6l-.4.2q-.3 0-.5-.2l-.1-.6v-.7H268v1.8h1l.1-.6q.2-.3.6-.3l.4.2q.2.2.2.6v1.4q0 .4-.2.6l-.4.2q-.4 0-.6-.3v-.6H268Zm8.3-4.6v1.2h-1.5V281h1.5Zm.1 2.2v4.1h1.5q.4 0 .6.2.2.2.2.5l-.2.4-.6.1h-4.1l-.6-.1q-.2-.2-.2-.5l.2-.4q.1-.2.6-.2h1.4v-2.9h-1l-.6-.1q-.2-.2-.2-.5l.2-.4q.2-.2.7-.2h2.1Zm6.2 0v.8q.7-.6 1.2-.7l.8-.2q.6 0 1.1.4.4.3.4.6t-.2.4l-.4.2-.5-.2-.4-.2q-.3 0-.8.3l-1.2 1v1.7h1.7q.4 0 .6.2.2.2.2.5l-.2.4-.6.1h-3.6l-.7-.1-.1-.5.1-.4q.2-.2.7-.2h.7v-2.9h-.5l-.6-.1q-.2-.2-.2-.5l.2-.4q.2-.2.6-.2h1.7Zm10.2 3.3H288q.2.5.7.8.5.2 1.3.2l1.7-.2.7-.2.4.2.1.4-.1.4-1.2.4-1.7.2q-1.5 0-2.3-.8-.9-.8-.9-2t1-2q.9-.8 2-.8.8 0 1.4.2.7.3 1 .6.4.4.6 1l.2 1v.6Zm-1.3-1.2q-.3-.5-.7-.8l-1-.2q-.7 0-1.1.2-.5.3-.8.8h3.6Zm5.3-.9v3h1.7l.6.1q.2.2.2.5l-.2.4-.6.1H295l-.6-.1q-.2-.2-.2-.5l.2-.4q.2-.2.6-.2h.7v-2.9h-.6l-.6-.1q-.2-.2-.2-.5l.2-.4q.2-.2.6-.2h.6v-.4q0-.8.6-1.3t1.7-.5h1.2q.6.1.8.3l.2.4q0 .3-.2.5l-.4.1h-.3l-1.3-.2q-.6 0-.9.2-.2.2-.2.5v.4h1.9q.4 0 .6.2l.2.4q0 .3-.2.5l-.6.1h-1.9ZM307 286q0 .7-.3 1.3-.4.7-1.2 1-.7.4-1.6.4-.8 0-1.5-.3-.8-.4-1.2-1-.4-.7-.4-1.4t.4-1.4q.4-.7 1.2-1.1.7-.4 1.5-.4.9 0 1.6.4.8.4 1.2 1 .3.8.3 1.5Zm-1.2 0q0-.6-.4-1-.5-.7-1.5-.7-.8 0-1.3.5-.6.5-.6 1.2 0 .6.6 1 .5.5 1.3.5t1.4-.4q.5-.5.5-1.1Zm6-.2 1.9 1.5q.3 0 .4.2.2.2.2.5l-.2.4-.6.1H312l-.6-.1q-.2-.2-.2-.5 0-.2.2-.3 0-.2.3-.3l-.9-.7-.9.7.4.3.1.3q0 .3-.2.5l-.6.1h-1.3l-.6-.1q-.2-.2-.2-.5l.1-.4.5-.2 1.8-1.5-1.6-1.4q-.3 0-.4-.2-.2-.1-.2-.4l.2-.4q.2-.2.6-.2h1.1q.5 0 .7.2l.1.4q0 .4-.3.6l.7.6.8-.6q-.4-.3-.4-.6l.2-.4q.2-.2.6-.2h1.1q.5 0 .7.2l.1.4-.1.4q-.2.2-.5.2l-1.6 1.4Zm29.9-4.9v1.2h-1.4V281h1.4Zm.2 2.2v4.1h1.4q.5 0 .6.2.2.2.2.5l-.2.4-.6.1h-4l-.7-.1q-.2-.2-.2-.5l.2-.4q.2-.2.6-.2h1.5v-2.9h-1l-.6-.1q-.2-.2-.2-.5l.2-.4q.2-.2.6-.2h2.2Zm5.7 3v1.1h1.2q.4 0 .6.2.2.2.2.5l-.2.4-.6.1h-2.6l-.6-.1q-.2-.2-.2-.5l.2-.4q.2-.2.6-.2h.2v-4.7h-.2l-.6-.1-.2-.4q0-.3.2-.5t.6-.2h2.8q1.2 0 1.9.7t.7 1.6q0 .6-.2 1t-.6.7q-.5.4-1 .5-.4.2-1 .2h-1.2Zm0-1.3h1q.9 0 1.3-.3.5-.4.5-.9 0-.4-.4-.7-.3-.4-1-.4h-1.4v2.3Zm8.8 3.6v-.2l-1 .3-1 .2q-1 0-1.6-.6-.6-.5-.6-1.1 0-.8.8-1.4.7-.7 2.1-.7l1.3.2v-.3q0-.3-.3-.5l-.9-.1-1.3.2h-.5l-.4-.1q-.2-.2-.2-.5v-.2l.2-.2.5-.2.9-.2h.8q1.1 0 1.7.4.7.5.7 1.4v2.4h.2q.4 0 .6.2.2.2.2.5l-.2.4-.6.1h-1.4Zm0-2.1-1.4-.1q-.7 0-1.2.3-.4.2-.4.5 0 .2.2.2.3.3.8.3l1-.2 1-.5v-.5Zm8.6-5.4v6.3h.2q.5 0 .6.2.2.2.2.5l-.2.4-.6.1h-1.4v-.2l-.8.3-1 .1q-1.3 0-2.1-.7-.9-.8-.9-2t.9-2q.9-1 2.1-1l1 .2.8.4V282h-.2l-.6-.1-.2-.4q0-.3.2-.5l.6-.1h1.4Zm-1.2 5q0-.7-.5-1.2t-1.3-.5q-.7 0-1.2.5-.6.5-.6 1.2t.5 1.1q.5.4 1.3.4.9 0 1.3-.4.5-.4.5-1Zm10.6-2.2v3.5h.4q.5 0 .6.2.2.2.2.5l-.2.4-.6.1h-1.5l-.7-.1-.1-.5.1-.4q.2-.2.6-.2v-4.7l-.5-.1-.1-.4.1-.5q.2-.2.7-.2h1.3l1.6 3.7 1.6-3.7h1.4q.4 0 .6.2l.2.4q0 .3-.2.5l-.5.1v4.7q.4 0 .6.2.2.2.2.5l-.2.4-.6.1h-1.6l-.6-.1q-.2-.2-.2-.5l.2-.4q.1-.2.6-.2h.4v-3.5l-1.4 3h-1l-1.4-3Zm9.3-2.8v1.2h-1.4V281h1.4Zm.2 2.2v4.1h1.4q.5 0 .6.2.2.2.2.5l-.2.4-.6.1h-4l-.7-.1q-.2-.2-.2-.5l.2-.4q.2-.2.6-.2h1.5v-2.9h-1l-.6-.1q-.2-.2-.2-.5l.2-.4q.2-.2.6-.2h2.2Zm5.2 0v.4q.3-.3.7-.4l.8-.1q1.1 0 1.7.6.5.6.5 1.4v2.2q.4 0 .6.2.2.2.2.5l-.2.4-.6.1h-1.1l-.6-.1q-.2-.2-.2-.5l.2-.4q.1-.2.5-.2V285q0-.4-.2-.6-.3-.2-.8-.2l-.8.1-.7.7v2.2l.6.1q.2.2.2.6l-.1.4-.7.1h-1.3l-.6-.1q-.2-.2-.2-.5t.3-.5h.6v-3l-.6-.1q-.2-.2-.2-.5l.2-.4q.2-.2.6-.2h1.2Zm8.6-2.2v1.2h-1.4V281h1.4Zm.2 2.2v4.1h1.4q.5 0 .6.2.2.2.2.5l-.2.4-.6.1h-4l-.7-.1q-.2-.2-.2-.5l.2-.4q.2-.2.6-.2h1.5v-2.9h-1l-.6-.1q-.2-.2-.2-.5l.2-.4q.2-.2.6-.2h2.2Zm-61.3 15.2.9-.5.8-.1q1 0 1.7.7.7.8.7 1.9 0 1-.7 1.7-.6.6-1.8.6-1 0-1.5-.4-.6-.5-1-1.4-.3-.9-.3-2 0-1.4.7-2.2.6-1 1.4-1.4.8-.5 1.8-.5.7 0 1.1.3.3.2.3.4 0 .3-.2.5l-.4.2-.4-.2h-.3q-.6 0-1.2.3t-1.1 1q-.3.4-.5 1.1Zm.2 1.9q.2.7.5 1 .3.2 1 .2.5 0 .8-.3.4-.3.4-.8 0-.6-.4-1t-.8-.4q-.4 0-.8.3l-.7 1Zm14.5-.7q0-1 .4-2 .2-.8.8-1.8l.5-.8.4-.2q.3 0 .5.2l.1.4-.1.4-1 2-.2 1.8q0 1 .3 1.9l.9 2 .1.3-.1.5-.5.1-.3-.1q-.3-.2-.7-1l-.7-1.6q-.4-1-.4-2Zm5.7 2.6-.2.3h-.3l-.4-.1q-.2-.2-.2-.7v-.8q0-.4.2-.6l.4-.2.4.1.2.4q0 .3.2.4l.6.3q.4.2 1 .2.7 0 1.2-.4.4-.2.4-.5l-.2-.4-.5-.4-1-.2-1.5-.4q-.5-.3-.8-.8-.3-.4-.3-1 0-.8.7-1.5.7-.6 1.9-.6h.8l.7.4.5-.2.4.1q.2.2.2.7v.9q0 .4-.2.6-.1.2-.4.2l-.4-.2-.2-.4-.1-.4-.5-.4-.8-.1q-.7 0-1 .3-.4.3-.4.6l.1.4.5.4 1 .2 1.5.4q.5.2.8.7.4.5.4 1.1 0 .9-.7 1.4-.8.7-2 .7l-1-.1-1-.4Zm9.9.3v-.2l-1 .3-1 .2q-1 0-1.6-.6-.6-.5-.6-1.1 0-.8.8-1.4.7-.7 2.1-.7l1.3.2v-.3q0-.3-.3-.5l-.9-.1-1.3.2h-.5l-.4-.1q-.2-.2-.2-.5v-.2l.2-.2.5-.2.9-.2h.8q1.1 0 1.7.4.7.5.7 1.4v2.4h.2q.4 0 .6.2.2.2.2.5l-.2.4-.6.1h-1.4Zm0-2.1-1.4-.1q-.7 0-1.2.3-.4.2-.4.5 0 .2.2.2.3.3.8.3l1-.2 1-.5v-.5Zm5.9-2v3h1.7l.6.1q.2.2.2.5l-.2.4-.6.1h-3.7l-.6-.1-.1-.5.1-.4q.2-.2.6-.2h.8v-2.9h-.6l-.6-.1q-.2-.2-.2-.5l.2-.4q.2-.2.6-.2h.6v-.4q0-.8.5-1.3.6-.5 1.8-.5h1.1q.7.1.8.3l.2.4-.1.5-.4.1h-.4l-1.3-.2q-.6 0-.8.2-.2.2-.2.5v.4h1.8q.5 0 .6.2l.2.4q0 .3-.2.5l-.6.1h-1.8Zm8 4.1v-.2l-1 .3-1 .2q-.9 0-1.5-.6-.6-.5-.6-1.1 0-.8.8-1.4.7-.7 2.1-.7l1.3.2v-.3q0-.3-.3-.5l-.9-.1-1.3.2h-.5l-.4-.1q-.2-.2-.2-.5v-.2l.2-.2.5-.2.9-.2h.8q1.1 0 1.7.4.7.5.7 1.4v2.4h.2q.4 0 .6.2.2.2.2.5l-.2.4-.6.1h-1.4Zm0-2.1-1.3-.1q-.7 0-1.2.3-.4.2-.4.5 0 .2.2.2.3.3.8.3l1-.2 1-.5v-.5Zm5.7-3.2v.8q.8-.6 1.2-.7l.8-.2q.6 0 1.2.4.4.3.4.6t-.2.4q-.2.2-.5.2l-.4-.2-.5-.2-.7.3-1.3 1v1.7h1.7q.5 0 .6.2.2.2.2.5l-.2.4-.6.1h-3.6l-.6-.1q-.2-.2-.2-.5l.2-.4q.2-.2.6-.2h.7v-2.9h-.4l-.6-.1q-.2-.2-.2-.5l.2-.4q.2-.2.6-.2h1.6Zm7.7-2.2v1.2h-1.4V295h1.4Zm.2 2.2v4.1h1.4q.5 0 .6.2.2.2.2.5l-.2.4-.6.1h-4l-.7-.1q-.2-.2-.2-.5l.2-.4q.2-.2.6-.2h1.5v-2.9h-1l-.6-.1q-.2-.2-.2-.5l.2-.4q.2-.2.6-.2h2.2Zm6.9 2.4q0 1-.3 2.1l-.8 1.7-.6.9-.4.1-.4-.1q-.2-.2-.2-.5l.1-.4q.7-1 1-2 .2-.8.2-1.8 0-.9-.3-1.8-.2-1-.9-2l-.1-.4.2-.4q.1-.2.4-.2l.4.2.6 1 .8 1.6q.3 1 .3 2ZM427 286v1.2h1.2q.4 0 .6.2.2.2.2.5l-.2.4-.6.1h-2.7l-.6-.1-.1-.5.1-.4q.2-.2.6-.2h.2v-4.7h-.2l-.6-.1-.1-.4.1-.5q.2-.2.6-.2h2.8q1.2 0 2 .7.7.7.7 1.6 0 .6-.3 1-.2.4-.6.7-.4.4-.9.5-.4.2-1.1.2h-1.2Zm0-1.2h1q.8 0 1.3-.3.5-.4.5-.9 0-.4-.4-.7-.4-.4-1-.4h-1.5v2.3Zm8-4v1.3h-1.4V281h1.5Zm.2 2.3v4.1h1.5q.4 0 .6.2.2.2.2.5l-.2.4-.6.1h-4.1l-.6-.1q-.2-.2-.2-.5l.2-.4q.2-.2.6-.2h1.4v-2.9h-1l-.6-.1-.1-.5.1-.4q.2-.2.7-.2h2.1Zm7.3 2.6 1.9 1.5q.3 0 .4.2.2.2.2.5l-.2.4-.6.1h-1.4l-.6-.1q-.2-.2-.2-.5 0-.2.2-.3l.3-.3-.9-.7-.9.7.4.3.1.3q0 .3-.2.5l-.6.1h-1.3l-.6-.1q-.2-.2-.2-.5l.1-.4.5-.2 1.8-1.5-1.6-1.4q-.3 0-.4-.2-.2-.1-.2-.4l.2-.4q.2-.2.6-.2h1.1q.5 0 .7.2l.2.4q0 .4-.4.6l.7.6.8-.6q-.4-.3-.4-.6l.2-.4q.2-.2.6-.2h1.2q.4 0 .6.2l.2.4q0 .3-.2.4-.2.2-.5.2l-1.6 1.4Zm9.1.7h-4.9q.2.5.7.8.5.2 1.3.2l1.8-.2.6-.2.4.2.2.4q0 .3-.2.4-.2.2-1.2.4l-1.7.2q-1.5 0-2.3-.8-.9-.8-.9-2t1-2q.9-.8 2.1-.8.7 0 1.3.2.7.3 1 .6l.7 1 .1 1v.6Zm-1.3-1.2q-.3-.5-.7-.8-.4-.2-1-.2-.7 0-1.1.2-.5.3-.7.8h3.5Zm6-4.3v6.3h1.4q.4 0 .6.2.2.2.2.5l-.2.4-.6.1h-4.1l-.6-.1q-.2-.2-.2-.5l.2-.4q.2-.2.6-.2h1.4V282h-1l-.5-.1-.2-.4.1-.5.7-.1h2.1Zm14.6 1.2H468q0 .3-.2.5l-.4.1-.4-.1q-.2-.2-.2-.7v-1h5.2v1.2l-2 5.8q0 .3-.2.4-.1.2-.3.2-.3 0-.5-.2l-.1-.4v-.4l1.9-5.4Zm-54.2 17.4q0-1 .3-2l.8-1.8.6-.8.4-.2.4.2.2.4-.1.4q-.7 1-1 2-.3 1-.3 1.8 0 1 .3 1.9.3.9 1 2v.8l-.5.1-.4-.1-.6-1-.8-1.6q-.3-1-.3-2Zm9.3-3.8.3-.3h.2l.5.1.1.6v1l-.1.7q-.2.2-.5.2-.2 0-.3-.2-.2-.1-.3-.5l-.1-.4-.7-.4-.9-.1-1 .2q-.4.2-.7.8-.4.5-.4 1.2v.8q0 .9.6 1.4.7.6 1.8.6.7 0 1.1-.2.3 0 .6-.4l.3-.2h.2l.4.1.2.4-.2.6q-.4.4-1 .6-.7.3-1.6.3-1 0-2-.4-.6-.4-1.1-1.1-.5-.8-.5-1.7v-.8q0-1 .4-1.7.5-.9 1.2-1.3.8-.4 1.7-.4h1l.8.5Zm3.9-.8v2.5l.7-.3.8-.1q.6 0 1.1.2.5.2.8.6.4.5.4 1.2v2.2l.6.1q.2.2.2.6l-.1.4-.6.1h-1.4l-.6-.1q-.2-.2-.2-.5t.3-.5h.6V299q0-.5-.2-.7-.3-.2-.9-.2l-.7.1-.8.7v2.2l.6.1q.3.2.3.6l-.2.4-.6.1h-1.4l-.6-.1q-.2-.2-.2-.5t.3-.5h.6V296h-.2l-.6-.1-.2-.4q0-.3.2-.5l.6-.1h1.4Zm8 2.2v.8q.7-.6 1.2-.7l.8-.2q.6 0 1.1.4.4.3.4.6t-.2.4l-.4.2-.5-.2-.4-.2q-.3 0-.8.3l-1.2 1v1.7h1.7q.4 0 .6.2.2.2.2.5l-.2.4-.6.1H436l-.7-.1-.1-.5.1-.4q.2-.2.7-.2h.7v-2.9h-.4l-.7-.1-.1-.5.1-.4q.2-.2.7-.2h1.6Zm10.4 2.8q0 .7-.4 1.3-.4.7-1.2 1-.7.4-1.6.4-.8 0-1.5-.3-.8-.4-1.2-1-.4-.7-.4-1.4t.4-1.4q.4-.7 1.2-1.1.7-.4 1.5-.4.9 0 1.6.4.8.4 1.2 1 .4.8.4 1.5Zm-1.3 0q0-.6-.4-1-.5-.7-1.5-.7-.8 0-1.3.5-.6.5-.6 1.2 0 .6.6 1 .5.5 1.3.5.9 0 1.4-.4.5-.5.5-1.1Zm3.3-2.8v.4l.5-.4.6-.1h.5l.5.5.6-.4.7-.1q.6 0 1 .3.6.5.6 1.3v2.6q.4 0 .5.2.2.2.2.5l-.2.4-.6.1h-1.1v-3.7l-.1-.4-.3-.1h-.4l-.5.6v2.4q.4 0 .5.2.2.2.2.5l-.2.4-.6.1h-1.1v-3.7l-.1-.4-.3-.1-.4.1-.5.5v2.4q.4 0 .5.2.2.2.2.5l-.2.4-.6.1h-1l-.7-.1q-.2-.2-.2-.5l.2-.4q.2-.2.6-.2v-2.9l-.6-.1q-.2-.2-.2-.5l.2-.4q.2-.2.6-.2h1.2Zm9.3-2.2v1.2H458V295h1.5Zm.1 2.2v4.1h1.5q.4 0 .6.2.2.2.2.5l-.2.4-.6.1H457l-.6-.1q-.2-.2-.2-.5l.2-.4q.2-.2.6-.2h1.4v-2.9h-1l-.6-.1-.1-.5.1-.4q.2-.2.7-.2h2.1Zm9 0v4.1q.4 0 .5.2.2.2.2.5l-.2.4-.6.1h-1.1v-.2l-1 .3-.9.1q-.6 0-1-.2l-.7-.7q-.2-.3-.2-.8v-2.6h-.2l-.6-.1q-.2-.2-.2-.5l.2-.4q.2-.2.6-.2h1.4v3.6q0 .4.2.6l.6.1.8-.1 1-.5v-2.5h-.5l-.6-.1-.1-.5.1-.4q.2-.2.6-.2h1.7Zm2.6 0v.4l.5-.4.6-.1h.5l.5.5.6-.4.7-.1q.6 0 1 .3.6.5.6 1.3v2.6q.4 0 .5.2.2.2.2.5l-.2.4-.6.1h-1.1v-3.7l-.1-.4-.3-.1h-.4l-.5.6v2.4q.4 0 .5.2.2.2.2.5l-.2.4-.6.1h-1.1v-3.7l-.1-.4-.3-.1-.4.1-.5.5v2.4q.4 0 .5.2.2.2.2.5l-.2.4-.6.1h-1l-.7-.1q-.2-.2-.2-.5l.2-.4q.2-.2.6-.2v-2.9l-.6-.1q-.2-.2-.2-.5l.2-.4q.2-.2.6-.2h1.2Zm9.3 2.4q0 1-.3 2.1l-.8 1.7-.5.9-.4.1-.5-.1-.1-.5v-.4q.7-1 1-2 .3-.8.3-1.8 0-.9-.3-1.8-.3-1-1-2v-.4l.1-.4q.2-.2.5-.2.2 0 .3.2.3.2.7 1l.7 1.6q.3 1 .3 2Zm25.7-13.5v1.2h1.2q.4 0 .6.2.2.2.2.5l-.2.4-.6.1H505l-.6-.1q-.2-.2-.2-.5l.2-.4q.2-.2.6-.2h.2v-4.7h-.2l-.6-.1-.2-.4q0-.3.2-.5t.6-.2h2.8q1.2 0 1.9.7t.7 1.6q0 .6-.2 1t-.6.7q-.5.4-1 .5-.3.2-1 .2h-1.2Zm0-1.2h1.1q.8 0 1.3-.3.4-.4.4-.9 0-.4-.4-.7-.3-.4-1-.4h-1.4v2.3Zm8.1-4v1.3H513V281h1.4Zm.2 2.3v4.1h1.4q.5 0 .6.2.2.2.2.5l-.2.4-.6.1h-4l-.7-.1q-.2-.2-.2-.5l.2-.4q.2-.2.6-.2h1.5v-2.9h-1l-.6-.1q-.2-.2-.2-.5l.2-.4q.2-.2.6-.2h2.2Zm7.3 2.6 1.8 1.5q.3 0 .5.2t.2.5l-.2.4-.6.1h-1.4l-.6-.1q-.2-.2-.2-.5l.1-.3.4-.3-.9-.7-1 .7q.4.1.5.3v.3l-.1.5-.6.1h-1.4l-.6-.1q-.2-.2-.2-.5l.2-.4.5-.2 1.8-1.5-1.6-1.4q-.3 0-.5-.2l-.1-.4.1-.4q.2-.2.7-.2h1q.5 0 .7.2l.2.4q0 .4-.3.6l.7.6.7-.6q-.3-.3-.3-.6l.2-.4q.2-.2.6-.2h1.1q.4 0 .6.2l.2.4q0 .3-.2.4-.1.2-.4.2l-1.6 1.4Zm9.1.7h-5q.3.5.7.8.5.2 1.3.2l1.8-.2.6-.2q.3 0 .4.2l.2.4q0 .3-.2.4-.2.2-1.1.4l-1.8.2q-1.4 0-2.3-.8-.8-.8-.8-2t.9-2q1-.8 2.2-.8.7 0 1.3.2l1 .6.6 1 .2 1v.6Zm-1.3-1.2q-.3-.5-.8-.8-.4-.2-1-.2t-1 .2q-.5.3-.8.8h3.6Zm5.9-4.3v6.3h1.4q.5 0 .7.2l.1.5-.1.4-.7.1h-4l-.7-.1q-.2-.2-.2-.5l.2-.4q.2-.2.6-.2h1.5V282h-1l-.6-.1-.2-.4q0-.3.2-.5l.6-.1h2.2Zm14.6 1.2h-2.7q0 .3-.2.5l-.4.1-.5-.1-.1-.7v-1h5.2v1.2l-2 5.8q0 .3-.2.4l-.4.2-.4-.2-.2-.4.1-.4 1.8-5.4ZM503 299.5q0-1 .4-2l.8-1.8.5-.8.4-.2q.3 0 .5.2l.1.4-.1.4-1 2-.2 1.8q0 1 .3 1.9l.9 2 .1.3-.1.5-.5.1-.3-.1q-.3-.2-.7-1l-.7-1.6q-.3-1-.3-2Zm6.7 0v1.7h1.2q.4 0 .6.2.2.2.2.5l-.2.4-.6.1h-2.6l-.6-.1q-.2-.2-.2-.5l.2-.4q.2-.2.6-.2h.2v-4.7h-.2l-.6-.1-.2-.4q0-.3.2-.5.1-.2.6-.2h5.6v1.9l-.1.6q-.2.2-.5.2l-.4-.2q-.2-.2-.2-.6v-.7h-3v1.8h1l.1-.6q.2-.3.5-.3t.4.2q.2.2.2.6v1.4q0 .4-.2.6-.1.2-.4.2-.3 0-.5-.3v-.6h-1.1Zm8.2-4.6v1.2h-1.4V295h1.4Zm.2 2.2v4.1h1.4q.5 0 .6.2.2.2.2.5l-.2.4-.6.1h-4l-.7-.1q-.2-.2-.2-.5l.2-.4q.2-.2.6-.2h1.5v-2.9h-1l-.6-.1q-.2-.2-.2-.5l.2-.4q.2-.2.6-.2h2.2Zm6.1 0v.8q.8-.6 1.2-.7l.8-.2q.6 0 1.2.4.4.3.4.6t-.2.4l-.4.2q-.3 0-.5-.2l-.5-.2-.7.3-1.3 1v1.7h1.7q.5 0 .7.2l.1.5-.1.4-.7.1h-3.6l-.6-.1q-.2-.2-.2-.5l.2-.4q.2-.2.6-.2h.7v-2.9h-.4l-.6-.1q-.2-.2-.2-.5l.2-.4q.2-.2.6-.2h1.6Zm10.3 3.3h-5q.3.5.7.8.5.2 1.3.2l1.8-.2.6-.2q.3 0 .4.2l.2.4q0 .3-.2.4-.2.2-1.1.4l-1.8.2q-1.4 0-2.3-.8-.8-.8-.8-2t.9-2q1-.8 2.2-.8.7 0 1.3.2l1 .6.6 1 .2 1v.6Zm-1.3-1.2q-.3-.5-.8-.8-.4-.2-1-.2t-1 .2q-.5.3-.8.8h3.6Zm5.3-.9v3h1.7l.6.1q.2.2.2.5l-.2.4-.6.1h-3.6l-.7-.1-.1-.5.1-.4q.2-.2.7-.2h.7v-2.9h-.6l-.6-.1q-.2-.2-.2-.5l.2-.4q.2-.2.6-.2h.6v-.4q0-.8.6-1.3.5-.5 1.7-.5h1.1q.7.1.9.3l.1.4-.1.5-.4.1h-.4l-1.3-.2q-.6 0-.8.2-.2.2-.2.5v.4h1.8q.5 0 .6.2l.2.4q0 .3-.2.5l-.6.1h-1.8Zm10.1 1.6q0 .7-.4 1.3-.4.7-1.1 1-.8.4-1.6.4t-1.6-.3q-.7-.4-1.1-1-.4-.7-.4-1.4t.4-1.4q.4-.7 1.1-1.1.8-.4 1.6-.4t1.6.4q.7.4 1.1 1 .4.8.4 1.5Zm-1.2 0q0-.6-.4-1-.6-.7-1.5-.7-.8 0-1.4.5-.5.5-.5 1.2 0 .6.5 1 .6.5 1.4.5.8 0 1.4-.4.5-.5.5-1.1Zm6-.2 1.8 1.5q.3 0 .5.2t.2.5l-.2.4-.6.1h-1.4l-.6-.1q-.2-.2-.2-.5l.1-.3.4-.3-.9-.7-1 .7q.4.1.5.3v.3l-.1.5-.6.1h-1.4l-.6-.1q-.2-.2-.2-.5l.2-.4.5-.2 1.8-1.5-1.6-1.4q-.3 0-.5-.2l-.1-.4.1-.4q.2-.2.7-.2h1q.5 0 .7.2l.2.4q0 .4-.3.6l.7.6.7-.6q-.3-.3-.3-.6l.2-.4q.2-.2.6-.2h1.1q.4 0 .6.2l.2.4q0 .3-.2.4-.1.2-.4.2l-1.6 1.4ZM502 311.6v3.6h.4q.5 0 .6.2.2.2.2.5l-.2.4-.6.1h-1.6l-.6-.1q-.2-.2-.2-.5l.2-.4q.2-.2.6-.2v-4.7h-.2l-.6-.1-.2-.4q0-.3.2-.5t.6-.2h1.4l3 4.9v-3.7h-.4l-.6-.1-.2-.4q0-.3.2-.5t.6-.2h1.6q.4 0 .6.2l.2.4q0 .3-.2.5l-.5.1v6H505l-3.1-4.9Zm9-2.7v1.2h-1.5V309h1.4Zm0 2.2v4.1h1.5q.5 0 .6.2.2.2.2.5l-.2.4-.6.1h-4l-.7-.1q-.2-.2-.2-.5l.2-.4q.2-.2.6-.2h1.5v-2.9h-1l-.6-.1q-.2-.2-.2-.5l.2-.4q.2-.2.6-.2h2.2Zm7.8.4v-.4h1.4q.5 0 .6.2l.2.4q0 .3-.2.5l-.6.1h-.2v4.4q0 .6-.3 1.1-.2.5-.8.8-.5.4-1.2.4h-1.4q-.4 0-.6-.2l-.2-.4q0-.3.2-.5l.6-.1h1.4q.5 0 .8-.4.3-.2.3-.7v-.6l-.8.4-.8.1q-1.3 0-2.1-.8t-.8-2q0-1.2.8-2 .8-.9 2-.9l1 .2.7.4Zm0 2.3q0-.7-.5-1.2-.5-.4-1.2-.4t-1.1.4q-.5.5-.5 1.2 0 .6.5 1.1.4.5 1.1.5.7 0 1.2-.5.5-.4.5-1.1Zm4.4-5v2.6l.8-.3.8-.1q.6 0 1 .2.6.2.9.6.3.5.3 1.2v2.2l.6.1q.3.2.3.6l-.2.4-.6.1h-1.4l-.6-.1q-.2-.2-.2-.5t.3-.5h.6V313q0-.5-.2-.7-.3-.2-.8-.2l-.7.1-.9.7v2.2l.6.1q.3.2.3.6l-.2.4-.6.1H522l-.7-.1-.1-.5q0-.3.2-.5h.6V310h-.2l-.6-.1-.2-.4q0-.3.2-.5l.6-.1h1.4Zm8 3.5v2.4q0 .4.2.5.2.2.8.2 1 0 1.7-.4l.5-.1.4.2q.2.1.2.4l-.2.4q-.3.3-1.1.5l-1.5.2q-1.1 0-1.7-.4-.5-.5-.5-1.2v-2.7h-.4l-.7-.1-.1-.5.1-.4q.2-.2.7-.2h.4v-1q0-.5.2-.7.1-.2.4-.2.3 0 .4.2.2.2.2.6v1.1h2.2q.4 0 .6.2l.2.4q0 .3-.2.5l-.6.1h-2.2Zm7.9-3.4v6.3h1.4q.5 0 .7.2l.1.5-.1.4-.7.1h-4l-.7-.1q-.2-.2-.2-.5l.2-.4q.2-.2.6-.2h1.5V310h-1l-.6-.1-.2-.4q0-.3.2-.5l.6-.1h2.2Zm5.7 7.5-2-4q-.4-.1-.5-.3-.2-.1-.2-.4l.2-.4q.2-.2.6-.2h1.1q.5 0 .7.2l.1.4-.1.5-.6.1 1.4 2.8 1.4-2.8-.6-.1q-.2-.2-.2-.5l.2-.4q.2-.2.6-.2h1.2q.4 0 .6.2l.2.4q0 .3-.2.4-.1.2-.5.2l-2.7 5.5h.6q.3.2.3.6l-.2.4q-.2.2-.6.2h-2.7q-.4 0-.6-.2l-.2-.4q0-.3.2-.5l.6-.1h1.2l.7-1.4Zm8.2-2.9q0 1-.3 2.1l-.8 1.7-.6.9-.4.1-.4-.1q-.2-.2-.2-.5l.1-.4q.7-1 1-2 .3-.8.3-1.8 0-.9-.3-1.8-.3-1-1-2v-.8l.5-.2.4.2.6 1 .8 1.6q.3 1 .3 2ZM24.6 29.9l-1.9 5.6h-2.2l-1.2-9.8q-.5 0-.7-.3-.3-.3-.3-.7 0-.4.3-.7.4-.3 1-.3h2.7q.8 0 1 .3.4.3.4.7 0 .5-.3.7-.3.3-1 .3h-1.1l.7 5.6 1.5-4.6h2.1l1.6 4.6.6-5.6h-1q-.7 0-1-.3-.3-.2-.3-.7 0-.4.3-.7.3-.3 1-.3h2.7q.7 0 1 .3.3.3.3.7 0 .4-.3.7-.2.2-.7.3l-1.1 9.8h-2.2l-2-5.6Zm17 2.2h-8.2q.3.8 1 1.3.9.5 2.2.5 1.1 0 3-.5l1-.2q.4 0 .7.3.3.3.3.7 0 .4-.3.7-.4.3-2 .6-1.4.4-2.8.4-2.4 0-3.9-1.4-1.4-1.3-1.4-3.3 0-2.1 1.6-3.4 1.5-1.4 3.5-1.4 1.3 0 2.3.5 1 .4 1.5.9.7.7 1.2 1.8.3.7.3 1.7v.8Zm-2.2-2q-.5-.8-1.3-1.3-.7-.4-1.7-.4t-1.8.4q-.7.5-1.2 1.3h6ZM46 23v4.5q.8-.5 1.5-.7.8-.3 1.5-.3 2.1 0 3.6 1.5 1.4 1.4 1.4 3.4t-1.4 3.3Q51.3 36 49 36q-.8 0-1.5-.2-.8-.2-1.5-.6v.4h-2.3q-.7 0-1-.2-.4-.3-.4-.8 0-.4.4-.7.3-.3 1-.3h.3V25h-.3q-.7 0-1-.3-.4-.3-.4-.7 0-.5.3-.7.4-.3 1-.3H46Zm6 8.5q0-1.3-.9-2.1-.8-.9-2-.9-1.3 0-2.2.9-.9.8-.9 2t.8 1.9q.8.7 2.2.7 1.4 0 2.2-.7.8-.7.8-1.8Zm9.9-1.9 3.3 4q.6 0 .9.3.3.3.3.8 0 .4-.3.7-.3.3-1 .3h-2.3q-.7 0-1-.3-.3-.3-.3-.8 0-.4.3-.7.2-.2.8-.3l-2-2.4-2 2.4q.5 0 .8.3.3.3.3.8 0 .4-.3.7-.3.3-1 .3H56q-.7 0-1-.3-.3-.3-.3-.8 0-.4.3-.7.3-.3.9-.3l3.3-4-3.2-3.8q-.6 0-.9-.3-.2-.3-.2-.7 0-.4.3-.7.3-.3 1-.3H58q.8 0 1 .3.4.3.4.7l-.2.6-.6.4 1.9 2.3 1.8-2.3-.6-.4-.2-.6q0-.4.3-.7.4-.3 1-.3h2q.6 0 1 .3.3.3.3.7 0 .4-.4.7-.3.3-.8.3l-3.1 3.8Zm9.5 2v2h2q.7 0 1 .3.4.3.4.8 0 .4-.4.7-.3.3-1 .3h-4.3q-.7 0-1-.3-.4-.3-.4-.8 0-.4.3-.7.4-.3 1-.3h.4v-7.8H69q-.7 0-1-.3-.4-.2-.4-.7 0-.4.3-.7.4-.3 1-.3h4.7q2 0 3.2 1.1Q78 26 78 27.6q0 .9-.4 1.7-.3.6-1 1.1-.7.6-1.5 1-.7.2-2 .2h-1.8Zm0-2h1.9q1.3 0 2-.6.8-.6.8-1.4 0-.7-.6-1.2-.7-.6-1.8-.6h-2.3v3.8Zm11 1.5v2.5h.8q.7 0 1 .3.3.3.3.8 0 .4-.3.7-.3.3-1 .3h-3q-.7 0-1-.3-.4-.3-.4-.8 0-.4.3-.7.4-.3 1-.3h.4v-7.8h-.3q-.7 0-1-.3-.4-.2-.4-.7 0-.4.3-.7.4-.3 1-.3h4.6q2.1 0 3.3 1 1.2 1.1 1.2 2.6 0 1-.6 1.7-.5.8-1.6 1.4l1.3 1.4 1.2 1.7q.8 0 1 .2.5.3.5.8t-.3.8q-.3.3-1 .3h-1.2q-2.4-3.8-4-4.6h-2Zm0-2H84q1 0 1.6-.2 1-.4 1.2-.8.4-.4.4-.7 0-.6-.7-1-.6-.6-1.7-.6h-2.3V29Zm15.1-3.3v7.8H99q.7 0 1 .3.3.3.3.8 0 .4-.3.7-.3.3-1 .3h-4.7q-.7 0-1-.3-.4-.3-.4-.8 0-.4.3-.7.4-.3 1-.3h1.4v-7.8h-2.2v2q0 .6-.2 1-.3.2-.8.2-.4 0-.7-.3-.3-.3-.3-1v-3.9h10.4v4q0 .6-.3 1-.2.2-.7.2-.4 0-.7-.3-.3-.3-.3-1v-1.9h-2.2Zm26-2.8v7.8q.6 0 1 .3.2.3.2.7 0 .5-.3.8-.3.3-1 .3v.8q.7 0 1 .2.3.3.3.8 0 .4-.3.7-.3.3-1 .3h-2.7q-.7 0-1-.3-.3-.3-.3-.8 0-.4.3-.7.3-.3 1-.3h.8v-.7H116V31l4.8-8.2h2.7Zm-2 7.8v-4.9l-3 5h3Zm27.3 0h-8.4V29h8.4v1.8Zm20.8-8.1v11h2q.7 0 1 .2.3.3.3.8 0 .4-.3.7-.3.3-1 .3h-6q-.8 0-1-.3-.4-.3-.4-.8 0-.4.3-.7.3-.3 1-.3h2v-8.3l-1.7.5h-.7l-.6-.2q-.3-.3-.3-.8 0-.4.2-.6.2-.2.9-.4l4.3-1.1Zm13.8 6.3q.9.6 1.3 1.4.5.8.5 1.7 0 1.1-.6 2-.6 1-1.7 1.4-1.1.4-2.9.4-2.3 0-3.5-.7-.6-.4-.6-1 0-.4.2-.7.3-.3.8-.3l.5.2.9.4 1.6.1q1.7 0 2.5-.4.8-.5.8-1.3 0-.6-.5-1.2-.4-.6-1.2-.9l-1.5-.2q-.5 0-.7-.3-.3-.3-.3-.7 0-.4.3-.7.3-.3.7-.3h1q.5 0 .9-.3.4-.2.6-.6.2-.3.2-.8 0-.6-.5-1-.6-.5-1.7-.5-1.4 0-2.2.8l-.4.3-.4.1q-.4 0-.7-.3-.3-.2-.3-.7 0-.6.9-1.3 1.3-.9 3.2-.9 1.9 0 3 1 1.1 1.1 1.1 2.6 0 .8-.3 1.4-.3.7-1 1.3Zm11.2-4H190q0 .6-.3.9-.2.2-.7.2-.4 0-.7-.3-.3-.3-.3-1V23h8.7v2l-3.2 9.7q-.2.6-.5.8-.2.2-.6.2-.4 0-.7-.3-.3-.3-.3-.7l.2-.7 3-9Zm14.3 3.2v2.2q0 2-1.1 3.8-1.1 1.7-3.2 1.7-1.2 0-2-.5-1-.5-1.7-2-.7-1.4-.7-3v-2.2q0-2 1.1-3.7 1.1-1.8 3.2-1.8 1.2 0 2 .5 1 .5 1.7 2 .7 1.4.7 3Zm-2 0q0-1.6-.9-2.8-.5-.7-1.4-.7-1 0-1.5.7-1 1.2-1 2.8v2.2q0 1.7 1 2.9.5.6 1.5.6.9 0 1.4-.7 1-1.1 1-2.8v-2.2Zm14 0v2.2q0 2-1.1 3.8-1.1 1.7-3.2 1.7-1.2 0-2-.5-1-.5-1.7-2-.7-1.4-.7-3v-2.2q0-2 1.1-3.7 1.1-1.8 3.2-1.8 1.2 0 2 .5 1 .5 1.7 2 .7 1.4.7 3Zm-2 0q0-1.6-.9-2.8-.5-.7-1.4-.7-1 0-1.5.7-1 1.2-1 2.8v2.2q0 1.7 1 2.9.5.6 1.5.6.9 0 1.4-.7 1-1.1 1-2.8v-2.2Zm8 4.1v3.3h-2.3q-.8 0-1-.2-.4-.3-.4-.8 0-.4.3-.7.3-.3 1-.3h.4V25h-.3q-.8 0-1-.3-.4-.3-.4-.7 0-.5.3-.7.3-.3 1-.3h2.4v6.7l1.6-1.2q-.3-.4-.3-.7 0-.5.3-.7.3-.3 1-.3h2.3q.8 0 1 .3.4.2.4.7 0 .4-.3.7-.3.3-1 .3h-.6l-2.5 2 3.3 2.8h.6q.7 0 1 .3.4.3.4.8 0 .4-.4.7-.3.3-1 .3h-2.3q-.7 0-1-.3-.3-.3-.3-.8 0-.3.3-.7l-2.1-1.9-.4.3Zm25-1.5q0-1.7.5-3.5.4-1.3 1.3-2.8.6-1.2 1-1.4.2-.3.6-.3.4 0 .7.3.3.3.3.7l-.2.7q-1 1.7-1.6 3.2-.4 1.5-.4 3 0 1.7.5 3.2.4 1.5 1.5 3.2l.2.7q0 .4-.3.7-.3.3-.7.3-.3 0-.6-.3-.4-.3-1-1.5-1-1.7-1.3-2.9-.6-1.7-.6-3.3Zm15.5-1.8q.9.6 1.3 1.4.5.8.5 1.7 0 1.1-.6 2-.6 1-1.7 1.4-1.1.4-2.9.4-2.3 0-3.5-.7-.6-.4-.6-1 0-.4.2-.7.3-.3.8-.3l.5.2.9.4 1.6.1q1.7 0 2.5-.4.8-.5.8-1.3 0-.6-.5-1.2-.4-.6-1.2-.9l-1.5-.2q-.5 0-.7-.3-.3-.3-.3-.7 0-.4.3-.7.3-.3.7-.3h1q.5 0 .9-.3.4-.2.6-.6.2-.3.2-.8 0-.6-.5-1-.6-.5-1.7-.5-1.4 0-2.2.8l-.4.3-.4.1q-.4 0-.7-.3-.3-.2-.3-.7 0-.6.9-1.3 1.3-.9 3.2-.9 1.9 0 3 1 1.1 1.1 1.1 2.6 0 .8-.3 1.4-.3.7-1 1.3Zm12-6v7.8q.7 0 1 .3.3.3.3.7 0 .5-.3.8-.3.3-1 .3v.8q.7 0 1 .2.3.3.3.8 0 .4-.3.7-.3.3-1 .3h-2.7q-.7 0-1-.3-.3-.3-.3-.8 0-.4.3-.7.3-.3 1-.3h.8v-.7H272V31l4.7-8.2h2.7Zm-2 7.8v-4.9l-2.8 5h2.9Zm9.3-2q.7-.6 1.4-.9.6-.3 1.3-.3 1.6 0 2.8 1.3 1.2 1.3 1.2 3.1t-1.1 2.9q-1.1 1-3 1-1.6 0-2.6-.7t-1.5-2.2q-.5-1.6-.5-3.4 0-2.3 1-3.8t2.4-2.3q1.4-.8 3-.8 1.2 0 1.8.5.5.3.5.8 0 .4-.3.7-.3.3-.7.3l-.7-.2-.5-.1q-1 0-2 .5t-1.8 1.7q-.5.7-.7 2Zm.3 3.1q.3 1.2.8 1.6.5.4 1.5.4t1.5-.5q.6-.5.6-1.4 0-1-.6-1.7-.6-.6-1.4-.6-.6 0-1.3.5-.7.6-1.1 1.7Zm11.7-3q.7-.7 1.4-1 .6-.3 1.3-.3 1.6 0 2.8 1.3 1.2 1.3 1.2 3.1t-1.1 2.9q-1.1 1-3 1-1.6 0-2.6-.7t-1.5-2.2q-.5-1.6-.5-3.4 0-2.3 1-3.8t2.4-2.3q1.4-.8 3-.8 1.2 0 1.8.5.5.3.5.8 0 .4-.3.7-.3.3-.7.3l-.7-.2-.5-.1q-1 0-2 .5t-1.8 1.7q-.5.7-.7 2Zm.3 3q.3 1.2.8 1.6.5.4 1.5.4t1.5-.5q.6-.5.6-1.4 0-1-.6-1.7-.6-.6-1.4-.6-.6 0-1.3.5-.7.6-1.1 1.7Zm10.4-4.2v6h.7q.8 0 1 .2.4.3.4.8 0 .4-.3.7-.3.3-1 .3h-2.7q-.7 0-1-.3-.3-.3-.3-.8 0-.4.3-.7.3-.3 1-.3v-7.8q-.6 0-.9-.3-.3-.3-.3-.7 0-.4.4-.7.3-.3 1-.3h2.2l2.7 6 2.7-6h2.2q.7 0 1 .3.3.3.3.7 0 .4-.2.7-.3.3-.8.3v7.8q.6 0 1 .3.2.3.2.8 0 .4-.3.7-.3.3-1 .3H315q-.8 0-1-.3-.4-.3-.4-.8 0-.4.3-.7.3-.3 1-.3h.8v-6l-2.3 5.2h-1.7l-2.4-5.1Zm17.3 3h-4.2v3h.3q.7 0 1 .2.3.3.3.8 0 .4-.3.7-.3.3-1 .3h-2.5q-.7 0-1-.3-.3-.3-.3-.8t.5-.8q.2-.2 1-.2v-7.8q-.6 0-.8-.3-.3-.3-.3-.7 0-.4.3-.7.3-.3 1-.3h2q.8 0 1.1.3.3.3.3.7 0 .5-.3.7-.3.3-1 .3h-.3v3h4.2v-3h-.3q-.7 0-1-.3-.3-.2-.3-.7 0-.4.3-.7.3-.3 1-.3h2q.8 0 1.1.3.3.3.3.7 0 .4-.3.7-.2.3-.7.3v7.8q.7 0 1 .2.4.3.4.8t-.3.8q-.3.3-1 .3h-2.5q-.7 0-1-.3-.3-.3-.3-.8 0-.4.3-.7.3-.3 1-.3h.3v-2.9Zm8.8 3h3.5q0-.6.3-.9.3-.3.7-.3.4 0 .7.4.3.3.3 1v1.8h-8.7V34l5.3-5.2h-3.1v.2q0 .7-.3 1-.3.3-.7.3-.5 0-.7-.3-.3-.3-.3-1v-2.2h8.3v1.6l-5.3 5.2Zm20.6 0v-7.9q-.7 0-1-.3-.3-.3-.3-.7 0-.4.3-.7.4-.3 1-.3h4.3q1 0 1.9.4 1 .3 1.5.9l.9 1.1.7 1.5q.2.7.2 1.8v1q0 1.2-.4 2.2-.5 1-1.2 1.6l-1.3.9q-1 .4-2.5.4h-4q-.7 0-1-.2-.4-.3-.4-.8 0-.4.3-.7.4-.3 1-.3Zm2 0h2.1q1.2 0 1.8-.4.8-.4 1.2-1.1.4-.7.4-1.8v-1q0-1-.4-1.6-.5-1.1-1.2-1.6-.7-.4-1.8-.4H358v7.8Zm10 0v-7.9q-.7 0-1-.3-.3-.3-.3-.7 0-.4.3-.7.4-.3 1-.3h4.3q1 0 1.9.4 1 .3 1.5.9l.9 1.1.7 1.5q.2.7.2 1.8v1q0 1.2-.4 2.2-.5 1-1.2 1.6l-1.3.9q-1 .4-2.5.4h-4q-.7 0-1-.2-.4-.3-.4-.8 0-.4.3-.7.4-.3 1-.3Zm2 0h2.1q1.2 0 1.8-.4.8-.4 1.2-1.1.4-.7.4-1.8v-1q0-1-.4-1.6-.5-1.1-1.2-1.6-.7-.4-1.8-.4H370v7.8Zm12.4-2.6v2.5h.7q.7 0 1 .3.4.3.4.8 0 .4-.4.7-.3.3-1 .3h-3q-.7 0-1-.3-.4-.3-.4-.8 0-.4.3-.7.4-.3 1-.3h.4v-7.8h-.3q-.7 0-1-.3-.4-.2-.4-.7 0-.4.3-.7.4-.3 1-.3h4.6q2.1 0 3.3 1 1.2 1.1 1.2 2.6 0 1-.6 1.7-.5.8-1.6 1.4l1.3 1.4 1.2 1.7q.8 0 1 .2.5.3.5.8t-.3.8q-.3.3-1 .3h-1.2q-2.4-3.8-4-4.6h-2Zm0-2h1.6q.8 0 1.5-.2 1-.4 1.2-.8.4-.4.4-.7 0-.6-.6-1-.7-.6-1.8-.6h-2.3V29Zm17-6v7.7q.6 0 1 .3.2.3.2.7 0 .5-.3.8-.3.3-1 .3v.8q.7 0 1 .2.3.3.3.8 0 .4-.3.7-.3.3-1 .3h-2.7q-.7 0-1-.3-.3-.3-.3-.8 0-.4.3-.7.3-.3 1-.3h.8v-.7H392V31l4.7-8.2h2.7Zm-2 7.7v-4.9l-3 5h3Zm12 0q0 1.7-.7 3.5-.4 1.2-1.3 2.8l-.9 1.4q-.3.3-.7.3-.4 0-.7-.3-.3-.3-.3-.7l.2-.7q1.1-1.7 1.6-3.2.5-1.5.5-3.1t-.5-3q-.5-1.6-1.6-3.3l-.2-.7q0-.4.3-.7.3-.3.7-.3.4 0 .7.2.4.4 1 1.6 1 1.7 1.3 2.8.5 1.8.5 3.4Z"/></svg>