<svg fill="none" stroke-linecap="square" stroke-miterlimit="10" width="798" height="816" xmlns="http://www.w3.org/2000/svg"><path fill="#242424" d="M0 0h798v816H0V0Z"/><path stroke="#303030" stroke-linecap="butt" d="M37.5.5v816m117-816v816m272-816v816m117-816v816m-543-68h798m-798-68h798m-798-68h798m-798-136h798m-798-68h798m-798-68h798m-798-136h798m-798-69h798m-798-68h798"/><clipPath id="a"><path d="M0 0h798v816H0V0Z"/></clipPath><path stroke="#e01b24" stroke-width="2" stroke-linecap="butt" clip-path="url(#a)" d="M734.49 40.76s-90.84 41.88-125.53 57.97c-34.69 16.1-82.46 38.86-104.07 48.54-21.6 9.68-44.63 18.7-64.82 27.86-20.2 9.15-40.39 17.53-60.58 28.88-20.2 11.35-48.7 28.92-72.58 47-23.87 18.1-71.63 62.13-71.63 62.13"/><path stroke="#63452c" stroke-width="2" stroke-linecap="butt" clip-path="url(#a)" d="M734.49 77.12s-90.84 30-125.53 42.94C574.27 133 526.5 152.72 504.9 162.1c-21.6 9.36-44.63 19.38-64.82 30-20.2 10.62-40.39 22.02-60.58 35.67-20.2 13.66-48.7 34.3-72.58 55.4-23.87 21.1-71.63 71.93-71.63 71.93"/><path stroke="#3a3a3a" stroke-width="2" stroke-linecap="butt" clip-path="url(#a)" d="M756.5 45.37s-60.35 28.47-90.52 41.96c-30.18 13.5-87.66 36.85-131.5 56.61-43.82 19.77-115.23 48.78-160.44 75.66-45.21 26.88-96.65 58.33-135.64 97.33-38.99 39-77.98 85.42-116.97 150.04C82.44 531.6 3.97 705.67 3.97 705.67"/><path clip-path="url(#a)" d="M737.49 40.76a3 3 0 1 1-6 0 3 3 0 0 1 6 0ZM611.96 98.73a3 3 0 1 1-6 0 3 3 0 0 1 6 0ZM507.9 147.27a3 3 0 1 1-6 0 3 3 0 0 1 6 0Zm-64.83 27.86a3 3 0 1 1-6 0 3 3 0 0 1 6 0ZM382.5 204a3 3 0 1 1-6 0 3 3 0 0 1 6 0Zm-72.59 47.02a3 3 0 1 1-6 0 3 3 0 0 1 6 0Zm-71.63 62.12a3 3 0 1 1-6 0 3 3 0 0 1 6 0ZM737.49 77.12a3 3 0 1 1-6 0 3 3 0 0 1 6 0Zm-125.53 42.94a3 3 0 1 1-6 0 3 3 0 0 1 6 0ZM507.9 162.09a3 3 0 1 1-6 0 3 3 0 0 1 6 0Zm-64.83 30a3 3 0 1 1-6 0 3 3 0 0 1 6 0Zm-60.57 35.67a3 3 0 1 1-6 0 3 3 0 0 1 6 0Zm-72.59 55.41a3 3 0 1 1-6 0 3 3 0 0 1 6 0Zm-71.63 71.92a3 3 0 1 1-6 0 3 3 0 0 1 6 0ZM759.5 45.37a3 3 0 1 1-6 0 3 3 0 0 1 6 0Zm-90.52 41.96a3 3 0 1 1-6 0 3 3 0 0 1 6 0Zm-131.49 56.61a3 3 0 1 1-6 0 3 3 0 0 1 6 0ZM377.04 219.6a3 3 0 1 1-6 0 3 3 0 0 1 6 0Z"/><path clip-path="url(#a)" d="M241.4 316.93a3 3 0 1 1-6 0 3 3 0 0 1 6 0ZM124.43 466.97a3 3 0 1 1-6 0 3 3 0 0 1 6 0ZM6.97 705.67a3 3 0 1 1-6 0 3 3 0 0 1 6 0Z"/><path stroke="#242424" stroke-width="3" stroke-linejoin="round" stroke-linecap="round" d="M596.11 10.39v2.68q.44-.28.9-.42.45-.15.9-.15 1.25 0 2.11.87.88.86.88 2.08 0 1.16-.83 1.94-.82.78-2.18.78-.48 0-.93-.13-.44-.1-.85-.36v.3h-1.4q-.44 0-.63-.16-.19-.17-.19-.45 0-.27.2-.42.18-.17.62-.17h.2v-5.2h-.2q-.44 0-.63-.16-.19-.17-.19-.44t.2-.42q.18-.17.62-.17h1.4Zm3.58 5.09q0-.75-.51-1.27-.52-.51-1.28-.51-.75 0-1.27.51-.52.52-.52 1.25 0 .66.47 1.08.47.42 1.31.42.86 0 1.33-.42.47-.42.47-1.06Zm5.36-5.1v1.27h-1.42V10.4h1.42Zm.17 2.27v4.13h1.44q.44 0 .61.17.19.16.19.44 0 .26-.19.43-.17.16-.6.16h-4.1q-.43 0-.61-.16-.19-.17-.19-.45 0-.27.19-.42.18-.17.6-.17h1.46v-2.93h-.97q-.44 0-.62-.15-.2-.17-.2-.44 0-.26.2-.44.18-.17.62-.17h2.17Zm6.11 1.2v2.41q0 .4.16.52.23.18.87.18.93 0 1.7-.39.3-.14.48-.14.23 0 .4.18.17.17.17.42 0 .23-.18.4-.3.28-1.14.52-.85.22-1.43.22-1.12 0-1.68-.49-.55-.48-.55-1.18v-2.64h-.44q-.44 0-.62-.16-.18-.17-.18-.44 0-.26.18-.44.18-.17.62-.17h.44v-1.08q0-.43.16-.6.17-.2.43-.2.27 0 .44.2.17.17.17.6v1.08h2.22q.42 0 .61.17.19.18.19.44 0 .27-.19.44-.19.16-.6.16h-2.23Zm7.05-1.2v.75q.75-.53 1.19-.72.43-.18.8-.18.6 0 1.15.43.38.3.38.6 0 .26-.2.45-.16.17-.41.17-.22 0-.47-.22-.25-.23-.44-.23-.25 0-.75.33-.5.3-1.25.93v1.82h1.7q.44 0 .61.17.19.16.19.44 0 .26-.19.43-.17.16-.6.16h-3.63q-.44 0-.63-.16-.17-.17-.17-.45 0-.27.17-.42.19-.17.63-.17h.72v-2.93h-.44q-.44 0-.63-.15-.17-.17-.17-.44 0-.26.17-.44.2-.17.63-.17h1.64Zm8.33 5.33v-.28q-.46.23-1 .36-.55.12-.99.12-.97 0-1.58-.51-.6-.52-.6-1.14 0-.75.76-1.4.78-.65 2.14-.65.55 0 1.27.13v-.3q0-.27-.24-.44-.23-.17-.89-.17-.53 0-1.37.22-.32.08-.5.08-.24 0-.4-.18-.16-.18-.16-.45 0-.16.04-.26.06-.11.17-.18.11-.06.44-.15.45-.13.9-.2.48-.08.85-.08 1.11 0 1.74.48.62.48.62 1.33v2.47h.2q.43 0 .61.17.2.16.2.44 0 .26-.2.43-.18.16-.6.16h-1.41Zm0-2.16q-.72-.14-1.33-.14-.74 0-1.27.36-.32.24-.32.47 0 .17.15.27.3.2.8.2.44 0 .98-.17.55-.17.99-.47v-.52Zm5.62-1.96v2.4q0 .4.16.52.23.18.87.18.93 0 1.7-.39.3-.14.48-.14.23 0 .4.18.17.17.17.42 0 .23-.18.4-.3.28-1.14.52-.85.22-1.43.22-1.12 0-1.68-.49-.55-.48-.55-1.18v-2.64h-.44q-.44 0-.62-.16-.18-.17-.18-.44 0-.26.18-.44.18-.17.62-.17h.44v-1.08q0-.43.16-.6.17-.2.43-.2.27 0 .44.2.17.17.17.6v1.08h2.22q.42 0 .61.17.19.18.19.44 0 .27-.19.44-.19.16-.6.16h-2.23Zm10.3 2.07h-4.92q.18.47.65.75.49.28 1.3.28.67 0 1.78-.28.45-.1.63-.1.25 0 .4.17.17.15.17.42 0 .23-.17.39-.23.22-1.15.42-.9.19-1.74.19-1.45 0-2.31-.82-.86-.8-.86-2 0-1.26.92-2.06.94-.8 2.16-.8.73 0 1.34.27.63.25.92.55.43.44.7 1.08.18.45.18 1.03v.51Zm-1.33-1.2q-.26-.52-.72-.77-.44-.26-1.06-.26-.6 0-1.06.26-.44.25-.72.77h3.56Zm11.9.33q0-1.02.34-2.08.25-.77.78-1.72.37-.67.54-.83.2-.15.41-.15.27 0 .44.17.17.17.17.42 0 .17-.14.4-.63 1.04-.92 1.96-.28.9-.28 1.83 0 .94.28 1.84.3.9.92 1.96.14.23.14.4 0 .25-.17.42-.17.18-.44.18-.2 0-.38-.15-.23-.2-.62-.92-.55-1.03-.75-1.7-.33-1.03-.33-2.03Zm6.43.92v2h-1.4q-.43 0-.62-.16-.18-.17-.18-.45 0-.27.18-.42.2-.17.61-.17h.2v-5.2h-.2q-.42 0-.6-.16-.2-.17-.2-.44t.2-.42q.18-.17.6-.17h1.4v4.04l.95-.76q-.14-.25-.14-.4 0-.27.17-.45.19-.17.62-.17h1.38q.42 0 .6.17.2.18.2.44 0 .27-.2.44-.18.16-.6.16h-.35l-1.45 1.18 1.97 1.74h.34q.44 0 .61.17.2.16.2.44 0 .26-.2.43-.17.16-.6.16h-1.38q-.44 0-.63-.16-.18-.17-.18-.45 0-.22.2-.45l-1.27-1.13-.23.19Zm6.48-5.6v2.7q.44-.29.9-.43.45-.15.9-.15 1.25 0 2.11.87.88.86.88 2.08 0 1.16-.83 1.94-.82.78-2.18.78-.48 0-.93-.13-.44-.1-.85-.36v.3h-1.4q-.44 0-.63-.16-.19-.17-.19-.45 0-.27.2-.42.18-.17.62-.17h.2v-5.2h-.2q-.44 0-.63-.16-.19-.17-.19-.44t.2-.42q.18-.17.62-.17h1.4Zm3.58 5.1q0-.75-.51-1.27-.52-.51-1.28-.51-.75 0-1.27.51-.52.52-.52 1.25 0 .66.47 1.08.47.42 1.31.42.86 0 1.33-.42.47-.42.47-1.06Zm7.4-4.94-3.84 8.3q-.15.31-.26.4-.16.13-.38.13-.25 0-.43-.19-.18-.17-.18-.39 0-.15.14-.47l3.88-8.3q.14-.29.25-.38.16-.13.38-.13.23 0 .4.17.19.18.19.4 0 .15-.14.46Zm5.84 3.52q-.3-.17-.63-.27-.31-.1-.67-.1-.7 0-1.11.24-.17.1-.17.22 0 .13.23.27.19.1.85.17 1.18.17 1.65.33.63.22.96.65.34.43.34.9 0 .64-.58 1.07-.81.63-2.1.63-.54 0-.98-.1-.43-.07-.8-.26-.09.08-.2.12-.1.05-.2.05-.28 0-.45-.19-.16-.18-.16-.62v-.4q0-.43.16-.62.17-.19.43-.19.22 0 .36.13.16.1.24.4.28.24.65.37.4.1.91.1.81 0 1.28-.25.22-.12.22-.26 0-.24-.31-.4-.31-.15-1.28-.26-1.46-.14-1.94-.58-.49-.42-.49-1.06 0-.64.55-1.06.74-.6 1.92-.6.43 0 .8.08.4.08.75.25l.2-.12q.1-.05.18-.05.25 0 .4.19.17.19.17.62v.3q0 .4-.09.53-.19.27-.52.27-.2 0-.37-.13-.16-.14-.2-.37Zm6.2 1q0 1.03-.33 2.08-.26.78-.78 1.71-.4.7-.58.85-.17.16-.39.16-.26 0-.44-.18-.17-.17-.17-.42 0-.17.14-.4.63-1.05.9-1.96.3-.9.3-1.84 0-.92-.3-1.83-.27-.92-.9-1.95-.14-.24-.14-.4 0-.26.17-.43.18-.17.44-.17.22 0 .38.14.23.2.62.92.56 1.03.77 1.7.3 1.03.3 2.02Zm15.97-4.52-3.85 8.3q-.15.31-.26.4-.16.13-.38.13-.25 0-.43-.19-.18-.17-.18-.39 0-.15.14-.47l3.88-8.3q.14-.29.25-.38.16-.13.38-.13.23 0 .4.17.19.18.19.4 0 .15-.14.46Zm12.83 3.52q-.3-.17-.63-.27-.31-.1-.67-.1-.7 0-1.11.24-.17.1-.17.22 0 .13.23.27.19.1.85.17 1.18.17 1.65.33.63.22.96.65.34.43.34.9 0 .64-.58 1.07-.81.63-2.1.63-.54 0-.98-.1-.43-.07-.8-.26-.09.08-.2.12-.1.05-.2.05-.28 0-.45-.19-.16-.18-.16-.62v-.4q0-.43.16-.62.17-.19.43-.19.22 0 .36.13.16.1.24.4.28.24.65.37.4.1.91.1.81 0 1.28-.25.22-.12.22-.26 0-.24-.31-.4-.31-.15-1.28-.26-1.46-.14-1.94-.58-.49-.42-.49-1.06 0-.64.55-1.06.74-.6 1.92-.6.43 0 .8.08.4.08.75.25l.2-.12q.1-.05.18-.05.25 0 .4.19.17.19.17.62v.3q0 .4-.09.53-.19.27-.52.27-.2 0-.37-.13-.16-.14-.2-.37Zm7 0q-.3-.17-.63-.27-.31-.1-.67-.1-.7 0-1.11.24-.17.1-.17.22 0 .13.23.27.19.1.85.17 1.18.17 1.65.33.63.22.96.65.34.43.34.9 0 .64-.58 1.07-.81.63-2.1.63-.54 0-.98-.1-.43-.07-.8-.26-.09.08-.2.12-.1.05-.2.05-.28 0-.45-.19-.16-.18-.16-.62v-.4q0-.43.16-.62.17-.19.43-.19.22 0 .36.13.16.1.24.4.28.24.65.37.4.1.91.1.81 0 1.28-.25.22-.12.22-.26 0-.24-.31-.4-.31-.15-1.28-.26-1.46-.14-1.94-.58-.49-.42-.49-1.06 0-.64.55-1.06.74-.6 1.92-.6.43 0 .8.08.4.08.75.25l.2-.12q.1-.05.18-.05.25 0 .4.19.17.19.17.62v.3q0 .4-.09.53-.19.27-.52.27-.2 0-.37-.13-.16-.14-.2-.37Zm6.12-3.67v1.26h-1.42V10.4h1.42Zm.17 2.26v4.13h1.44q.44 0 .61.17.19.16.19.44 0 .26-.19.43-.17.16-.6.16h-4.1q-.43 0-.61-.16-.19-.17-.19-.45 0-.27.19-.42.18-.17.6-.17h1.46v-2.93h-.97q-.44 0-.62-.15-.2-.17-.2-.44 0-.26.2-.44.18-.17.62-.17h2.17Zm4.55 0V13q.3-.29.53-.4.24-.1.55-.1.26 0 .51.12.27.13.5.4.32-.27.63-.4.33-.12.67-.12.66 0 1.08.36.55.46.55 1.23v2.69q.37 0 .54.17.19.17.19.44 0 .26-.19.43-.17.16-.6.16h-1.15v-3.8q0-.26-.1-.37-.09-.11-.3-.11-.2 0-.36.1-.22.15-.53.55v2.43q.37 0 .54.17.19.17.19.44 0 .26-.19.43-.17.16-.6.16h-1.15v-3.8q0-.26-.1-.37-.1-.11-.3-.11-.22 0-.43.14-.2.12-.48.52v2.42q.38 0 .55.17.18.17.18.44 0 .26-.18.43-.18.16-.61.16h-1.08q-.44 0-.63-.16-.18-.17-.18-.45 0-.27.18-.42.2-.17.57-.17v-2.93q-.38 0-.57-.15-.18-.17-.18-.44 0-.26.18-.44.2-.17.63-.17h1.14Zm11.4 0v4.13q.38 0 .55.17.2.17.2.44 0 .26-.2.43-.17.16-.6.16h-1.15v-.28q-.51.23-.98.34-.47.13-.9.13-.59 0-1.02-.25-.43-.25-.7-.69-.16-.31-.16-.78v-2.6h-.2q-.44 0-.63-.15-.19-.17-.19-.44 0-.26.19-.44.19-.17.62-.17h1.41v3.58q0 .4.17.56.19.17.58.17.36 0 .78-.14.42-.14 1.03-.51v-2.45h-.43q-.44 0-.63-.16-.17-.17-.17-.44 0-.26.17-.44.19-.17.63-.17h1.64Zm5.05-2.26v6.39h1.44q.44 0 .63.17.18.16.18.44 0 .26-.18.43-.2.16-.63.16h-4.08q-.44 0-.62-.16-.19-.17-.19-.45 0-.27.19-.42.18-.17.62-.17h1.44v-5.2h-.97q-.42 0-.6-.16-.2-.17-.2-.44t.18-.42q.18-.17.62-.17h2.17Zm7.49 7.59v-.28q-.46.23-1 .36-.55.12-.99.12-.97 0-1.58-.51-.6-.52-.6-1.14 0-.75.76-1.4.78-.65 2.14-.65.55 0 1.27.13v-.3q0-.27-.24-.44-.23-.17-.89-.17-.53 0-1.37.22-.32.08-.5.08-.24 0-.4-.18-.16-.18-.16-.45 0-.16.04-.26.06-.11.17-.18.11-.06.44-.15.45-.13.9-.2.48-.08.85-.08 1.11 0 1.74.48.62.48.62 1.33v2.47h.2q.43 0 .61.17.2.16.2.44 0 .26-.2.43-.18.16-.6.16h-1.41Zm0-2.16q-.72-.14-1.33-.14-.74 0-1.27.36-.32.24-.32.47 0 .17.15.27.3.2.8.2.44 0 .98-.17.55-.17.99-.47v-.52Zm7.78-2.95q.22-.2.45-.2.25 0 .42.19.18.18.18.6v.79q0 .42-.18.6-.17.2-.43.2-.25 0-.43-.15-.1-.1-.18-.44-.07-.32-.35-.48-.47-.28-1.2-.28-.86 0-1.38.5-.5.5-.5 1.26 0 .7.49 1.11.5.41 1.64.41.75 0 1.22-.16.28-.09.53-.3.25-.24.47-.24.23 0 .4.18.2.18.2.43 0 .4-.55.76-.8.53-2.36.53-1.41 0-2.2-.57-1.04-.79-1.04-2.15 0-1.28.85-2.12.86-.84 2.23-.84.5 0 .92.09.44.1.8.28Zm4.89-.22v.75q.75-.53 1.19-.72.43-.18.8-.18.6 0 1.15.43.38.3.38.6 0 .26-.2.45-.16.17-.41.17-.22 0-.47-.22-.25-.23-.44-.23-.25 0-.75.33-.5.3-1.25.93v1.82h1.7q.44 0 .61.17.19.16.19.44 0 .26-.19.43-.17.16-.6.16h-3.63q-.44 0-.63-.16-.17-.17-.17-.45 0-.27.17-.42.19-.17.63-.17h.72v-2.93h-.44q-.44 0-.63-.15-.17-.17-.17-.44 0-.26.17-.44.2-.17.63-.17h1.64Zm8.33 5.33v-.28q-.46.23-1 .36-.55.12-.99.12-.97 0-1.58-.51-.6-.52-.6-1.14 0-.75.76-1.4.78-.65 2.14-.65.55 0 1.27.13v-.3q0-.27-.24-.44-.23-.17-.89-.17-.53 0-1.37.22-.32.08-.5.08-.24 0-.4-.18-.16-.18-.16-.45 0-.16.04-.26.06-.11.17-.18.11-.06.44-.15.45-.13.9-.2.48-.08.85-.08 1.11 0 1.74.48.62.48.62 1.33v2.47h.2q.43 0 .61.17.2.16.2.44 0 .26-.2.43-.18.16-.6.16h-1.41Zm0-2.16q-.72-.14-1.33-.14-.74 0-1.27.36-.32.24-.32.47 0 .17.15.27.3.2.8.2.44 0 .98-.17.55-.17.99-.47v-.52Zm4.8.96h2.62q.22-.18.4-.18.29 0 .44.2.17.16.17.6v.58h-5.48v-1.27q3.25-2.68 3.92-3.45.35-.39.35-.75 0-.44-.4-.76-.37-.35-1.01-.35t-1.08.38q-.22.2-.36.6-.08.24-.22.35-.14.1-.36.1-.23 0-.42-.18-.17-.17-.17-.4 0-.36.31-.88.33-.53.96-.84.62-.33 1.36-.33 1.14 0 1.86.69.73.68.73 1.67 0 .5-.22.92-.2.42-.98 1.17-.63.6-2.43 2.13Z"/><path fill="#f3f3f3" d="M596.11 10.39v2.68q.44-.28.9-.42.45-.15.9-.15 1.25 0 2.11.87.88.86.88 2.08 0 1.16-.83 1.94-.82.78-2.18.78-.48 0-.93-.13-.44-.1-.85-.36v.3h-1.4q-.44 0-.63-.16-.19-.17-.19-.45 0-.27.2-.42.18-.17.62-.17h.2v-5.2h-.2q-.44 0-.63-.16-.19-.17-.19-.44t.2-.42q.18-.17.62-.17h1.4Zm3.58 5.09q0-.75-.51-1.27-.52-.51-1.28-.51-.75 0-1.27.51-.52.52-.52 1.25 0 .66.47 1.08.47.42 1.31.42.86 0 1.33-.42.47-.42.47-1.06Zm5.36-5.1v1.27h-1.42V10.4h1.42Zm.17 2.27v4.13h1.44q.44 0 .61.17.19.16.19.44 0 .26-.19.43-.17.16-.6.16h-4.1q-.43 0-.61-.16-.19-.17-.19-.45 0-.27.19-.42.18-.17.6-.17h1.46v-2.93h-.97q-.44 0-.62-.15-.2-.17-.2-.44 0-.26.2-.44.18-.17.62-.17h2.17Zm6.11 1.2v2.41q0 .4.16.52.23.18.87.18.93 0 1.7-.39.3-.14.48-.14.23 0 .4.18.17.17.17.42 0 .23-.18.4-.3.28-1.14.52-.85.22-1.43.22-1.12 0-1.68-.49-.55-.48-.55-1.18v-2.64h-.44q-.44 0-.62-.16-.18-.17-.18-.44 0-.26.18-.44.18-.17.62-.17h.44v-1.08q0-.43.16-.6.17-.2.43-.2.27 0 .44.2.17.17.17.6v1.08h2.22q.42 0 .61.17.19.18.19.44 0 .27-.19.44-.19.16-.6.16h-2.23Zm7.05-1.2v.75q.75-.53 1.19-.72.43-.18.8-.18.6 0 1.15.43.38.3.38.6 0 .26-.2.45-.16.17-.41.17-.22 0-.47-.22-.25-.23-.44-.23-.25 0-.75.33-.5.3-1.25.93v1.82h1.7q.44 0 .61.17.19.16.19.44 0 .26-.19.43-.17.16-.6.16h-3.63q-.44 0-.63-.16-.17-.17-.17-.45 0-.27.17-.42.19-.17.63-.17h.72v-2.93h-.44q-.44 0-.63-.15-.17-.17-.17-.44 0-.26.17-.44.2-.17.63-.17h1.64Zm8.33 5.33v-.28q-.46.23-1 .36-.55.12-.99.12-.97 0-1.58-.51-.6-.52-.6-1.14 0-.75.76-1.4.78-.65 2.14-.65.55 0 1.27.13v-.3q0-.27-.24-.44-.23-.17-.89-.17-.53 0-1.37.22-.32.08-.5.08-.24 0-.4-.18-.16-.18-.16-.45 0-.16.04-.26.06-.11.17-.18.11-.06.44-.15.45-.13.9-.2.48-.08.85-.08 1.11 0 1.74.48.62.48.62 1.33v2.47h.2q.43 0 .61.17.2.16.2.44 0 .26-.2.43-.18.16-.6.16h-1.41Zm0-2.16q-.72-.14-1.33-.14-.74 0-1.27.36-.32.24-.32.47 0 .17.15.27.3.2.8.2.44 0 .98-.17.55-.17.99-.47v-.52Zm5.62-1.96v2.4q0 .4.16.52.23.18.87.18.93 0 1.7-.39.3-.14.48-.14.23 0 .4.18.17.17.17.42 0 .23-.18.4-.3.28-1.14.52-.85.22-1.43.22-1.12 0-1.68-.49-.55-.48-.55-1.18v-2.64h-.44q-.44 0-.62-.16-.18-.17-.18-.44 0-.26.18-.44.18-.17.62-.17h.44v-1.08q0-.43.16-.6.17-.2.43-.2.27 0 .44.2.17.17.17.6v1.08h2.22q.42 0 .61.17.19.18.19.44 0 .27-.19.44-.19.16-.6.16h-2.23Zm10.3 2.07h-4.92q.18.47.65.75.49.28 1.3.28.67 0 1.78-.28.45-.1.63-.1.25 0 .4.17.17.15.17.42 0 .23-.17.39-.23.22-1.15.42-.9.19-1.74.19-1.45 0-2.31-.82-.86-.8-.86-2 0-1.26.92-2.06.94-.8 2.16-.8.73 0 1.34.27.63.25.92.55.43.44.7 1.08.18.45.18 1.03v.51Zm-1.33-1.2q-.26-.52-.72-.77-.44-.26-1.06-.26-.6 0-1.06.26-.44.25-.72.77h3.56Zm11.9.33q0-1.02.34-2.08.25-.77.78-1.72.37-.67.54-.83.2-.15.41-.15.27 0 .44.17.17.17.17.42 0 .17-.14.4-.63 1.04-.92 1.96-.28.9-.28 1.83 0 .94.28 1.84.3.9.92 1.96.14.23.14.4 0 .25-.17.42-.17.18-.44.18-.2 0-.38-.15-.23-.2-.62-.92-.55-1.03-.75-1.7-.33-1.03-.33-2.03Zm6.43.92v2h-1.4q-.43 0-.62-.16-.18-.17-.18-.45 0-.27.18-.42.2-.17.61-.17h.2v-5.2h-.2q-.42 0-.6-.16-.2-.17-.2-.44t.2-.42q.18-.17.6-.17h1.4v4.04l.95-.76q-.14-.25-.14-.4 0-.27.17-.45.19-.17.62-.17h1.38q.42 0 .6.17.2.18.2.44 0 .27-.2.44-.18.16-.6.16h-.35l-1.45 1.18 1.97 1.74h.34q.44 0 .61.17.2.16.2.44 0 .26-.2.43-.17.16-.6.16h-1.38q-.44 0-.63-.16-.18-.17-.18-.45 0-.22.2-.45l-1.27-1.13-.23.19Zm6.48-5.6v2.7q.44-.29.9-.43.45-.15.9-.15 1.25 0 2.11.87.88.86.88 2.08 0 1.16-.83 1.94-.82.78-2.18.78-.48 0-.93-.13-.44-.1-.85-.36v.3h-1.4q-.44 0-.63-.16-.19-.17-.19-.45 0-.27.2-.42.18-.17.62-.17h.2v-5.2h-.2q-.44 0-.63-.16-.19-.17-.19-.44t.2-.42q.18-.17.62-.17h1.4Zm3.58 5.1q0-.75-.51-1.27-.52-.51-1.28-.51-.75 0-1.27.51-.52.52-.52 1.25 0 .66.47 1.08.47.42 1.31.42.86 0 1.33-.42.47-.42.47-1.06Zm7.4-4.94-3.84 8.3q-.15.31-.26.4-.16.13-.38.13-.25 0-.43-.19-.18-.17-.18-.39 0-.15.14-.47l3.88-8.3q.14-.29.25-.38.16-.13.38-.13.23 0 .4.17.19.18.19.4 0 .15-.14.46Zm5.84 3.52q-.3-.17-.63-.27-.31-.1-.67-.1-.7 0-1.11.24-.17.1-.17.22 0 .13.23.27.19.1.85.17 1.18.17 1.65.33.63.22.96.65.34.43.34.9 0 .64-.58 1.07-.81.63-2.1.63-.54 0-.98-.1-.43-.07-.8-.26-.09.08-.2.12-.1.05-.2.05-.28 0-.45-.19-.16-.18-.16-.62v-.4q0-.43.16-.62.17-.19.43-.19.22 0 .36.13.16.1.24.4.28.24.65.37.4.1.91.1.81 0 1.28-.25.22-.12.22-.26 0-.24-.31-.4-.31-.15-1.28-.26-1.46-.14-1.94-.58-.49-.42-.49-1.06 0-.64.55-1.06.74-.6 1.92-.6.43 0 .8.08.4.08.75.25l.2-.12q.1-.05.18-.05.25 0 .4.19.17.19.17.62v.3q0 .4-.09.53-.19.27-.52.27-.2 0-.37-.13-.16-.14-.2-.37Zm6.2 1q0 1.03-.33 2.08-.26.78-.78 1.71-.4.7-.58.85-.17.16-.39.16-.26 0-.44-.18-.17-.17-.17-.42 0-.17.14-.4.63-1.05.9-1.96.3-.9.3-1.84 0-.92-.3-1.83-.27-.92-.9-1.95-.14-.24-.14-.4 0-.26.17-.43.18-.17.44-.17.22 0 .38.14.23.2.62.92.56 1.03.77 1.7.3 1.03.3 2.02Zm15.97-4.52-3.85 8.3q-.15.31-.26.4-.16.13-.38.13-.25 0-.43-.19-.18-.17-.18-.39 0-.15.14-.47l3.88-8.3q.14-.29.25-.38.16-.13.38-.13.23 0 .4.17.19.18.19.4 0 .15-.14.46Zm12.83 3.52q-.3-.17-.63-.27-.31-.1-.67-.1-.7 0-1.11.24-.17.1-.17.22 0 .13.23.27.19.1.85.17 1.18.17 1.65.33.63.22.96.65.34.43.34.9 0 .64-.58 1.07-.81.63-2.1.63-.54 0-.98-.1-.43-.07-.8-.26-.09.08-.2.12-.1.05-.2.05-.28 0-.45-.19-.16-.18-.16-.62v-.4q0-.43.16-.62.17-.19.43-.19.22 0 .36.13.16.1.24.4.28.24.65.37.4.1.91.1.81 0 1.28-.25.22-.12.22-.26 0-.24-.31-.4-.31-.15-1.28-.26-1.46-.14-1.94-.58-.49-.42-.49-1.06 0-.64.55-1.06.74-.6 1.92-.6.43 0 .8.08.4.08.75.25l.2-.12q.1-.05.18-.05.25 0 .4.19.17.19.17.62v.3q0 .4-.09.53-.19.27-.52.27-.2 0-.37-.13-.16-.14-.2-.37Zm7 0q-.3-.17-.63-.27-.31-.1-.67-.1-.7 0-1.11.24-.17.1-.17.22 0 .13.23.27.19.1.85.17 1.18.17 1.65.33.63.22.96.65.34.43.34.9 0 .64-.58 1.07-.81.63-2.1.63-.54 0-.98-.1-.43-.07-.8-.26-.09.08-.2.12-.1.05-.2.05-.28 0-.45-.19-.16-.18-.16-.62v-.4q0-.43.16-.62.17-.19.43-.19.22 0 .36.13.16.1.24.4.28.24.65.37.4.1.91.1.81 0 1.28-.25.22-.12.22-.26 0-.24-.31-.4-.31-.15-1.28-.26-1.46-.14-1.94-.58-.49-.42-.49-1.06 0-.64.55-1.06.74-.6 1.92-.6.43 0 .8.08.4.08.75.25l.2-.12q.1-.05.18-.05.25 0 .4.19.17.19.17.62v.3q0 .4-.09.53-.19.27-.52.27-.2 0-.37-.13-.16-.14-.2-.37Zm6.12-3.67v1.26h-1.42V10.4h1.42Zm.17 2.26v4.13h1.44q.44 0 .61.17.19.16.19.44 0 .26-.19.43-.17.16-.6.16h-4.1q-.43 0-.61-.16-.19-.17-.19-.45 0-.27.19-.42.18-.17.6-.17h1.46v-2.93h-.97q-.44 0-.62-.15-.2-.17-.2-.44 0-.26.2-.44.18-.17.62-.17h2.17Zm4.55 0V13q.3-.29.53-.4.24-.1.55-.1.26 0 .51.12.27.13.5.4.32-.27.63-.4.33-.12.67-.12.66 0 1.08.36.55.46.55 1.23v2.69q.37 0 .54.17.19.17.19.44 0 .26-.19.43-.17.16-.6.16h-1.15v-3.8q0-.26-.1-.37-.09-.11-.3-.11-.2 0-.36.1-.22.15-.53.55v2.43q.37 0 .54.17.19.17.19.44 0 .26-.19.43-.17.16-.6.16h-1.15v-3.8q0-.26-.1-.37-.1-.11-.3-.11-.22 0-.43.14-.2.12-.48.52v2.42q.38 0 .55.17.18.17.18.44 0 .26-.18.43-.18.16-.61.16h-1.08q-.44 0-.63-.16-.18-.17-.18-.45 0-.27.18-.42.2-.17.57-.17v-2.93q-.38 0-.57-.15-.18-.17-.18-.44 0-.26.18-.44.2-.17.63-.17h1.14Zm11.4 0v4.13q.38 0 .55.17.2.17.2.44 0 .26-.2.43-.17.16-.6.16h-1.15v-.28q-.51.23-.98.34-.47.13-.9.13-.59 0-1.02-.25-.43-.25-.7-.69-.16-.31-.16-.78v-2.6h-.2q-.44 0-.63-.15-.19-.17-.19-.44 0-.26.19-.44.19-.17.62-.17h1.41v3.58q0 .4.17.56.19.17.58.17.36 0 .78-.14.42-.14 1.03-.51v-2.45h-.43q-.44 0-.63-.16-.17-.17-.17-.44 0-.26.17-.44.19-.17.63-.17h1.64Zm5.05-2.26v6.39h1.44q.44 0 .63.17.18.16.18.44 0 .26-.18.43-.2.16-.63.16h-4.08q-.44 0-.62-.16-.19-.17-.19-.45 0-.27.19-.42.18-.17.62-.17h1.44v-5.2h-.97q-.42 0-.6-.16-.2-.17-.2-.44t.18-.42q.18-.17.62-.17h2.17Zm7.49 7.59v-.28q-.46.23-1 .36-.55.12-.99.12-.97 0-1.58-.51-.6-.52-.6-1.14 0-.75.76-1.4.78-.65 2.14-.65.55 0 1.27.13v-.3q0-.27-.24-.44-.23-.17-.89-.17-.53 0-1.37.22-.32.08-.5.08-.24 0-.4-.18-.16-.18-.16-.45 0-.16.04-.26.06-.11.17-.18.11-.06.44-.15.45-.13.9-.2.48-.08.85-.08 1.11 0 1.74.48.62.48.62 1.33v2.47h.2q.43 0 .61.17.2.16.2.44 0 .26-.2.43-.18.16-.6.16h-1.41Zm0-2.16q-.72-.14-1.33-.14-.74 0-1.27.36-.32.24-.32.47 0 .17.15.27.3.2.8.2.44 0 .98-.17.55-.17.99-.47v-.52Zm7.78-2.95q.22-.2.45-.2.25 0 .42.19.18.18.18.6v.79q0 .42-.18.6-.17.2-.43.2-.25 0-.43-.15-.1-.1-.18-.44-.07-.32-.35-.48-.47-.28-1.2-.28-.86 0-1.38.5-.5.5-.5 1.26 0 .7.49 1.11.5.41 1.64.41.75 0 1.22-.16.28-.09.53-.3.25-.24.47-.24.23 0 .4.18.2.18.2.43 0 .4-.55.76-.8.53-2.36.53-1.41 0-2.2-.57-1.04-.79-1.04-2.15 0-1.28.85-2.12.86-.84 2.23-.84.5 0 .92.09.44.1.8.28Zm4.89-.22v.75q.75-.53 1.19-.72.43-.18.8-.18.6 0 1.15.43.38.3.38.6 0 .26-.2.45-.16.17-.41.17-.22 0-.47-.22-.25-.23-.44-.23-.25 0-.75.33-.5.3-1.25.93v1.82h1.7q.44 0 .61.17.19.16.19.44 0 .26-.19.43-.17.16-.6.16h-3.63q-.44 0-.63-.16-.17-.17-.17-.45 0-.27.17-.42.19-.17.63-.17h.72v-2.93h-.44q-.44 0-.63-.15-.17-.17-.17-.44 0-.26.17-.44.2-.17.63-.17h1.64Zm8.33 5.33v-.28q-.46.23-1 .36-.55.12-.99.12-.97 0-1.58-.51-.6-.52-.6-1.14 0-.75.76-1.4.78-.65 2.14-.65.55 0 1.27.13v-.3q0-.27-.24-.44-.23-.17-.89-.17-.53 0-1.37.22-.32.08-.5.08-.24 0-.4-.18-.16-.18-.16-.45 0-.16.04-.26.06-.11.17-.18.11-.06.44-.15.45-.13.9-.2.48-.08.85-.08 1.11 0 1.74.48.62.48.62 1.33v2.47h.2q.43 0 .61.17.2.16.2.44 0 .26-.2.43-.18.16-.6.16h-1.41Zm0-2.16q-.72-.14-1.33-.14-.74 0-1.27.36-.32.24-.32.47 0 .17.15.27.3.2.8.2.44 0 .98-.17.55-.17.99-.47v-.52Zm4.8.96h2.62q.22-.18.4-.18.29 0 .44.2.17.16.17.6v.58h-5.48v-1.27q3.25-2.68 3.92-3.45.35-.39.35-.75 0-.44-.4-.76-.37-.35-1.01-.35t-1.08.38q-.22.2-.36.6-.08.24-.22.35-.14.1-.36.1-.23 0-.42-.18-.17-.17-.17-.4 0-.36.31-.88.33-.53.96-.84.62-.33 1.36-.33 1.14 0 1.86.69.73.68.73 1.67 0 .5-.22.92-.2.42-.98 1.17-.63.6-2.43 2.13Z"/><path stroke="#242424" stroke-width="3" stroke-linejoin="round" stroke-linecap="round" d="M12.22 551.55v1.3q0 1.18-.67 2.26-.68 1.06-1.94 1.06-.72 0-1.23-.31-.5-.33-.96-1.19-.44-.86-.44-1.81v-1.31q0-1.17.68-2.25.67-1.08 1.93-1.08.72 0 1.22.33.5.3.96 1.17.45.86.45 1.83Zm-1.2 0q0-.99-.55-1.72-.31-.4-.88-.4-.54 0-.89.45-.51.67-.51 1.67v1.3q0 1 .54 1.71.32.4.88.4.55 0 .89-.43.52-.67.52-1.67v-1.31Z"/><path fill="#bdbdbd" d="M12.22 551.55v1.3q0 1.18-.67 2.26-.68 1.06-1.94 1.06-.72 0-1.23-.31-.5-.33-.96-1.19-.44-.86-.44-1.81v-1.31q0-1.17.68-2.25.67-1.08 1.93-1.08.72 0 1.22.33.5.3.96 1.17.45.86.45 1.83Zm-1.2 0q0-.99-.55-1.72-.31-.4-.88-.4-.54 0-.89.45-.51.67-.51 1.67v1.3q0 1 .54 1.71.32.4.88.4.55 0 .89-.43.52-.67.52-1.67v-1.31Z"/><path stroke="#242424" stroke-width="3" stroke-linejoin="round" stroke-linecap="round" d="M8.6 277.63v1.42q.67-.2 1.2-.2 1.1 0 1.84.74.73.75.73 1.96 0 1.23-.74 1.93t-2.27.7q-1.34 0-2.13-.5-.45-.3-.45-.7 0-.23.17-.4.17-.19.42-.19.2 0 .44.2.25.2.52.27.37.1.95.1 1.1 0 1.49-.33.4-.35.4-1.07 0-.72-.39-1.12-.37-.4-.98-.4-.64 0-1.47.41-.19.11-.33.11-.27 0-.44-.19-.17-.18-.17-.48v-3.47h3.67q.44 0 .61.17.19.16.19.43 0 .26-.19.43-.17.18-.6.18H8.58Zm10.62 1.92v1.3q0 1.18-.67 2.26-.68 1.06-1.94 1.06-.72 0-1.23-.31-.5-.33-.96-1.19-.44-.86-.44-1.81v-1.31q0-1.18.68-2.25.67-1.08 1.93-1.08.72 0 1.22.33.5.3.96 1.17.45.86.45 1.83Zm-1.2 0q0-.99-.55-1.72-.31-.4-.88-.4-.54 0-.89.44-.51.68-.51 1.68v1.3q0 1 .54 1.71.32.4.88.4.55 0 .89-.43.52-.67.52-1.67v-1.31Z"/><path fill="#bdbdbd" d="M8.6 277.63v1.42q.67-.2 1.2-.2 1.1 0 1.84.74.73.75.73 1.96 0 1.23-.74 1.93t-2.27.7q-1.34 0-2.13-.5-.45-.3-.45-.7 0-.23.17-.4.17-.19.42-.19.2 0 .44.2.25.2.52.27.37.1.95.1 1.1 0 1.49-.33.4-.35.4-1.07 0-.72-.39-1.12-.37-.4-.98-.4-.64 0-1.47.41-.19.11-.33.11-.27 0-.44-.19-.17-.18-.17-.48v-3.47h3.67q.44 0 .61.17.19.16.19.43 0 .26-.19.43-.17.18-.6.18H8.58Zm10.62 1.92v1.3q0 1.18-.67 2.26-.68 1.06-1.94 1.06-.72 0-1.23-.31-.5-.33-.96-1.19-.44-.86-.44-1.81v-1.31q0-1.18.68-2.25.67-1.08 1.93-1.08.72 0 1.22.33.5.3.96 1.17.45.86.45 1.83Zm-1.2 0q0-.99-.55-1.72-.31-.4-.88-.4-.54 0-.89.44-.51.68-.51 1.68v1.3q0 1 .54 1.71.32.4.88.4.55 0 .89-.43.52-.67.52-1.67v-1.31Z"/><path stroke="#242424" stroke-width="3" stroke-linejoin="round" stroke-linecap="round" d="M25.95 799.14v2.4q.42-.16.82-.26.4-.1.76-.1.94 0 1.55.66.62.64.62 1.7 0 1.18-.7 1.91-.7.72-1.75.72-.7 0-1.34-.31-.46-.22-.83-.53-.22-.2-.22-.33 0-.1.06-.17.08-.08.17-.08.1 0 .2.1.9.84 1.93.84.87 0 1.44-.6.56-.59.56-1.56 0-.84-.5-1.34-.49-.5-1.24-.5-.76 0-1.53.39-.18.1-.26.1-.11 0-.17-.07-.07-.08-.07-.2v-3.27h3.44q.17 0 .25.08.08.06.08.17 0 .11-.08.19-.08.06-.25.06h-2.94Zm10.61 2.58v1.22q0 1.58-.75 2.51-.6.72-1.5.72-.44 0-.83-.17-.37-.17-.64-.48-.17-.2-.37-.61-.2-.44-.28-.8-.14-.5-.14-1.17v-1.22q0-1.6.75-2.52.59-.73 1.5-.73.43 0 .8.17.4.17.67.49.17.2.37.64.2.42.3.76.12.5.12 1.19Zm-.48.06q0-.7-.2-1.3-.2-.6-.44-.95-.16-.22-.4-.36-.32-.2-.74-.2-.83 0-1.3.84-.47.85-.47 1.97v1.08q0 .7.2 1.31.2.6.46.96.14.2.37.34.33.22.75.22.83 0 1.3-.85.47-.86.47-1.98v-1.08Zm7.48-.06v1.22q0 1.58-.75 2.51-.6.72-1.5.72-.44 0-.83-.17-.37-.17-.64-.48-.17-.2-.37-.61-.2-.44-.28-.8-.14-.5-.14-1.17v-1.22q0-1.6.75-2.52.59-.73 1.5-.73.43 0 .8.17.4.17.67.49.17.2.37.64.2.42.3.76.12.5.12 1.19Zm-.48.06q0-.7-.2-1.3-.2-.6-.44-.95-.16-.22-.4-.36-.32-.2-.74-.2-.83 0-1.3.84-.47.85-.47 1.97v1.08q0 .7.2 1.31.2.6.46.96.14.2.37.34.33.22.75.22.83 0 1.3-.85.47-.86.47-1.98v-1.08Zm7.48-.06v1.22q0 1.58-.75 2.51-.6.72-1.5.72-.44 0-.83-.17-.37-.17-.64-.48-.17-.2-.37-.61-.2-.44-.28-.8-.14-.5-.14-1.17v-1.22q0-1.6.75-2.52.59-.73 1.5-.73.43 0 .8.17.4.17.67.49.17.2.37.64.2.42.3.76.12.5.12 1.19Zm-.48.06q0-.7-.2-1.3-.2-.6-.44-.95-.16-.22-.4-.36-.32-.2-.74-.2-.83 0-1.3.84-.47.85-.47 1.97v1.08q0 .7.2 1.31.2.6.46.96.14.2.37.34.33.22.75.22.83 0 1.3-.85.47-.86.47-1.98v-1.08Z"/><path fill="#bdbdbd" d="M25.95 799.14v2.4q.42-.16.82-.26.4-.1.76-.1.94 0 1.55.66.62.64.62 1.7 0 1.18-.7 1.91-.7.72-1.75.72-.7 0-1.34-.31-.46-.22-.83-.53-.22-.2-.22-.33 0-.1.06-.17.08-.08.17-.08.1 0 .2.1.9.84 1.93.84.87 0 1.44-.6.56-.59.56-1.56 0-.84-.5-1.34-.49-.5-1.24-.5-.76 0-1.53.39-.18.1-.26.1-.11 0-.17-.07-.07-.08-.07-.2v-3.27h3.44q.17 0 .25.08.08.06.08.17 0 .11-.08.19-.08.06-.25.06h-2.94Zm10.61 2.58v1.22q0 1.58-.75 2.51-.6.72-1.5.72-.44 0-.83-.17-.37-.17-.64-.48-.17-.2-.37-.61-.2-.44-.28-.8-.14-.5-.14-1.17v-1.22q0-1.6.75-2.52.59-.73 1.5-.73.43 0 .8.17.4.17.67.49.17.2.37.64.2.42.3.76.12.5.12 1.19Zm-.48.06q0-.7-.2-1.3-.2-.6-.44-.95-.16-.22-.4-.36-.32-.2-.74-.2-.83 0-1.3.84-.47.85-.47 1.97v1.08q0 .7.2 1.31.2.6.46.96.14.2.37.34.33.22.75.22.83 0 1.3-.85.47-.86.47-1.98v-1.08Zm7.48-.06v1.22q0 1.58-.75 2.51-.6.72-1.5.72-.44 0-.83-.17-.37-.17-.64-.48-.17-.2-.37-.61-.2-.44-.28-.8-.14-.5-.14-1.17v-1.22q0-1.6.75-2.52.59-.73 1.5-.73.43 0 .8.17.4.17.67.49.17.2.37.64.2.42.3.76.12.5.12 1.19Zm-.48.06q0-.7-.2-1.3-.2-.6-.44-.95-.16-.22-.4-.36-.32-.2-.74-.2-.83 0-1.3.84-.47.85-.47 1.97v1.08q0 .7.2 1.31.2.6.46.96.14.2.37.34.33.22.75.22.83 0 1.3-.85.47-.86.47-1.98v-1.08Zm7.48-.06v1.22q0 1.58-.75 2.51-.6.72-1.5.72-.44 0-.83-.17-.37-.17-.64-.48-.17-.2-.37-.61-.2-.44-.28-.8-.14-.5-.14-1.17v-1.22q0-1.6.75-2.52.59-.73 1.5-.73.43 0 .8.17.4.17.67.49.17.2.37.64.2.42.3.76.12.5.12 1.19Zm-.48.06q0-.7-.2-1.3-.2-.6-.44-.95-.16-.22-.4-.36-.32-.2-.74-.2-.83 0-1.3.84-.47.85-.47 1.97v1.08q0 .7.2 1.31.2.6.46.96.14.2.37.34.33.22.75.22.83 0 1.3-.85.47-.86.47-1.98v-1.08Z"/><path stroke="#242424" stroke-width="3" stroke-linejoin="round" stroke-linecap="round" d="M141.16 798.55v6.95h1.69q.17 0 .25.08.08.06.08.17 0 .1-.08.19-.08.06-.25.06h-3.86q-.19 0-.27-.06-.06-.08-.06-.19 0-.1.06-.17.08-.08.27-.08h1.69v-6.28l-1.61.51-.17.04q-.1 0-.18-.07-.06-.08-.06-.18 0-.08.06-.16.05-.05.2-.11l2.24-.7Zm9.02 3.17v1.22q0 1.58-.75 2.51-.6.72-1.5.72-.44 0-.83-.17-.38-.17-.64-.48-.17-.2-.38-.61-.2-.44-.28-.8-.14-.5-.14-1.17v-1.22q0-1.6.75-2.52.6-.73 1.5-.73.44 0 .81.17.4.17.66.49.17.2.38.64.2.42.3.76.12.5.12 1.19Zm-.49.06q0-.7-.2-1.3-.2-.6-.44-.95-.15-.22-.39-.36-.33-.2-.75-.2-.83 0-1.3.84-.46.85-.46 1.97v1.08q0 .7.2 1.31.2.6.45.96.14.2.38.34.33.22.75.22.83 0 1.3-.85.46-.86.46-1.98v-1.08Zm7.49-.06v1.22q0 1.58-.75 2.51-.6.72-1.5.72-.44 0-.83-.17-.38-.17-.64-.48-.17-.2-.38-.61-.2-.44-.28-.8-.14-.5-.14-1.17v-1.22q0-1.6.75-2.52.6-.73 1.5-.73.44 0 .81.17.4.17.66.49.17.2.38.64.2.42.3.76.12.5.12 1.19Zm-.49.06q0-.7-.2-1.3-.2-.6-.44-.95-.15-.22-.39-.36-.33-.2-.75-.2-.83 0-1.3.84-.46.85-.46 1.97v1.08q0 .7.2 1.31.2.6.45.96.14.2.38.34.33.22.75.22.83 0 1.3-.85.46-.86.46-1.98v-1.08Zm7.49-.06v1.22q0 1.58-.75 2.51-.6.72-1.5.72-.44 0-.83-.17-.38-.17-.64-.48-.17-.2-.38-.61-.2-.44-.28-.8-.14-.5-.14-1.17v-1.22q0-1.6.75-2.52.6-.73 1.5-.73.44 0 .81.17.4.17.66.49.17.2.38.64.2.42.3.76.12.5.12 1.19Zm-.49.06q0-.7-.2-1.3-.2-.6-.44-.95-.15-.22-.39-.36-.33-.2-.75-.2-.83 0-1.3.84-.46.85-.46 1.97v1.08q0 .7.2 1.31.2.6.45.96.14.2.38.34.33.22.75.22.83 0 1.3-.85.46-.86.46-1.98v-1.08Zm7.49-.06v1.22q0 1.58-.75 2.51-.6.72-1.5.72-.44 0-.83-.17-.38-.17-.64-.48-.17-.2-.38-.61-.2-.44-.28-.8-.14-.5-.14-1.17v-1.22q0-1.6.75-2.52.6-.73 1.5-.73.44 0 .81.17.4.17.66.49.17.2.38.64.2.42.3.76.12.5.12 1.19Zm-.49.06q0-.7-.2-1.3-.2-.6-.44-.95-.15-.22-.39-.36-.33-.2-.75-.2-.83 0-1.3.84-.46.85-.46 1.97v1.08q0 .7.2 1.31.2.6.45.96.14.2.38.34.33.22.75.22.83 0 1.3-.85.46-.86.46-1.98v-1.08Z"/><path fill="#bdbdbd" d="M141.16 798.55v6.95h1.69q.17 0 .25.08.08.06.08.17 0 .1-.08.19-.08.06-.25.06h-3.86q-.19 0-.27-.06-.06-.08-.06-.19 0-.1.06-.17.08-.08.27-.08h1.69v-6.28l-1.61.51-.17.04q-.1 0-.18-.07-.06-.08-.06-.18 0-.08.06-.16.05-.05.2-.11l2.24-.7Zm9.02 3.17v1.22q0 1.58-.75 2.51-.6.72-1.5.72-.44 0-.83-.17-.38-.17-.64-.48-.17-.2-.38-.61-.2-.44-.28-.8-.14-.5-.14-1.17v-1.22q0-1.6.75-2.52.6-.73 1.5-.73.44 0 .81.17.4.17.66.49.17.2.38.64.2.42.3.76.12.5.12 1.19Zm-.49.06q0-.7-.2-1.3-.2-.6-.44-.95-.15-.22-.39-.36-.33-.2-.75-.2-.83 0-1.3.84-.46.85-.46 1.97v1.08q0 .7.2 1.31.2.6.45.96.14.2.38.34.33.22.75.22.83 0 1.3-.85.46-.86.46-1.98v-1.08Zm7.49-.06v1.22q0 1.58-.75 2.51-.6.72-1.5.72-.44 0-.83-.17-.38-.17-.64-.48-.17-.2-.38-.61-.2-.44-.28-.8-.14-.5-.14-1.17v-1.22q0-1.6.75-2.52.6-.73 1.5-.73.44 0 .81.17.4.17.66.49.17.2.38.64.2.42.3.76.12.5.12 1.19Zm-.49.06q0-.7-.2-1.3-.2-.6-.44-.95-.15-.22-.39-.36-.33-.2-.75-.2-.83 0-1.3.84-.46.85-.46 1.97v1.08q0 .7.2 1.31.2.6.45.96.14.2.38.34.33.22.75.22.83 0 1.3-.85.46-.86.46-1.98v-1.08Zm7.49-.06v1.22q0 1.58-.75 2.51-.6.72-1.5.72-.44 0-.83-.17-.38-.17-.64-.48-.17-.2-.38-.61-.2-.44-.28-.8-.14-.5-.14-1.17v-1.22q0-1.6.75-2.52.6-.73 1.5-.73.44 0 .81.17.4.17.66.49.17.2.38.64.2.42.3.76.12.5.12 1.19Zm-.49.06q0-.7-.2-1.3-.2-.6-.44-.95-.15-.22-.39-.36-.33-.2-.75-.2-.83 0-1.3.84-.46.85-.46 1.97v1.08q0 .7.2 1.31.2.6.45.96.14.2.38.34.33.22.75.22.83 0 1.3-.85.46-.86.46-1.98v-1.08Zm7.49-.06v1.22q0 1.58-.75 2.51-.6.72-1.5.72-.44 0-.83-.17-.38-.17-.64-.48-.17-.2-.38-.61-.2-.44-.28-.8-.14-.5-.14-1.17v-1.22q0-1.6.75-2.52.6-.73 1.5-.73.44 0 .81.17.4.17.66.49.17.2.38.64.2.42.3.76.12.5.12 1.19Zm-.49.06q0-.7-.2-1.3-.2-.6-.44-.95-.15-.22-.39-.36-.33-.2-.75-.2-.83 0-1.3.84-.46.85-.46 1.97v1.08q0 .7.2 1.31.2.6.45.96.14.2.38.34.33.22.75.22.83 0 1.3-.85.46-.86.46-1.98v-1.08Z"/><path stroke="#242424" stroke-width="3" stroke-linejoin="round" stroke-linecap="round" d="M411.5 799.14v2.4q.42-.16.81-.26.41-.1.77-.1.94 0 1.55.66.62.64.62 1.7 0 1.18-.7 1.91-.7.72-1.75.72-.7 0-1.34-.31-.46-.22-.83-.53-.22-.2-.22-.33 0-.1.06-.17.08-.08.17-.08.1 0 .2.1.9.84 1.93.84.87 0 1.44-.6.56-.59.56-1.56 0-.84-.5-1.34-.49-.5-1.24-.5-.76 0-1.53.39-.19.1-.26.1-.11 0-.18-.07-.06-.08-.06-.2v-3.27h3.44q.17 0 .25.08.08.06.08.17 0 .11-.08.19-.08.06-.25.06h-2.94Zm10.61 2.58v1.22q0 1.58-.75 2.51-.6.72-1.5.72-.44 0-.83-.17-.37-.17-.64-.48-.17-.2-.37-.61-.2-.44-.28-.8-.14-.5-.14-1.17v-1.22q0-1.6.75-2.52.59-.73 1.5-.73.43 0 .8.17.4.17.66.49.18.2.38.64.2.42.3.76.12.5.12 1.19Zm-.48.06q0-.7-.2-1.3-.2-.6-.44-.95-.16-.22-.4-.36-.32-.2-.74-.2-.83 0-1.3.84-.47.85-.47 1.97v1.08q0 .7.2 1.31.2.6.46.96.14.2.37.34.33.22.75.22.83 0 1.3-.85.47-.86.47-1.98v-1.08Zm7.48-.06v1.22q0 1.58-.75 2.51-.6.72-1.5.72-.44 0-.83-.17-.37-.17-.64-.48-.17-.2-.37-.61-.2-.44-.28-.8-.14-.5-.14-1.17v-1.22q0-1.6.75-2.52.59-.73 1.5-.73.43 0 .8.17.4.17.66.49.18.2.38.64.2.42.3.76.12.5.12 1.19Zm-.48.06q0-.7-.2-1.3-.2-.6-.44-.95-.16-.22-.4-.36-.32-.2-.74-.2-.83 0-1.3.84-.47.85-.47 1.97v1.08q0 .7.2 1.31.2.6.46.96.14.2.37.34.33.22.75.22.83 0 1.3-.85.47-.86.47-1.98v-1.08Zm7.48-.06v1.22q0 1.58-.75 2.51-.6.72-1.5.72-.44 0-.83-.17-.37-.17-.64-.48-.17-.2-.37-.61-.2-.44-.28-.8-.14-.5-.14-1.17v-1.22q0-1.6.75-2.52.59-.73 1.5-.73.43 0 .8.17.4.17.66.49.18.2.38.64.2.42.3.76.12.5.12 1.19Zm-.48.06q0-.7-.2-1.3-.2-.6-.44-.95-.16-.22-.4-.36-.32-.2-.74-.2-.83 0-1.3.84-.47.85-.47 1.97v1.08q0 .7.2 1.31.2.6.46.96.14.2.37.34.33.22.75.22.83 0 1.3-.85.47-.86.47-1.98v-1.08Zm7.48-.06v1.22q0 1.58-.75 2.51-.6.72-1.5.72-.44 0-.83-.17-.37-.17-.64-.48-.17-.2-.37-.61-.2-.44-.28-.8-.14-.5-.14-1.17v-1.22q0-1.6.75-2.52.59-.73 1.5-.73.43 0 .8.17.4.17.66.49.18.2.38.64.2.42.3.76.12.5.12 1.19Zm-.48.06q0-.7-.2-1.3-.2-.6-.44-.95-.16-.22-.4-.36-.32-.2-.74-.2-.83 0-1.3.84-.47.85-.47 1.97v1.08q0 .7.2 1.31.2.6.46.96.14.2.37.34.33.22.75.22.83 0 1.3-.85.47-.86.47-1.98v-1.08Z"/><path fill="#bdbdbd" d="M411.5 799.14v2.4q.42-.16.81-.26.41-.1.77-.1.94 0 1.55.66.62.64.62 1.7 0 1.18-.7 1.91-.7.72-1.75.72-.7 0-1.34-.31-.46-.22-.83-.53-.22-.2-.22-.33 0-.1.06-.17.08-.08.17-.08.1 0 .2.1.9.84 1.93.84.87 0 1.44-.6.56-.59.56-1.56 0-.84-.5-1.34-.49-.5-1.24-.5-.76 0-1.53.39-.19.1-.26.1-.11 0-.18-.07-.06-.08-.06-.2v-3.27h3.44q.17 0 .25.08.08.06.08.17 0 .11-.08.19-.08.06-.25.06h-2.94Zm10.61 2.58v1.22q0 1.58-.75 2.51-.6.72-1.5.72-.44 0-.83-.17-.37-.17-.64-.48-.17-.2-.37-.61-.2-.44-.28-.8-.14-.5-.14-1.17v-1.22q0-1.6.75-2.52.59-.73 1.5-.73.43 0 .8.17.4.17.66.49.18.2.38.64.2.42.3.76.12.5.12 1.19Zm-.48.06q0-.7-.2-1.3-.2-.6-.44-.95-.16-.22-.4-.36-.32-.2-.74-.2-.83 0-1.3.84-.47.85-.47 1.97v1.08q0 .7.2 1.31.2.6.46.96.14.2.37.34.33.22.75.22.83 0 1.3-.85.47-.86.47-1.98v-1.08Zm7.48-.06v1.22q0 1.58-.75 2.51-.6.72-1.5.72-.44 0-.83-.17-.37-.17-.64-.48-.17-.2-.37-.61-.2-.44-.28-.8-.14-.5-.14-1.17v-1.22q0-1.6.75-2.52.59-.73 1.5-.73.43 0 .8.17.4.17.66.49.18.2.38.64.2.42.3.76.12.5.12 1.19Zm-.48.06q0-.7-.2-1.3-.2-.6-.44-.95-.16-.22-.4-.36-.32-.2-.74-.2-.83 0-1.3.84-.47.85-.47 1.97v1.08q0 .7.2 1.31.2.6.46.96.14.2.37.34.33.22.75.22.83 0 1.3-.85.47-.86.47-1.98v-1.08Zm7.48-.06v1.22q0 1.58-.75 2.51-.6.72-1.5.72-.44 0-.83-.17-.37-.17-.64-.48-.17-.2-.37-.61-.2-.44-.28-.8-.14-.5-.14-1.17v-1.22q0-1.6.75-2.52.59-.73 1.5-.73.43 0 .8.17.4.17.66.49.18.2.38.64.2.42.3.76.12.5.12 1.19Zm-.48.06q0-.7-.2-1.3-.2-.6-.44-.95-.16-.22-.4-.36-.32-.2-.74-.2-.83 0-1.3.84-.47.85-.47 1.97v1.08q0 .7.2 1.31.2.6.46.96.14.2.37.34.33.22.75.22.83 0 1.3-.85.47-.86.47-1.98v-1.08Zm7.48-.06v1.22q0 1.58-.75 2.51-.6.72-1.5.72-.44 0-.83-.17-.37-.17-.64-.48-.17-.2-.37-.61-.2-.44-.28-.8-.14-.5-.14-1.17v-1.22q0-1.6.75-2.52.59-.73 1.5-.73.43 0 .8.17.4.17.66.49.18.2.38.64.2.42.3.76.12.5.12 1.19Zm-.48.06q0-.7-.2-1.3-.2-.6-.44-.95-.16-.22-.4-.36-.32-.2-.74-.2-.83 0-1.3.84-.47.85-.47 1.97v1.08q0 .7.2 1.31.2.6.46.96.14.2.37.34.33.22.75.22.83 0 1.3-.85.47-.86.47-1.98v-1.08Z"/><path stroke="#242424" stroke-width="3" stroke-linejoin="round" stroke-linecap="round" d="M526.71 798.55v6.95h1.69q.17 0 .25.08.08.06.08.17 0 .1-.08.19-.08.06-.25.06h-3.86q-.19 0-.27-.06-.06-.08-.06-.19 0-.1.06-.17.08-.08.27-.08h1.69v-6.28l-1.61.51-.17.04q-.1 0-.18-.07-.06-.08-.06-.18 0-.08.06-.16.05-.05.2-.11l2.24-.7Zm9.02 3.17v1.22q0 1.58-.75 2.51-.6.72-1.5.72-.44 0-.83-.17-.38-.17-.64-.48-.17-.2-.38-.61-.2-.44-.28-.8-.14-.5-.14-1.17v-1.22q0-1.6.75-2.52.6-.73 1.5-.73.44 0 .81.17.4.17.66.49.17.2.38.64.2.42.3.76.12.5.12 1.19Zm-.49.06q0-.7-.2-1.3-.2-.6-.44-.95-.15-.22-.39-.36-.33-.2-.75-.2-.83 0-1.3.84-.46.85-.46 1.97v1.08q0 .7.2 1.31.2.6.45.96.14.2.38.34.33.22.75.22.83 0 1.3-.85.46-.86.46-1.98v-1.08Zm7.49-.06v1.22q0 1.58-.75 2.51-.6.72-1.5.72-.44 0-.83-.17-.38-.17-.64-.48-.17-.2-.38-.61-.2-.44-.28-.8-.14-.5-.14-1.17v-1.22q0-1.6.75-2.52.6-.73 1.5-.73.44 0 .81.17.4.17.66.49.17.2.38.64.2.42.3.76.12.5.12 1.19Zm-.49.06q0-.7-.2-1.3-.2-.6-.44-.95-.15-.22-.39-.36-.33-.2-.75-.2-.83 0-1.3.84-.46.85-.46 1.97v1.08q0 .7.2 1.31.2.6.45.96.14.2.38.34.33.22.75.22.83 0 1.3-.85.46-.86.46-1.98v-1.08Zm7.49-.06v1.22q0 1.58-.75 2.51-.6.72-1.5.72-.44 0-.83-.17-.38-.17-.64-.48-.17-.2-.38-.61-.2-.44-.28-.8-.14-.5-.14-1.17v-1.22q0-1.6.75-2.52.6-.73 1.5-.73.44 0 .81.17.4.17.66.49.17.2.38.64.2.42.3.76.12.5.12 1.19Zm-.49.06q0-.7-.2-1.3-.2-.6-.44-.95-.15-.22-.39-.36-.33-.2-.75-.2-.83 0-1.3.84-.46.85-.46 1.97v1.08q0 .7.2 1.31.2.6.45.96.14.2.38.34.33.22.75.22.83 0 1.3-.85.46-.86.46-1.98v-1.08Zm7.49-.06v1.22q0 1.58-.75 2.51-.6.72-1.5.72-.44 0-.83-.17-.38-.17-.64-.48-.17-.2-.38-.61-.2-.44-.28-.8-.14-.5-.14-1.17v-1.22q0-1.6.75-2.52.6-.73 1.5-.73.44 0 .81.17.4.17.66.49.17.2.38.64.2.42.3.76.12.5.12 1.19Zm-.49.06q0-.7-.2-1.3-.2-.6-.44-.95-.15-.22-.39-.36-.33-.2-.75-.2-.83 0-1.3.84-.46.85-.46 1.97v1.08q0 .7.2 1.31.2.6.45.96.14.2.38.34.33.22.75.22.83 0 1.3-.85.46-.86.46-1.98v-1.08Zm7.49-.06v1.22q0 1.58-.75 2.51-.6.72-1.5.72-.44 0-.83-.17-.38-.17-.64-.48-.17-.2-.38-.61-.2-.44-.28-.8-.14-.5-.14-1.17v-1.22q0-1.6.75-2.52.6-.73 1.5-.73.44 0 .81.17.4.17.66.49.17.2.38.64.2.42.3.76.12.5.12 1.19Zm-.49.06q0-.7-.2-1.3-.2-.6-.44-.95-.15-.22-.39-.36-.33-.2-.75-.2-.83 0-1.3.84-.46.85-.46 1.97v1.08q0 .7.2 1.31.2.6.45.96.14.2.38.34.33.22.75.22.83 0 1.3-.85.46-.86.46-1.98v-1.08Z"/><path fill="#bdbdbd" d="M526.71 798.55v6.95h1.69q.17 0 .25.08.08.06.08.17 0 .1-.08.19-.08.06-.25.06h-3.86q-.19 0-.27-.06-.06-.08-.06-.19 0-.1.06-.17.08-.08.27-.08h1.69v-6.28l-1.61.51-.17.04q-.1 0-.18-.07-.06-.08-.06-.18 0-.08.06-.16.05-.05.2-.11l2.24-.7Zm9.02 3.17v1.22q0 1.58-.75 2.51-.6.72-1.5.72-.44 0-.83-.17-.38-.17-.64-.48-.17-.2-.38-.61-.2-.44-.28-.8-.14-.5-.14-1.17v-1.22q0-1.6.75-2.52.6-.73 1.5-.73.44 0 .81.17.4.17.66.49.17.2.38.64.2.42.3.76.12.5.12 1.19Zm-.49.06q0-.7-.2-1.3-.2-.6-.44-.95-.15-.22-.39-.36-.33-.2-.75-.2-.83 0-1.3.84-.46.85-.46 1.97v1.08q0 .7.2 1.31.2.6.45.96.14.2.38.34.33.22.75.22.83 0 1.3-.85.46-.86.46-1.98v-1.08Zm7.49-.06v1.22q0 1.58-.75 2.51-.6.72-1.5.72-.44 0-.83-.17-.38-.17-.64-.48-.17-.2-.38-.61-.2-.44-.28-.8-.14-.5-.14-1.17v-1.22q0-1.6.75-2.52.6-.73 1.5-.73.44 0 .81.17.4.17.66.49.17.2.38.64.2.42.3.76.12.5.12 1.19Zm-.49.06q0-.7-.2-1.3-.2-.6-.44-.95-.15-.22-.39-.36-.33-.2-.75-.2-.83 0-1.3.84-.46.85-.46 1.97v1.08q0 .7.2 1.31.2.6.45.96.14.2.38.34.33.22.75.22.83 0 1.3-.85.46-.86.46-1.98v-1.08Zm7.49-.06v1.22q0 1.58-.75 2.51-.6.72-1.5.72-.44 0-.83-.17-.38-.17-.64-.48-.17-.2-.38-.61-.2-.44-.28-.8-.14-.5-.14-1.17v-1.22q0-1.6.75-2.52.6-.73 1.5-.73.44 0 .81.17.4.17.66.49.17.2.38.64.2.42.3.76.12.5.12 1.19Zm-.49.06q0-.7-.2-1.3-.2-.6-.44-.95-.15-.22-.39-.36-.33-.2-.75-.2-.83 0-1.3.84-.46.85-.46 1.97v1.08q0 .7.2 1.31.2.6.45.96.14.2.38.34.33.22.75.22.83 0 1.3-.85.46-.86.46-1.98v-1.08Zm7.49-.06v1.22q0 1.58-.75 2.51-.6.72-1.5.72-.44 0-.83-.17-.38-.17-.64-.48-.17-.2-.38-.61-.2-.44-.28-.8-.14-.5-.14-1.17v-1.22q0-1.6.75-2.52.6-.73 1.5-.73.44 0 .81.17.4.17.66.49.17.2.38.64.2.42.3.76.12.5.12 1.19Zm-.49.06q0-.7-.2-1.3-.2-.6-.44-.95-.15-.22-.39-.36-.33-.2-.75-.2-.83 0-1.3.84-.46.85-.46 1.97v1.08q0 .7.2 1.31.2.6.45.96.14.2.38.34.33.22.75.22.83 0 1.3-.85.46-.86.46-1.98v-1.08Zm7.49-.06v1.22q0 1.58-.75 2.51-.6.72-1.5.72-.44 0-.83-.17-.38-.17-.64-.48-.17-.2-.38-.61-.2-.44-.28-.8-.14-.5-.14-1.17v-1.22q0-1.6.75-2.52.6-.73 1.5-.73.44 0 .81.17.4.17.66.49.17.2.38.64.2.42.3.76.12.5.12 1.19Zm-.49.06q0-.7-.2-1.3-.2-.6-.44-.95-.15-.22-.39-.36-.33-.2-.75-.2-.83 0-1.3.84-.46.85-.46 1.97v1.08q0 .7.2 1.31.2.6.45.96.14.2.38.34.33.22.75.22.83 0 1.3-.85.46-.86.46-1.98v-1.08Z"/><path stroke="#e01b24" stroke-width="4" stroke-linecap="butt" d="M7.98 45.48h12"/><path stroke="#242424" stroke-width="3" stroke-linejoin="round" stroke-linecap="round" d="M31.34 43.15v.75q.75-.53 1.19-.72.43-.18.8-.18.6 0 1.15.43.38.3.38.6 0 .26-.2.45-.16.17-.41.17-.22 0-.47-.22-.25-.23-.44-.23-.25 0-.75.33-.5.3-1.25.93v1.82h1.7q.44 0 .61.17.19.15.19.44 0 .26-.19.43-.17.16-.6.16h-3.63q-.44 0-.63-.16-.17-.17-.17-.45 0-.27.17-.42.19-.17.63-.17h.72v-2.93h-.44q-.44 0-.63-.15-.17-.17-.17-.44 0-.26.17-.44.2-.17.63-.17h1.64Zm8.33 5.33v-.28q-.46.23-1 .36-.55.12-.99.12-.97 0-1.58-.51-.6-.52-.6-1.14 0-.75.76-1.4.78-.65 2.14-.65.55 0 1.27.13v-.3q0-.27-.24-.44-.23-.17-.89-.17-.53 0-1.37.22-.32.08-.5.08-.24 0-.4-.18-.17-.18-.17-.45 0-.16.05-.27.06-.1.17-.17.11-.06.44-.15.45-.13.9-.2.48-.08.85-.08 1.11 0 1.74.48.62.48.62 1.33v2.47h.2q.43 0 .61.17.2.15.2.44 0 .26-.2.43-.18.16-.6.16h-1.41Zm0-2.16q-.72-.14-1.33-.14-.74 0-1.27.36-.32.24-.32.47 0 .17.15.27.3.2.8.2.44 0 .98-.17.55-.17.99-.47v-.52Zm5.92.7 1.3-2.67q-.49 0-.61-.07-.3-.2-.3-.52 0-.26.17-.44.19-.17.63-.17h1.65q.42 0 .61.17.19.18.19.44 0 .27-.19.44-.19.15-.6.15h-.21l-2.02 4.13h-1.25l-2.01-4.13h-.17q-.43 0-.61-.15-.19-.17-.19-.44 0-.26.19-.44.18-.17.6-.17h1.63q.42 0 .61.17.19.18.19.44 0 .33-.28.52-.14.07-.64.07l1.3 2.68Zm7.6-6.32v6.58h1.21q.44 0 .63.17.18.15.18.44 0 .26-.18.43-.2.16-.63.16h-3.62q-.44 0-.63-.16-.17-.17-.17-.45 0-.27.17-.42.19-.17.63-.17H52v-5.02l-1.08.28q-.25.08-.4.08-.21 0-.38-.17-.18-.19-.18-.45 0-.25.13-.38.12-.14.51-.25l2.6-.67Zm9.4 5.73h-4.92q.18.47.65.75.49.28 1.3.28.67 0 1.78-.28.45-.1.63-.1.25 0 .4.17.17.15.17.42 0 .23-.17.39-.23.22-1.15.42-.9.19-1.74.19-1.45 0-2.31-.82-.86-.8-.86-2 0-1.26.92-2.06.94-.8 2.16-.8.73 0 1.34.27.63.25.92.55.43.44.7 1.08.18.45.18 1.03v.51Zm-1.33-1.2q-.26-.52-.72-.77-.44-.26-1.06-.26-.6 0-1.06.26-.44.25-.72.77h3.56Z"/><path fill="#bdbdbd" d="M31.34 43.15v.75q.75-.53 1.19-.72.43-.18.8-.18.6 0 1.15.43.38.3.38.6 0 .26-.2.45-.16.17-.41.17-.22 0-.47-.22-.25-.23-.44-.23-.25 0-.75.33-.5.3-1.25.93v1.82h1.7q.44 0 .61.17.19.15.19.44 0 .26-.19.43-.17.16-.6.16h-3.63q-.44 0-.63-.16-.17-.17-.17-.45 0-.27.17-.42.19-.17.63-.17h.72v-2.93h-.44q-.44 0-.63-.15-.17-.17-.17-.44 0-.26.17-.44.2-.17.63-.17h1.64Zm8.33 5.33v-.28q-.46.23-1 .36-.55.12-.99.12-.97 0-1.58-.51-.6-.52-.6-1.14 0-.75.76-1.4.78-.65 2.14-.65.55 0 1.27.13v-.3q0-.27-.24-.44-.23-.17-.89-.17-.53 0-1.37.22-.32.08-.5.08-.24 0-.4-.18-.17-.18-.17-.45 0-.16.05-.27.06-.1.17-.17.11-.06.44-.15.45-.13.9-.2.48-.08.85-.08 1.11 0 1.74.48.62.48.62 1.33v2.47h.2q.43 0 .61.17.2.15.2.44 0 .26-.2.43-.18.16-.6.16h-1.41Zm0-2.16q-.72-.14-1.33-.14-.74 0-1.27.36-.32.24-.32.47 0 .17.15.27.3.2.8.2.44 0 .98-.17.55-.17.99-.47v-.52Zm5.92.7 1.3-2.67q-.49 0-.61-.07-.3-.2-.3-.52 0-.26.17-.44.19-.17.63-.17h1.65q.42 0 .61.17.19.18.19.44 0 .27-.19.44-.19.15-.6.15h-.21l-2.02 4.13h-1.25l-2.01-4.13h-.17q-.43 0-.61-.15-.19-.17-.19-.44 0-.26.19-.44.18-.17.6-.17h1.63q.42 0 .61.17.19.18.19.44 0 .33-.28.52-.14.07-.64.07l1.3 2.68Zm7.6-6.32v6.58h1.21q.44 0 .63.17.18.15.18.44 0 .26-.18.43-.2.16-.63.16h-3.62q-.44 0-.63-.16-.17-.17-.17-.45 0-.27.17-.42.19-.17.63-.17H52v-5.02l-1.08.28q-.25.08-.4.08-.21 0-.38-.17-.18-.19-.18-.45 0-.25.13-.38.12-.14.51-.25l2.6-.67Zm9.4 5.73h-4.92q.18.47.65.75.49.28 1.3.28.67 0 1.78-.28.45-.1.63-.1.25 0 .4.17.17.15.17.42 0 .23-.17.39-.23.22-1.15.42-.9.19-1.74.19-1.45 0-2.31-.82-.86-.8-.86-2 0-1.26.92-2.06.94-.8 2.16-.8.73 0 1.34.27.63.25.92.55.43.44.7 1.08.18.45.18 1.03v.51Zm-1.33-1.2q-.26-.52-.72-.77-.44-.26-1.06-.26-.6 0-1.06.26-.44.25-.72.77h3.56Z"/><path stroke="#63452c" stroke-width="4" stroke-linecap="butt" d="M78.98 45.48h12"/><path stroke="#242424" stroke-width="3" stroke-linejoin="round" stroke-linecap="round" d="M105.37 44.35v5.44h.2q.44 0 .61.16.2.17.2.44 0 .26-.2.43-.17.18-.6.18h-2.13q-.44 0-.63-.18-.17-.17-.17-.43 0-.27.17-.44.2-.16.63-.16h.72v-1.97q-.44.27-.9.41-.45.13-.91.13-1.08 0-1.93-.65-1.03-.78-1.03-1.96 0-1.08.86-1.91.88-.84 2.11-.84.48 0 .92.14.46.14.88.43v-.42h1.4q.44 0 .61.17.2.18.2.44 0 .27-.2.44-.17.15-.6.15h-.2Zm-1.2 1.41q0-.26-.2-.64-.2-.39-.63-.66-.4-.26-.95-.26-.91 0-1.43.67-.35.47-.35.9 0 .48.51.93.52.45 1.27.45.76 0 1.26-.45.52-.45.52-.94Zm6.72-1.2q-.3-.17-.63-.27-.31-.1-.67-.1-.7 0-1.11.24-.17.1-.17.22 0 .13.23.27.19.1.85.17 1.18.17 1.65.33.63.22.96.65.34.43.34.9 0 .63-.58 1.07-.81.63-2.1.63-.54 0-.98-.1-.43-.07-.8-.26-.09.08-.2.12-.1.05-.2.05-.28 0-.45-.19-.16-.19-.16-.62v-.4q0-.43.16-.62.17-.19.43-.19.22 0 .36.13.16.1.24.4.28.24.65.36.4.11.91.11.81 0 1.28-.25.22-.12.22-.26 0-.24-.31-.4-.31-.15-1.28-.26-1.46-.14-1.94-.58-.48-.42-.48-1.06 0-.64.54-1.06.74-.6 1.92-.6.43 0 .8.08.4.08.75.25l.2-.12q.1-.05.18-.05.25 0 .4.19.17.19.17.62v.3q0 .4-.09.53-.19.27-.52.27-.2 0-.37-.13-.16-.14-.2-.37Zm5.7 2.47 1.3-2.68q-.49 0-.61-.07-.3-.2-.3-.52 0-.26.17-.44.19-.17.63-.17h1.65q.42 0 .61.17.19.18.19.44 0 .27-.19.44-.19.15-.6.15h-.21l-2.02 4.13h-1.25l-2.01-4.13h-.17q-.42 0-.61-.15-.19-.17-.19-.44 0-.26.19-.44.19-.17.6-.17h1.63q.42 0 .61.17.19.18.19.44 0 .33-.28.52-.14.07-.64.07l1.3 2.68Zm13.56-1.47q0-1.02.35-2.08.25-.77.78-1.72.37-.67.54-.83.2-.15.41-.15.27 0 .44.17.17.17.17.42 0 .17-.14.4-.63 1.04-.92 1.96-.28.9-.28 1.83 0 .94.28 1.84.3.9.92 1.95.14.24.14.41 0 .25-.17.42-.17.17-.44.17-.2 0-.38-.14-.23-.2-.62-.92-.55-1.03-.75-1.7-.33-1.03-.33-2.03Zm5.92-4.67v2.68q.44-.28.9-.42.45-.15.9-.15 1.25 0 2.11.87.88.86.88 2.08 0 1.15-.83 1.94-.82.78-2.18.78-.48 0-.93-.13-.44-.1-.85-.36v.3h-1.4q-.44 0-.63-.16-.19-.17-.19-.45 0-.27.2-.42.18-.17.62-.17h.2v-5.2h-.2q-.44 0-.63-.16-.19-.17-.19-.44t.2-.42q.18-.17.62-.17h1.4Zm3.58 5.09q0-.75-.51-1.27-.52-.51-1.28-.51t-1.27.51q-.52.52-.52 1.25 0 .66.47 1.08.47.42 1.31.42.86 0 1.33-.42.47-.42.47-1.06Zm5.36-5.1v1.27h-1.42V40.9H145Zm.17 2.27v4.13h1.44q.44 0 .61.17.19.15.19.44 0 .26-.19.43-.17.16-.6.16h-4.1q-.43 0-.61-.16-.19-.17-.19-.45 0-.27.19-.42.19-.17.6-.17h1.46v-2.93h-.97q-.44 0-.62-.15-.2-.17-.2-.44 0-.26.2-.44.18-.17.62-.17h2.17Zm6.11 1.2v2.41q0 .4.16.52.23.18.87.18.93 0 1.7-.39.3-.14.48-.14.23 0 .4.17.17.18.17.43 0 .23-.18.4-.3.28-1.14.52-.85.22-1.43.22-1.12 0-1.68-.49-.55-.48-.55-1.18v-2.65h-.44q-.44 0-.62-.15-.18-.17-.18-.44 0-.26.18-.44.18-.17.62-.17h.44v-1.08q0-.43.16-.6.17-.2.43-.2.27 0 .44.2.17.17.17.6v1.08h2.22q.42 0 .61.17.19.18.19.44 0 .27-.19.44-.19.15-.6.15h-2.23Zm7.05-1.2v.75q.75-.53 1.19-.72.43-.18.8-.18.6 0 1.15.43.38.3.38.6 0 .26-.2.45-.16.17-.41.17-.22 0-.47-.22-.25-.23-.44-.23-.25 0-.75.33-.5.3-1.25.93v1.82h1.7q.44 0 .61.17.19.15.19.44 0 .26-.19.43-.17.16-.6.16h-3.63q-.44 0-.63-.16-.17-.17-.17-.45 0-.27.17-.42.19-.17.63-.17h.72v-2.93h-.44q-.44 0-.63-.15-.17-.17-.17-.44 0-.26.17-.44.2-.17.63-.17h1.64Zm8.33 5.33v-.28q-.46.23-1 .36-.55.12-.99.12-.97 0-1.58-.51-.6-.52-.6-1.14 0-.75.76-1.4.78-.65 2.14-.65.55 0 1.27.13v-.3q0-.27-.24-.44-.23-.17-.89-.17-.53 0-1.37.22-.31.08-.5.08-.24 0-.4-.18-.17-.18-.17-.45 0-.16.05-.27.06-.1.17-.17.11-.06.44-.15.45-.13.9-.2.48-.08.85-.08 1.11 0 1.74.48.62.48.62 1.33v2.47h.2q.43 0 .61.17.2.15.2.44 0 .26-.2.43-.18.16-.6.16h-1.41Zm0-2.16q-.72-.14-1.33-.14-.74 0-1.27.36-.32.24-.32.47 0 .17.15.27.3.2.8.2.44 0 .98-.17.55-.17.99-.47v-.52Zm5.62-1.97v2.41q0 .4.16.52.23.18.87.18.93 0 1.7-.39.3-.14.48-.14.23 0 .4.17.17.18.17.43 0 .23-.18.4-.3.28-1.14.52-.85.22-1.43.22-1.12 0-1.68-.49-.55-.48-.55-1.18v-2.65h-.44q-.44 0-.62-.15-.18-.17-.18-.44 0-.26.18-.44.18-.17.62-.17h.44v-1.08q0-.43.16-.6.17-.2.43-.2.27 0 .44.2.17.17.17.6v1.08h2.22q.42 0 .61.17.19.18.19.44 0 .27-.19.44-.19.15-.6.15h-2.23Zm10.3 2.08h-4.92q.19.47.65.75.49.28 1.3.28.67 0 1.78-.28.45-.1.63-.1.25 0 .4.17.17.15.17.42 0 .23-.17.39-.23.22-1.15.42-.9.19-1.74.19-1.45 0-2.31-.82-.86-.8-.86-2 0-1.26.92-2.06.94-.8 2.16-.8.73 0 1.34.27.63.25.92.55.43.44.7 1.08.18.45.18 1.03v.51Zm-1.33-1.2q-.26-.52-.72-.77-.44-.26-1.06-.26-.6 0-1.06.26-.44.25-.72.77h3.56Zm5.83.33q0 1.03-.33 2.08-.26.78-.78 1.71-.4.7-.58.85-.17.15-.39.15-.26 0-.44-.17-.17-.17-.17-.42 0-.17.14-.4.63-1.05.9-1.96.3-.9.3-1.84 0-.92-.3-1.83-.27-.92-.9-1.95-.14-.24-.14-.4 0-.26.17-.43.18-.17.44-.17.22 0 .38.14.23.2.62.92.56 1.03.77 1.7.3 1.03.3 2.02Z"/><path fill="#bdbdbd" d="M105.37 44.35v5.44h.2q.44 0 .61.16.2.17.2.44 0 .26-.2.43-.17.18-.6.18h-2.13q-.44 0-.63-.18-.17-.17-.17-.43 0-.27.17-.44.2-.16.63-.16h.72v-1.97q-.44.27-.9.41-.45.13-.91.13-1.08 0-1.93-.65-1.03-.78-1.03-1.96 0-1.08.86-1.91.88-.84 2.11-.84.48 0 .92.14.46.14.88.43v-.42h1.4q.44 0 .61.17.2.18.2.44 0 .27-.2.44-.17.15-.6.15h-.2Zm-1.2 1.41q0-.26-.2-.64-.2-.39-.63-.66-.4-.26-.95-.26-.91 0-1.43.67-.35.47-.35.9 0 .48.51.93.52.45 1.27.45.76 0 1.26-.45.52-.45.52-.94Zm6.72-1.2q-.3-.17-.63-.27-.31-.1-.67-.1-.7 0-1.11.24-.17.1-.17.22 0 .13.23.27.19.1.85.17 1.18.17 1.65.33.63.22.96.65.34.43.34.9 0 .63-.58 1.07-.81.63-2.1.63-.54 0-.98-.1-.43-.07-.8-.26-.09.08-.2.12-.1.05-.2.05-.28 0-.45-.19-.16-.19-.16-.62v-.4q0-.43.16-.62.17-.19.43-.19.22 0 .36.13.16.1.24.4.28.24.65.36.4.11.91.11.81 0 1.28-.25.22-.12.22-.26 0-.24-.31-.4-.31-.15-1.28-.26-1.46-.14-1.94-.58-.48-.42-.48-1.06 0-.64.54-1.06.74-.6 1.92-.6.43 0 .8.08.4.08.75.25l.2-.12q.1-.05.18-.05.25 0 .4.19.17.19.17.62v.3q0 .4-.09.53-.19.27-.52.27-.2 0-.37-.13-.16-.14-.2-.37Zm5.7 2.47 1.3-2.68q-.49 0-.61-.07-.3-.2-.3-.52 0-.26.17-.44.19-.17.63-.17h1.65q.42 0 .61.17.19.18.19.44 0 .27-.19.44-.19.15-.6.15h-.21l-2.02 4.13h-1.25l-2.01-4.13h-.17q-.42 0-.61-.15-.19-.17-.19-.44 0-.26.19-.44.19-.17.6-.17h1.63q.42 0 .61.17.19.18.19.44 0 .33-.28.52-.14.07-.64.07l1.3 2.68Zm13.56-1.47q0-1.02.35-2.08.25-.77.78-1.72.37-.67.54-.83.2-.15.41-.15.27 0 .44.17.17.17.17.42 0 .17-.14.4-.63 1.04-.92 1.96-.28.9-.28 1.83 0 .94.28 1.84.3.9.92 1.95.14.24.14.41 0 .25-.17.42-.17.17-.44.17-.2 0-.37-.14-.24-.2-.63-.92-.55-1.03-.75-1.7-.33-1.03-.33-2.03Zm5.92-4.67v2.68q.44-.28.9-.42.45-.15.9-.15 1.25 0 2.11.87.88.86.88 2.08 0 1.15-.83 1.94-.82.78-2.17.78-.49 0-.94-.13-.44-.1-.85-.36v.3h-1.4q-.44 0-.63-.16-.18-.17-.18-.45 0-.27.18-.42.19-.17.63-.17h.2v-5.2h-.2q-.44 0-.63-.16-.18-.17-.18-.44t.18-.42q.19-.17.63-.17h1.4Zm3.58 5.09q0-.75-.51-1.27-.52-.51-1.28-.51-.75 0-1.27.51-.52.52-.52 1.25 0 .66.47 1.08.47.42 1.32.42.85 0 1.32-.42.47-.42.47-1.06Zm5.36-5.1v1.27h-1.42V40.9H145Zm.17 2.27v4.13h1.44q.44 0 .61.17.19.15.19.44 0 .26-.19.43-.17.16-.6.16h-4.1q-.42 0-.61-.16-.19-.17-.19-.45 0-.27.19-.42.19-.17.6-.17h1.46v-2.93h-.97q-.44 0-.62-.15-.2-.17-.2-.44 0-.26.2-.44.18-.17.62-.17h2.17Zm6.11 1.2v2.41q0 .4.16.52.23.18.87.18.93 0 1.7-.39.3-.14.48-.14.23 0 .4.17.17.18.17.43 0 .23-.18.4-.3.28-1.14.52-.85.22-1.43.22-1.12 0-1.68-.49-.55-.48-.55-1.18v-2.65h-.44q-.44 0-.62-.15-.17-.17-.17-.44 0-.26.17-.44.18-.17.62-.17h.44v-1.08q0-.43.16-.6.17-.2.43-.2.27 0 .44.2.17.17.17.6v1.08h2.22q.42 0 .61.17.19.18.19.44 0 .27-.19.44-.19.15-.6.15h-2.23Zm7.05-1.2v.75q.75-.53 1.19-.72.43-.18.8-.18.6 0 1.15.43.38.3.38.6 0 .26-.2.45-.16.17-.41.17-.22 0-.47-.22-.25-.23-.44-.23-.25 0-.75.33-.5.3-1.25.93v1.82h1.7q.44 0 .61.17.19.15.19.44 0 .26-.19.43-.17.16-.6.16h-3.63q-.44 0-.63-.16-.17-.17-.17-.45 0-.27.17-.42.19-.17.63-.17h.72v-2.93h-.44q-.44 0-.63-.15-.17-.17-.17-.44 0-.26.17-.44.2-.17.63-.17h1.64Zm8.33 5.33v-.28q-.46.23-1 .36-.55.12-.99.12-.97 0-1.57-.51-.61-.52-.61-1.14 0-.75.76-1.4.78-.65 2.14-.65.55 0 1.27.13v-.3q0-.27-.24-.44-.23-.17-.89-.17-.53 0-1.37.22-.31.08-.5.08-.24 0-.4-.18-.16-.18-.16-.45 0-.16.04-.27.06-.1.17-.17.11-.06.44-.15.45-.13.9-.2.48-.08.85-.08 1.11 0 1.74.48.62.48.62 1.33v2.47h.2q.43 0 .61.17.2.15.2.44 0 .26-.2.43-.18.16-.6.16h-1.41Zm0-2.16q-.72-.14-1.33-.14-.73 0-1.27.36-.32.24-.32.47 0 .17.15.27.3.2.8.2.44 0 .98-.17.55-.17.99-.47v-.52Zm5.62-1.97v2.41q0 .4.16.52.23.18.87.18.93 0 1.7-.39.3-.14.48-.14.23 0 .4.17.17.18.17.43 0 .23-.18.4-.3.28-1.14.52-.85.22-1.43.22-1.12 0-1.68-.49-.55-.48-.55-1.18v-2.65h-.44q-.44 0-.62-.15-.17-.17-.17-.44 0-.26.17-.44.18-.17.62-.17h.44v-1.08q0-.43.16-.6.17-.2.43-.2.27 0 .44.2.17.17.17.6v1.08h2.22q.42 0 .61.17.19.18.19.44 0 .27-.19.44-.19.15-.6.15h-2.23Zm10.3 2.08h-4.92q.19.47.65.75.49.28 1.3.28.67 0 1.78-.28.46-.1.63-.1.25 0 .4.17.18.15.18.42 0 .23-.18.39-.23.22-1.15.42-.9.19-1.74.19-1.45 0-2.31-.82-.86-.8-.86-2 0-1.26.92-2.06.94-.8 2.16-.8.73 0 1.34.27.63.25.92.55.43.44.7 1.08.18.45.18 1.03v.51Zm-1.33-1.2q-.26-.52-.72-.77-.43-.26-1.06-.26-.6 0-1.06.26-.44.25-.72.77h3.56Zm5.83.33q0 1.03-.33 2.08-.26.78-.78 1.71-.4.7-.58.85-.17.15-.39.15-.26 0-.44-.17-.17-.17-.17-.42 0-.17.14-.4.63-1.05.9-1.96.3-.9.3-1.84 0-.92-.3-1.83-.27-.92-.9-1.95-.14-.24-.14-.4 0-.26.17-.43.18-.17.44-.17.22 0 .38.14.23.2.62.92.56 1.03.77 1.7.3 1.03.3 2.02Z"/><path stroke="#3a3a3a" stroke-width="4" stroke-linecap="butt" d="M205.98 45.48h12"/><path stroke="#242424" stroke-width="3" stroke-linejoin="round" stroke-linecap="round" d="m230.48 45.71 1.83 1.57q.33.01.48.18.17.18.17.43 0 .26-.18.43-.2.16-.63.16h-1.36q-.44 0-.62-.16-.17-.17-.17-.45 0-.22.12-.37.13-.16.36-.22l-.9-.77-.91.77q.28.07.39.22.12.14.12.37 0 .28-.18.45-.18.16-.61.16h-1.35q-.44 0-.62-.16-.19-.17-.19-.45 0-.23.16-.4.17-.18.5-.2l1.78-1.56-1.58-1.36q-.31-.01-.47-.18-.16-.17-.16-.4 0-.27.18-.45.18-.17.62-.17h1.13q.43 0 .62.17.19.18.19.43 0 .34-.33.56l.72.6.72-.6q-.33-.24-.33-.53 0-.28.19-.46.19-.17.62-.17h1.11q.44 0 .61.17.19.18.19.44 0 .24-.16.4-.15.18-.48.2l-1.58 1.35Zm4.98 1.57h2.63q.22-.18.4-.18.29 0 .44.2.17.16.17.6v.58h-5.48v-1.27q3.25-2.68 3.92-3.45.35-.39.35-.75 0-.44-.4-.76-.37-.35-1.01-.35t-1.08.38q-.22.2-.36.6-.08.24-.22.35-.14.1-.36.1-.23 0-.42-.18-.17-.17-.17-.4 0-.36.31-.88.33-.53.96-.84.62-.33 1.36-.33 1.14 0 1.85.69.74.68.74 1.67 0 .5-.22.92-.2.42-.98 1.17-.63.6-2.43 2.13Zm6.99-2.9q.44-.37.83-.53.39-.17.84-.17.94 0 1.64.75.72.75.72 1.88 0 1.04-.66 1.7-.65.64-1.8.64-.93 0-1.54-.44-.6-.43-.92-1.34-.31-.92-.31-2.05 0-1.34.6-2.23.63-.9 1.46-1.4.83-.5 1.76-.5.72 0 1.13.3.26.2.26.49 0 .27-.17.45-.17.17-.42.17-.14 0-.4-.14-.16-.07-.3-.07-.58 0-1.2.32t-1.07.99q-.31.47-.45 1.17Zm.19 1.85q.18.7.5.97.3.25.9.25.6 0 .9-.3.34-.31.34-.86 0-.6-.38-1-.36-.4-.81-.4-.36 0-.78.36-.4.34-.67.98Zm9.7-5.33v4.69q.39 0 .56.17.19.17.19.44 0 .26-.19.44-.19.15-.56.15v.49q.39 0 .56.17.19.17.19.44 0 .26-.19.43-.19.16-.62.16h-1.61q-.42 0-.61-.16-.19-.17-.19-.45 0-.27.19-.42.19-.17.6-.17h.48v-.49h-3.27v-1l2.9-4.89h1.57Zm-1.2 4.69v-2.95l-1.74 2.95h1.74Z"/><path fill="#bdbdbd" d="m230.48 45.71 1.83 1.57q.33.01.48.18.17.18.17.43 0 .26-.18.43-.2.16-.63.16h-1.36q-.44 0-.62-.16-.17-.17-.17-.45 0-.22.12-.37.13-.16.36-.22l-.9-.77-.91.77q.28.07.39.22.12.14.12.37 0 .28-.18.45-.18.16-.61.16h-1.35q-.44 0-.62-.16-.19-.17-.19-.45 0-.23.16-.4.17-.18.5-.2l1.78-1.56-1.58-1.36q-.31-.01-.47-.18-.16-.17-.16-.4 0-.27.18-.45.18-.17.62-.17h1.13q.43 0 .62.17.19.18.19.43 0 .34-.33.56l.72.6.72-.6q-.33-.24-.33-.53 0-.28.19-.46.19-.17.62-.17h1.11q.44 0 .61.17.19.18.19.44 0 .24-.16.4-.15.18-.48.2l-1.58 1.35Zm4.98 1.57h2.63q.22-.18.4-.18.29 0 .44.2.17.16.17.6v.58h-5.48v-1.27q3.25-2.68 3.92-3.45.35-.39.35-.75 0-.44-.4-.76-.37-.35-1.01-.35t-1.08.38q-.22.2-.36.6-.08.24-.22.35-.14.1-.36.1-.23 0-.42-.18-.17-.17-.17-.4 0-.36.31-.88.33-.53.96-.84.62-.33 1.36-.33 1.14 0 1.85.69.74.68.74 1.67 0 .5-.22.92-.2.42-.98 1.17-.63.6-2.43 2.13Zm6.99-2.9q.44-.37.83-.53.39-.17.84-.17.94 0 1.64.75.72.75.72 1.88 0 1.04-.66 1.7-.65.64-1.8.64-.93 0-1.54-.44-.6-.43-.92-1.34-.31-.92-.31-2.05 0-1.34.6-2.23.63-.9 1.46-1.4.83-.5 1.76-.5.72 0 1.13.3.26.2.26.49 0 .27-.17.45-.17.17-.42.17-.14 0-.4-.14-.16-.07-.3-.07-.58 0-1.2.32t-1.07.99q-.31.47-.45 1.17Zm.19 1.85q.18.7.5.97.3.25.9.25.6 0 .9-.3.34-.31.34-.86 0-.6-.38-1-.36-.4-.81-.4-.36 0-.78.36-.4.34-.67.98Zm9.7-5.33v4.69q.39 0 .56.17.19.17.19.44 0 .26-.19.44-.19.15-.56.15v.49q.39 0 .56.17.19.17.19.44 0 .26-.19.43-.19.16-.62.16h-1.61q-.42 0-.61-.16-.19-.17-.19-.45 0-.27.19-.42.19-.17.6-.17h.48v-.49h-3.27v-1l2.9-4.89h1.57Zm-1.2 4.69v-2.95l-1.74 2.95h1.74Z"/><path stroke="#242424" stroke-width="3" stroke-linejoin="round" stroke-linecap="round" d="M17.12 13.65q.19-.25.4-.37.23-.14.48-.14.43 0 .71.3.29.3.29 1.02v1.7q0 .73-.29 1.04-.28.31-.71.31-.4 0-.64-.23-.25-.22-.36-.83-.07-.42-.29-.64-.39-.44-1.1-.7-.72-.27-1.44-.27-.9 0-1.66.39-.75.4-1.33 1.28-.57.88-.57 2.08v1.3q0 1.45 1.04 2.42 1.06.97 2.92.97 1.11 0 1.9-.32.43-.17.95-.68.31-.32.48-.4.17-.1.4-.1.4 0 .7.3.3.3.3.71 0 .4-.4.88-.6.68-1.53 1.08-1.27.53-2.78.53-1.78 0-3.2-.74-1.16-.6-1.97-1.86-.81-1.26-.81-2.75v-1.36q0-1.56.71-2.9.74-1.36 2.02-2.1 1.3-.73 2.75-.73.86 0 1.6.2.77.2 1.43.61Zm14.06 7.06q0 1.16-.64 2.24-.64 1.08-1.9 1.72-1.27.64-2.64.64-1.36 0-2.61-.63-1.25-.64-1.91-1.72-.66-1.09-.66-2.26 0-1.2.66-2.36.67-1.16 1.9-1.81 1.26-.68 2.62-.68 1.37 0 2.62.68 1.27.67 1.9 1.82.66 1.15.66 2.36Zm-2 0q0-.95-.7-1.76-.94-1.1-2.48-1.1-1.36 0-2.27.88-.9.86-.9 2 0 .94.9 1.75.92.81 2.27.81 1.34 0 2.26-.81.92-.81.92-1.77Zm5.7-4.6v.57q.5-.48.9-.65.39-.2.9-.2.44 0 .86.23.44.2.86.64.52-.44 1.05-.64t1.1-.2q1.1 0 1.79.59.92.78.92 2.05v4.48q.63 0 .92.28.32.28.32.72 0 .44-.32.72-.3.28-1.01.28h-1.9v-6.31q0-.47-.18-.64-.16-.18-.5-.18-.34 0-.63.18-.36.25-.87.92v4.03q.62 0 .92.28.31.28.31.72 0 .44-.3.72-.3.28-1.02.28h-1.91v-6.31q0-.46-.17-.63-.17-.18-.52-.18-.34 0-.69.21-.34.22-.82.88v4.03q.62 0 .93.28.32.28.32.72 0 .44-.32.72-.3.28-1.03.28h-1.81q-.72 0-1.02-.28-.3-.28-.3-.72 0-.45.3-.72.3-.28.93-.28v-4.86q-.63 0-.93-.28-.3-.3-.3-.73 0-.44.3-.72.3-.29 1.02-.29h1.9Zm12.62 7.76v3.28h1.2q.72 0 1.03.28.31.28.31.74 0 .43-.31.72-.31.28-1.03.28h-3.55q-.72 0-1.03-.28-.31-.29-.31-.72 0-.46.31-.74.31-.28 1.03-.28h.35v-9.03h-.35q-.72 0-1.03-.28-.31-.28-.31-.73 0-.44.31-.72.31-.29 1.03-.29h2.35v.7q.7-.48 1.45-.71.75-.23 1.55-.23 2.04 0 3.48 1.39 1.45 1.39 1.45 3.18 0 1.99-1.7 3.27-1.42 1.08-3.22 1.08-.76 0-1.51-.22-.75-.24-1.5-.69Zm5.93-3.44q0-.42-.33-1.06-.32-.66-1.03-1.08-.68-.43-1.6-.43-1.5 0-2.38 1.12-.6.77-.6 1.48 0 .8.85 1.57.86.75 2.12.75 1.27 0 2.11-.75.86-.77.86-1.6Zm8.14-4.32v1.25q1.25-.91 1.97-1.2.74-.3 1.38-.3.97 0 1.89.71.62.49.62 1 0 .43-.3.72-.3.3-.71.3-.38 0-.78-.36-.41-.38-.74-.38-.42 0-1.25.54-.83.51-2.08 1.57v3.02h2.85q.72 0 1.03.28.31.27.31.72 0 .44-.31.72-.31.28-1.03.28h-6.05q-.72 0-1.03-.28-.3-.28-.3-.72 0-.45.3-.72.31-.28 1.03-.28h1.19v-4.86h-.72q-.72 0-1.03-.28-.3-.28-.3-.73 0-.44.3-.72.31-.29 1.03-.29h2.73Zm17.44 5.45H70.8q.31.78 1.11 1.26.8.47 2.16.47 1.1 0 2.95-.47.77-.2 1.06-.2.4 0 .66.3.28.28.28.7 0 .4-.28.67-.4.36-1.9.69-1.52.33-2.93.33-2.39 0-3.84-1.36-1.44-1.36-1.44-3.34 0-2.11 1.56-3.43 1.57-1.32 3.6-1.32 1.22 0 2.23.43 1.02.42 1.52.9.7.74 1.17 1.8.31.74.31 1.72v.85Zm-2.22-2q-.47-.86-1.22-1.28-.73-.43-1.75-.43-1.01 0-1.76.43-.74.42-1.2 1.28h5.93Zm11.36-1.11q-.5-.3-1.03-.44-.53-.16-1.12-.16-1.16 0-1.85.38-.3.17-.3.36 0 .23.41.44.31.15 1.4.3 2 .28 2.77.56 1.02.36 1.58 1.07.56.7.56 1.5 0 1.07-.95 1.8-1.36 1.05-3.53 1.05-.86 0-1.61-.16-.73-.15-1.34-.45-.14.14-.32.2-.17.06-.34.06-.47 0-.75-.3t-.28-1.02v-.68q0-.73.28-1.03.28-.3.73-.3.36 0 .6.2.25.2.39.68.45.4 1.1.6.65.18 1.5.18 1.37 0 2.12-.42.37-.22.37-.45 0-.4-.53-.64-.51-.25-2.12-.44-2.43-.25-3.24-.97t-.81-1.77q0-1.06.92-1.78 1.22-.96 3.22-.96.69 0 1.33.12.64.13 1.23.4.17-.13.33-.2.17-.07.31-.07.4 0 .67.3.29.32.29 1.04v.48q0 .66-.16.9-.31.45-.84.45-.36 0-.64-.22-.27-.24-.35-.61Zm12 0q-.5-.3-1.03-.44-.53-.16-1.12-.16-1.16 0-1.85.38-.3.17-.3.36 0 .23.41.44.31.15 1.4.3 2 .28 2.77.56 1.02.36 1.58 1.07.56.7.56 1.5 0 1.07-.95 1.8-1.36 1.05-3.53 1.05-.86 0-1.61-.16-.73-.15-1.34-.45-.14.14-.32.2-.17.06-.34.06-.47 0-.75-.3t-.28-1.02v-.68q0-.73.28-1.03.28-.3.73-.3.36 0 .6.2.25.2.39.68.45.4 1.1.6.65.18 1.5.18 1.37 0 2.12-.42.37-.22.37-.45 0-.4-.53-.64-.51-.25-2.12-.44-2.43-.25-3.24-.97t-.81-1.77q0-1.06.92-1.78 1.22-.96 3.22-.96.69 0 1.33.12.64.13 1.23.4.17-.13.33-.2.17-.07.31-.07.4 0 .67.3.29.32.29 1.04v.48q0 .66-.16.9-.31.45-.84.45-.36 0-.64-.22-.27-.24-.35-.61Zm10.55-6.14v2.12h-2.38v-2.12h2.38Zm.28 3.8v6.87h2.4q.73 0 1.02.28.31.27.31.72 0 .44-.3.72-.3.28-1.04.28h-6.8q-.73 0-1.04-.28-.3-.28-.3-.72 0-.45.3-.72.3-.28 1.04-.28h2.4v-4.86h-1.61q-.7 0-1.02-.28-.31-.28-.31-.73 0-.44.3-.72.3-.29 1.03-.29h3.62Zm16.2 4.6q0 1.16-.64 2.24-.64 1.08-1.9 1.72-1.27.64-2.64.64-1.36 0-2.61-.63-1.25-.64-1.91-1.72-.66-1.09-.66-2.26 0-1.2.66-2.36.67-1.16 1.9-1.81 1.26-.68 2.62-.68 1.37 0 2.62.68 1.27.67 1.9 1.82.66 1.15.66 2.36Zm-2 0q0-.95-.7-1.76-.94-1.1-2.48-1.1-1.36 0-2.27.88-.9.86-.9 2 0 .94.9 1.75.92.81 2.27.81 1.34 0 2.26-.81.92-.81.92-1.77Zm6.77-4.6v.68q.55-.47 1.2-.7.67-.23 1.44-.23 1.78 0 2.81 1.09.83.87.83 2.31v3.72q.63 0 .92.28.31.27.31.72 0 .44-.3.72-.3.28-1.04.28h-1.8q-.72 0-1.03-.28-.31-.28-.31-.72 0-.45.3-.72.3-.28.95-.28V19.2q0-.66-.36-.95-.45-.4-1.37-.4-.7 0-1.22.27t-1.33 1.14v3.72q.78 0 1 .14.48.3.48.86 0 .44-.3.72-.32.28-1.04.28h-2.27q-.73 0-1.04-.28-.3-.28-.3-.72 0-.55.47-.86.23-.14 1-.14v-4.86q-.63 0-.94-.28-.3-.3-.3-.73 0-.44.3-.72.31-.29 1.05-.29h1.89Zm29.17-2.46q.19-.25.4-.37.23-.14.48-.14.43 0 .71.3.29.3.29 1.02v1.7q0 .73-.29 1.04-.28.31-.71.31-.4 0-.65-.23-.25-.22-.35-.83-.07-.42-.29-.64-.39-.44-1.1-.7-.72-.27-1.44-.27-.9 0-1.66.39-.75.4-1.33 1.28-.58.88-.58 2.08v1.3q0 1.45 1.05 2.42 1.06.97 2.92.97 1.11 0 1.9-.32.43-.17.95-.68.31-.32.48-.4.17-.1.4-.1.4 0 .7.3.3.3.3.71 0 .4-.4.88-.6.68-1.53 1.08-1.27.53-2.78.53-1.78 0-3.2-.74-1.16-.6-1.97-1.86-.81-1.26-.81-2.75v-1.36q0-1.56.71-2.9.74-1.36 2.02-2.1 1.3-.73 2.75-.73.86 0 1.6.2.77.2 1.43.61Zm14.06 7.06q0 1.16-.64 2.24-.64 1.08-1.9 1.72-1.27.64-2.64.64-1.36 0-2.61-.63-1.25-.64-1.91-1.72-.66-1.09-.66-2.26 0-1.2.66-2.36.67-1.16 1.9-1.81 1.26-.68 2.62-.68 1.37 0 2.62.68 1.27.67 1.9 1.82.66 1.15.66 2.36Zm-2 0q0-.95-.7-1.76-.94-1.1-2.48-1.1-1.36 0-2.27.88-.9.86-.9 2 0 .94.9 1.75.92.81 2.27.81 1.34 0 2.26-.81.92-.81.92-1.77Zm5.7-4.6v.57q.5-.48.9-.65.39-.2.9-.2.44 0 .86.23.44.2.86.64.52-.44 1.05-.64t1.1-.2q1.1 0 1.79.59.92.78.92 2.05v4.48q.63 0 .92.28.32.28.32.72 0 .44-.32.72-.3.28-1.01.28h-1.9v-6.31q0-.47-.18-.64-.16-.18-.5-.18-.34 0-.63.18-.36.25-.87.92v4.03q.62 0 .92.28.31.28.31.72 0 .44-.3.72-.3.28-1.02.28h-1.91v-6.31q0-.46-.17-.63-.17-.18-.52-.18-.34 0-.69.21-.34.22-.82.88v4.03q.62 0 .93.28.32.28.32.72 0 .44-.32.72-.3.28-1.03.28h-1.81q-.72 0-1.02-.28-.3-.28-.3-.72 0-.45.3-.72.3-.28.93-.28v-4.86q-.63 0-.93-.28-.3-.3-.3-.73 0-.44.3-.72.3-.29 1.02-.29h1.9Zm12.62 7.76v3.28h1.2q.72 0 1.03.28.31.28.31.74 0 .43-.31.72-.31.28-1.03.28h-3.55q-.72 0-1.03-.28-.31-.29-.31-.72 0-.46.31-.74.31-.28 1.03-.28h.35v-9.03h-.35q-.72 0-1.03-.28-.31-.28-.31-.73 0-.44.31-.72.31-.29 1.03-.29h2.35v.7q.7-.48 1.45-.71.75-.23 1.55-.23 2.04 0 3.48 1.39 1.45 1.39 1.45 3.18 0 1.99-1.7 3.27-1.42 1.08-3.22 1.08-.76 0-1.51-.22-.75-.24-1.5-.69Zm5.93-3.44q0-.42-.33-1.06-.32-.66-1.03-1.08-.68-.43-1.6-.43-1.5 0-2.38 1.12-.6.77-.6 1.48 0 .8.85 1.57.86.75 2.12.75 1.27 0 2.11-.75.86-.77.86-1.6Zm10.35 4.55v-.47q-.75.4-1.66.6-.9.2-1.64.2-1.63 0-2.63-.85-1-.86-1-1.89 0-1.26 1.29-2.34 1.28-1.08 3.54-1.08.9 0 2.1.19v-.47q0-.45-.4-.73-.37-.29-1.45-.29-.89 0-2.3.35-.54.12-.82.12-.4 0-.69-.28-.28-.3-.28-.73 0-.27.1-.44.1-.19.27-.3.18-.12.74-.28.75-.2 1.51-.31.77-.13 1.4-.13 1.87 0 2.9.82 1.03.8 1.03 2.18v4.13h.33q.73 0 1.03.28.31.27.31.72 0 .44-.3.72-.3.28-1.04.28h-2.34Zm0-3.58q-1.2-.23-2.2-.23-1.24 0-2.12.6-.54.37-.54.76 0 .28.26.45.49.33 1.35.33.72 0 1.62-.28.92-.28 1.63-.77v-.86Zm9.8-5.3v1.25q1.24-.9 1.96-1.2.74-.3 1.38-.3.97 0 1.89.72.62.49.62 1 0 .43-.3.72-.3.3-.71.3-.38 0-.78-.36-.41-.38-.74-.38-.42 0-1.25.54-.83.51-2.08 1.57v3.02h2.85q.72 0 1.03.28.31.27.31.72 0 .44-.31.72-.31.28-1.03.28h-6.05q-.72 0-1.03-.28-.3-.28-.3-.72 0-.45.3-.72.31-.28 1.03-.28h1.19v-4.86h-.72q-.72 0-1.03-.28-.3-.28-.3-.73 0-.44.3-.72.31-.29 1.03-.29h2.73Zm13.12-3.8v2.13h-2.38v-2.12h2.38Zm.28 3.8v6.88h2.4q.72 0 1.02.28.31.27.31.72 0 .44-.3.72-.3.28-1.04.28h-6.8q-.73 0-1.04-.28-.3-.28-.3-.72 0-.45.3-.72.3-.28 1.04-.28h2.4v-4.86h-1.62q-.7 0-1.01-.28-.31-.28-.31-.73 0-.44.3-.72.3-.29 1.02-.29h3.63Zm13.17 2.35q-.5-.3-1.03-.44-.53-.16-1.12-.16-1.16 0-1.85.38-.3.17-.3.36 0 .23.41.44.31.15 1.4.3 2 .28 2.77.56 1.02.36 1.58 1.07.56.7.56 1.5 0 1.07-.95 1.8-1.36 1.05-3.53 1.05-.86 0-1.61-.16-.73-.15-1.34-.45-.14.14-.32.2-.17.06-.34.06-.47 0-.75-.3t-.28-1.02v-.68q0-.73.28-1.03.28-.3.73-.3.36 0 .6.2.25.2.39.68.45.4 1.1.6.65.18 1.5.18 1.37 0 2.12-.42.37-.22.37-.45 0-.4-.53-.64-.51-.25-2.12-.44-2.43-.25-3.24-.97t-.81-1.77q0-1.06.92-1.78 1.22-.96 3.22-.96.69 0 1.33.12.64.13 1.23.4.17-.13.33-.2.17-.07.31-.07.4 0 .67.3.29.32.29 1.04v.48q0 .66-.16.9-.31.45-.84.45-.36 0-.64-.22-.27-.24-.35-.61Zm15.03 2.26q0 1.16-.64 2.24-.64 1.08-1.9 1.72-1.27.64-2.64.64-1.36 0-2.61-.63-1.25-.64-1.91-1.72-.66-1.09-.66-2.26 0-1.2.66-2.36.67-1.16 1.9-1.81 1.26-.68 2.62-.68 1.37 0 2.62.68 1.27.67 1.9 1.82.66 1.15.66 2.36Zm-2 0q0-.95-.7-1.76-.94-1.1-2.48-1.1-1.36 0-2.27.88-.9.86-.9 2 0 .94.9 1.75.92.81 2.27.81 1.34 0 2.26-.81.92-.81.92-1.77Zm6.77-4.6v.68q.55-.47 1.2-.7.67-.23 1.44-.23 1.78 0 2.81 1.09.83.87.83 2.31v3.72q.63 0 .92.28.31.27.31.72 0 .44-.3.72-.3.28-1.04.28h-1.8q-.71 0-1.03-.28-.31-.28-.31-.72 0-.45.3-.72.3-.28.95-.28V19.2q0-.66-.36-.95-.45-.4-1.37-.4-.7 0-1.22.27t-1.33 1.14v3.72q.78 0 1 .14.48.3.48.86 0 .44-.3.72-.32.28-1.04.28h-2.27q-.73 0-1.04-.28-.3-.28-.3-.72 0-.55.47-.86.23-.14 1-.14v-4.86q-.63 0-.94-.28-.3-.3-.3-.73 0-.44.3-.72.31-.29 1.05-.29h1.89Z"/><path fill="#fff" d="M17.12 13.65q.19-.25.4-.37.23-.14.48-.14.43 0 .71.3.29.3.29 1.02v1.7q0 .73-.29 1.04-.28.31-.71.31-.4 0-.64-.23-.25-.22-.36-.83-.07-.42-.29-.64-.39-.44-1.1-.7-.72-.27-1.44-.27-.9 0-1.66.39-.75.4-1.33 1.28-.57.88-.57 2.08v1.3q0 1.45 1.04 2.42 1.06.97 2.92.97 1.11 0 1.9-.32.43-.17.95-.68.31-.32.48-.4.17-.1.4-.1.4 0 .7.3.3.3.3.71 0 .4-.4.88-.6.68-1.53 1.08-1.27.53-2.78.53-1.78 0-3.2-.74-1.16-.6-1.97-1.86-.81-1.26-.81-2.75v-1.36q0-1.56.71-2.9.74-1.36 2.02-2.1 1.3-.73 2.75-.73.86 0 1.6.2.77.2 1.43.61Zm14.06 7.06q0 1.16-.64 2.24-.64 1.08-1.9 1.72-1.27.64-2.64.64-1.36 0-2.61-.63-1.25-.64-1.91-1.72-.66-1.09-.66-2.26 0-1.2.66-2.36.67-1.16 1.9-1.81 1.26-.68 2.62-.68 1.37 0 2.62.68 1.27.67 1.9 1.82.66 1.15.66 2.36Zm-2 0q0-.95-.7-1.76-.94-1.1-2.48-1.1-1.36 0-2.27.88-.9.86-.9 2 0 .94.9 1.75.92.81 2.27.81 1.34 0 2.26-.81.92-.81.92-1.77Zm5.7-4.6v.57q.5-.48.9-.65.39-.2.9-.2.44 0 .86.23.44.2.86.64.52-.44 1.05-.64t1.1-.2q1.1 0 1.79.59.92.78.92 2.05v4.48q.63 0 .92.28.32.28.32.72 0 .44-.32.72-.3.28-1.01.28h-1.9v-6.31q0-.47-.18-.64-.16-.18-.5-.18-.34 0-.63.18-.36.25-.87.92v4.03q.62 0 .92.28.31.28.31.72 0 .44-.3.72-.3.28-1.02.28h-1.91v-6.31q0-.46-.17-.63-.17-.18-.52-.18-.34 0-.69.21-.34.22-.82.88v4.03q.62 0 .93.28.32.28.32.72 0 .44-.32.72-.3.28-1.03.28h-1.81q-.72 0-1.02-.28-.3-.28-.3-.72 0-.45.3-.72.3-.28.93-.28v-4.86q-.63 0-.93-.28-.3-.3-.3-.73 0-.44.3-.72.3-.29 1.02-.29h1.9Zm12.62 7.76v3.28h1.2q.72 0 1.03.28.31.28.31.74 0 .43-.31.72-.31.28-1.03.28h-3.55q-.72 0-1.03-.28-.31-.29-.31-.72 0-.46.31-.74.31-.28 1.03-.28h.35v-9.03h-.35q-.72 0-1.03-.28-.31-.28-.31-.73 0-.44.31-.72.31-.29 1.03-.29h2.35v.7q.7-.48 1.45-.71.75-.23 1.55-.23 2.04 0 3.48 1.39 1.45 1.39 1.45 3.18 0 1.99-1.7 3.27-1.42 1.08-3.22 1.08-.76 0-1.51-.22-.75-.24-1.5-.69Zm5.93-3.44q0-.42-.33-1.06-.32-.66-1.03-1.08-.68-.43-1.6-.43-1.5 0-2.38 1.12-.6.77-.6 1.48 0 .8.85 1.57.86.75 2.12.75 1.27 0 2.11-.75.86-.77.86-1.6Zm8.14-4.32v1.25q1.25-.91 1.97-1.2.74-.3 1.38-.3.97 0 1.89.71.62.49.62 1 0 .43-.3.72-.3.3-.71.3-.38 0-.78-.36-.41-.38-.74-.38-.42 0-1.25.54-.83.51-2.08 1.57v3.02h2.85q.72 0 1.03.28.31.27.31.72 0 .44-.31.72-.31.28-1.03.28h-6.05q-.72 0-1.03-.28-.3-.28-.3-.72 0-.45.3-.72.31-.28 1.03-.28h1.19v-4.86h-.72q-.72 0-1.03-.28-.3-.28-.3-.73 0-.44.3-.72.31-.29 1.03-.29h2.73Zm17.44 5.45H70.8q.31.78 1.11 1.26.8.47 2.16.47 1.1 0 2.95-.47.77-.2 1.06-.2.4 0 .66.3.28.28.28.7 0 .4-.28.67-.4.36-1.9.69-1.52.33-2.93.33-2.39 0-3.84-1.36-1.44-1.36-1.44-3.34 0-2.11 1.56-3.43 1.57-1.32 3.6-1.32 1.22 0 2.23.43 1.02.42 1.52.9.7.74 1.17 1.8.31.74.31 1.72v.85Zm-2.22-2q-.47-.86-1.22-1.28-.73-.43-1.75-.43-1.01 0-1.76.43-.74.42-1.2 1.28h5.93Zm11.36-1.11q-.5-.3-1.03-.44-.53-.16-1.12-.16-1.16 0-1.85.38-.3.17-.3.36 0 .23.41.44.31.15 1.4.3 2 .28 2.77.56 1.02.36 1.58 1.07.56.7.56 1.5 0 1.07-.95 1.8-1.36 1.05-3.53 1.05-.86 0-1.61-.16-.73-.15-1.34-.45-.14.14-.32.2-.17.06-.34.06-.47 0-.75-.3t-.28-1.02v-.68q0-.73.28-1.03.28-.3.73-.3.36 0 .6.2.25.2.39.68.45.4 1.1.6.65.18 1.5.18 1.37 0 2.12-.42.37-.22.37-.45 0-.4-.53-.64-.51-.25-2.12-.44-2.43-.25-3.24-.97t-.81-1.77q0-1.06.92-1.78 1.22-.96 3.22-.96.69 0 1.33.12.64.13 1.23.4.17-.13.33-.2.17-.07.31-.07.4 0 .67.3.29.32.29 1.04v.48q0 .66-.16.9-.31.45-.84.45-.36 0-.64-.22-.27-.24-.35-.61Zm12 0q-.5-.3-1.03-.44-.53-.16-1.12-.16-1.16 0-1.85.38-.3.17-.3.36 0 .23.41.44.31.15 1.4.3 2 .28 2.77.56 1.02.36 1.58 1.07.56.7.56 1.5 0 1.07-.95 1.8-1.36 1.05-3.53 1.05-.86 0-1.61-.16-.73-.15-1.34-.45-.14.14-.32.2-.17.06-.34.06-.47 0-.75-.3t-.28-1.02v-.68q0-.73.28-1.03.28-.3.73-.3.36 0 .6.2.25.2.39.68.45.4 1.1.6.65.18 1.5.18 1.37 0 2.12-.42.37-.22.37-.45 0-.4-.53-.64-.51-.25-2.12-.44-2.43-.25-3.24-.97t-.81-1.77q0-1.06.92-1.78 1.22-.96 3.22-.96.69 0 1.33.12.64.13 1.23.4.17-.13.33-.2.17-.07.31-.07.4 0 .67.3.29.32.29 1.04v.48q0 .66-.16.9-.31.45-.84.45-.36 0-.64-.22-.27-.24-.35-.61Zm10.55-6.14v2.12h-2.38v-2.12h2.38Zm.28 3.8v6.87h2.4q.73 0 1.02.28.31.27.31.72 0 .44-.3.72-.3.28-1.04.28h-6.8q-.73 0-1.04-.28-.3-.28-.3-.72 0-.45.3-.72.3-.28 1.04-.28h2.4v-4.86h-1.61q-.7 0-1.02-.28-.31-.28-.31-.73 0-.44.3-.72.3-.29 1.03-.29h3.62Zm16.2 4.6q0 1.16-.64 2.24-.64 1.08-1.9 1.72-1.27.64-2.64.64-1.36 0-2.61-.63-1.25-.64-1.91-1.72-.66-1.09-.66-2.26 0-1.2.66-2.36.67-1.16 1.9-1.81 1.26-.68 2.62-.68 1.37 0 2.62.68 1.27.67 1.9 1.82.66 1.15.66 2.36Zm-2 0q0-.95-.7-1.76-.94-1.1-2.48-1.1-1.36 0-2.27.88-.9.86-.9 2 0 .94.9 1.75.92.81 2.27.81 1.34 0 2.26-.81.92-.81.92-1.77Zm6.77-4.6v.68q.55-.47 1.2-.7.67-.23 1.44-.23 1.78 0 2.81 1.09.83.87.83 2.31v3.72q.63 0 .92.28.31.27.31.72 0 .44-.3.72-.3.28-1.04.28h-1.8q-.71 0-1.03-.28-.31-.28-.31-.72 0-.45.3-.72.3-.28.95-.28V19.2q0-.66-.36-.95-.45-.4-1.37-.4-.7 0-1.22.27t-1.33 1.14v3.72q.78 0 1 .14.48.3.48.86 0 .44-.3.72-.32.28-1.04.28h-2.27q-.73 0-1.04-.28-.3-.28-.3-.72 0-.55.47-.86.23-.14 1-.14v-4.86q-.63 0-.94-.28-.3-.3-.3-.73 0-.44.3-.72.31-.29 1.05-.29h1.89Zm29.17-2.46q.19-.25.4-.37.23-.14.48-.14.43 0 .71.3.29.3.29 1.02v1.7q0 .73-.29 1.04-.28.31-.71.31-.4 0-.65-.23-.25-.22-.35-.83-.07-.42-.29-.64-.39-.44-1.1-.7-.72-.27-1.44-.27-.9 0-1.66.39-.75.4-1.33 1.28-.58.88-.58 2.08v1.3q0 1.45 1.05 2.42 1.06.97 2.92.97 1.11 0 1.9-.32.43-.17.95-.68.31-.32.48-.4.17-.1.4-.1.4 0 .7.3.3.3.3.71 0 .4-.4.88-.6.68-1.53 1.08-1.27.53-2.78.53-1.78 0-3.2-.74-1.16-.6-1.97-1.86-.81-1.26-.81-2.75v-1.36q0-1.56.71-2.9.74-1.36 2.02-2.1 1.3-.73 2.75-.73.86 0 1.6.2.77.2 1.43.61Zm14.06 7.06q0 1.16-.64 2.24-.64 1.08-1.9 1.72-1.27.64-2.64.64-1.36 0-2.61-.63-1.25-.64-1.91-1.72-.66-1.09-.66-2.26 0-1.2.66-2.36.67-1.16 1.9-1.81 1.26-.68 2.62-.68 1.37 0 2.62.68 1.27.67 1.9 1.82.66 1.15.66 2.36Zm-2 0q0-.95-.7-1.76-.94-1.1-2.48-1.1-1.36 0-2.27.88-.9.86-.9 2 0 .94.9 1.75.92.81 2.27.81 1.34 0 2.26-.81.92-.81.92-1.77Zm5.7-4.6v.57q.5-.48.9-.65.39-.2.9-.2.44 0 .86.23.44.2.86.64.52-.44 1.05-.64t1.1-.2q1.1 0 1.79.59.92.78.92 2.05v4.48q.63 0 .92.28.32.28.32.72 0 .44-.32.72-.3.28-1.01.28h-1.9v-6.31q0-.47-.18-.64-.16-.18-.5-.18-.34 0-.63.18-.36.25-.87.92v4.03q.62 0 .92.28.31.28.31.72 0 .44-.3.72-.3.28-1.02.28h-1.91v-6.31q0-.46-.17-.63-.17-.18-.52-.18-.34 0-.69.21-.34.22-.82.88v4.03q.62 0 .93.28.32.28.32.72 0 .44-.32.72-.3.28-1.03.28h-1.81q-.72 0-1.02-.28-.3-.28-.3-.72 0-.45.3-.72.3-.28.93-.28v-4.86q-.63 0-.93-.28-.3-.3-.3-.73 0-.44.3-.72.3-.29 1.02-.29h1.9Zm12.62 7.76v3.28h1.2q.72 0 1.03.28.31.28.31.74 0 .43-.31.72-.31.28-1.03.28h-3.55q-.72 0-1.03-.28-.31-.29-.31-.72 0-.46.31-.74.31-.28 1.03-.28h.35v-9.03h-.35q-.72 0-1.03-.28-.31-.28-.31-.73 0-.44.31-.72.31-.29 1.03-.29h2.35v.7q.7-.48 1.45-.71.75-.23 1.55-.23 2.04 0 3.48 1.39 1.45 1.39 1.45 3.18 0 1.99-1.7 3.27-1.42 1.08-3.22 1.08-.76 0-1.51-.22-.75-.24-1.5-.69Zm5.93-3.44q0-.42-.33-1.06-.32-.66-1.03-1.08-.68-.43-1.6-.43-1.5 0-2.38 1.12-.6.77-.6 1.48 0 .8.85 1.57.86.75 2.12.75 1.27 0 2.11-.75.86-.77.86-1.6Zm10.35 4.55v-.47q-.75.4-1.66.6-.9.2-1.64.2-1.63 0-2.63-.85-1-.86-1-1.89 0-1.26 1.29-2.34 1.28-1.08 3.54-1.08.9 0 2.1.19v-.47q0-.45-.4-.73-.37-.29-1.45-.29-.89 0-2.3.35-.54.12-.82.12-.4 0-.69-.28-.28-.3-.28-.73 0-.27.1-.44.1-.19.27-.3.18-.12.74-.28.75-.2 1.51-.31.77-.13 1.4-.13 1.87 0 2.9.82 1.03.8 1.03 2.18v4.13h.33q.73 0 1.03.28.31.27.31.72 0 .44-.3.72-.3.28-1.04.28h-2.34Zm0-3.58q-1.2-.23-2.2-.23-1.24 0-2.12.6-.54.37-.54.76 0 .28.26.45.49.33 1.35.33.72 0 1.62-.28.92-.28 1.63-.77v-.86Zm9.8-5.3v1.25q1.24-.9 1.96-1.2.74-.3 1.38-.3.97 0 1.89.72.62.49.62 1 0 .43-.3.72-.3.3-.71.3-.38 0-.78-.36-.41-.38-.74-.38-.42 0-1.25.54-.83.51-2.08 1.57v3.02h2.85q.72 0 1.03.28.31.27.31.72 0 .44-.31.72-.31.28-1.03.28h-6.05q-.72 0-1.03-.28-.3-.28-.3-.72 0-.45.3-.72.31-.28 1.03-.28h1.19v-4.86h-.72q-.72 0-1.03-.28-.3-.28-.3-.73 0-.44.3-.72.31-.29 1.03-.29h2.73Zm13.12-3.8v2.13h-2.38v-2.12h2.38Zm.28 3.8v6.88h2.4q.72 0 1.02.28.31.27.31.72 0 .44-.3.72-.3.28-1.04.28h-6.8q-.73 0-1.04-.28-.3-.28-.3-.72 0-.45.3-.72.3-.28 1.04-.28h2.4v-4.86h-1.62q-.7 0-1.01-.28-.31-.28-.31-.73 0-.44.3-.72.3-.29 1.02-.29h3.63Zm13.17 2.35q-.5-.3-1.03-.44-.53-.16-1.12-.16-1.16 0-1.85.38-.3.17-.3.36 0 .23.41.44.31.15 1.4.3 2 .28 2.77.56 1.02.36 1.58 1.07.56.7.56 1.5 0 1.07-.95 1.8-1.36 1.05-3.53 1.05-.86 0-1.61-.16-.73-.15-1.34-.45-.14.14-.32.2-.17.06-.34.06-.47 0-.75-.3t-.28-1.02v-.68q0-.73.28-1.03.28-.3.73-.3.36 0 .6.2.25.2.39.68.45.4 1.1.6.65.18 1.5.18 1.37 0 2.12-.42.37-.22.37-.45 0-.4-.53-.64-.51-.25-2.12-.44-2.43-.25-3.24-.97t-.81-1.77q0-1.06.92-1.78 1.22-.96 3.22-.96.69 0 1.33.12.64.13 1.23.4.17-.13.33-.2.17-.07.31-.07.4 0 .67.3.29.32.29 1.04v.48q0 .66-.16.9-.31.45-.84.45-.36 0-.64-.22-.27-.24-.35-.61Zm15.03 2.26q0 1.16-.64 2.24-.64 1.08-1.9 1.72-1.27.64-2.64.64-1.36 0-2.61-.63-1.25-.64-1.91-1.72-.66-1.09-.66-2.26 0-1.2.66-2.36.67-1.16 1.9-1.81 1.26-.68 2.62-.68 1.37 0 2.62.68 1.27.67 1.9 1.82.66 1.15.66 2.36Zm-2 0q0-.95-.7-1.76-.94-1.1-2.48-1.1-1.36 0-2.27.88-.9.86-.9 2 0 .94.9 1.75.92.81 2.27.81 1.34 0 2.26-.81.92-.81.92-1.77Zm6.77-4.6v.68q.55-.47 1.2-.7.67-.23 1.44-.23 1.78 0 2.81 1.09.83.87.83 2.31v3.72q.63 0 .92.28.31.27.31.72 0 .44-.3.72-.3.28-1.04.28h-1.8q-.71 0-1.03-.28-.31-.28-.31-.72 0-.45.3-.72.3-.28.95-.28V19.2q0-.66-.36-.95-.45-.4-1.37-.4-.7 0-1.22.27t-1.33 1.14v3.72q.78 0 1 .14.48.3.48.86 0 .44-.3.72-.32.28-1.04.28h-2.27q-.73 0-1.04-.28-.3-.28-.3-.72 0-.55.47-.86.23-.14 1-.14v-4.86q-.63 0-.94-.28-.3-.3-.3-.73 0-.44.3-.72.31-.29 1.05-.29h1.89Z"/></svg>